<?xml version="1.0" encoding="UTF-8"?>
<svg xmlns="http://www.w3.org/2000/svg" viewBox="0 0 800 4080">
  <g id="sky">
    <rect width="800" height="4080" fill="#3b3a97"/>
  </g>
  <g id="ground">
    <polygon points="-.2 2697.2 357.1 2965.7 476.8 2905.7 596.6 2939.2 800.2 2732.5 800 4699.1 0 4699.1 -.2 2697.2" fill="#123f3f"/>
  </g>
  <g id="moon">
    <g>
      <circle cx="598.2" cy="111.6" r="39" fill="#e7eb0a" opacity=".2"/>
      <path d="M609,97.3c3,8.7-1.6,18.2-10.2,21.4s-12.3.7-16.7-3.1c0,0,0,.2,0,.3,3.2,8.8,12.8,13.3,21.6,10.2s13.3-12.8,10.2-21.6-2.7-5.2-4.9-7.1Z" fill="#e7eb0a"/>
    </g>
  </g>
  <g id="trunk5">
    <g>
      <rect id="fond_bleu" data-name="fond bleu" x="411" y="-188.5" width="63.6" height="2157.4" transform="translate(869.9 1788.1) rotate(-179)" fill="#442c9a"/>
      <g id="tronc" opacity=".2">
        <rect id="fond_tronc" data-name="fond tronc" x="411" y="-188.5" width="63.6" height="2157.4" transform="translate(869.9 1788.1) rotate(-179)" fill="#fff"/>
        <g id="marques">
          <rect x="411.3" y="1928.1" width="45.1" height="9.8" transform="translate(833.8 3873.2) rotate(-179)" fill="#1d1d1b"/>
          <rect x="403.8" y="1892.7" width="21.4" height="8.3" transform="translate(795.8 3800.7) rotate(-179)" fill="#1d1d1b"/>
          <rect x="421.7" y="1854.6" width="30.2" height="5.9" transform="translate(841.1 3722.5) rotate(-179)" fill="#1d1d1b"/>
          <rect x="394.7" y="1820.6" width="54.9" height="4.7" transform="translate(812.3 3653) rotate(-179)" fill="#1d1d1b"/>
          <rect x="395.1" y="1791.8" width="18.5" height="7.7" transform="translate(777.4 3598.1) rotate(-179)" fill="#1d1d1b"/>
          <rect x="422.9" y="1772.8" width="22.7" height="5.3" transform="translate(837.5 3558.2) rotate(-179)" fill="#1d1d1b"/>
          <rect x="414.7" y="1737.3" width="45.1" height="5.9" transform="translate(843.9 3487.9) rotate(-179)" fill="#1d1d1b"/>
          <rect x="396.7" y="1701.8" width="21.1" height="7.7" transform="translate(784.7 3418.2) rotate(-179)" fill="#1d1d1b"/>
          <rect x="418.4" y="1671.5" width="33.7" height="5.3" transform="translate(841.2 3355.7) rotate(-179)" fill="#1d1d1b"/>
          <rect x="402.9" y="1643.9" width="26.7" height="4.7" transform="translate(803.6 3299.6) rotate(-179)" fill="#1d1d1b"/>
          <rect x="425.8" y="1619.5" width="36" height="4.7" transform="translate(859.2 3251.2) rotate(-179)" fill="#1d1d1b"/>
          <rect x="408.9" y="1610.8" width="27.4" height="3.6" transform="translate(817 3232.4) rotate(-179)" fill="#1d1d1b"/>
          <rect x="398.9" y="1578.8" width="45.6" height="4.7" transform="translate(815.7 3169.5) rotate(-179)" fill="#1d1d1b"/>
          <rect x="408.4" y="1563.3" width="15" height="4.1" transform="translate(804.5 3137.8) rotate(-179)" fill="#1d1d1b"/>
          <rect x="418" y="1544.2" width="45.2" height="3.6" transform="translate(854 3099.4) rotate(-179)" fill="#1d1d1b"/>
          <rect x="400.8" y="1465" width="38" height="9.5" transform="translate(813.9 2946.6) rotate(-179)" fill="#1d1d1b"/>
          <rect x="423" y="1503.9" width="32.1" height="4.7" transform="translate(851.7 3019.9) rotate(-179)" fill="#1d1d1b"/>
          <rect x="450.7" y="1484.1" width="13.5" height="3" transform="translate(888.9 2978.8) rotate(-179)" fill="#1d1d1b"/>
          <rect x="420.4" y="1434.6" width="44.6" height="4.7" transform="translate(860.3 2881.5) rotate(-179)" fill="#1d1d1b"/>
          <rect x="415.8" y="1410.2" width="36.1" height="4.1" transform="translate(843.1 2831.8) rotate(-179)" fill="#1d1d1b"/>
          <rect x="425" y="1389.6" width="40.8" height="7.1" transform="translate(866.4 2793.9) rotate(-179)" fill="#1d1d1b"/>
          <rect x="402.5" y="1374.2" width="10.6" height="5.9" transform="translate(791.4 2761.2) rotate(-179)" fill="#1d1d1b"/>
          <rect x="435.4" y="1716.1" width="24.8" height="1.2" transform="translate(865.5 3441) rotate(-179)" fill="#1d1d1b"/>
          <rect x="392.3" y="1956" width="27.4" height="3" transform="translate(777.8 3921.7) rotate(-179)" fill="#1d1d1b"/>
          <rect x="417" y="1343.2" width="31.6" height="6.5" transform="translate(842 2700.3) rotate(-179)" fill="#1d1d1b"/>
          <rect x="428" y="1302.6" width="39.3" height="7.7" transform="translate(872.4 2620.5) rotate(-179)" fill="#1d1d1b"/>
          <rect x="404.3" y="1266" width="38" height="5.3" transform="translate(824.5 2544.5) rotate(-179)" fill="#1d1d1b"/>
          <rect x="429.1" y="1240.9" width="30.6" height="4.7" transform="translate(867 2494.1) rotate(-179)" fill="#1d1d1b"/>
          <rect x="405.1" y="1221" width="38" height="4.7" transform="translate(826.8 2453.9) rotate(-179)" fill="#1d1d1b"/>
          <rect x="414.9" y="1189.9" width="54.3" height="7.7" transform="translate(863.3 2395) rotate(-179)" fill="#1d1d1b"/>
          <rect x="415.3" y="1167.2" width="31.8" height="6.5" transform="translate(841.9 2348.3) rotate(-179)" fill="#1d1d1b"/>
          <rect x="431.3" y="1112.4" width="39.3" height="4.7" transform="translate(882.4 2237.3) rotate(-179)" fill="#1d1d1b"/>
          <rect x="406.6" y="1138.7" width="41" height="3.6" transform="translate(834.2 2288.2) rotate(-179)" fill="#1d1d1b"/>
          <rect x="412.7" y="1088.5" width="44.8" height="4.7" transform="translate(851.2 2189.1) rotate(-179)" fill="#1d1d1b"/>
          <rect x="437.7" y="1063.3" width="33.8" height="4.7" transform="translate(890.5 2139.2) rotate(-179)" fill="#1d1d1b"/>
          <rect x="408.7" y="1017.8" width="31.8" height="8.3" transform="translate(831.2 2051.1) rotate(-179)" fill="#1d1d1b"/>
          <rect x="425.2" y="984.4" width="47.7" height="5.9" transform="translate(880.7 1982.5) rotate(-179)" fill="#1d1d1b"/>
          <rect x="458.5" y="1036.8" width="13.5" height="6.5" transform="translate(912.2 2088.2) rotate(-179)" fill="#1d1d1b"/>
          <rect x="409.8" y="950.9" width="39.8" height="5.3" transform="translate(842.7 1914.5) rotate(-179)" fill="#1d1d1b"/>
          <rect x="426.2" y="923.4" width="47.7" height="4.1" transform="translate(884 1858.7) rotate(-179)" fill="#1d1d1b"/>
          <rect x="410.7" y="900.6" width="46.7" height="4.7" transform="translate(852.3 1813.4) rotate(-179)" fill="#1d1d1b"/>
          <rect x="423.8" y="849.7" width="28.8" height="5.3" transform="translate(861.5 1712.3) rotate(-179)" fill="#1d1d1b"/>
          <rect x="451.6" y="834.8" width="23.9" height="4.7" transform="translate(912.4 1682.3) rotate(-179)" fill="#1d1d1b"/>
          <rect x="412.3" y="811.6" width="31.8" height="4.1" transform="translate(842.1 1634.8) rotate(-179)" fill="#1d1d1b"/>
          <rect x="425.1" y="777.4" width="17.6" height="4.7" transform="translate(854.1 1566.9) rotate(-179)" fill="#1d1d1b"/>
          <rect x="440" y="751.1" width="37" height="5.3" transform="translate(903.7 1515.5) rotate(-179)" fill="#1d1d1b"/>
          <rect x="414" y="715.1" width="37.1" height="5.3" transform="translate(852.4 1443) rotate(-179)" fill="#1d1d1b"/>
          <rect x="430.5" y="677.3" width="47.7" height="6.2" transform="translate(896.8 1368.7) rotate(-179)" fill="#1d1d1b"/>
          <rect x="446" y="700.1" width="18.3" height="4.7" transform="translate(898.1 1412.8) rotate(-179)" fill="#1d1d1b"/>
          <rect x="415.1" y="650.7" width="46.7" height="6.5" transform="translate(865.4 1315.4) rotate(-179)" fill="#1d1d1b"/>
          <rect x="434.4" y="605.8" width="22.4" height="5.3" transform="translate(880.6 1224.5) rotate(-179)" fill="#1d1d1b"/>
          <rect x="452.7" y="619.1" width="26.5" height="5.3" transform="translate(921.1 1251.7) rotate(-179)" fill="#1d1d1b"/>
          <rect x="416.5" y="570.1" width="51.7" height="5.9" transform="translate(874.6 1153.8) rotate(-179)" fill="#1d1d1b"/>
          <rect x="446.9" y="531.4" width="26.9" height="4.7" transform="translate(911.4 1075.4) rotate(-179)" fill="#1d1d1b"/>
          <rect x="446.6" y="552.7" width="33.8" height="4.1" transform="translate(917.3 1117.6) rotate(-179)" fill="#1d1d1b"/>
          <rect x="417.7" y="502" width="43.2" height="3.6" transform="translate(869.7 1015.1) rotate(-179)" fill="#1d1d1b"/>
          <rect x="422.3" y="462.2" width="21.9" height="6.5" transform="translate(858.3 938.3) rotate(-179)" fill="#1d1d1b"/>
          <rect x="444" y="473.9" width="37.8" height="5.9" transform="translate(917.4 961.8) rotate(-179)" fill="#1d1d1b"/>
          <rect x="418.9" y="429.6" width="37.1" height="5.3" transform="translate(867.4 872.2) rotate(-179)" fill="#1d1d1b"/>
          <rect x="437.9" y="405.7" width="38.1" height="4.1" transform="translate(906.8 823.4) rotate(-179)" fill="#1d1d1b"/>
          <rect x="442" y="349.4" width="25.1" height="3.6" transform="translate(902.8 710.1) rotate(-179)" fill="#1d1d1b"/>
          <rect x="420" y="371.6" width="39.8" height="4.1" transform="translate(873.1 755) rotate(-179)" fill="#1d1d1b"/>
          <rect x="425" y="307.9" width="59.7" height="5.9" transform="translate(904.2 629.6) rotate(-179)" fill="#1d1d1b"/>
          <rect x="421.7" y="269.7" width="39.8" height="4.1" transform="translate(878.4 551.3) rotate(-179)" fill="#1d1d1b"/>
          <rect x="428.3" y="253.7" width="25.5" height="4.1" transform="translate(877.6 519.3) rotate(-179)" fill="#1d1d1b"/>
          <rect x="448.1" y="237.6" width="37.8" height="4.7" transform="translate(929.8 488) rotate(-179)" fill="#1d1d1b"/>
          <rect x="422.9" y="205.3" width="56.6" height="4.7" transform="translate(898.7 423.2) rotate(-179)" fill="#1d1d1b"/>
          <rect x="432.5" y="182.7" width="22.6" height="6.5" transform="translate(884.2 379.6) rotate(-179)" fill="#1d1d1b"/>
          <rect x="445.5" y="145.1" width="42" height="11.3" transform="translate(930.2 309.7) rotate(-179)" fill="#1d1d1b"/>
          <rect x="424.6" y="105.7" width="39.8" height="6.5" transform="translate(887 225.6) rotate(-179)" fill="#1d1d1b"/>
          <rect x="438.3" y="89.3" width="33.3" height="4.1" transform="translate(908.2 190.6) rotate(-179)" fill="#1d1d1b"/>
          <rect x="457.4" y="49.9" width="31.8" height="7.7" transform="translate(945.5 115.7) rotate(-179)" fill="#1d1d1b"/>
          <rect x="426.1" y="19.9" width="56.6" height="6.5" transform="translate(908.3 54.3) rotate(-179)" fill="#1d1d1b"/>
        </g>
      </g>
    </g>
    <g>
      <rect id="fond_bleu-2" data-name="fond bleu" x="373.3" y="1968.6" width="63.6" height="2157.4" transform="translate(756.9 6101.2) rotate(-179)" fill="#442c9a"/>
      <g id="tronc-2" data-name="tronc" opacity=".2">
        <rect id="fond_tronc-2" data-name="fond tronc" x="373.3" y="1968.6" width="63.6" height="2157.4" transform="translate(756.9 6101.2) rotate(-179)" fill="#fff"/>
        <g id="marques-2" data-name="marques">
          <rect x="366.2" y="4049.8" width="21.4" height="8.3" transform="translate(682.9 8113.8) rotate(-179)" fill="#1d1d1b"/>
          <rect x="384" y="4011.7" width="30.2" height="5.9" transform="translate(728.1 8035.6) rotate(-179)" fill="#1d1d1b"/>
          <rect x="357" y="3977.6" width="54.9" height="4.7" transform="translate(699.4 7966.1) rotate(-179)" fill="#1d1d1b"/>
          <rect x="357.5" y="3948.9" width="18.5" height="7.7" transform="translate(664.5 7911.3) rotate(-179)" fill="#1d1d1b"/>
          <rect x="385.3" y="3929.9" width="22.7" height="5.3" transform="translate(724.5 7871.4) rotate(-179)" fill="#1d1d1b"/>
          <rect x="377" y="3894.4" width="45.1" height="5.9" transform="translate(731 7801) rotate(-179)" fill="#1d1d1b"/>
          <rect x="359.1" y="3858.9" width="21.1" height="7.7" transform="translate(671.8 7731.3) rotate(-179)" fill="#1d1d1b"/>
          <rect x="380.7" y="3828.5" width="33.7" height="5.3" transform="translate(728.3 7668.8) rotate(-179)" fill="#1d1d1b"/>
          <rect x="365.2" y="3801" width="26.7" height="4.7" transform="translate(690.7 7612.7) rotate(-179)" fill="#1d1d1b"/>
          <rect x="388.1" y="3776.6" width="36" height="4.7" transform="translate(746.3 7564.4) rotate(-179)" fill="#1d1d1b"/>
          <rect x="371.2" y="3767.9" width="27.4" height="3.6" transform="translate(704.1 7545.5) rotate(-179)" fill="#1d1d1b"/>
          <rect x="361.2" y="3735.9" width="45.6" height="4.7" transform="translate(702.8 7482.6) rotate(-179)" fill="#1d1d1b"/>
          <rect x="370.8" y="3720.4" width="15" height="4.1" transform="translate(691.5 7450.9) rotate(-179)" fill="#1d1d1b"/>
          <rect x="380.3" y="3701.3" width="45.2" height="3.6" transform="translate(741.1 7412.5) rotate(-179)" fill="#1d1d1b"/>
          <rect x="363.2" y="3622.1" width="38" height="9.5" transform="translate(701 7259.8) rotate(-179)" fill="#1d1d1b"/>
          <rect x="385.3" y="3660.9" width="32.1" height="4.7" transform="translate(738.8 7333.1) rotate(-179)" fill="#1d1d1b"/>
          <rect x="413" y="3641.1" width="13.5" height="3" transform="translate(775.9 7292) rotate(-179)" fill="#1d1d1b"/>
          <rect x="382.7" y="3591.7" width="44.6" height="4.7" transform="translate(747.3 7194.6) rotate(-179)" fill="#1d1d1b"/>
          <rect x="378.2" y="3567.2" width="36.1" height="4.1" transform="translate(730.1 7145) rotate(-179)" fill="#1d1d1b"/>
          <rect x="387.3" y="3546.7" width="40.8" height="7.1" transform="translate(753.4 7107.1) rotate(-179)" fill="#1d1d1b"/>
          <rect x="364.8" y="3531.2" width="10.6" height="5.9" transform="translate(678.4 7074.3) rotate(-179)" fill="#1d1d1b"/>
          <rect x="397.7" y="3873.2" width="24.8" height="1.2" transform="translate(752.5 7754.2) rotate(-179)" fill="#1d1d1b"/>
          <rect x="379.3" y="3500.3" width="31.6" height="6.5" transform="translate(729 7013.4) rotate(-179)" fill="#1d1d1b"/>
          <rect x="390.3" y="3459.6" width="39.3" height="7.7" transform="translate(759.4 6933.6) rotate(-179)" fill="#1d1d1b"/>
          <rect x="366.7" y="3423.1" width="38" height="5.3" transform="translate(711.5 6857.7) rotate(-179)" fill="#1d1d1b"/>
          <rect x="391.4" y="3398" width="30.6" height="4.7" transform="translate(754 6807.2) rotate(-179)" fill="#1d1d1b"/>
          <rect x="367.5" y="3378" width="38" height="4.7" transform="translate(713.9 6767.1) rotate(-179)" fill="#1d1d1b"/>
          <rect x="377.3" y="3346.9" width="54.3" height="7.7" transform="translate(750.3 6708.2) rotate(-179)" fill="#1d1d1b"/>
          <rect x="377.7" y="3324.3" width="31.8" height="6.5" transform="translate(729 6661.4) rotate(-179)" fill="#1d1d1b"/>
          <rect x="393.7" y="3269.5" width="39.3" height="4.7" transform="translate(769.5 6550.4) rotate(-179)" fill="#1d1d1b"/>
          <rect x="368.9" y="3295.7" width="41" height="3.6" transform="translate(721.3 6601.3) rotate(-179)" fill="#1d1d1b"/>
          <rect x="375.1" y="3245.5" width="44.8" height="4.7" transform="translate(738.2 6502.2) rotate(-179)" fill="#1d1d1b"/>
          <rect x="400" y="3220.4" width="33.8" height="4.7" transform="translate(777.6 6452.3) rotate(-179)" fill="#1d1d1b"/>
          <rect x="371" y="3174.8" width="31.8" height="8.3" transform="translate(718.2 6364.2) rotate(-179)" fill="#1d1d1b"/>
          <rect x="387.5" y="3141.5" width="47.7" height="5.9" transform="translate(767.8 6295.6) rotate(-179)" fill="#1d1d1b"/>
          <rect x="420.8" y="3193.9" width="13.5" height="6.5" transform="translate(799.2 6401.3) rotate(-179)" fill="#1d1d1b"/>
          <rect x="372.2" y="3108" width="39.8" height="5.3" transform="translate(729.8 6227.6) rotate(-179)" fill="#1d1d1b"/>
          <rect x="388.6" y="3080.5" width="47.7" height="4.1" transform="translate(771 6171.8) rotate(-179)" fill="#1d1d1b"/>
          <rect x="373.1" y="3057.7" width="46.7" height="4.7" transform="translate(739.4 6126.5) rotate(-179)" fill="#1d1d1b"/>
          <rect x="386.2" y="3006.8" width="28.8" height="5.3" transform="translate(748.6 6025.5) rotate(-179)" fill="#1d1d1b"/>
          <rect x="414" y="2991.8" width="23.9" height="4.7" transform="translate(799.5 5995.4) rotate(-179)" fill="#1d1d1b"/>
          <rect x="374.6" y="2968.7" width="31.8" height="4.1" transform="translate(729.1 5947.9) rotate(-179)" fill="#1d1d1b"/>
          <rect x="387.4" y="2934.4" width="17.6" height="4.7" transform="translate(741.1 5880.1) rotate(-179)" fill="#1d1d1b"/>
          <rect x="402.3" y="2908.2" width="37" height="5.3" transform="translate(790.7 5828.6) rotate(-179)" fill="#1d1d1b"/>
          <rect x="376.3" y="2872.2" width="37.1" height="5.3" transform="translate(739.5 5756.2) rotate(-179)" fill="#1d1d1b"/>
          <rect x="392.9" y="2834.4" width="47.7" height="6.2" transform="translate(783.8 5681.8) rotate(-179)" fill="#1d1d1b"/>
          <rect x="408.4" y="2857.2" width="18.3" height="4.7" transform="translate(785.1 5726) rotate(-179)" fill="#1d1d1b"/>
          <rect x="377.4" y="2807.7" width="46.7" height="6.5" transform="translate(752.4 5628.5) rotate(-179)" fill="#1d1d1b"/>
          <rect x="396.8" y="2762.8" width="22.4" height="5.3" transform="translate(767.6 5537.7) rotate(-179)" fill="#1d1d1b"/>
          <rect x="415.1" y="2776.2" width="26.5" height="5.3" transform="translate(808.1 5564.8) rotate(-179)" fill="#1d1d1b"/>
          <rect x="378.8" y="2727.2" width="51.7" height="5.9" transform="translate(761.6 5467) rotate(-179)" fill="#1d1d1b"/>
          <rect x="409.3" y="2688.4" width="26.9" height="4.7" transform="translate(798.4 5388.5) rotate(-179)" fill="#1d1d1b"/>
          <rect x="408.9" y="2709.8" width="33.8" height="4.1" transform="translate(804.3 5430.8) rotate(-179)" fill="#1d1d1b"/>
          <rect x="380" y="2659" width="43.2" height="3.6" transform="translate(756.8 5328.2) rotate(-179)" fill="#1d1d1b"/>
          <rect x="384.6" y="2619.2" width="21.9" height="6.5" transform="translate(745.3 5251.4) rotate(-179)" fill="#1d1d1b"/>
          <rect x="406.4" y="2631" width="37.8" height="5.9" transform="translate(804.4 5274.9) rotate(-179)" fill="#1d1d1b"/>
          <rect x="381.3" y="2586.7" width="37.1" height="5.3" transform="translate(754.4 5185.3) rotate(-179)" fill="#1d1d1b"/>
          <rect x="400.3" y="2562.7" width="38.1" height="4.1" transform="translate(793.8 5136.6) rotate(-179)" fill="#1d1d1b"/>
          <rect x="404.3" y="2506.4" width="25.1" height="3.6" transform="translate(789.9 5023.3) rotate(-179)" fill="#1d1d1b"/>
          <rect x="382.3" y="2528.7" width="39.8" height="4.1" transform="translate(760.1 5068.1) rotate(-179)" fill="#1d1d1b"/>
          <rect x="387.3" y="2464.9" width="59.7" height="5.9" transform="translate(791.2 4942.7) rotate(-179)" fill="#1d1d1b"/>
          <rect x="384.1" y="2426.8" width="39.8" height="4.1" transform="translate(765.5 4864.4) rotate(-179)" fill="#1d1d1b"/>
          <rect x="390.7" y="2410.8" width="25.5" height="4.1" transform="translate(764.6 4832.4) rotate(-179)" fill="#1d1d1b"/>
          <rect x="410.5" y="2394.6" width="37.8" height="4.7" transform="translate(816.8 4801.2) rotate(-179)" fill="#1d1d1b"/>
          <rect x="385.2" y="2362.4" width="56.6" height="4.7" transform="translate(785.7 4736.3) rotate(-179)" fill="#1d1d1b"/>
          <rect x="394.8" y="2339.7" width="22.6" height="6.5" transform="translate(771.3 4692.7) rotate(-179)" fill="#1d1d1b"/>
          <rect x="407.8" y="2302.2" width="42" height="11.3" transform="translate(817.3 4622.8) rotate(-179)" fill="#1d1d1b"/>
          <rect x="386.9" y="2262.7" width="39.8" height="6.5" transform="translate(774 4538.7) rotate(-179)" fill="#1d1d1b"/>
          <rect x="400.6" y="2246.3" width="33.3" height="4.1" transform="translate(795.3 4503.7) rotate(-179)" fill="#1d1d1b"/>
          <rect x="419.7" y="2206.9" width="31.8" height="7.7" transform="translate(832.6 4428.8) rotate(-179)" fill="#1d1d1b"/>
          <rect x="388.4" y="2177" width="56.6" height="6.5" transform="translate(795.4 4367.4) rotate(-179)" fill="#1d1d1b"/>
          <rect x="408" y="2147.4" width="23.6" height="8.3" transform="translate(801.9 4310.1) rotate(-179)" fill="#1d1d1b"/>
          <rect x="423.1" y="2124.6" width="29.8" height="10.1" transform="translate(838.8 4266.6) rotate(-179)" fill="#1d1d1b"/>
          <rect x="390.2" y="2076.1" width="39.8" height="7.1" transform="translate(783.8 4166.2) rotate(-179)" fill="#1d1d1b"/>
          <rect x="400.1" y="2039.5" width="33.4" height="4.1" transform="translate(797.9 4090.1) rotate(-179)" fill="#1d1d1b"/>
          <rect x="424.3" y="2057.1" width="29.8" height="5.9" transform="translate(842.4 4127.5) rotate(-179)" fill="#1d1d1b"/>
          <rect x="391.5" y="1999.2" width="44.7" height="5.3" transform="translate(792.8 4010.6) rotate(-179)" fill="#1d1d1b"/>
          <rect x="420.3" y="1975.8" width="28.3" height="5.9" transform="translate(834.3 3964.9) rotate(-179)" fill="#1d1d1b"/>
        </g>
      </g>
    </g>
  </g>
  <g id="trunk4">
    <g>
      <rect id="fond_bleu-3" data-name="fond bleu" x="-38.8" y="-1194.2" width="78.5" height="2662.7" transform="translate(5.6 274.3) rotate(178)" fill="#442c9a"/>
      <g id="tronc-3" data-name="tronc" opacity=".2">
        <rect id="fond_tronc-3" data-name="fond tronc" x="-38.8" y="-1194.2" width="78.5" height="2662.7" transform="translate(5.6 274.3) rotate(178)" fill="#fff"/>
        <g id="marques-3" data-name="marques">
          <rect x="28.9" y="1416.9" width="55.6" height="12.1" transform="translate(163.1 2843) rotate(178)" fill="#1d1d1b"/>
          <rect x="17.4" y="1374.6" width="26.4" height="10.2" transform="translate(109.3 2757.5) rotate(178)" fill="#1d1d1b"/>
          <rect x="36.9" y="1326.2" width="37.3" height="7.3" transform="translate(157.4 2656.9) rotate(178)" fill="#1d1d1b"/>
          <rect x="1.3" y="1285.2" width="67.7" height="5.8" transform="translate(115.3 2574.2) rotate(178)" fill="#1d1d1b"/>
          <rect x=".2" y="1250.9" width="22.9" height="9.5" transform="translate(67.1 2510.1) rotate(178)" fill="#1d1d1b"/>
          <rect x="33.1" y="1225.5" width="28" height="6.6" transform="translate(137.1 2455.2) rotate(178)" fill="#1d1d1b"/>
          <rect x="20.6" y="1181.6" width="55.6" height="7.3" transform="translate(138.2 2368) rotate(178)" fill="#1d1d1b"/>
          <rect x="-3.7" y="1139.8" width="26.1" height="9.5" transform="translate(58.6 2288) rotate(178)" fill="#1d1d1b"/>
          <rect x="21" y="1100.6" width="41.6" height="6.6" transform="translate(122.1 2205.6) rotate(178)" fill="#1d1d1b"/>
          <rect x="0" y="1067.8" width="33" height="5.8" transform="translate(70.4 2140.2) rotate(178)" fill="#1d1d1b"/>
          <rect x="26.7" y="1035.9" width="44.4" height="5.8" transform="translate(134.1 2075.4) rotate(178)" fill="#1d1d1b"/>
          <rect x="5.3" y="1026.6" width="33.9" height="4.4" transform="translate(80.4 2056.2) rotate(178)" fill="#1d1d1b"/>
          <rect x="-9.1" y="987.2" width="56.3" height="5.8" transform="translate(72.7 1979) rotate(178)" fill="#1d1d1b"/>
          <rect x="1.7" y="968.5" width="18.5" height="5.1" transform="translate(55.8 1941.1) rotate(178)" fill="#1d1d1b"/>
          <rect x="12.2" y="943.3" width="55.7" height="4.4" transform="translate(113 1889.1) rotate(178)" fill="#1d1d1b"/>
          <rect x="-13.9" y="847.1" width="46.9" height="11.7" transform="translate(48.9 1705) rotate(178)" fill="#1d1d1b"/>
          <rect x="15.8" y="893.7" width="39.6" height="5.8" transform="translate(102.5 1791.5) rotate(178)" fill="#1d1d1b"/>
          <rect x="48.6" y="868.1" width="16.6" height="3.7" transform="translate(144.2 1737.4) rotate(178)" fill="#1d1d1b"/>
          <rect x="8.1" y="808.1" width="55.1" height="5.8" transform="translate(99.6 1620.4) rotate(178)" fill="#1d1d1b"/>
          <rect x=".9" y="778.6" width="44.6" height="5.1" transform="translate(73.7 1561) rotate(178)" fill="#1d1d1b"/>
          <rect x="11" y="752.5" width="50.4" height="8.8" transform="translate(98.7 1512.1) rotate(178)" fill="#1d1d1b"/>
          <rect x="44.7" y="1154.8" width="30.6" height="1.5" transform="translate(160.2 2308.3) rotate(178)" fill="#1d1d1b"/>
          <rect x="7.2" y="1453.1" width="33.9" height="3.7" transform="translate(98.9 2908.1) rotate(178)" fill="#1d1d1b"/>
          <rect x="-1.9" y="696.1" width="39" height="8" transform="translate(59.6 1399.2) rotate(178)" fill="#1d1d1b"/>
          <rect x="9" y="645.1" width="48.5" height="9.5" transform="translate(89.3 1298.1) rotate(178)" fill="#1d1d1b"/>
          <rect x="-22.5" y="601.6" width="46.9" height="6.6" transform="translate(23 1209.3) rotate(178)" fill="#1d1d1b"/>
          <rect x="6.3" y="569.3" width="37.8" height="5.8" transform="translate(70.3 1143.1) rotate(178)" fill="#1d1d1b"/>
          <rect x="-24.5" y="546" width="46.9" height="5.8" transform="translate(17.1 1097.6) rotate(178)" fill="#1d1d1b"/>
          <rect x="-14.3" y="506.5" width="67.1" height="9.5" transform="translate(56.2 1021.6) rotate(178)" fill="#1d1d1b"/>
          <rect x="-15.3" y="479.3" width="39.2" height="8" transform="translate(25.4 966.1) rotate(178)" fill="#1d1d1b"/>
          <rect x=".8" y="410.5" width="48.5" height="5.8" transform="translate(64.5 825.7) rotate(178)" fill="#1d1d1b"/>
          <rect x="-28" y="444.4" width="50.6" height="4.4" transform="translate(10.1 893) rotate(178)" fill="#1d1d1b"/>
          <rect x="-23.7" y="382" width="55.3" height="5.8" transform="translate(21.4 769.4) rotate(178)" fill="#1d1d1b"/>
          <rect x="5.5" y="349.7" width="41.7" height="5.8" transform="translate(65 704.2) rotate(178)" fill="#1d1d1b"/>
          <rect x="-33.1" y="295.5" width="39.3" height="10.2" transform="translate(-16.5 601.6) rotate(178)" fill="#1d1d1b"/>
          <rect x="-15" y="252.8" width="58.9" height="7.3" transform="translate(37.7 512.4) rotate(178)" fill="#1d1d1b"/>
          <rect x="29.4" y="316.4" width="16.6" height="8" transform="translate(86.7 639.4) rotate(178)" fill="#1d1d1b"/>
          <rect x="-36.1" y="212.8" width="49.1" height="6.6" transform="translate(-15.6 432.4) rotate(178)" fill="#1d1d1b"/>
          <rect x="-17.7" y="177.6" width="58.9" height="5.1" transform="translate(29.7 359.8) rotate(178)" fill="#1d1d1b"/>
          <rect x="-38.3" y="150.5" width="57.6" height="5.8" transform="translate(-13.6 307.1) rotate(178)" fill="#1d1d1b"/>
          <rect x="-25.4" y="87.5" width="35.6" height="6.6" transform="translate(-12 181.9) rotate(178)" fill="#1d1d1b"/>
          <rect x="7.9" y="67.5" width="29.4" height="5.8" transform="translate(47.7 139.9) rotate(178)" fill="#1d1d1b"/>
        </g>
      </g>
    </g>
    <g>
      <rect id="fond_bleu-4" data-name="fond bleu" x="54.1" y="1466.9" width="78.5" height="2662.7" transform="translate(284.3 5591.5) rotate(178)" fill="#442c9a"/>
      <g id="tronc-4" data-name="tronc" opacity=".2">
        <rect id="fond_tronc-4" data-name="fond tronc" x="54.1" y="1466.9" width="78.5" height="2662.7" transform="translate(284.3 5591.5) rotate(178)" fill="#fff"/>
        <g id="marques-4" data-name="marques">
          <rect x="121.9" y="4078" width="55.6" height="12.1" transform="translate(441.8 8160.3) rotate(178)" fill="#1d1d1b"/>
          <rect x="110.3" y="4035.7" width="26.4" height="10.2" transform="translate(388 8074.8) rotate(178)" fill="#1d1d1b"/>
          <rect x="129.8" y="3987.2" width="37.3" height="7.3" transform="translate(436.1 7974.2) rotate(178)" fill="#1d1d1b"/>
          <rect x="94.3" y="3946.2" width="67.7" height="5.8" transform="translate(394 7891.5) rotate(178)" fill="#1d1d1b"/>
          <rect x="93.1" y="3911.9" width="22.9" height="9.5" transform="translate(345.7 7827.4) rotate(178)" fill="#1d1d1b"/>
          <rect x="126.1" y="3886.6" width="28" height="6.6" transform="translate(415.8 7772.5) rotate(178)" fill="#1d1d1b"/>
          <rect x="113.6" y="3842.6" width="55.6" height="7.3" transform="translate(416.9 7685.3) rotate(178)" fill="#1d1d1b"/>
          <rect x="89.2" y="3800.8" width="26.1" height="9.5" transform="translate(337.3 7605.3) rotate(178)" fill="#1d1d1b"/>
          <rect x="113.9" y="3761.6" width="41.6" height="6.6" transform="translate(400.8 7522.9) rotate(178)" fill="#1d1d1b"/>
          <rect x="93" y="3728.9" width="33" height="5.8" transform="translate(349.1 7457.5) rotate(178)" fill="#1d1d1b"/>
          <rect x="119.7" y="3697" width="44.4" height="5.8" transform="translate(412.8 7392.7) rotate(178)" fill="#1d1d1b"/>
          <rect x="98.2" y="3687.7" width="33.9" height="4.4" transform="translate(359 7373.5) rotate(178)" fill="#1d1d1b"/>
          <rect x="83.9" y="3648.3" width="56.3" height="5.8" transform="translate(351.4 7296.3) rotate(178)" fill="#1d1d1b"/>
          <rect x="94.6" y="3629.6" width="18.5" height="5.1" transform="translate(334.5 7258.4) rotate(178)" fill="#1d1d1b"/>
          <rect x="105.1" y="3604.4" width="55.7" height="4.4" transform="translate(391.7 7206.4) rotate(178)" fill="#1d1d1b"/>
          <rect x="79.1" y="3508.2" width="46.9" height="11.7" transform="translate(327.6 7022.3) rotate(178)" fill="#1d1d1b"/>
          <rect x="108.8" y="3554.8" width="39.6" height="5.8" transform="translate(381.2 7108.8) rotate(178)" fill="#1d1d1b"/>
          <rect x="141.6" y="3529.2" width="16.6" height="3.7" transform="translate(422.9 7054.7) rotate(178)" fill="#1d1d1b"/>
          <rect x="101.1" y="3469.2" width="55.1" height="5.8" transform="translate(378.3 6937.7) rotate(178)" fill="#1d1d1b"/>
          <rect x="93.8" y="3439.6" width="44.6" height="5.1" transform="translate(352.3 6878.3) rotate(178)" fill="#1d1d1b"/>
          <rect x="103.9" y="3413.6" width="50.4" height="8.8" transform="translate(377.3 6829.4) rotate(178)" fill="#1d1d1b"/>
          <rect x="75.1" y="3397" width="13" height="7.3" transform="translate(281.8 6796.3) rotate(178)" fill="#1d1d1b"/>
          <rect x="137.6" y="3815.9" width="30.6" height="1.5" transform="translate(438.8 7625.6) rotate(178)" fill="#1d1d1b"/>
          <rect x="91" y="3357.2" width="39" height="8" transform="translate(338.3 6716.5) rotate(178)" fill="#1d1d1b"/>
          <rect x="102" y="3306.1" width="48.5" height="9.5" transform="translate(367.9 6615.4) rotate(178)" fill="#1d1d1b"/>
          <rect x="70.4" y="3262.6" width="46.9" height="6.6" transform="translate(301.6 6526.6) rotate(178)" fill="#1d1d1b"/>
          <rect x="99.2" y="3230.3" width="37.8" height="5.8" transform="translate(349 6460.4) rotate(178)" fill="#1d1d1b"/>
          <rect x="68.5" y="3207.1" width="46.9" height="5.8" transform="translate(295.8 6414.9) rotate(178)" fill="#1d1d1b"/>
          <rect x="78.6" y="3167.6" width="67.1" height="9.5" transform="translate(334.9 6338.9) rotate(178)" fill="#1d1d1b"/>
          <rect x="77.6" y="3140.3" width="39.2" height="8" transform="translate(304.1 6283.4) rotate(178)" fill="#1d1d1b"/>
          <rect x="93.7" y="3071.6" width="48.5" height="5.8" transform="translate(343.2 6143) rotate(178)" fill="#1d1d1b"/>
          <rect x="64.9" y="3105.5" width="50.6" height="4.4" transform="translate(288.8 6210.3) rotate(178)" fill="#1d1d1b"/>
          <rect x="69.2" y="3043" width="55.3" height="5.8" transform="translate(300.1 6086.7) rotate(178)" fill="#1d1d1b"/>
          <rect x="98.4" y="3010.8" width="41.7" height="5.8" transform="translate(343.6 6021.5) rotate(178)" fill="#1d1d1b"/>
          <rect x="59.8" y="2956.6" width="39.3" height="10.2" transform="translate(262.1 5918.9) rotate(178)" fill="#1d1d1b"/>
          <rect x="77.9" y="2913.9" width="58.9" height="7.3" transform="translate(316.4 5829.6) rotate(178)" fill="#1d1d1b"/>
          <rect x="122.4" y="2977.5" width="16.6" height="8" transform="translate(365.3 5956.6) rotate(178)" fill="#1d1d1b"/>
          <rect x="56.8" y="2873.9" width="49.1" height="6.6" transform="translate(263.1 5749.7) rotate(178)" fill="#1d1d1b"/>
          <rect x="75.2" y="2838.7" width="58.9" height="5.1" transform="translate(308.4 5677) rotate(178)" fill="#1d1d1b"/>
          <rect x="54.6" y="2811.6" width="57.6" height="5.8" transform="translate(265.1 5624.4) rotate(178)" fill="#1d1d1b"/>
          <rect x="67.5" y="2748.6" width="35.6" height="6.6" transform="translate(266.6 5499.1) rotate(178)" fill="#1d1d1b"/>
          <rect x="100.8" y="2728.5" width="29.4" height="5.8" transform="translate(326.4 5457.2) rotate(178)" fill="#1d1d1b"/>
          <rect x="50.8" y="2702.3" width="39.3" height="5.1" transform="translate(235.2 5405.6) rotate(178)" fill="#1d1d1b"/>
          <rect x="64.4" y="2659.7" width="21.7" height="5.8" transform="translate(243.4 5321) rotate(178)" fill="#1d1d1b"/>
          <rect x="81" y="2625.8" width="45.7" height="6.6" transform="translate(299.4 5252.9) rotate(178)" fill="#1d1d1b"/>
          <rect x="46.7" y="2583.1" width="45.8" height="6.6" transform="translate(229.3 5168.7) rotate(178)" fill="#1d1d1b"/>
          <rect x="64.7" y="2535" width="58.9" height="7.7" transform="translate(276.7 5072.9) rotate(178)" fill="#1d1d1b"/>
          <rect x="85.2" y="2563.1" width="22.6" height="5.8" transform="translate(282.6 5127.2) rotate(178)" fill="#1d1d1b"/>
          <rect x="43.9" y="2503.2" width="57.6" height="8" transform="translate(232.9 5010.4) rotate(178)" fill="#1d1d1b"/>
          <rect x="64.8" y="2447.4" width="27.7" height="6.6" transform="translate(242.8 4897.2) rotate(178)" fill="#1d1d1b"/>
          <rect x="88.3" y="2462.6" width="32.7" height="6.6" transform="translate(295.3 4926.6) rotate(178)" fill="#1d1d1b"/>
          <rect x="40.4" y="2403.7" width="63.8" height="7.3" transform="translate(228.6 4810.8) rotate(178)" fill="#1d1d1b"/>
          <rect x="75.4" y="2354.8" width="33.2" height="5.8" transform="translate(266.3 4710.7) rotate(178)" fill="#1d1d1b"/>
          <rect x="76.4" y="2380.9" width="41.7" height="5.1" transform="translate(277.6 4762.1) rotate(178)" fill="#1d1d1b"/>
          <rect x="37.4" y="2319.9" width="53.3" height="4.4" transform="translate(209.2 4640.5) rotate(178)" fill="#1d1d1b"/>
          <rect x="40.6" y="2271.2" width="27.1" height="8" transform="translate(187.7 4547.2) rotate(178)" fill="#1d1d1b"/>
          <rect x="68.1" y="2283.8" width="46.6" height="7.3" transform="translate(262.7 4570.4) rotate(178)" fill="#1d1d1b"/>
          <rect x="34.4" y="2230.9" width="45.8" height="6.6" transform="translate(192.5 4465) rotate(178)" fill="#1d1d1b"/>
          <rect x="56.2" y="2200.1" width="47" height="5.1" transform="translate(236.2 4401.2) rotate(178)" fill="#1d1d1b"/>
          <rect x="57.5" y="2130.8" width="31" height="4.4" transform="translate(220.4 4262.2) rotate(178)" fill="#1d1d1b"/>
          <rect x="31.8" y="2159.2" width="49.1" height="5.1" transform="translate(188.2 4320.2) rotate(178)" fill="#1d1d1b"/>
          <rect x="33.9" y="2079.7" width="73.7" height="7.3" transform="translate(214.2 4162.9) rotate(178)" fill="#1d1d1b"/>
          <rect x="27.5" y="2033.5" width="49.1" height="5.1" transform="translate(175 4069.1) rotate(178)" fill="#1d1d1b"/>
          <rect x="34.5" y="2013.8" width="31.5" height="5.1" transform="translate(170.9 4029.8) rotate(178)" fill="#1d1d1b"/>
          <rect x="57.9" y="1992.3" width="46.6" height="5.8" transform="translate(232.1 3986.3) rotate(178)" fill="#1d1d1b"/>
          <rect x="24.7" y="1953.5" width="69.9" height="5.8" transform="translate(187.5 3909.6) rotate(178)" fill="#1d1d1b"/>
          <rect x="35.2" y="1926.1" width="27.8" height="8" transform="translate(165.5 3857.3) rotate(178)" fill="#1d1d1b"/>
          <rect x="48.9" y="1878.3" width="51.8" height="13.9" transform="translate(215.3 3766.8) rotate(178)" fill="#1d1d1b"/>
          <rect x="20.4" y="1831.1" width="49.1" height="8" transform="translate(154 3667.6) rotate(178)" fill="#1d1d1b"/>
          <rect x="36.2" y="1810.2" width="41.1" height="5.1" transform="translate(176.7 3622.4) rotate(178)" fill="#1d1d1b"/>
          <rect x="57.3" y="1760.5" width="39.3" height="9.5" transform="translate(215.4 3526.7) rotate(178)" fill="#1d1d1b"/>
          <rect x="16.7" y="1724.8" width="69.9" height="8" transform="translate(163.7 3454.7) rotate(178)" fill="#1d1d1b"/>
          <rect x="39" y="1688.1" width="29.1" height="10.2" transform="translate(166.1 3383.6) rotate(178)" fill="#1d1d1b"/>
          <rect x="56.2" y="1658.9" width="36.8" height="12.4" transform="translate(207.3 3326.5) rotate(178)" fill="#1d1d1b"/>
          <rect x="12.4" y="1600.9" width="49.1" height="8.8" transform="translate(129.9 3208.3) rotate(178)" fill="#1d1d1b"/>
          <rect x="22.2" y="1555.4" width="41.2" height="5.1" transform="translate(139.9 3113.4) rotate(178)" fill="#1d1d1b"/>
          <rect x="53.2" y="1575.6" width="36.8" height="7.3" transform="translate(198.3 3155) rotate(178)" fill="#1d1d1b"/>
          <rect x="9.1" y="1505.8" width="55.2" height="6.6" transform="translate(126 3016) rotate(178)" fill="#1d1d1b"/>
          <rect x="43" y="1475.7" width="35" height="7.3" transform="translate(172.5 2955.7) rotate(178)" fill="#1d1d1b"/>
        </g>
      </g>
    </g>
  </g>
  <g id="trunk3">
    <g>
      <rect id="fond_bleu-5" data-name="fond bleu" x="543.5" y="1142.5" width="86.3" height="2925.7" transform="translate(-90.6 22.1) rotate(-2)" fill="#442c9a"/>
      <g id="tronc-5" data-name="tronc" opacity=".3">
        <rect id="fond_tronc-5" data-name="fond tronc" x="543.5" y="1142.5" width="86.3" height="2925.7" transform="translate(-90.6 22.1) rotate(-2)" fill="#fff"/>
        <g id="marques-5" data-name="marques">
          <rect x="494.1" y="1185.9" width="61.1" height="13.3" transform="translate(-41.3 19) rotate(-2)" fill="#1d1d1b"/>
          <rect x="538.9" y="1234.4" width="29" height="11.2" transform="translate(-42.9 20.1) rotate(-2)" fill="#1d1d1b"/>
          <rect x="505.6" y="1290.9" width="41" height="8" transform="translate(-44.9 19.1) rotate(-2)" fill="#1d1d1b"/>
          <rect x="511.2" y="1337.5" width="74.4" height="6.4" transform="translate(-46.5 20) rotate(-2)" fill="#1d1d1b"/>
          <rect x="561.7" y="1371.2" width="25.1" height="10.4" transform="translate(-47.7 20.9) rotate(-2)" fill="#1d1d1b"/>
          <rect x="519.9" y="1402.3" width="30.8" height="7.2" transform="translate(-48.7 19.5) rotate(-2)" fill="#1d1d1b"/>
          <rect x="503.3" y="1449.8" width="61.1" height="8" transform="translate(-50.4 19.5) rotate(-2)" fill="#1d1d1b"/>
          <rect x="562.5" y="1493.3" width="28.6" height="10.4" transform="translate(-51.9 21) rotate(-2)" fill="#1d1d1b"/>
          <rect x="518.2" y="1539.5" width="45.8" height="7.2" transform="translate(-53.5 19.8) rotate(-2)" fill="#1d1d1b"/>
          <rect x="550.8" y="1576.3" width="36.2" height="6.4" transform="translate(-54.8 20.8) rotate(-2)" fill="#1d1d1b"/>
          <rect x="508.9" y="1611.4" width="48.8" height="6.4" transform="translate(-56 19.6) rotate(-2)" fill="#1d1d1b"/>
          <rect x="544" y="1623.2" width="37.2" height="4.8" transform="translate(-56.4 20.6) rotate(-2)" fill="#1d1d1b"/>
          <rect x="535.2" y="1664.9" width="61.9" height="6.4" transform="translate(-57.9 20.8) rotate(-2)" fill="#1d1d1b"/>
          <rect x="564.8" y="1686.3" width="20.3" height="5.6" transform="translate(-58.6 21.1) rotate(-2)" fill="#1d1d1b"/>
          <rect x="512.5" y="1714.7" width="61.2" height="4.8" transform="translate(-59.6 20) rotate(-2)" fill="#1d1d1b"/>
          <rect x="550.8" y="1812.4" width="51.5" height="12.9" transform="translate(-63.1 21.2) rotate(-2)" fill="#1d1d1b"/>
          <rect x="526.2" y="1767.6" width="43.5" height="6.4" transform="translate(-61.5 20.2) rotate(-2)" fill="#1d1d1b"/>
          <rect x="515.3" y="1798.2" width="18.3" height="4" transform="translate(-62.5 19.4) rotate(-2)" fill="#1d1d1b"/>
          <rect x="517.6" y="1861.7" width="60.5" height="6.4" transform="translate(-64.7 20.3) rotate(-2)" fill="#1d1d1b"/>
          <rect x="537.1" y="1894.9" width="49" height="5.6" transform="translate(-65.9 20.8) rotate(-2)" fill="#1d1d1b"/>
          <rect x="519.7" y="1919.6" width="55.3" height="9.6" transform="translate(-66.8 20.3) rotate(-2)" fill="#1d1d1b"/>
          <rect x="592.3" y="1939.4" width="14.3" height="8" transform="translate(-67.5 22.1) rotate(-2)" fill="#1d1d1b"/>
          <rect x="504.4" y="1485.6" width="33.6" height="1.6" transform="translate(-51.6 19.1) rotate(-2)" fill="#1d1d1b"/>
          <rect x="542" y="1155.4" width="37.2" height="4" transform="translate(-40.1 20.3) rotate(-2)" fill="#1d1d1b"/>
          <rect x="546.3" y="1982.4" width="42.9" height="8.8" transform="translate(-69 21) rotate(-2)" fill="#1d1d1b"/>
          <rect x="523.8" y="2036.8" width="53.3" height="10.4" transform="translate(-70.9 20.5) rotate(-2)" fill="#1d1d1b"/>
          <rect x="560.3" y="2087.8" width="51.5" height="7.2" transform="translate(-72.6 21.7) rotate(-2)" fill="#1d1d1b"/>
          <rect x="538.6" y="2124.1" width="41.5" height="6.4" transform="translate(-73.9 20.8) rotate(-2)" fill="#1d1d1b"/>
          <rect x="562.4" y="2149.7" width="51.5" height="6.4" transform="translate(-74.8 21.8) rotate(-2)" fill="#1d1d1b"/>
          <rect x="529.1" y="2189" width="73.7" height="10.5" transform="translate(-76.2 21.1) rotate(-2)" fill="#1d1d1b"/>
          <rect x="560.8" y="2220.6" width="43.1" height="8.8" transform="translate(-77.3 21.7) rotate(-2)" fill="#1d1d1b"/>
          <rect x="532.9" y="2298.6" width="53.3" height="6.4" transform="translate(-80 20.9) rotate(-2)" fill="#1d1d1b"/>
          <rect x="562.2" y="2262.9" width="55.6" height="4.8" transform="translate(-78.7 22) rotate(-2)" fill="#1d1d1b"/>
          <rect x="552.3" y="2329.9" width="60.8" height="6.4" transform="translate(-81.1 21.8) rotate(-2)" fill="#1d1d1b"/>
          <rect x="535.2" y="2365.3" width="45.9" height="6.4" transform="translate(-82.3 20.9) rotate(-2)" fill="#1d1d1b"/>
          <rect x="580.3" y="2420.1" width="43.1" height="11.2" transform="translate(-84.3 22.5) rotate(-2)" fill="#1d1d1b"/>
          <rect x="538.9" y="2470.2" width="64.7" height="8" transform="translate(-86 21.4) rotate(-2)" fill="#1d1d1b"/>
          <rect x="536.4" y="2399.5" width="18.3" height="8.8" transform="translate(-83.6 20.5) rotate(-2)" fill="#1d1d1b"/>
          <rect x="572.8" y="2515" width="53.9" height="7.2" transform="translate(-87.5 22.5) rotate(-2)" fill="#1d1d1b"/>
          <rect x="541.8" y="2555.3" width="64.7" height="5.6" transform="translate(-88.9 21.6) rotate(-2)" fill="#1d1d1b"/>
          <rect x="565.8" y="2584.2" width="63.3" height="6.4" transform="translate(-89.9 22.4) rotate(-2)" fill="#1d1d1b"/>
          <rect x="575.9" y="2652.6" width="39.1" height="7.2" transform="translate(-92.3 22.4) rotate(-2)" fill="#1d1d1b"/>
          <rect x="546" y="2675.5" width="32.3" height="6.4" transform="translate(-93.1 21.3) rotate(-2)" fill="#1d1d1b"/>
          <rect x="590.2" y="2705.1" width="43.1" height="5.6" transform="translate(-94.1 23) rotate(-2)" fill="#1d1d1b"/>
          <rect x="594.5" y="2751.1" width="23.9" height="6.4" transform="translate(-95.8 22.8) rotate(-2)" fill="#1d1d1b"/>
          <rect x="550" y="2787.6" width="50.2" height="7.2" transform="translate(-97.1 21.8) rotate(-2)" fill="#1d1d1b"/>
          <rect x="587.6" y="2834.5" width="50.3" height="7.2" transform="translate(-98.7 23.1) rotate(-2)" fill="#1d1d1b"/>
          <rect x="553.4" y="2886.1" width="64.7" height="8.4" transform="translate(-100.5 22.2) rotate(-2)" fill="#1d1d1b"/>
          <rect x="570.7" y="2857.3" width="24.8" height="6.4" transform="translate(-99.5 22.1) rotate(-2)" fill="#1d1d1b"/>
          <rect x="577.6" y="2920.7" width="63.3" height="8.8" transform="translate(-101.7 23) rotate(-2)" fill="#1d1d1b"/>
          <rect x="587.5" y="2983.6" width="30.4" height="7.2" transform="translate(-103.9 22.9) rotate(-2)" fill="#1d1d1b"/>
          <rect x="556.2" y="2966.9" width="36" height="7.2" transform="translate(-103.3 21.8) rotate(-2)" fill="#1d1d1b"/>
          <rect x="574.7" y="3030.8" width="70.1" height="8" transform="translate(-105.5 23.1) rotate(-2)" fill="#1d1d1b"/>
          <rect x="569.8" y="3086.2" width="36.5" height="6.4" transform="translate(-107.5 22.4) rotate(-2)" fill="#1d1d1b"/>
          <rect x="559.4" y="3058.3" width="45.9" height="5.6" transform="translate(-106.5 22.2) rotate(-2)" fill="#1d1d1b"/>
          <rect x="589.4" y="3126.1" width="58.6" height="4.8" transform="translate(-108.8 23.5) rotate(-2)" fill="#1d1d1b"/>
          <rect x="614.8" y="3175.6" width="29.7" height="8.8" transform="translate(-110.6 23.9) rotate(-2)" fill="#1d1d1b"/>
          <rect x="563.1" y="3162.5" width="51.2" height="8" transform="translate(-110.2 22.5) rotate(-2)" fill="#1d1d1b"/>
          <rect x="601.1" y="3221.5" width="50.3" height="7.2" transform="translate(-112.2 23.8) rotate(-2)" fill="#1d1d1b"/>
          <rect x="575.8" y="3256.9" width="51.7" height="5.6" transform="translate(-113.4 23) rotate(-2)" fill="#1d1d1b"/>
          <rect x="591.9" y="3333.9" width="34" height="4.8" transform="translate(-116.1 23.3) rotate(-2)" fill="#1d1d1b"/>
          <rect x="600.3" y="3301.9" width="53.9" height="5.6" transform="translate(-114.9 23.9) rotate(-2)" fill="#1d1d1b"/>
          <rect x="570.9" y="3386.8" width="81" height="8" transform="translate(-118 23.4) rotate(-2)" fill="#1d1d1b"/>
          <rect x="605.1" y="3440" width="53.9" height="5.6" transform="translate(-119.8 24.2) rotate(-2)" fill="#1d1d1b"/>
          <rect x="616.6" y="3461.6" width="34.6" height="5.6" transform="translate(-120.5 24.2) rotate(-2)" fill="#1d1d1b"/>
          <rect x="574.3" y="3484.5" width="51.2" height="6.4" transform="translate(-121.4 23.1) rotate(-2)" fill="#1d1d1b"/>
          <rect x="585.2" y="3527.1" width="76.8" height="6.4" transform="translate(-122.8 23.9) rotate(-2)" fill="#1d1d1b"/>
          <rect x="619.9" y="3554.8" width="30.6" height="8.8" transform="translate(-123.8 24.3) rotate(-2)" fill="#1d1d1b"/>
          <rect x="578.5" y="3600.8" width="57" height="15.3" transform="translate(-125.6 23.4) rotate(-2)" fill="#1d1d1b"/>
          <rect x="612.8" y="3659.2" width="53.9" height="8.8" transform="translate(-127.5 24.6) rotate(-2)" fill="#1d1d1b"/>
          <rect x="604.2" y="3685.3" width="45.2" height="5.6" transform="translate(-128.3 24.1) rotate(-2)" fill="#1d1d1b"/>
          <rect x="583.1" y="3735.2" width="43.1" height="10.4" transform="translate(-130.2 23.4) rotate(-2)" fill="#1d1d1b"/>
          <rect x="594" y="3776" width="76.8" height="8.8" transform="translate(-131.5 24.4) rotate(-2)" fill="#1d1d1b"/>
          <rect x="614.4" y="3813.8" width="31.9" height="11.2" transform="translate(-132.9 24.3) rotate(-2)" fill="#1d1d1b"/>
          <rect x="586.9" y="3843.6" width="40.5" height="13.7" transform="translate(-134 23.5) rotate(-2)" fill="#1d1d1b"/>
          <rect x="621.6" y="3911.3" width="53.9" height="9.6" transform="translate(-136.3 25) rotate(-2)" fill="#1d1d1b"/>
          <rect x="619.6" y="3965.4" width="45.2" height="5.6" transform="translate(-138.1 24.8) rotate(-2)" fill="#1d1d1b"/>
          <rect x="590.2" y="3940.7" width="40.5" height="8" transform="translate(-137.3 23.7) rotate(-2)" fill="#1d1d1b"/>
          <rect x="618.6" y="4018.2" width="60.7" height="7.2" transform="translate(-140 25.1) rotate(-2)" fill="#1d1d1b"/>
          <rect x="603.5" y="4050.4" width="38.4" height="8" transform="translate(-141.1 24.2) rotate(-2)" fill="#1d1d1b"/>
        </g>
      </g>
    </g>
    <g>
      <rect id="fond_bleu-6" data-name="fond bleu" x="441.4" y="-1781.5" width="86.3" height="2925.7" transform="translate(11.4 16.7) rotate(-2)" fill="#442c9a"/>
      <g id="tronc-6" data-name="tronc" opacity=".3">
        <rect id="fond_tronc-6" data-name="fond tronc" x="441.4" y="-1781.5" width="86.3" height="2925.7" transform="translate(11.4 16.7) rotate(-2)" fill="#fff"/>
        <g id="marques-6" data-name="marques">
          <rect x="475.5" y="-3.3" width="63.3" height="8.8" transform="translate(.3 17.7) rotate(-2)" fill="#1d1d1b"/>
          <rect x="485.4" y="59.6" width="30.4" height="7.2" transform="translate(-1.9 17.5) rotate(-2)" fill="#1d1d1b"/>
          <rect x="454.1" y="43" width="36" height="7.2" transform="translate(-1.3 16.5) rotate(-2)" fill="#1d1d1b"/>
          <rect x="472.6" y="106.8" width="70.1" height="8" transform="translate(-3.6 17.8) rotate(-2)" fill="#1d1d1b"/>
          <rect x="467.7" y="162.3" width="36.5" height="6.4" transform="translate(-5.5 17.1) rotate(-2)" fill="#1d1d1b"/>
          <rect x="457.3" y="134.3" width="45.9" height="5.6" transform="translate(-4.5 16.8) rotate(-2)" fill="#1d1d1b"/>
          <rect x="487.3" y="202.2" width="58.6" height="4.8" transform="translate(-6.8 18.2) rotate(-2)" fill="#1d1d1b"/>
          <rect x="512.7" y="251.6" width="29.7" height="8.8" transform="translate(-8.6 18.6) rotate(-2)" fill="#1d1d1b"/>
          <rect x="461" y="238.6" width="51.2" height="8" transform="translate(-8.2 17.1) rotate(-2)" fill="#1d1d1b"/>
          <rect x="499" y="297.6" width="50.3" height="7.2" transform="translate(-10.2 18.5) rotate(-2)" fill="#1d1d1b"/>
          <rect x="473.7" y="333" width="51.7" height="5.6" transform="translate(-11.4 17.6) rotate(-2)" fill="#1d1d1b"/>
          <rect x="489.8" y="409.9" width="34" height="4.8" transform="translate(-14.1 17.9) rotate(-2)" fill="#1d1d1b"/>
          <rect x="498.2" y="377.9" width="53.9" height="5.6" transform="translate(-13 18.6) rotate(-2)" fill="#1d1d1b"/>
          <rect x="468.8" y="462.9" width="81" height="8" transform="translate(-16 18.1) rotate(-2)" fill="#1d1d1b"/>
          <rect x="503" y="516" width="53.9" height="5.6" transform="translate(-17.8 18.8) rotate(-2)" fill="#1d1d1b"/>
          <rect x="514.5" y="537.7" width="34.6" height="5.6" transform="translate(-18.5 18.9) rotate(-2)" fill="#1d1d1b"/>
          <rect x="472.2" y="560.6" width="51.2" height="6.4" transform="translate(-19.4 17.7) rotate(-2)" fill="#1d1d1b"/>
          <rect x="483.1" y="603.2" width="76.8" height="6.4" transform="translate(-20.8 18.6) rotate(-2)" fill="#1d1d1b"/>
          <rect x="517.8" y="630.9" width="30.6" height="8.8" transform="translate(-21.8 19) rotate(-2)" fill="#1d1d1b"/>
          <rect x="476.4" y="676.9" width="57" height="15.3" transform="translate(-23.6 18) rotate(-2)" fill="#1d1d1b"/>
          <rect x="510.7" y="735.2" width="53.9" height="8.8" transform="translate(-25.5 19.2) rotate(-2)" fill="#1d1d1b"/>
          <rect x="502.1" y="761.4" width="45.2" height="5.6" transform="translate(-26.4 18.8) rotate(-2)" fill="#1d1d1b"/>
          <rect x="481" y="811.2" width="43.1" height="10.4" transform="translate(-28.2 18) rotate(-2)" fill="#1d1d1b"/>
          <rect x="491.9" y="852.1" width="76.8" height="8.8" transform="translate(-29.6 19) rotate(-2)" fill="#1d1d1b"/>
          <rect x="512.3" y="889.9" width="31.9" height="11.2" transform="translate(-30.9 19) rotate(-2)" fill="#1d1d1b"/>
          <rect x="484.8" y="919.7" width="40.5" height="13.7" transform="translate(-32 18.2) rotate(-2)" fill="#1d1d1b"/>
          <rect x="519.5" y="987.3" width="53.9" height="9.6" transform="translate(-34.3 19.7) rotate(-2)" fill="#1d1d1b"/>
          <rect x="517.5" y="1041.4" width="45.2" height="5.6" transform="translate(-36.1 19.5) rotate(-2)" fill="#1d1d1b"/>
          <rect x="488.1" y="1016.8" width="40.5" height="8" transform="translate(-35.3 18.4) rotate(-2)" fill="#1d1d1b"/>
          <rect x="516.5" y="1094.3" width="60.7" height="7.2" transform="translate(-38 19.8) rotate(-2)" fill="#1d1d1b"/>
          <rect x="501.4" y="1126.5" width="38.4" height="8" transform="translate(-39.1 18.9) rotate(-2)" fill="#1d1d1b"/>
        </g>
      </g>
    </g>
  </g>
  <g id="garland2">
    <g opacity=".7">
      <g>
        <circle cx="764.8" cy="2426.1" r="79.2" fill="#f0a409" opacity=".3"/>
        <circle cx="764.8" cy="2426.1" r="47.5" fill="#f0a409" opacity=".3"/>
        <circle cx="764.8" cy="2426.1" r="14" fill="#f0a409"/>
      </g>
      <g>
        <circle cx="456.7" cy="2609.5" r="98.3" fill="#e05310" opacity=".3"/>
        <circle cx="456.7" cy="2609.5" r="58.9" fill="#e05310" opacity=".3"/>
        <circle cx="456.7" cy="2609.5" r="14" fill="#e05310"/>
      </g>
      <g>
        <circle cx="-34.4" cy="2651" r="98.3" fill="#e05310" opacity=".3"/>
        <circle cx="-34.4" cy="2651" r="58.9" fill="#e05310" opacity=".3"/>
      </g>
      <g>
        <circle cx="547.4" cy="2566.6" r="101.2" fill="#0ee040" opacity=".3"/>
        <circle cx="547.4" cy="2566.6" r="58.2" fill="#0ee040" opacity=".3"/>
        <circle cx="547.4" cy="2566.6" r="14" fill="#0ee040"/>
      </g>
      <g>
        <circle cx="95.7" cy="2674.4" r="101.2" fill="#0ee040" opacity=".3"/>
        <circle cx="95.7" cy="2674.4" r="58.2" fill="#0ee040" opacity=".3"/>
        <circle cx="95.7" cy="2674.4" r="14" fill="#0ee040"/>
      </g>
      <g>
        <circle cx="652.4" cy="2505.3" r="94.1" fill="#e7eb0a" opacity=".3"/>
        <circle cx="652.4" cy="2505.3" r="47.5" fill="#e7eb0a" opacity=".3"/>
        <circle cx="652.4" cy="2505.3" r="14" fill="#e7eb0a"/>
      </g>
      <g>
        <circle cx="214.6" cy="2662.6" r="94.1" fill="#e7eb0a" opacity=".3"/>
        <circle cx="214.6" cy="2662.6" r="47.5" fill="#e7eb0a" opacity=".3"/>
        <circle cx="214.6" cy="2662.6" r="14" fill="#e7eb0a"/>
      </g>
      <g>
        <circle cx="346.2" cy="2643" r="81.5" fill="#f0a409" opacity=".3"/>
        <circle cx="346.2" cy="2643" r="41.2" fill="#f0a409" opacity=".3"/>
        <circle cx="346.2" cy="2643" r="14" fill="#f0a409"/>
      </g>
      <path d="M832.3,2306c-82.7,126.8-368.9,405.5-862.9,329" fill="none" stroke="#1d1d1b" stroke-miterlimit="10" stroke-width="3"/>
    </g>
  </g>
  <g id="trunk2">
    <g>
      <rect id="fond_bleu-7" data-name="fond bleu" x="169" y="-167.6" width="126.4" height="4285.7" transform="translate(-34.4 4.4) rotate(-1)" fill="#442c9a"/>
      <g id="tronc-7" data-name="tronc" opacity=".4">
        <rect id="fond_tronc-7" data-name="fond tronc" x="169" y="-167.6" width="126.4" height="4285.7" transform="translate(-34.4 4.4) rotate(-1)" fill="#fff"/>
        <g id="marques-7" data-name="marques">
          <rect x="147" y="48.5" width="60" height="11.8" transform="translate(-.9 3.1) rotate(-1)" fill="#1d1d1b"/>
          <rect x="154.1" y="117.4" width="109" height="9.4" transform="translate(-2.1 3.7) rotate(-1)" fill="#1d1d1b"/>
          <rect x="227.2" y="167.4" width="36.8" height="15.3" transform="translate(-3 4.3) rotate(-1)" fill="#1d1d1b"/>
          <rect x="165.1" y="211.9" width="45.1" height="10.6" transform="translate(-3.8 3.3) rotate(-1)" fill="#1d1d1b"/>
          <rect x="139.6" y="281.4" width="89.5" height="11.8" transform="translate(-5 3.3) rotate(-1)" fill="#1d1d1b"/>
          <rect x="225.1" y="346.3" width="41.9" height="15.3" transform="translate(-6.1 4.3) rotate(-1)" fill="#1d1d1b"/>
          <rect x="159.2" y="413.1" width="67" height="10.6" transform="translate(-7.3 3.4) rotate(-1)" fill="#1d1d1b"/>
          <rect x="206" y="467.8" width="53.1" height="9.4" transform="translate(-8.2 4.1) rotate(-1)" fill="#1d1d1b"/>
          <rect x="143.7" y="518.1" width="71.5" height="9.4" transform="translate(-9.1 3.2) rotate(-1)" fill="#1d1d1b"/>
          <rect x="194.9" y="536.2" width="54.5" height="7.1" transform="translate(-9.4 4) rotate(-1)" fill="#1d1d1b"/>
          <rect x="180.8" y="597.3" width="90.6" height="9.4" transform="translate(-10.5 4) rotate(-1)" fill="#1d1d1b"/>
          <rect x="223.7" y="628.9" width="29.8" height="8.2" transform="translate(-11 4.3) rotate(-1)" fill="#1d1d1b"/>
          <rect x="146.3" y="669.7" width="89.7" height="7.1" transform="translate(-11.7 3.4) rotate(-1)" fill="#1d1d1b"/>
          <rect x="199.8" y="813.7" width="75.5" height="18.8" transform="translate(-14.3 4.3) rotate(-1)" fill="#1d1d1b"/>
          <rect x="165.1" y="747.3" width="63.7" height="9.4" transform="translate(-13.1 3.6) rotate(-1)" fill="#1d1d1b"/>
          <rect x="148.4" y="791.5" width="26.8" height="5.9" transform="translate(-13.8 2.9) rotate(-1)" fill="#1d1d1b"/>
          <rect x="150.1" y="885.1" width="88.6" height="9.4" transform="translate(-15.5 3.5) rotate(-1)" fill="#1d1d1b"/>
          <rect x="177.7" y="934.2" width="71.8" height="8.2" transform="translate(-16.3 3.9) rotate(-1)" fill="#1d1d1b"/>
          <rect x="151.6" y="969.9" width="81.1" height="14.1" transform="translate(-17 3.5) rotate(-1)" fill="#1d1d1b"/>
          <rect x="257.5" y="1000.3" width="21" height="11.8" transform="translate(-17.5 4.8) rotate(-1)" fill="#1d1d1b"/>
          <rect x="140.4" y="333.6" width="49.2" height="2.4" transform="translate(-5.8 2.9) rotate(-1)" fill="#1d1d1b"/>
          <rect x="189" y="1062.4" width="62.8" height="12.9" transform="translate(-18.6 4) rotate(-1)" fill="#1d1d1b"/>
          <rect x="154.6" y="1141.7" width="78.1" height="15.3" transform="translate(-20 3.6) rotate(-1)" fill="#1d1d1b"/>
          <rect x="206.8" y="1217.3" width="75.5" height="10.6" transform="translate(-21.3 4.5) rotate(-1)" fill="#1d1d1b"/>
          <rect x="174.2" y="1269.8" width="60.8" height="9.4" transform="translate(-22.2 3.8) rotate(-1)" fill="#1d1d1b"/>
          <rect x="208.4" y="1307.9" width="75.5" height="9.4" transform="translate(-22.9 4.5) rotate(-1)" fill="#1d1d1b"/>
          <rect x="158.5" y="1365" width="107.9" height="15.3" transform="translate(-23.9 3.9) rotate(-1)" fill="#1d1d1b"/>
          <rect x="204.2" y="1411.7" width="63.1" height="12.9" transform="translate(-24.7 4.3) rotate(-1)" fill="#1d1d1b"/>
          <rect x="161.3" y="1525.3" width="78.1" height="9.4" transform="translate(-26.7 3.7) rotate(-1)" fill="#1d1d1b"/>
          <rect x="205.2" y="1473.9" width="81.5" height="7.1" transform="translate(-25.7 4.5) rotate(-1)" fill="#1d1d1b"/>
          <rect x="188.9" y="1571.8" width="89.1" height="9.4" transform="translate(-27.5 4.3) rotate(-1)" fill="#1d1d1b"/>
          <rect x="163" y="1623.1" width="67.2" height="9.4" transform="translate(-28.4 3.7) rotate(-1)" fill="#1d1d1b"/>
          <rect x="227.6" y="1704.4" width="63.2" height="16.5" transform="translate(-29.8 4.8) rotate(-1)" fill="#1d1d1b"/>
          <rect x="165.7" y="1777" width="94.8" height="11.8" transform="translate(-31.1 4) rotate(-1)" fill="#1d1d1b"/>
          <rect x="163.9" y="1672.8" width="26.8" height="12.9" transform="translate(-29.3 3.3) rotate(-1)" fill="#1d1d1b"/>
          <rect x="214.2" y="1843.3" width="79" height="10.6" transform="translate(-32.2 4.7) rotate(-1)" fill="#1d1d1b"/>
          <rect x="167.8" y="1901.7" width="94.8" height="8.2" transform="translate(-33.2 4) rotate(-1)" fill="#1d1d1b"/>
          <rect x="202.2" y="1944.7" width="92.8" height="9.4" transform="translate(-34 4.6) rotate(-1)" fill="#1d1d1b"/>
          <rect x="215.2" y="2044.8" width="57.3" height="10.6" transform="translate(-35.7 4.6) rotate(-1)" fill="#1d1d1b"/>
          <rect x="170.9" y="2077.4" width="47.4" height="9.4" transform="translate(-36.3 3.7) rotate(-1)" fill="#1d1d1b"/>
          <rect x="234.9" y="2122.1" width="63.2" height="8.2" transform="translate(-37.1 5) rotate(-1)" fill="#1d1d1b"/>
          <rect x="240" y="2189.3" width="34.9" height="9.4" transform="translate(-38.3 4.8) rotate(-1)" fill="#1d1d1b"/>
          <rect x="173.8" y="2241.9" width="73.5" height="10.6" transform="translate(-39.2 4) rotate(-1)" fill="#1d1d1b"/>
          <rect x="227.7" y="2311.6" width="73.7" height="10.6" transform="translate(-40.4 5) rotate(-1)" fill="#1d1d1b"/>
          <rect x="176.3" y="2386.5" width="94.8" height="12.4" transform="translate(-41.7 4.3) rotate(-1)" fill="#1d1d1b"/>
          <rect x="202.3" y="2344.2" width="36.4" height="9.4" transform="translate(-41 4.2) rotate(-1)" fill="#1d1d1b"/>
          <rect x="210.8" y="2437.7" width="92.8" height="12.9" transform="translate(-42.6 4.9) rotate(-1)" fill="#1d1d1b"/>
          <rect x="223.8" y="2529.7" width="44.5" height="10.6" transform="translate(-44.2 4.7) rotate(-1)" fill="#1d1d1b"/>
          <rect x="178.4" y="2504.5" width="52.7" height="10.6" transform="translate(-43.8 4) rotate(-1)" fill="#1d1d1b"/>
          <rect x="203.7" y="2599" width="102.7" height="11.8" transform="translate(-45.4 4.8) rotate(-1)" fill="#1d1d1b"/>
          <rect x="195.3" y="2679.6" width="53.4" height="9.4" transform="translate(-46.8 4.3) rotate(-1)" fill="#1d1d1b"/>
          <rect x="180.7" y="2638.5" width="67.2" height="8.2" transform="translate(-46.1 4.1) rotate(-1)" fill="#1d1d1b"/>
          <rect x="223" y="2738.9" width="85.8" height="7.1" transform="translate(-47.8 5.1) rotate(-1)" fill="#1d1d1b"/>
          <rect x="258.8" y="2811.6" width="43.6" height="12.9" transform="translate(-49.1 5.3) rotate(-1)" fill="#1d1d1b"/>
          <rect x="183.4" y="2791.4" width="75" height="11.8" transform="translate(-48.8 4.3) rotate(-1)" fill="#1d1d1b"/>
          <rect x="237.6" y="2878.8" width="73.7" height="10.6" transform="translate(-50.3 5.2) rotate(-1)" fill="#1d1d1b"/>
          <rect x="199.6" y="2930" width="75.7" height="8.2" transform="translate(-51.2 4.6) rotate(-1)" fill="#1d1d1b"/>
          <rect x="221.3" y="3042.9" width="49.9" height="7.1" transform="translate(-53.1 4.8) rotate(-1)" fill="#1d1d1b"/>
          <rect x="234.3" y="2996.5" width="79" height="8.2" transform="translate(-52.3 5.2) rotate(-1)" fill="#1d1d1b"/>
          <rect x="189.1" y="3120.5" width="118.6" height="11.8" transform="translate(-54.5 4.8) rotate(-1)" fill="#1d1d1b"/>
          <rect x="237.9" y="3198.9" width="79" height="8.2" transform="translate(-55.9 5.3) rotate(-1)" fill="#1d1d1b"/>
          <rect x="254.2" y="3230.6" width="50.7" height="8.2" transform="translate(-56.4 5.4) rotate(-1)" fill="#1d1d1b"/>
          <rect x="191.6" y="3263.3" width="75" height="9.4" transform="translate(-57 4.5) rotate(-1)" fill="#1d1d1b"/>
          <rect x="206.5" y="3326.2" width="112.5" height="9.4" transform="translate(-58.1 5.1) rotate(-1)" fill="#1d1d1b"/>
          <rect x="256.6" y="3367.2" width="44.8" height="12.9" transform="translate(-58.8 5.4) rotate(-1)" fill="#1d1d1b"/>
          <rect x="194.7" y="3433.8" width="83.5" height="22.4" transform="translate(-60.1 4.7) rotate(-1)" fill="#1d1d1b"/>
          <rect x="243.5" y="3520.1" width="79" height="12.9" transform="translate(-61.5 5.5) rotate(-1)" fill="#1d1d1b"/>
          <rect x="230.3" y="3558.1" width="66.2" height="8.2" transform="translate(-62.1 5.1) rotate(-1)" fill="#1d1d1b"/>
          <rect x="198.1" y="3630.5" width="63.2" height="15.3" transform="translate(-63.5 4.6) rotate(-1)" fill="#1d1d1b"/>
          <rect x="212.9" y="3691" width="112.5" height="12.9" transform="translate(-64.5 5.3) rotate(-1)" fill="#1d1d1b"/>
          <rect x="241.8" y="3746.4" width="46.8" height="16.5" transform="translate(-65.5 5.2) rotate(-1)" fill="#1d1d1b"/>
          <rect x="200.9" y="3789.4" width="59.3" height="20" transform="translate(-66.3 4.6) rotate(-1)" fill="#1d1d1b"/>
          <rect x="250" y="3889.6" width="79" height="14.1" transform="translate(-68 5.6) rotate(-1)" fill="#1d1d1b"/>
          <rect x="245.6" y="3968.6" width="66.3" height="8.2" transform="translate(-69.3 5.5) rotate(-1)" fill="#1d1d1b"/>
          <rect x="203.3" y="3931.8" width="59.3" height="11.8" transform="translate(-68.7 4.7) rotate(-1)" fill="#1d1d1b"/>
          <rect x="242.8" y="4046.2" width="88.8" height="10.6" transform="translate(-70.7 5.6) rotate(-1)" fill="#1d1d1b"/>
        </g>
      </g>
    </g>
  </g>
  <g id="garland1">
    <g opacity=".9">
      <g>
        <circle cx="1.3" cy="2908.7" r="88.4" fill="#f0a409" opacity=".3"/>
        <circle cx="1.3" cy="2908.7" r="44.7" fill="#f0a409" opacity=".3"/>
        <circle cx="1.3" cy="2908.7" r="15.6" fill="#f0a409"/>
      </g>
      <circle cx="308.8" cy="3165.1" r="109.8" fill="#e05310" opacity=".2"/>
      <circle cx="308.8" cy="3165.1" r="65.8" fill="#e05310" opacity=".3"/>
      <circle cx="308.8" cy="3165.1" r="15.6" fill="#e05310"/>
      <circle cx="816.7" cy="3299.9" r="109.9" fill="#e05310" opacity=".2"/>
      <circle cx="816.7" cy="3299.9" r="53" fill="#e05310" opacity=".3"/>
      <circle cx="216.3" cy="3101.9" r="113.1" fill="#0ee040" opacity=".2"/>
      <circle cx="216.3" cy="3101.9" r="65" fill="#0ee040" opacity=".3"/>
      <circle cx="216.3" cy="3101.9" r="15.6" fill="#0ee040"/>
      <circle cx="686.7" cy="3286.6" r="105.9" fill="#0ee040" opacity=".2"/>
      <circle cx="686.7" cy="3286.6" r="61.6" fill="#0ee040" opacity=".3"/>
      <circle cx="686.7" cy="3286.6" r="15.6" fill="#0ee040"/>
      <circle cx="111.3" cy="3015.7" r="105" fill="#e7eb0a" opacity=".2"/>
      <circle cx="111.3" cy="3015.7" r="53" fill="#e7eb0a" opacity=".3"/>
      <circle cx="111.3" cy="3015.7" r="15.6" fill="#e7eb0a"/>
      <circle cx="573.8" cy="3261.1" r="103.1" fill="#e7eb0a" opacity=".2"/>
      <circle cx="573.8" cy="3261.1" r="61.7" fill="#e7eb0a" opacity=".3"/>
      <circle cx="573.8" cy="3261.1" r="15.6" fill="#e7eb0a"/>
      <circle cx="424.7" cy="3221.5" r="91.1" fill="#f0a409" opacity=".2"/>
      <circle cx="424.7" cy="3221.5" r="46" fill="#f0a409" opacity=".3"/>
      <circle cx="424.7" cy="3221.5" r="15.6" fill="#f0a409"/>
      <path d="M-51.9,2764.3c68.8,154.4,335.4,512.2,893.6,514.8" fill="none" stroke="#1d1d1b" stroke-miterlimit="10" stroke-width="6"/>
    </g>
  </g>
  <g id="deer_back" data-name="deer back">
    <path d="M340.7,3712.7c11.7,872.2-194.3,457.7-316.6,433.3-122.4-24.4-263,164-126.5-521.6,52.5-263.7,194.3-457.7,316.6-433.3,122.4,24.4,122.9,255.7,126.5,521.6Z" fill="#925f36"/>
    <path d="M128.9,3502c-2.8,12.9-5.5,25-6.6,38.1-.4,4.3-.7,8.6-1.2,13.2-8.7-15.6-5.2-38.9,7.8-51.3h0Z" fill="#7f5334"/>
    <path d="M66.2,3742.4c-.3,11.5.5,22.3,2.4,33.5,1.7,11.2,4.3,22.3,4.9,33.8-11.1-19-18.3-46.9-7.3-67.3h0Z" fill="#7f5334"/>
    <path d="M152.2,3720.3c-1.6,13.3-3.3,26.2-3.8,39.4-.6,13.3,0,26.2.5,39.6-11.3-23.9-9.9-56.1,3.3-79h0Z" fill="#7f5334"/>
    <path d="M283,3552.1c7.2,20.5,7,48.1-.8,68.4-1.2-11.5-1.1-22.8-1-34.2.2-11.5.3-22.7,1.8-34.2h0Z" fill="#7f5334"/>
    <path d="M252.9,3698.1c3.5,19.5,1.8,46.8-4.2,65.8-3.5-19.5-1.7-46.8,4.2-65.8h0Z" fill="#7f5334"/>
    <path d="M193.4,3559.9c5.2,18.3,5.9,44.6,1.6,63.2-5.2-18.3-5.9-44.6-1.6-63.2h0Z" fill="#7f5334"/>
    <path d="M88.2,3613.9c-.9,16.6-3.3,36.5-4.5,53.1-.5,5.9-1,11.8-1.8,17.9-2-5.8-3.1-11.8-3.7-17.9-1.4-18.1,1.3-37,10-53.1h0Z" fill="#7f5334"/>
    <path d="M38.5,3512.1c-3.3,12.6-7.4,24.7-11,37.1-3.7,12.4-6.9,24.7-11,37.1-2.5-25,6.3-54.6,22-74.2h0Z" fill="#7f5334"/>
  </g>
  <g id="boar">
    <g>
      <path d="M722.7,3864.1c52.6,166.4,16.3,321.2-77.6,355.9-201.1,74.4-215.4-80.3-268-246.7-52.6-166.4-17.8-325.8,77.6-355.9,95.4-30.2,215.4,80.3,268,246.7Z" fill="#663a3c"/>
      <g>
        <circle cx="561.9" cy="3738.2" r="9.5" fill="#fff"/>
        <circle cx="436.4" cy="3777.8" r="9.5" fill="#fff"/>
      </g>
      <g>
        <path d="M599.2,3840.6c11.7,37.1-19.9,41.8-57,53.5-37.1,11.7-65.7,26.1-77.4-11.1-11.7-37.1,5.2-88.5,42.3-100.2,37.1-11.7,80.4,20.6,92.2,57.7Z" fill="#fff"/>
        <g>
          <ellipse cx="554.5" cy="3846.3" rx="11.1" ry="17" transform="translate(-1133 345.8) rotate(-17.5)" fill="#663a3c"/>
          <ellipse cx="504.6" cy="3862.1" rx="11.1" ry="17" transform="translate(-1140.1 331.5) rotate(-17.5)" fill="#663a3c"/>
        </g>
        <g>
          <path d="M505.7,3905.6c-18.2,5.8-57.6,8.6-66.2-40.8,46.9,40.7,87.5,34.1,66.2,40.8Z" fill="#fff"/>
          <path d="M578.6,3882.6c18.2-5.8,52.1-26.1,30.7-71.5-15,60.3-52.1,78.2-30.7,71.5Z" fill="#fff"/>
        </g>
      </g>
      <g>
        <path d="M400.6,3767.6s-70.2-22.1-84.3-44.3c-14.1-22.2-4.6-95.2-4.6-95.2,0,0,70.2,22.1,84.3,44.3s4.6,95.2,4.6,95.2Z" fill="#663a3c"/>
        <path d="M585.4,3709.2s44.7-58.5,43.6-84.7c-1.2-26.3-50.9-80.5-50.9-80.5,0,0-44.7,58.5-43.6,84.7s50.9,80.5,50.9,80.5Z" fill="#663a3c"/>
      </g>
    </g>
  </g>
  <g id="trunk1">
    <g>
      <rect id="fond_bleu-8" data-name="fond bleu" x="646.2" y="-2290.3" width="190.4" height="6459.6" transform="translate(13.2 -10.3) rotate(.8)" fill="#45267f"/>
      <g id="tronc-8" data-name="tronc" opacity=".5">
        <rect id="fond_tronc-8" data-name="fond tronc" x="646.2" y="-2290.3" width="190.4" height="6459.6" transform="translate(13.2 -10.3) rotate(.8)" fill="#fff"/>
        <g id="marques-8" data-name="marques">
          <rect x="658.8" y="19.2" width="162.7" height="23.1" transform="translate(.5 -10.3) rotate(.8)" fill="#1d1d1b"/>
          <rect x="725.5" y="90.6" width="95.1" height="19.5" transform="translate(1.5 -10.8) rotate(.8)" fill="#1d1d1b"/>
          <rect x="655.5" y="260.1" width="117.8" height="14.2" transform="translate(3.8 -9.9) rotate(.8)" fill="#1d1d1b"/>
          <rect x="724.2" y="184.8" width="122.8" height="10.6" transform="translate(2.7 -11) rotate(.8)" fill="#1d1d1b"/>
          <rect x="694.9" y="331.7" width="134.3" height="14.2" transform="translate(4.8 -10.6) rotate(.8)" fill="#1d1d1b"/>
          <rect x="653.5" y="407.2" width="101.2" height="14.2" transform="translate(5.9 -9.8) rotate(.8)" fill="#1d1d1b"/>
          <rect x="746.9" y="532.6" width="95.2" height="24.8" transform="translate(7.7 -11) rotate(.8)" fill="#1d1d1b"/>
          <rect x="650.2" y="639.8" width="142.8" height="17.7" transform="translate(9.1 -10) rotate(.8)" fill="#1d1d1b"/>
          <rect x="652.4" y="481.2" width="40.4" height="19.5" transform="translate(6.9 -9.3) rotate(.8)" fill="#1d1d1b"/>
          <rect x="720.2" y="741.7" width="119" height="16" transform="translate(10.5 -10.8) rotate(.8)" fill="#1d1d1b"/>
          <rect x="647.6" y="827.8" width="142.8" height="12.4" transform="translate(11.7 -10) rotate(.8)" fill="#1d1d1b"/>
          <rect x="697.3" y="894.1" width="139.8" height="14.2" transform="translate(12.7 -10.6) rotate(.8)" fill="#1d1d1b"/>
          <rect x="712.2" y="1044.7" width="86.3" height="16" transform="translate(14.8 -10.4) rotate(.8)" fill="#1d1d1b"/>
          <rect x="643.9" y="1091.6" width="71.4" height="14.2" transform="translate(15.4 -9.4) rotate(.8)" fill="#1d1d1b"/>
          <rect x="738.2" y="1162.2" width="95.2" height="12.4" transform="translate(16.4 -10.9) rotate(.8)" fill="#1d1d1b"/>
          <rect x="742.8" y="1263.1" width="52.7" height="14.2" transform="translate(17.8 -10.6) rotate(.8)" fill="#1d1d1b"/>
          <rect x="640.4" y="1340.1" width="110.8" height="16" transform="translate(18.9 -9.6) rotate(.8)" fill="#1d1d1b"/>
          <rect x="718.4" y="1447.7" width="111" height="16" transform="translate(20.4 -10.7) rotate(.8)" fill="#1d1d1b"/>
          <rect x="637.4" y="1558.5" width="142.8" height="18.6" transform="translate(22 -9.7) rotate(.8)" fill="#1d1d1b"/>
          <rect x="678.7" y="1494.6" width="54.8" height="14.2" transform="translate(21 -9.7) rotate(.8)" fill="#1d1d1b"/>
          <rect x="686.9" y="1637.2" width="139.8" height="19.5" transform="translate(23.1 -10.4) rotate(.8)" fill="#1d1d1b"/>
          <rect x="702.2" y="1775.3" width="67.1" height="16" transform="translate(25 -10.1) rotate(.8)" fill="#1d1d1b"/>
          <rect x="634.9" y="1735.4" width="79.4" height="16" transform="translate(24.4 -9.3) rotate(.8)" fill="#1d1d1b"/>
          <rect x="668.6" y="1880.1" width="154.7" height="17.7" transform="translate(26.4 -10.2) rotate(.8)" fill="#1d1d1b"/>
          <rect x="652.1" y="2000" width="80.5" height="14.2" transform="translate(28.1 -9.5) rotate(.8)" fill="#1d1d1b"/>
          <rect x="632.1" y="1937.8" width="101.2" height="12.4" transform="translate(27.2 -9.3) rotate(.8)" fill="#1d1d1b"/>
          <rect x="691.1" y="2091.4" width="129.3" height="10.6" transform="translate(29.4 -10.3) rotate(.8)" fill="#1d1d1b"/>
          <rect x="741.5" y="2201.6" width="65.7" height="19.5" transform="translate(31 -10.6) rotate(.8)" fill="#1d1d1b"/>
          <rect x="628.9" y="2168.4" width="113.1" height="17.7" transform="translate(30.5 -9.4) rotate(.8)" fill="#1d1d1b"/>
          <rect x="706.4" y="2302.5" width="111" height="16" transform="translate(32.3 -10.4) rotate(.8)" fill="#1d1d1b"/>
          <rect x="646.8" y="2378" width="114.1" height="12.4" transform="translate(33.4 -9.6) rotate(.8)" fill="#1d1d1b"/>
          <rect x="674.2" y="2548.4" width="75.2" height="10.6" transform="translate(35.7 -9.7) rotate(.8)" fill="#1d1d1b"/>
          <rect x="696" y="2479.9" width="119" height="12.4" transform="translate(34.8 -10.3) rotate(.8)" fill="#1d1d1b"/>
          <rect x="621.9" y="2665.5" width="178.7" height="17.7" transform="translate(37.4 -9.7) rotate(.8)" fill="#1d1d1b"/>
          <rect x="691.7" y="2784.9" width="119" height="12.4" transform="translate(39 -10.2) rotate(.8)" fill="#1d1d1b"/>
          <rect x="714.9" y="2832.8" width="76.4" height="12.4" transform="translate(39.7 -10.2) rotate(.8)" fill="#1d1d1b"/>
          <rect x="619" y="2879.6" width="113.1" height="14.2" transform="translate(40.4 -9.2) rotate(.8)" fill="#1d1d1b"/>
          <rect x="638.5" y="2976.1" width="169.6" height="14.2" transform="translate(41.7 -9.8) rotate(.8)" fill="#1d1d1b"/>
          <rect x="711.9" y="3038.5" width="67.5" height="19.5" transform="translate(42.6 -10.1) rotate(.8)" fill="#1d1d1b"/>
          <rect x="615.2" y="3136.9" width="125.8" height="33.7" transform="translate(44.1 -9.2) rotate(.8)" fill="#1d1d1b"/>
          <rect x="684.9" y="3269.1" width="119" height="19.5" transform="translate(45.9 -10.1) rotate(.8)" fill="#1d1d1b"/>
          <rect x="663.4" y="3325.4" width="99.7" height="12.4" transform="translate(46.6 -9.6) rotate(.8)" fill="#1d1d1b"/>
          <rect x="611.2" y="3432.9" width="95.2" height="23.1" transform="translate(48.2 -8.9) rotate(.8)" fill="#1d1d1b"/>
          <rect x="630.8" y="3525.9" width="169.6" height="19.5" transform="translate(49.4 -9.6) rotate(.8)" fill="#1d1d1b"/>
          <rect x="671.6" y="3609.2" width="70.5" height="24.8" transform="translate(50.6 -9.5) rotate(.8)" fill="#1d1d1b"/>
          <rect x="607.8" y="3672.3" width="89.4" height="30.2" transform="translate(51.6 -8.8) rotate(.8)" fill="#1d1d1b"/>
          <rect x="677.1" y="3826" width="119" height="21.3" transform="translate(53.6 -9.9) rotate(.8)" fill="#1d1d1b"/>
          <rect x="667" y="3944.6" width="99.9" height="12.4" transform="translate(55.2 -9.6) rotate(.8)" fill="#1d1d1b"/>
          <rect x="604.9" y="3886.9" width="89.4" height="17.7" transform="translate(54.5 -8.7) rotate(.8)" fill="#1d1d1b"/>
          <rect x="659" y="4061.8" width="133.9" height="16" transform="translate(56.9 -9.7) rotate(.8)" fill="#1d1d1b"/>
        </g>
      </g>
    </g>
  </g>
  <g id="dear_front" data-name="dear front">
    <polygon points="509.7 3129.4 537.7 3234.6 562.5 3234.6 579.2 3116 509.7 3129.4" fill="#8e756b"/>
    <polygon points="293.5 3218.2 326.4 3158.4 379.5 2891.2 378.6 3151.6 665.3 3145.9 697.9 3127.5 774.3 2967.8 732.5 2760.9 804.2 2927.7 827.6 2759.1 836.4 2938.2 705.6 3180.7 361.6 3197.7 334.5 3243.4 293.5 3218.2" fill="#3d281a"/>
    <ellipse cx="300.2" cy="3353.6" rx="111.3" ry="211.1" transform="translate(-2276.1 1185.8) rotate(-44.8)" fill="#925f36"/>
    <path d="M169,3222.2l-25-63.5-18.6-271.8-32.4,258.4-283.6-42.2,37.9-175.5-67.9,153.1-55.3-168.2,67.8-199.9-92.4,156.3-75.4-167,55.3,207.7,85.5,222.8,339,60.7,21.1,48.8s17.6,7.1,27.8,1.8c15.1-7.8,16-21.5,16-21.5Z" fill="#3d281a"/>
    <path d="M457.1,3453.3c9.1,25.5-4.2,53.5-29.7,62.6s-53.5-4.2-62.6-29.7c-9.1-25.5,10.8-38,36.2-47,25.5-9.1,47-11.3,56.1,14.2Z" fill="#2e161b"/>
    <path d="M320.8,3503.8s-70.7-14.6-89.7-46.2c-31.4,50.8,11.2,62,89.7,46.2Z" fill="#1d1d1b"/>
    <path d="M325.6,3262.5s1.9-57.2,14.6-69.7c21.6-21.3,119.1-23.2,119.1-23.2,0,0-21.7,90.5-46.5,104.8s-76-8-76-8l-11.2-4" fill="#925f36"/>
    <path d="M109.8,3283.7s-68.5,9.3-85.9-3.2c-29.8-21.4-51.8-137.1-51.8-137.1,0,0,85.9-8,127.7,36.8,29.1,31.2,12.4,89.4,12.4,89.4l-2.4,14.2" fill="#925f36"/>
    <path d="M105.4,3244.8c-6.1-52-32.3-61.3-81.6-75.2,0,0-10,41,20.7,69.5,30.7,28.5,60.9,5.7,60.9,5.7Z" fill="#7f5334"/>
    <path d="M186,3347.5c11.6-3.9,23.6-2.4,33.5,3-6-15.2-22.9-23.2-38.6-18-15.7,5.3-24.3,21.9-19.9,37.6,4.6-10.3,13.4-18.7,24.9-22.6Z" fill="#1d1d1b"/>
    <path d="M351.7,3272.3c5.3-6.3,12.6-8.5,20-6.9-8.5-10.4-20.7-12.1-27.8-3.6-7.1,8.5-6.5,24.1,1.3,35.3-.8-9.5,1.3-18.6,6.6-24.8Z" fill="#1d1d1b"/>
    <g id="Calque_7" data-name="Calque 7">
      <g opacity=".5">
        <rect x="200.5" y="3836.2" width="105.1" height="168.2" transform="translate(309.7 -7.8) rotate(4.5)" fill="#fff"/>
        <path d="M137.3,3968h58.4v21.1h-38.5c-11,0-19.9-8.9-19.9-19.9v-1.2h0Z" transform="translate(314 -.7) rotate(4.5)" fill="#fff"/>
        <path d="M166.7,3847.9h38.5v21.1h-58.4v-1.2c0-11,8.9-19.9,19.9-19.9Z" transform="translate(304.6 -1.9) rotate(4.5)" fill="#fff"/>
        <rect x="142.1" y="3867.3" width="20.9" height="99.4" transform="translate(309.1 .2) rotate(4.5)" fill="#fff"/>
      </g>
      <path d="M215.7,3863.7l-8.8,113.5c-.4,5.1,1.9,12.3,7,12.8l66.3,4.2c5.6.6,10.5-3.5,11-9.1l10.6-127.9-86.1,6.4Z" fill="#f9c248"/>
      <g>
        <circle cx="232.2" cy="3860" r="16.4" fill="#fff"/>
        <circle cx="246.6" cy="3852.9" r="16.4" fill="#fff"/>
        <circle cx="260.4" cy="3868.4" r="16.4" fill="#fff"/>
        <circle cx="272.4" cy="3854" r="16.4" fill="#fff"/>
        <circle cx="289.4" cy="3861.8" r="16.4" fill="#fff"/>
        <circle cx="292.7" cy="3845.2" r="16.4" fill="#fff"/>
      </g>
      <path d="M-56.6,3640.6s44.6,43.8,98.9,144.4c31.2,57.8,98.2,83.8,121.6,84.2s40.3,28.2,38.3,47.9c-2.1,19.6-15.2,50.3-42.5,45.6-27.3-4.7-158.3-18.6-197-122.2-38.7-103.5-36.9-167.4-19.3-200,17.6-32.5,0,0,0,0Z" fill="#7f5334"/>
    </g>
    <polyline points="665.3 3145.9 644.8 2968.7 697.9 3127.5" fill="#3d281a"/>
  </g>
  <g id="robin">
    <g>
      <ellipse cx="543.7" cy="3070.5" rx="54.5" ry="75.1" fill="#8e756b"/>
      <ellipse cx="543.7" cy="3055.8" rx="41.4" ry="57.1" fill="#cc5231"/>
      <polygon points="547.4 3013.1 523.9 3002.3 543.3 3022.4 517.4 3033 546 3031.6 547.4 3013.1" fill="#1d1d1b"/>
      <circle cx="574.8" cy="3017.6" r="4.6" fill="#1d1d1b"/>
      <circle cx="511.3" cy="3011.2" r="4.6" fill="#1d1d1b"/>
      <polygon points="524.9 3134.6 528.4 3148.9 518.6 3169.3 530.5 3154.3 536.8 3168.4 533.4 3149.1 528.7 3134.1 524.9 3134.6" fill="#1d1d1b"/>
      <polygon points="563.2 3135.3 559.7 3134.4 554.5 3148.5 552.5 3166.4 558.3 3153.5 572.2 3161.5 560 3147.3 563.2 3135.3" fill="#1d1d1b"/>
    </g>
  </g>
</svg>