<?xml version="1.0" encoding="UTF-8"?>
<svg id="b" data-name="Calque 2" xmlns="http://www.w3.org/2000/svg" viewBox="0 0 1812.6 1208.5">
  <defs>
    <style>
      .j {
        fill: #5b1012;
      }

      .j, .k, .l, .m, .n {
        stroke-width: 0px;
      }

      .k {
        fill: #1d1d1b;
      }

      .l {
        fill: #848e96;
      }

      .m {
        fill: #fff;
      }

      .n {
        fill: #e62a45;
      }
    </style>
  </defs>
  <g id="c" data-name="sanglier">
    <g id="d" data-name="fond sanglier">
      <path class="l" d="m1459,1113.5c16-2.4,31.9-5.2,47.6-9,15.7-6.9,30.6-16.5,44.2-25,12.3-7.7,24.6-14.8,35.3-24.6,11-10,21-21.3,33.3-29.9,26-18.1,59.3-9.4,88.4-17.6,35.2-9.9,64.5-31.2,92-54.7l-2.5-30.5c-1.9-23.2-3.6-46.5-5.7-69.7-2.3-25.4-5.3-51.2-11.6-76-10.4-41-30.9-78.8-53.3-114.3-15.1-23.9-31.1-47.4-45.3-71.9-7.1-13.9-14.2-27.8-21.3-41.6-3.2-6.3-9.5-12-16.3-15.7-22-30.6-45.8-59.7-71.7-86.9-12-4.8-24.4-10.3-35-17.3-6.3-4.1-11.9-9.8-18.9-12.9-6.9-3.1-14.1-4.4-20.7-8.5-5.4-3.4-2.2-10.3,2.8-11.4-5.9-4.7-12-9.2-18.1-13.6-25.4-18.1-52.7-30.8-80.2-45.8-14-7.7-28.1-15.2-42.7-21.5-12.3-5.3-24.1-9.6-36.3-12-3.1-.3-6.3-1.1-9.4-1.9-2.3-.6-4.2-2-5.6-3.7,3.4-6,3.1-14-2.5-20.1-8.5-9.3-18.8-17.7-30.3-23-12.9-5.9-25.7-8.7-39.7-10.7-7.6-1.1-15.3-1.9-22.9-2.7-4.3-.5-8.6-1.2-12.8-.7-10.4-1.8-21-3.4-31.6-4.9-7.9-1.2-14-8-13.1-16.2.8-7.7,8.3-14.3,16.2-13.1,1.9.3,3.7.6,5.6.8.5-2.9,1-5.8,1.4-8.9,1.8-13.2,3.3-26.3,3.4-39.6,0-10.7.6-23.9-2.4-34.9,2.9-18.9,5-38,6.9-57,.9-9.5-5.2-19-12.3-24.5-7.8-6.1-17.5-8.2-27.2-5.6-27.3,7.4-52.7,22-73.5,41.5-11.8-3.7-23.8-6.6-36-8.6,3.9-2.1,7.8-4.3,11.6-6.4,11.3-6.3,5.4-22.2-6.2-23-46.8-3.1-92.8,9.8-132.3,34.3-1.4.6-2.8,1.3-4.1,2,1-2.9,1.9-5.8,2.8-8.8,3.1-10.7-11.2-15-16.5-6.9,0,0-.1,0-.2,0-3.6,7.4-6.9,15-10.5,22.4-1.7,3.5-3.1,6.9-5.2,10.1-13.2-24.4-36.2-43.3-62.2-52.6-4.3-1.5-9.1.7-11.7,4.4-4.6-.8-9.5,1.1-11,7-5.2,16.3-5,34.1.6,50.2.7,2.1,1.8,3.7,3.1,5,2.1,15.5,5.9,30.8,11.1,45.7,1.6,4.6,5.7,7.3,9.9,7.8,3.3,8.1,7.7,18.6,15.3,22.6-2.4,6.5-4.5,13.2-6.2,20-3.1,2.1-6.1,4.4-8.9,6.8-.6.4-1.2.8-1.9,1.2-4.6,3-9.2,6.4-13.3,10.1-5.4,4.9-9.6,10.9-12.1,17.5-5.7,6.4-10.3,13.8-13.4,21.8-4,2.9-7.9,6.1-11.4,9.7-13.3,13.5-23.3,33.1-22,52.5-.8,1.8-1.4,3.7-2,5.6-4.9,6.1-8.2,13-9.2,21-1.3,9.6.6,17.6,4.4,26.5,4.1,9.6,18.9,15.2,28.8,12.2,2.2,1.1,4.6,2.1,7,2.9,18.8,6.5,40.4,1.3,57.5-7.4,8.2-4.2,15.3-10.4,20.3-17.7.8-.3,1.6-.6,2.4-1.1,2.1-.3,4.2-1.1,6.3-2.4,3.6-.7,7.1-2.4,10.1-5.1.8-.7,1.5-1.5,2.3-2.2,1.9-.9,3.7-2.1,5.3-3.8,12.1-12.5,21.6-28.1,25.6-45.2,4.5-18.9,1.3-37.5,2.1-56.6,0-1.6.2-3.1.3-4.7,0-.1,0-.2,0-.4.1-.7.2-1.4.4-2.1.3-1.5.7-3.1,1.1-4.6.3-1,.6-2,.9-3,.8-2.1.7-2-.4.5,0-.8,1.7-3.4,2.1-4.1.5-.9,1-1.7,1.6-2.6,0,0,.1-.1.2-.2.9-1,2.6-2.6,2.7-2.7.2-.2.4-.3.6-.5.7-.4,1.3-.9,2-1.3,1.2-.7,2.4-1.4,3.6-2.1,2.5,3.8,6.2,6.8,10.9,7.9,1.7.4,3.4.7,5.1,1,0,0,0,0,0,0,.1.1.3.3.4.4.3.5.7,1.2,1,1.7.3,1,.6,2.1.8,3.2.2.6.3,1.3.5,1.9,2.9,1.8,5.1,4.7,6.5,8.1,0,.1.2.3.2.4.4.5.7,1.1,1.1,1.6,1.2,1.6,2.5,3.2,3.7,4.8,1.8,2.5,3.6,5.1,5.1,7.7,1.5-.3,2.9-.9,4.2-1.8,6.7-1.2,11.4-5.8,13.9-12.4-.9,2.4-.1.7.6-.8,3.7-2.7,7.6-5,12-7,1.5-.7,2.8-1.7,3.8-3,4.4-.7,9.1-.8,14-.4.4,0,.6,0,.8,0,0,0,.2,0,.3,0,1.1.2,2.3.4,3.4.7,2.5.6,5,1.3,7.5,2.2.3,0,.8.3,1.2.5.9.5,1.9.9,2.8,1.4,1,.6,2,1.1,3,1.8,0,0,1.5,1.1,2.1,1.5.4.4,1,1,1.2,1.1,0,0,0,0,0,0,0,0,0,0,0,0,0,0,0,.2.1.2,0,0,0,.1,0,.2.2.8.5,1.7.8,2.5,2.6,7.5,6.8,12.3,13.4,15.6.6,4.4,1.6,8.8,2.9,13.3,0,.3,0,.5,0,.8-.2,9.4-.3,18.8-.1,28.2,0,.2,0,.4,0,.6-.3,1.2-.7,2.5-1,3.7-.5.9-1,1.7-1.5,2.6-6.3,11.6-11.3,24-14.7,36.8-1.4,5.2-1.1,10.5.6,15.3l-3.9,4.4c-2,1.3-3.7,2.9-5.3,4.8-3.6,4.5-7.1,9-10.7,13.4-3,3.4-5.4,7.1-7,11.1-2,3-3.9,6.1-5.9,9.2-.4,0-.9.2-1.3.2,0,0,0,0,0,0-3.8.2-7.6.6-11.4.5-2,0-4.1-.1-6.1-.2-.7,0-1.4-.1-2.1-.2,0,0,0,0,0,0,0,0,0,0,0,0,0,0,0,0-.1,0-3.2-.3-1.9-.4-.8-.3-1.7-.4-5.2-.8-5.8-.9-2.3-.5-4.6-1.1-6.9-1.8-4.5-1.3-9-2.8-13.4-4.5-8.6-3.2-17-6.9-25.6-10.1-16.2-6.2-33.5-10.7-50.9-9.5-18.3,1.3-34.9,7.6-47.2,20.6-3.6,2.5-6.3,6.1-7.5,11-.3,1.4-.5,2.8-.5,4.3,0,0,.2,0,.2.2,4.4,3.3,6.2,8.2,5.7,13.1.7.6,1.5,1.1,2.3,1.5,2.2,1.2,4.8,1.9,7.5,2.1,0,.2.1.4.2.6,0,.8.1,1.6.1,2.3,0,.1,0,.7,0,1.3,0,0,0,.1,0,.2-.3,1-.5,2-.8,3-.2.9-1.5,2.5-.2.7,1.8-2.5-1.7,3.1-2.1,3.2.4-.6.9-1.2,1.3-1.8-.4.5-.8.9-1.3,1.3-.9.7-3.4,2.5.4-.2-2.1,1.5-4,3.3-5.4,5.3-.2,0-.4,0-.6,0-4.5.2-8.9.4-13.4.5-1,0-2.1,0-3.1,0-7.4,5-16.2,8.1-24.9,10.1-12.8,2.9-26.2,3.1-39.3,3.3-5.3,0-10.6.2-15.9.1-.3,0-.6,0-.9,0-2,0-4,.2-6,.3-4.8.2-9.6.4-14.4.4-8,0-16-.4-23.9-2-8.3-1.6-17.6-5.2-24.7-6.5-3.9-.7-7.9-1.1-11.9-1.2-1,0-2,0-3.1,0,0,0-.5,0-1,0-.6,0-1.7,0-1.9,0-.8,0-1.5,0-2.3.1-9.2.5-18.4,1-27.6.5-2.4-.1-4.5-.9-6.3-2.1-.7,2-1.1,4.2-1.1,6.5,1.3,35.2,8.7,70,15.2,104.5.6,3.4,1.3,6.9,2,10.3,0,.2,0,.3,0,.5,2.7,13.5,5.7,26.8,8.8,40.3,3.7,16.3,5.6,35,17.7,47.5,9.1,9.4,28.8,5.9,31.2-8.2.2-1.2.4-2.4.6-3.6,1,1.1,2.2,2.1,3.6,2.9,30.3,18.9,60.8,37.5,90.7,57,10.2,6.6,23-2.2,23.3-13.3.2-7.6.4-15.2.6-22.8,6.2,1.9,12.8,2.6,19.1,2.1,7.5,4.6,15,9.4,22.3,14.5,4.3,3,9.9,3,14.8,1-4.9-3.9-6.7-11.4-4.5-17.1,2.8-7.1,9.9-10.1,16.9-8.9,1.4,3.2,2.8,6.3,4.4,9.3,2,3.7,4.1,7.5,7.1,10.5,5.5,5.5,11.7,7.4,18.9,8.3,1.9,5.2,3.2,10.6,4.3,16,8.1,38.3,18.4,76.6,21.2,115.7.8,11.2,1,22.4,1.5,33.5,11.1,20.1,20.2,41.9,22.1,64.6,4,48,21,89,36,133,10.6,30.1,22.9,59.4,37.3,87.7.2,2.3.7,4.5,1.3,6.6,6.8,21.1,29.2,36.2,51.7,29.3,71.7-22,145-38.2,219.3-48.5,55.3-7.1,111.1-10,166.4-17.6,1.9-.3,3.8-.5,5.7-.8.4-.1.9-.2,1.4-.2ZM826.6,429.1c0,0,.1.2.2.3-1.6-1-1.7-1.8-.2-.3Zm76.7,2.8c-.1-.5-.2-.9-.2-1.3,0-.3,0-.5,0-.7,0-.6.4-.1.3,2Z"/>
    </g>
    <g id="e" data-name="trait sanglier">
      <path class="j" d="m1042.6,315c-1-16.2-2.9-32.3-6.1-48.2-2.6-13-6.2-27.4-18.7-34.3-8.3-4.6-16.6,2.9-15.1,11.6,1.1,6.2.3,12-2.3,17.8-1.3,2.8-2.9,5.6-4.7,8.1-.7.9-1.9,2.6-3.2,4-.8-.6-1.7-1-2.7-1.4-2.8-1-5.5-1-8.3-.4-.2-.3-.3-.6-.4-1-1.3-3.5-2.4-7-3.4-10.5-2.5-8.7-14.8-8.4-17.4,0-.6,1.8-2.3,3-2.8,5-.9,3.2.5,6.4,1.3,9.5,1.4,5.3,2.6,10.7,3.7,16.1,1.2,6,3.3,15,0,21-.8,1-1.6,2.1-2.4,3.3-2.7,4.2-.9,10.2,3.3,12.6,4.7,2.8,9.6.7,12.6-3.3,8.6-13,28.8-8.9,41.6-7.1.6,0,1.1.1,1.7.1.4.4.8.8,1.2,1.1,1.7,1.4,4.8,2.3,6.5,2.9,5.7,4.6,16.2,2.3,15.7-6.9Z"/>
      <path class="n" d="m1031,327.8c-4-7.3-12.6-9.1-20.2-10-7.3-.9-14.5-.7-21.7.6-14.3,2.6-27.2,10.5-37.3,20.6-7.4,7.5-18.1,16.6-18.9,27.3-10-1.2-20.1-2.4-30.1-3.5-9.8-1.1-13.9,14.7-5.1,18.7,9.2,4.2,18.4,6.6,27.9,7.1.5,3.9,3.4,7.3,8.6,7.2,4.8,0,8.8,1.2,12.8,3.7,4.9,3.1,12.3.2,13.6-5.5.3-1.1.5-2.3.8-3.4,1.3-.7,2.4-1.8,3-3.2,2.9-6.5,5.7-13.1,8.6-19.6,2.5-5.7,4.5-12.5,7.8-17.7,0,0,0,0,0-.1,1.1-.5,2.5-.6,3.7-.8,2.2-.5,4.4-.9,6.6-1.1.4.2.8.3,1.3.5,9.2,2.9,15,11.4,15,20.9,0,8,12.6,12.6,16.1,4.4,3.3-7.6,6-15.4,7.8-23.5,1.6-7.2,3.5-15.7-.3-22.6Z"/>
      <path class="m" d="m777.1,235.3c-5.9-6.3-11.3-12.5-16-19.7-2.9-4.4-6-8.6-11.4-9.9-6.5-1.6-11.8,1.8-15.5,6.8-5.8,7.9-8.1,17.5-9,27.1-.8,8.2-1.4,19.1,3.3,26.3,1.5,2.4,3.4,4.2,5.5,5.4-.1,2.7.4,5.5,1.5,8.1,3.9,9.2,16.2,10.2,19.8,0,1.5-4.3,3.3-4.8,6.9-7.5,3.8-2.8,7.3-5.9,10.3-9.6,3-3.6,6-7.4,8-11.6,2.9-6.1,1.1-10.8-3.2-15.5Z"/>
      <path class="m" d="m955.5,306.6c1.6-10.5,1.3-21.2-1.8-32.2-.7-2.5-2.2-4.4-4-5.7-.1-.6-.2-1.2-.4-1.8-1.5-7-4-13.8-6.9-20.3-2.8-6.2-5.9-14.7-11.6-18.9-7.5-5.5-18.3-2.9-23,5.1-4.3,7.1-2.3,15.1-1.8,22.8,1,15.4.3,30.8-3,46-.6,3-.2,5.5.9,7.6-1.2,3-2.6,6-4.2,8.9-1.7,2.7-3.4,5.4-5,8.2-.7,1.1-1.1,2.3-1.4,3.4-2.6,1.6-4.7,4.1-5.4,7.2-5.1,22.7,19.6,40.3,39.5,27.7,16-10.1,25.7-29.9,29.8-47.7.8-3.6.2-7.4-1.8-10.3Z"/>
      <path class="m" d="m985.8,233.6c-3.2,3.2-6.7,5.7-10.6,7.9-2.7,1.5-4.5,5.4-3.4,8.4,1.7,4.6,2.9,8.9,6,12.8.2.3.4.5.6.7-.1,6.6,8,9.6,12.5,5.8,1-.5,1.9-1.2,2.7-2.2,3-3.7,5.5-7.7,6.5-12.4,1-5-.1-9.9.5-14.9,1-7.8-9.9-10.9-14.8-6.1Z"/>
      <path class="m" d="m1004.4,373.1c-.6-3-.2-6-.2-9-.1-7.2-2.4-14.2-9.1-17.9-4.7-2.6-12.3-1.5-14.8,3.9-2.5,5.7-5.1,11.3-7.6,17-2.6,5.7-5.3,11.2-5,17.6-1.7.7-3.4,1.4-5.1,2.1-11.9,4.7-7.6,22,5.4,19.5,7.3-1.4,14.7-2.7,21.4-5.9,6.2-2.9,14.9-7.5,16.8-14.5,1.3-4.8-.9-8.3-1.8-12.7Z"/>
      <path class="m" d="m1038.2,177.4c-3.8-7.3-8.9-11.4-16.6-14.2-7.2-2.7-14.9-5.1-22.5-5.9-8.6-.9-15,4-20.9,9.8-6.1,6.1-12.7,14.4-9.1,23.6,2.1,5.3,6.5,9,11.9,8.8.3.1.6.2.9.3,7.4,2.2,13.8-2.3,21.2-1.5,6.4.7,10.3,4.6,15.7,7.5,7.5,4,18.2,4.1,23-4.1,4.5-7.7,0-17-3.6-24.1Z"/>
      <g>
        <path class="k" d="m813,305.2c-15.3-3.7-31.4-5.8-47.1-4.8s-23.7,8.9-30.8,21c-13,22.4-11.4,51.5,12.6,65.5,23.8,13.9,58.3,12.6,82.7,1.1,11.7-5.5,20.6-15.4,21.9-28.6,1.3-13.3-4.8-26-14.2-35.3-11.1-10.9-26.2-18-41.4-20.9-7.7-1.5-15.7-2.1-23.5-1.4s-15.7,1.6-21.6,6.6c-2.2,1.9-.4,5.5,2.3,5.5,5.4,0,10.3-1.7,15.6-2.5s12.4-.9,18.6-.2c11.8,1.3,23.2,5.4,33.2,11.7,9.4,5.9,18,14.3,20.9,25.3s-1.1,22.7-11.2,29.2c-19.2,12.4-47.9,13.6-69.2,6.8-10.4-3.3-20.3-9.6-24.8-19.9-4.4-10.1-3-21.7.9-31.7,4.9-12.6,13.7-24.1,27.9-25.6s31-.6,46,2.2c2.6.5,3.7-3.4,1.1-4h0Z"/>
        <path class="k" d="m743.4,311.4c5.1-25,23.4-45.4,47.9-52.8,13-3.9,26.9-4.6,40.4-3s15,2.5,22.3,4.4,7.3,2,10.9,3.3,6.3,3.2,10,3.1,4.9-5,1.9-7.1c-3.2-2.3-8-2.4-11.9-3.3s-7.4-1.7-11.1-2.5c-7.6-1.7-15.3-2.9-23.1-3.6-14.8-1.2-30-.2-44,4.8-24.5,8.8-42.6,30-47.1,55.7-.4,2.5,3.3,3.6,3.8,1.1h0Z"/>
        <path class="k" d="m773.9,264.5c14.2-20,27.8-41.3,51.4-51.2s24.6-4.8,37.4-3.8,13,1,19.5,1.7,14.5,2.9,20.6.9c3-1,4.1-5.6.9-7.1-5.9-2.9-14-1.9-20.5-2.2s-14.9-.9-22.4-1.2c-13.4-.7-26.3,0-38.6,5.6-23.4,10.5-39.8,33.6-51.7,55.5-1.2,2.3,2,4.1,3.4,2h0Z"/>
        <path class="k" d="m885.5,340.3c16-13.5,20.6-34.8,21-54.8.2-11.7-1.1-23.4-.7-35.1.2-6,1.1-12.6,5-17.5s9.9-7.5,15.4-4.4c4.6,2.5,8,7.7,11,11.9,3.2,4.6,6,9.5,8.4,14.5,4.9,10.2,7.9,21.3,8.8,32.6.9,11.9.3,24.6-2.1,36.4s-7.3,19.8-15.5,27.4c-4.4,4-9.3,7.8-14.6,10.6-6.8,3.6-13,3.4-20,.2s-10.7-5.1-13.5-9.9-2.1-9.3,2.1-11.7,1.3-8.8-3-7.2c-10.1,3.7-11.7,16.3-6,24.6,6.3,9,21,16.4,31.9,15.8,12-.7,23.5-10.1,31.6-18.2,9.8-9.9,14.8-21.9,16.5-35.6,3.5-27.5.6-55.6-15.1-79.2-6.2-9.2-15.4-22.5-28.2-20-11.8,2.3-17.7,13.7-18.8,24.7-1.7,16.4,1.7,33.1.4,49.6-1.2,15.7-5.7,31.6-17.1,43-1.6,1.6.8,3.8,2.4,2.4h0Z"/>
        <path class="k" d="m842.5,371.7c7.8-1.8,15-4.5,22.1-8.2,6.7-3.5,14.5-7.7,19.4-13.6,1.9-2.3-.5-6.2-3.4-4.4-6.3,3.8-11.7,9-18,12.8-6.6,4-13.7,7.4-20.9,10.2-1.9.7-1.2,3.6.9,3.1h0Z"/>
        <path class="k" d="m817.5,420.3c-3.7-2.8-3.6-8.1-1.3-11.7,2.5-3.9,7-6.3,11-8.5,7.8-4.2,15.9-7.7,24.5-10.1,17.1-4.7,34.3-4.4,51.1,1.2,15.1,5,29.3,12.5,44.8,16.5,14.9,3.9,30.3,4,44.6-2.1,29.5-12.5,45.6-42.6,51.2-72.9,3-16,4.1-32.8,3-49-1-14.9-4.3-30.4-13.1-42.8-9.9-13.9-26-22.5-42.7-15.2-7.9,3.5-14.5,9.3-20.4,15.5-6.5,6.9-12.8,13.6-19.9,19.9s.6,5,3,3.9c14.2-6.6,22.2-21.9,36.2-29.2,7.2-3.7,15.6-4.6,22.8-.5,6.4,3.6,11.3,9.8,14.8,16.2,7.1,13.1,8.5,28.6,8.3,43.3-.2,16.3-1.7,32.8-6.2,48.5-8,28-29.7,56.1-61.3,56.5s-30.3-6.3-44.7-11.5c-14.8-5.3-29.9-10.1-45.8-9.6-17.9.6-35.4,6.5-50.9,15.2-6.2,3.5-13.6,7.6-16.1,14.7-2,5.6-.4,12.3,5.3,14.8s3.5-1.6,1.7-3h0Z"/>
        <path class="k" d="m783.3,239c-5.4-3.2-9.6-6.1-13.6-11.1-3.8-4.9-7-10.2-11-14.9s-8.5-9.3-14.2-10.1-11.7,7.8-14.2,13.5c-6.3,14.3-6.2,30.5-4.8,45.7s1.1,15.3,5.4,21.4c3.7,5.3,10.4,8.7,16.7,6.3s2.1-6.1-1.5-5.5c-15.2,2.5-14.6-23.3-14.8-32.7-.4-12.8.8-26.3,7.7-37.4.7-1.1,1.6-3.1,2.6-3.8,2.2-1.5,4.4,0,6.1,1.2,2.1,1.4,3.9,3.2,5.6,5.1,3.3,3.6,6,7.7,8.9,11.6,4.7,6.4,11.3,14.7,20.1,14.8s3-3,1.1-4.1h0Z"/>
        <path class="k" d="m1036.1,306.5c1.7,0,1.7-2.6,0-2.6s-1.7,2.6,0,2.6h0Z"/>
        <path class="k" d="m889.5,385.8c2.8-3.2,4.9-6.9,7.5-10.3,2.6-3.5,5.9-6.4,8.3-10,3.5-5.1-3.4-11.7-8.4-8.4-7.8,5.2-14.4,16.3-14.9,25.6-.2,3.7,5.1,6,7.5,3.1h0Z"/>
        <path class="k" d="m959.1,402.2c6.3-6.4,10.9-14.8,15-22.8,4.3-8.5,7.8-17.2,10.5-26.4,1.1-3.7,2.1-7.4,5.8-3.5s5.1,7.6,6.3,11.8c1.2,4,1.7,8.1,1.5,12.2-.2,4.6-1.1,8.7,2.3,12.4,1,1,2.9,1.7,4.3,1.1,10.9-4.3,6.2-22.1,2.7-30.3-3.5-8.4-12.3-22.9-23.4-19.3-10,3.2-10.6,18.6-13,26.8-3.7,12.6-10.1,23.4-15.6,35.2-1,2.2,1.6,4.7,3.6,2.7h0Z"/>
        <path class="k" d="m979.3,205.3c8.5-3.2,17.9-4.7,26.9-2.9,4.4.8,8.8,2.3,12.7,4.3,3.6,1.9,7,4.4,11,5.4,18.6,4.7,18.6-20.7,14.8-32.1-5-14.9-17.7-26.6-33.4-29.2s-32.5,3.9-41.9,16.5c-5,6.7-7.5,15.5-5.2,23.8,2.2,7.8,8.2,15.2,16.8,14.5s4.4-4.3,1.7-6.3c-5.7-4.2-10.5-9.7-9.3-17.3,1.3-7.8,7.6-13.9,14.5-17.2,13.4-6.4,31.1-2.6,40.4,9.1,4.5,5.6,7.3,12.4,7.9,19.5.3,3,1.1,9.1-2.5,10-3.4.9-8.3-3.2-11.3-4.6-14.2-6.5-31.5-5.5-44.7,2.8-1.8,1.1-.7,4.4,1.5,3.6h0Z"/>
        <path class="k" d="m1001.9,188.7c.2-2.2.5-4.5.6-6.7-2.2.9-4.3,1.8-6.5,2.7.4.5.4.4,0-.3,0-.5.2-1,.6-1.5l6.5.8s-.8-1-.5-.6-.3,1.1,0,0c1.3-4.5-5.5-7.7-7.8-3.3s-1.9,3.7-2.8,5.6c2.5.3,5,.6,7.4,1,.3,2.2.1-.1,0,.7s-1.1,0,0,0c-1.1-.6-2.2-1.3-3.3-1.9.6,1.4-.5,3.2-.6,4.6-.2,2.5,3.1,4.4,5.1,3,3.2-2.3,3.7-7,2.5-10.5-.6-1.8-1.9-2.6-3.7-2.8-4.3-.5-8.4,3.7-8,8s5.4,5.8,7.6,2.1c1-1.8,2.1-3.6,3.1-5.4l-7.8-3.3c-1,3.2.2,6.7,3,8.5,2.1,1.3,5.6.1,6.1-2.5s.1-5.7-2.1-7.6c-2.5-2.2-6.4-.7-6.5,2.7s0,4.5,0,6.7,1.6,3.5,3.5,3.5,3.3-1.6,3.5-3.5h0Z"/>
        <path class="k" d="m957,131.2c8.3-13.8,19.3-27.4,35.4-32,15.3-4.4,29.6,1.7,40.4,12.7,4.2,4.2,10.2-1.1,7.9-6.1-8.7-18.1-32.7-24.2-50.9-19.1s-35.4,22.7-36.9,43.4c-.2,2.3,3.1,2.9,4.1,1.1h0Z"/>
        <path class="k" d="m852.6,150.4c10.8-2.6,24.3-1.6,32.8,6.1s6.6,8.3,7.5,13.4-.4,9.8.4,14.6c.5,3.1,4.3,3.1,6.2,1.6,5.5-4.3,5.2-12.9,3.9-19.1-1.5-7-5.6-13.8-11.1-18.4-11.9-10.1-28.5-10.2-41.4-2.3-2.2,1.3-.8,4.7,1.7,4.1h0Z"/>
        <path class="k" d="m886.9,382.4c1.6,0,1.6-2.5,0-2.5s-1.6,2.5,0,2.5h0Z"/>
        <path class="k" d="m850.5,448.9c1.6,0,1.6-2.5,0-2.5s-1.6,2.5,0,2.5h0Z"/>
        <path class="k" d="m835.1,182.9c-10.2-6.9-17.3-17.3-23.4-27.8-6.4-11-11.3-22.6-14.9-34.8-6.9-23.8-9.7-50.5-4.3-74.9l-2,2.6c17-7.4,37.3-2.2,51.2,9.2,6.6,5.4,12.3,12,16.9,19.2,4.2,6.5,7.3,17.2,15.9,18.8,4.3.8,7.1-3.1,5.4-7s-4.5-7.3-6.6-11.1-4.9-8.3-7.8-12.1c-5.6-7.5-12.1-14-19.8-19.3-15.2-10.5-35.5-14.8-53.2-8.2-4.1,1.5-7.7,2.6-8.6,7.1s-1.7,9.5-2.1,14.3c-.9,9.4-1,18.9-.2,28.2,1.5,19.2,6.2,37.7,14.1,55.3,7.4,16.7,18.8,39.4,38,44.2,2.4.6,3.6-2.5,1.6-3.9h0Z"/>
        <path class="k" d="m1070.6,75.5c-10.1-7.8-23.9-9.5-36.1-6.7,1.2,1.6,2.4,3.2,3.7,4.8,6.5-10.4,14.7-19.4,24.3-26.9s.8-5.2-1.5-5.7c-33.6-8.1-65.6,7.5-94.2,23.5,1.8,1.8,3.6,3.6,5.4,5.4,5.9-8.3,12.7-15.9,20.4-22.7s.6-7.3-2.9-7c-33,2.3-65.1,13.9-91,34.5,3.6,1.5,7.3,3,10.9,4.5,1.5-12.8,3.1-25.6,4.6-38.3.8-6.4-7.6-8.2-11.6-4.8-15.1,13.1-27.2,29.5-35.2,47.8-4.2,9.7,9.4,15.6,13.5,5.7,6.9-16.9,17.8-31.8,31.3-43.9-3.9-1.6-7.7-3.2-11.6-4.8-1.3,12.8-2.6,25.6-3.8,38.3-.6,6.1,7.1,7.7,10.9,4.5,23.4-19.5,51.5-32.3,82-35.3-1-2.3-1.9-4.7-2.9-7-8,7.4-15.1,15.6-21.3,24.6-2.3,3.4,2.2,7.2,5.4,5.4,26.7-15.2,56.8-30.9,88.4-23.7-.5-1.9-1-3.8-1.5-5.7-10,8-18.4,17.6-25.1,28.5-1.5,2.5,1,5.5,3.7,4.8,11.2-2.9,21.8-.7,31.8,4.7,2.9,1.6,5-2.4,2.5-4.3h0Z"/>
        <path class="k" d="m815.9,424.4c12.3,10.5,21.9,23.4,28.6,38.1,2.2,4.9,9.1,2,9.4-2.5.7-11.4.3-22.5-.9-33.9l-4.9,4.9c7,.7,9.2,9.7,16.1,11.4,9,2.2,11.8-7.7,16.7-12.8l-4.4-.6c4.5,6.6,9.1,14,15.1,19.4,2.2,2,4.8,3.8,7.6,4.7s8.1-.2,10.9,2c2.2,1.7,5.1-.4,3.9-3-2.8-5.9-11.1-2.9-15.9-5.8-7.1-4.4-12.2-13.4-16.7-20.1-1-1.4-3.1-2-4.4-.6-4.1,4.4-8.2,15.6-14.8,8.3-3.9-4.2-6.7-10.8-12.6-12.4s-6.3,1.5-6.1,4.7c.5,11.3.6,22.6.6,33.9,3.1-.8,6.2-1.7,9.4-2.5-7.9-15.3-19.1-28.3-32.9-38.6-3.2-2.4-7.4,3-4.3,5.6h0Z"/>
        <path class="k" d="m1056.1,137.3c1.4-6.5,4.7-12.7,6.8-19.1,2.1-6.5,4.5-12.6,7.9-18.6,6.8-12.1,15.4-22.7,26.1-31.5,10.6-8.8,23.4-15.1,36.7-18.7s13.5-3,20.4-3.4,14.6,1,21.8.5c-2.3-2.3-4.6-4.6-6.8-6.8-.4,4.5-1.7,8.7-1.7,13.3,0,4,.5,8,1.1,11.9,1.4,8.7,3.9,17.2,5.3,25.9,2.8,17.9-3.6,34.8-10.5,51-5.8,13.7-12.1,29.3-24.2,38.7-5.6,4.4-12.4,7-19.4,8.4s-6.5.7-9.7.7-8,.6-12.1.8-9,7.1-4.4,10.7,4.7,3.9,7.3,5.4c3.5,1.9,8.5,2.3,12.3,2.5,6.6.4,13.9-.7,20.2-3,13.9-5,24.6-14.6,32.5-27.1s13.1-26.5,17.6-40.3c4.8-15,7.7-30.8,5.5-46.6-1.1-8.1-3.5-16-5.5-24-1.7-6.8-5.1-18.2-1.4-24.9,2.3-4.1,0-8.5-4.1-10-7.3-2.7-16.8-2.2-24.4-1.7s-15.3,1.7-22.7,3.6c-15.7,4.1-30.2,11.6-42.8,21.7-11.7,9.4-21.6,21.9-28.1,35.5-3.3,6.8-6.1,14-8.1,21.3-2.2,7.9-1.2,15.1-.9,23.1.1,3.1,4.9,4,5.6.8h0Z"/>
        <path class="k" d="m1138.7,241.7c10.8-4.3,21-13.2,29-21.3,9.2-9.4,16.4-20.5,20.5-33.1,4.4-13.4,5-27.7,5.2-41.7.2-12.9.8-31.3-12.9-38.2s-9.1.6-9.6,5.5c-.5,5.5.1,11.4.8,16.8s.7,11.1.8,16.7c0,11.9.6,24.3-1.4,36.1-1.9,10.9-6.1,20.7-12.5,29.7-6.6,9.2-15.7,16-22.6,24.7-1.5,1.9-.2,5.8,2.7,4.6h0Z"/>
        <path class="k" d="m985.2,51.9v-.2c-.2-.2-.3-.5-.4-.7-.2-.3-.5-.6-.8-.8h-.3c-.1-.2-.3-.3-.4-.3-.2,0-.5,0-.7,0-.4,0-.8.2-1,.5s-.4.5-.5.8c-.1.5,0,1,.2,1.4s.5.9.9,1.1.6.3.9.4c.3,0,.6,0,.9,0,.3,0,.5-.2.8-.4.2-.2.4-.5.4-.8,0-.3,0-.6,0-.9h0Z"/>
        <path class="k" d="m841,181.2c8.8-2.3,16.4-5.2,25.7-4.1,9.2,1.1,17.4,5,24.3,11.1l2.9-6.9c-1.3,0-2.7-.1-4-.2-3.1-.2-4.7,4.9-1.7,6.2,1.2.5,2.4,1.1,3.6,1.6,3.9,1.7,8.6-3,4.9-6.4-7.8-7.2-18.1-11.4-28.6-12.3s-22,.8-29.2,7.6,0,4,2,3.5h0Z"/>
        <path class="k" d="m849.8,194.6c6.1-2,12.4-3.8,18.8-4.7s13.4-2.2,18,.5c6.6,3.9,11.7-7,4.2-9.9s-14.7-.5-21.1,1c-7.7,1.8-14.9,4.7-21.5,9s-.8,4.9,1.7,4.1h0Z"/>
        <path class="k" d="m832.4,180.4c-2.5,1.2-3.1,3.9-4.1,6.4-1.3,3.4-2.4,7-3.1,10.6-.8,4.2,0,8.8,5,9.3s3.9-3.4,2-4.9,0-7.9.6-10.4c.7-3.2,2.7-6.9,1.5-10.1s-1.2-1.2-2-.8h0Z"/>
        <path class="k" d="m1139.5,242.8c14.4-7.6,32-6,47.7-5,17.5,1.1,34.9,3.3,52.1,6.8s32.1,5.8,44.3,15.7c10.2,8.2,16.8,20.4,28.8,26.4.8-2.9,1.6-5.8,2.3-8.7-9.4.8-17.5,4.6-24.2,11.1-2,2-1.9,6.3,1,7.6,65.5,28.3,129.1,61.4,192.5,94.2,6,3.1,11.9,6.2,17.9,9.3l1.4-10.4c-6.5,2.2-13,4.4-19.5,6.5s-5.8,6.6-2.6,9.8c15.4,15.2,36.6,23.4,55.5,33.5,26.7,14.2,50.8,31,70.7,54.1s13.6,17.3,19.5,26.5,12.5,24.3,20.7,35c3.7,4.9,11.8,2.3,10.3-4.3-2.7-11.7-9.3-22.1-15.5-32.3-5.5-9.1-11.7-17.7-18.2-26.1-10.8-13.9-23.1-26.5-37-37.4s-23.8-17.3-36.8-24-21.9-10.5-32.9-15.8c-9.9-4.8-20.1-10.2-27.9-17.4-.9,3.3-1.7,6.5-2.6,9.8,6.4-2.3,12.9-4.6,19.4-6.8s6-8,1.4-10.4c-52-26.8-104.4-52.5-157.1-77.8-18.2-8.7-36.6-16.9-55.2-24.7l2.1,8c4.8-4.8,10.6-8,17.4-8.6s6.9-6.5,2.3-8.7c-13.1-6.3-20.2-20.4-32.3-28.2-13.8-8.8-31.3-11.5-47.2-14.3-17.9-3.2-36.1-5.1-54.3-5.8s-32.6-1.1-46.7,7.5c-3.1,1.9-.4,6.6,2.9,4.9h0Z"/>
        <path class="k" d="m836,435.1c-15.8,5.4-31.2,12-47.4,16.3s-33.4,6.7-50.3,7.2c-33.8,1-67.3-3.9-100.4-10.5-30.1-6-60.6-12.1-89.5-22.7-14-5.1-27.6-11.6-40.2-19.7-13.4-8.6-25-19.2-35.9-30.6-12.7-13.4-25.3-27.1-37.1-41.4-5.7-7-10.8-14.4-16.1-21.8-5.4-7.6-9.9-16.5-16.5-23.1-3.5-3.6-9.4,0-8.2,4.8,2.1,8.2,6.7,15.8,10.7,23.3,4,7.6,9.2,14.4,14.4,21.1,10.3,13.3,21.7,25.8,33.2,38.2,11.7,12.7,23.7,24.9,37.5,35.2,12.6,9.4,26.5,16.8,40.9,22.9,29.1,12.3,60.1,18.9,91,24.9s69.7,12.7,105,12.2c39.4-.6,76.7-11.9,111.2-30.6,3-1.6.9-6.6-2.3-5.5h0Z"/>
        <path class="k" d="m331.6,342.4c9.1,30.9,23.7,61,39.7,88.9,15.5,26.9,33.4,52.4,53.4,76.2,41.9,50,93.4,91.7,149.3,125.1,32.2,19.2,65.8,35.7,99.9,51,5.7,2.6,12.3-2.8,8.9-8.9-5.3-9.5-8.1-19.3-11-29.7l-8.7,6.7c15.1,7.6,29.2,17.9,43.5,26.9,14.1,9,28.3,17.9,42.4,26.9,6.7,4.3,13.4,9.1,20.4,12.9,5.5,3,11.4,1.9,14.4-3.9,3.2-6.3,3.1-15.1,4.1-22,1.3-8.4,2.6-16.9,3.8-25.3l-7,2.8c18.8,10.3,37.5,20.8,56.3,31.3,2.3,1.3,4.9.4,6.3-1.7,3.2-4.6,3.6-10.3,3.9-15.8.1-2.8.2-5.6,1.2-8.3.2-.4,1.2-3.3,1.9-3.4s3.9,3.3,4.3,3.6c11.2,9.5,22.5,19,33.7,28.5,4.6,3.9,11.2-2.7,6.6-6.6-7.3-6.2-14.7-12.4-22-18.6s-7.8-6.6-11.7-9.9c-2.7-2.3-5.5-5.3-9-6.1-6.6-1.5-11,4.6-12.7,10.1s.2,15.7-4.1,21.9l6.3-1.7c-18.7-10.4-37.5-20.9-56.1-31.5-2.4-1.4-6.5-.3-7,2.8-2.3,14-4.1,28.2-7,42s-.6,3.6-1.2,3.7c1.4-.4-3.3-3-2.8-2.7-2.8-1.8-5.5-3.5-8.3-5.3-6.4-4.1-12.7-8.1-19.1-12.2-12.2-7.8-24.3-15.6-36.5-23.4-12.5-8-25.8-15.4-37.5-24.6-3.6-2.8-10.6-1.5-10.1,4.2.9,12.1,5.3,24.2,11.4,34.7l8.9-8.9c-60.7-25.8-119.3-58.1-171.2-99-48.5-38.3-91-84.5-124.1-136.7-9.5-15-18.4-30.5-26.4-46.4-8.2-16.3-15.1-33.1-22.3-49.8-1.2-2.9-5.9-.8-5.1,2.1h0Z"/>
        <path class="k" d="m1177.2,55c-1.3-9.6,4.6-19.2,9.4-27,4.7-7.7,10.7-14.8,15-22.8,2-3.8-2.5-6.8-5.6-4.4-8.7,6.7-14.8,17.5-19.7,27.2-4.7,9.2-8.6,19-3.6,28.9,1.4,2.8,4.9.6,4.6-1.9h0Z"/>
        <path class="k" d="m1166,48.5c9.7-3.2,18.9-8.4,27.4-14,8.6-5.6,17.3-11.8,24-19.6,2.9-3.3-1.4-7.4-4.7-4.7-7.8,6.3-15.1,13.2-23.4,18.9-8.1,5.6-16.7,10-25.1,14.9s-.8,5.2,1.8,4.4h0Z"/>
        <path class="k" d="m851,117.6c4.9-7.4,1.4-17.6-2.7-24.5-4.6-7.8-10.8-15-17.2-21.4-6.3-6.2-13.1-11.8-20.4-16.8-3.8-2.6-7.7-5-11.8-7.2-4-2.2-8.5-5-13-5.8-8.7-1.6-6.7,11.8,0,9.2,1.3-.5,2.1-1,2.9-2.2-2.2.6-4.4,1.1-6.6,1.7,3.2,2.4,7.3,3.7,10.8,5.6,3.6,1.9,7.1,4,10.5,6.2,6.4,4.2,12.5,9,18.1,14.3,5.6,5.3,11,11,15.6,17.2,2.3,3.1,4.4,6.5,5.9,10.1,1.8,4.2,2.1,8.6,3,13.1.5,2.4,3.8,2.5,5,.7h0Z"/>
        <path class="k" d="m790.2,44.1c-10.4-1.3-24.4-9.1-31.9,2.3-1.9,2.9,2.6,6.5,4.9,3.8,6.5-7.7,19.7,2.3,27.8-3.1,1.4-.9.7-2.8-.8-3h0Z"/>
        <path class="k" d="m929.8,380.3c6-9.6,10.4-19.9,17.5-28.9s15.6-16.8,25.7-22.1c18.3-9.6,43-9.5,58.6,5.3,4.3,4.1,10.9-2.5,6.5-6.5-17.9-16.1-44.6-17.1-65.8-7.1-11.5,5.4-21.2,14.2-29,24.1s-15.1,21.3-18.2,33.2c-.7,2.9,3.2,4.5,4.8,2h0Z"/>
        <path class="k" d="m965.8,250.6c3.6,3.2,6.5,6.8,7.5,11.6.9,4.5.6,9.2,3.7,13,6.2,7.4,15.3,2.5,20.5-3.5s8.6-16.6,8.6-25.9c0-6.1.2-22.4-9.5-21.1-3,.4-5.4,4.9-1.8,6.6s2.1,7.6,2.3,9.9c.3,4,.5,8,0,11.9-.9,6.1-3.6,12.3-8.7,16.1-1,.7-3.1,2.3-4.4,1.8s-2.3-3.8-2.7-5.5c-.7-2.9-1.1-5.8-2.4-8.6-2.2-4.6-6-8.2-10.8-9.9s-3.8,2.3-2.2,3.7h0Z"/>
        <path class="k" d="m774.4,353.7l-.9,1.8,4.9,1.3c-1.2-5.2-1.1-10.9-1.7-16.2-.4-3.3-2.6-6.2-6.2-6.2s-6.3,2.8-6.2,6.2c0,5.6.4,11.2,1.1,16.8.4,3.4,2.6,6.2,6.2,6.2s6.3-2.9,6.2-6.2c0-3.1.1-6.3.2-9.4l-12.1,3.3c1.5,3.4,4.4,5.7,8.1,5.9s3.9-1.4,4.3-3.2c.5-2.7,0-5-.5-7.7-1.2-7.3-13.1-5.5-12.8,1.7s.3,6.3.3,9.4h12.5c-.7-5.6-1.1-11.2-1.1-16.8l-12.2,1.7c.9,3.3,2.2,6.5,3.5,9.6,1.4,3.2,3.3,5.2,5.5,7.8,2.2,2.5,6.3-.7,4.6-3.5-.3-.6-.4-1.2-.2-1.9.1-2-2.9-2.4-3.5-.5h0Z"/>
        <path class="k" d="m806.4,351.5l-1.1.5c1.4,1.8,2.8,3.6,4.1,5.4,2.2-4,2.5-8.8,4.7-12.9-3.4-1.4-6.9-2.9-10.3-4.3-1.5,4.8-2.9,9.7-5.2,14.3,3.8,1.6,7.6,3.2,11.4,4.8,1.4-4.9,3.6-9.8,5.6-14.5-4.7-1.3-9.3-2.6-14-3.9-1.4,4.8-2.8,10.3,1.2,14.3s5.6,2.7,7.9,1c2.3-1.7,3.5-3.1,4.1-5.9.4-1.8.5-3.7.9-5.6.7-3.8-1.1-7.8-5.1-8.9s-7.8,1.3-8.9,5.1c-1.5,5-2.4,10-3.6,15-1.9,7.9,9.4,10.8,12,3.3,1.9-5.3,3.8-10.5,4.7-16.1,1.1-7.1-8.4-10-10.9-3-1.9,5.3-3.4,12-.7,17.2,1.9,3.6,8.2,1.1,6.7-2.8l-.4-1.3c.2-1.7-1.6-3.1-3-1.7h0Z"/>
        <path class="k" d="m892.2,706.1c-.7,12.9,1.6,25.6,3.3,38.4,1.8,13,3.8,25.9,6,38.8,4.2,25.2,9.2,50.2,14.6,75.1,10.9,50.5,24.1,100.5,39,149.9,8.5,28,18.2,55.6,30.2,82.3,2.6,5.7,11.4,1.6,9.9-4.2-12.7-49.7-29.4-98.3-43-147.7-13.6-49.5-25.2-99.5-35.5-149.7s-5.6-27.4-8.3-41.2c-2.8-14.3-4.7-29-9.6-42.7-1.3-3.6-6.5-3-6.7.9h0Z"/>
        <path class="k" d="m1119.9,496.9c4.6,12.4,12.7,24.9,21.5,34.8,8.5,9.5,19.3,16.9,31.8,19.8s2.9-.7,2.9-2.2c.2-8.7.4-17.4.7-26.2l-3.9,2.3c12.2,7.5,25.5,12.8,39.6,15.5s13.9,2.1,20.9,2.2c5.7.1,12.1.2,17.4-2.3s7.5-6.9,8.3-12.2c1.1-7.5.9-15.5.6-23.1-.3-7.4-1.1-14.7-2.3-21.9-.7-4.7-1.2-12-7.9-10.4-1.1.3-2.3,1.3-2.5,2.5-.7,4,3,7.3,6.5,4.4,2.5-2-.3-5.2-2.8-4.8h-.6c1,.4,2,.6,2.9.9l.3.2c-.1.9-.2,1.7-.3,2.6l.4-.5c-.7.5-1.4,1.1-2.1,1.6l.9-.2-2.7-.4c.8.4,1.1,6,1.3,6.9.5,3.2.9,6.3,1.3,9.5.6,5.7.9,11.5.9,17.2s.5,11.5-1,16.6c-1.7,5.9-8.1,6.5-13.3,6.8-22.1.9-43.9-4.8-63.1-15.6-1.7-1-3.9.2-3.9,2.3,0,8.7,0,17.4,0,26.2l2.9-2.2c-12.1-2.7-22.4-9.8-30.6-19-8.8-9.8-13.9-21.7-21.5-32.2-.8-1.1-3-.5-2.5,1h0Z"/>
        <path class="k" d="m1011.1,659.9c5.1,27.8,19,53.3,39.7,72.6,1.3,1.2,3.1.6,3.7-1,5.1-14.3,7.8-28.9,8.9-44l-4.6,1.9c8.6,10.3,19.1,19,30.7,25.8,10.9,6.4,24.8,13.7,37.8,12.5s19.8-9.4,24-19.4c5.6-13.2,3.2-27.9,1-41.6-1.9,1.1-3.7,2.2-5.6,3.3,15.9,17.6,34,36.4,57.3,43.7s9.7,2.2,14.2.5c5.4-2,7.5-7,8.4-12.3,2.4-13.8,3-28.4,1.3-42.3-.6-4.5-7.6-4.8-7.3,0,.7,11.6,1,23.2-.4,34.8-.6,5.4-.6,13.3-7.7,13.5s-10.4-2.2-14.8-4.3c-18.5-8.6-32.5-23.9-46.4-38.3-2.5-2.6-6.2.2-5.6,3.3,2.2,12,4.6,25,0,36.8s-14.4,18.3-26.7,16c-21.9-4.1-41.9-19.7-56.5-35.7s-4.5-.3-4.6,1.9c-.4,14.6-3.2,29-7.8,42.8l3.7-1c-20.6-18.5-34.7-43.1-40.2-70.2-.3-1.7-2.9-1-2.6.7h0Z"/>
        <path class="k" d="m1340.5,753c5.4,8.5,12.2,16.1,20.2,22.3,5.9,4.6,17.1,13.9,25,9.1s6-14,5.9-20.7c-.1-13.3-.7-26.7-1.5-40l-4.6,1.9c8.6,7.6,17.8,14.4,27.8,20.1,9.3,5.3,20.4,11.6,31.5,10.3,8.9-1,15.3-7.4,18.2-15.6,3.7-10.7.5-22-2.7-32.3-1.4,1.1-2.8,2.1-4.2,3.2,9.3,6.1,19.8,12.6,31.3,12s16.6-5.4,21.7-12.6c12.9-18.1,5.6-42.3-4.9-59.7-2-3.3-6.8-.4-5.1,3,7.8,15.9,16.7,34.4,6.6,51.4-4.3,7.2-11.3,12.2-19.9,12.2-9.9,0-18.8-6-26.8-11.2-2.1-1.4-4.9.9-4.2,3.2,2.7,8.7,5.7,18.2,3.3,27.3-2.6,10-10.8,15.2-21,13.2-8.8-1.8-17.2-6.7-24.8-11.4s-15.8-10.6-23-16.8c-1.6-1.4-4.8-.6-4.6,1.9.7,9.7,1.3,19.5,1.7,29.2.2,5.2.4,10.4.4,15.6s0,6.6-1.5,9.5c-4.5,8.6-20.2-3.8-25-7.7-6.7-5.3-12.5-11.7-17.3-18.8-1.1-1.6-3.6-.1-2.5,1.5h0Z"/>
        <path class="k" d="m1013.1,887.1c1.8,15.4,5,30.5,9.6,45.4,2.3,7.6,5,15.1,8.1,22.4,2.4,5.8,4.7,12.3,9.1,17,3.5,3.8,8.9,6.1,14.1,4.8,5.6-1.4,7.9-6.5,8.7-11.8,2.6-16.5,4-33.3,5.9-49.9-2.1.6-4.2,1.1-6.3,1.7,7.4,12.9,14.9,25.8,24.4,37.2,8.1,9.7,19,21.2,32.9,18.4,12.5-2.5,20.7-14.5,27.1-24.5,8.3-13,15.2-26.9,20.4-41.5l-6.8.9c9.7,12.8,19.9,26.4,35.1,32.9,13.8,5.9,29.3,5.2,40.7-5.2,10.6-9.8,15.4-24.5,18.9-38.1,4.7-18.2,8.8-37.8,8.5-56.6,0-5.7-8.2-5.5-8.8,0-1.5,16.1-2.3,32.1-5.7,48.1-2.8,12.8-6,26.7-14.1,37.3-8.9,11.6-23.2,14.2-36.4,8.5s-23.2-18.8-31.7-30.6c-2-2.7-5.6-2.2-6.8.9-4.7,12.4-10.4,24.5-17.2,35.9-5.5,9.1-12.5,21.7-23.6,24.7-12.4,3.3-22.9-10.3-29.6-18.7-8.2-10.2-14.7-21.7-21.3-33-1.8-3.1-5.9-1.4-6.3,1.7-1.4,13.2-2.9,26.5-4.2,39.7s.4,16.3-7.1,16.6-9.8-6.9-12.1-11.6c-11.3-22.8-18.6-47.4-21.9-72.5-.3-2.1-3.6-2.2-3.4,0h0Z"/>
      </g>
      <path class="k" d="m1646.2,548c15.4,25.3,30.8,50.6,46.1,75.9l22.6,37.1c7.5,12.3,15.3,24.6,21.6,37.6,6.1,12.7,10.9,26,17.7,38.3s14,22.3,18.9,34.5c5,12.6,7.5,26.1,9.9,39.4s5.1,29.5,7.1,44.4c4.3,32.3,6.8,64.9,7.7,97.4.3,9.6,15.2,9.6,14.9,0-.8-30-3-59.9-6.7-89.7-1.8-14.2-3.8-28.5-6.2-42.6-2.4-14.2-4.7-28.6-8.8-42.5s-10.4-25.6-17.6-37.6c-7-11.7-12.8-23.8-18.2-36.3-11.8-27.3-28.4-52.1-43.8-77.5s-34.9-57.3-52.3-86c-5-8.2-17.9-.7-12.9,7.5h0Z"/>
    </g>
    <g id="f" data-name="fond carte">
      <path class="m" d="m807.9,1038.1c-1.4-15.5-2.8-31-4.4-46.4-6.5-63.5-15-127.4-33.6-188.7-7.9-26.1-17.7-51.7-29.5-76.4.1-14.2.1-28.3,0-42.5-4.1-18.3-7.1-36.8-8.9-55.4-.9-9.7-1.6-19.6-1.8-29.4-.8-3.6-1.7-7.1-2.5-10.7-.8-3.5,0-7,1.9-9.9-.8-5.5-1.8-10.9-3.2-16.3-1.7-6.6-4.5-13.8-8.5-20.8-3.1-5.5-.9-12.6,3.5-16.8-5.2-21.7-9-43.7-7.5-66.2-.8-2.8-1.6-5.6-2.4-8.3-.9-3-1.8-6-2.8-9-.5-1.5-.9-3-1.4-4.5-.7-2.2-1.5-4.1-2.4-5.8-1.4-5.2-2.8-10.5-4.3-15.7-.2-6.8-.3-13.6-.2-20.3,2-15.5,1.6-31.7,2.5-47.2.1-2.1.3-4.1.4-6.2-6.6-22.5-17.3-44.7-15.6-68.7.1-1.7.6-3.3,1.3-4.8-6.3-4.1-13.3-6.1-21.4-6.7-30.3-2.5-61-1.3-91.2.9-33.2,2.4-66.3,6.6-99.2,11.6-60.1,9.1-119.5,21.8-179.1,33-33.8,6.4-67.7,12.3-101.8,16.9,3.4-.5,6.9-.9,10.3-1.4-12.3,1.6-24.5,3.8-36.8,5.6-25.1,3.2-50.4,5.9-75.6,6.2-9.5-1-19.2-.8-28.7-1.6-1.8-.4-3.6-.8-5.3-1.3-.2-.1-.4-.3-.7-.4-.7-.5-1.4-1-2-1.4-14.4,3.1-29.1,6.5-43.8,7.3-2.6.1-5.2.3-7.7.4-1.1,1.4-2.1,2.9-2.9,4.4-.2.4-.4.8-.6,1.1-.2,2.5-.3,5-.4,7.5,2.8,12.3,5,24.8,7.1,37.2,1,1,2,1.9,3,2.8-.7-.5-1.4-1.1-2.1-1.6,2.4,1.9,4.6,4,6.7,6.2-1.3,2-2,4.4-1.8,6.9,2.2,22.9,5.3,45.6,8.6,68.3.2,1.8.5,3.5.8,5.3.9,7.7,1.8,15.4,2.7,23.1,1.8,16,3.5,32,5.1,48,.8,8,1.6,16,2.3,24,.8,9.1,2.5,17.4,4.9,26.2.4,1.6,1.2,3,2.2,4.2,1.5,16,3.1,31.9,4.7,47.9,7.9,81.9,13,164.8,30,245.4,8.9,42.3,19.5,84.1,25.6,126.9,1,7.8,1.9,15.7,2.6,23.6.5,4.9.9,9.9,1.2,14.8.5,7.3.3,15.5,2.3,22.6,2.9,30.6,3.9,61.3,3.1,92.1-.5,18.1,16.2,35.3,34.5,34.5,5.6-.3,11.3-1.5,16.4-4.1,6.3,1.1,13,.7,19.2-.5,33.2-6.3,66.6-11.6,100.1-16.2,83.9-11,168.2-17.7,252.6-23.5,27.4-1.9,55.1-2.6,82.3-6.4-3.6.5-7.2,1-10.7,1.4,19.2-1.5,38.4-3,57.6-4.6,9.3-.8,18.5-1.5,27.8-2.3,11.2-.9,23-1.1,34.1-3.1,18.6-1.6,38.5-2.9,54-13.9,9.1-6.4,17.3-14.3,22.3-24.4,5.5-11.2,7.6-21.1,9-33.4,1.4-13.1-.6-26.4-1.8-39.4Zm-71.8,32.6c0,.2,0,.4-.1.5-.1,0-.3,0-.4,0,.2-.5.4-1,.6-1.5,0,.3,0,.6,0,.9Z"/>
    </g>
    <g id="g" data-name="trait carte">
      <path class="k" d="m806.8,1099.2c5.3-21.3,5.9-43.7,6.1-65.5.2-22.2-1.3-44.2-3.8-66.2-5.1-44-14.9-87.3-25.3-130.3-10.7-43.7-22.3-87.3-32-131.2-9.7-44.1-17.1-88.6-23.1-133.3-12.1-91-19.4-182.6-29.9-273.8-1.2-10.6-1.8-21.5-4-32-2.1-10.1-9.1-15.6-19.3-15.8s-20.4.6-30.5,1.2c-12.6.8-25.2,1.9-37.8,3.3s-14.6,2.7-22,3.5c-7.5.8-15,1.7-22.5,2.4-31.5,3.1-62.8,6.6-94.2,10.8-26.5,3.6-53.4,7.1-79.5,12.9-4.8,1.1-9.6,2.1-14.5,3.1-7.9,1.7-4.5,13.7,3.3,12.1,23.2-5,46.8-8.3,70.2-11.9,30.1-4.5,60.2-8.6,90.3-12.9,15.2-2.2,30.3-4.2,45.6-5.6s13.8-.8,20.9-.8,13.4-1,20-1.5c11.2-.8,22.4-1.7,33.7-2.2s8.7-.3,13-.4,7.3-1,8.8,2.6,1.5,9.4,2,13.8c9.7,88.9,15.1,178.3,26,267.1,5.5,44.8,12.1,89.5,20.9,133.8,8.5,43,19.4,85.5,30.1,128,20.9,83.5,41.8,169.3,41,256,0,10.7-.5,21.2-.2,31.9,0,3.8,5.8,4.8,6.8.9h0Z"/>
      <path class="k" d="m270.2,303.7c-67.8,9.8-136,17.8-204.2,24.1-19.3,1.8-38.7,2.8-57.9,5.2-5.8.7-8.7,4.7-7.9,10.4,2.1,14.5,4.1,28.8,5.3,43.4,1.2,14.5,2.3,29.1,3.5,43.6,2.3,28.4,5,56.8,7.6,85.2,5.2,57.4,10.7,114.8,16.3,172.2,5.5,56.4,11.9,112.7,22.8,168.3,10.5,54,23.8,107.3,34.9,161.1,6.2,30,11.8,60.2,15.7,90.6,3.9,30.6,5.3,61.2,6.5,91.9.2,4.2,3.5,8.2,8,8,12.1-.4,24.1-1.6,36.2-2s22.8-.9,34.2-1.6c23.4-1.6,46.8-4.1,70.1-7.2,47.1-6.3,94-14.4,140.9-21.6,46.4-7.1,93.4-12.9,140.3-15,47.9-2.2,95.7-1.7,143.2-9,51.1-7.9,100.7-23.2,147.7-44.7,4.2-1.9,5.3-8,3.1-11.8-2.5-4.3-7.5-5-11.8-3.1-41.1,18.9-84.5,32.4-129,40.5-46.5,8.5-93.4,8.7-140.4,10.3-93.8,3.3-185.5,23-278.1,36.9-25.7,3.9-51.6,7.2-77.4,9.8s-25.9,2.3-38.9,3-26.7,0-40-.7c2.7,2.7,5.3,5.3,8,8,1.3-27.5-1.1-55.4-4.3-82.6-3.2-27.3-7.6-54.4-12.8-81.3-10.4-54.3-23.8-107.9-35-162-23.1-111.5-30-225.4-41.4-338.5-3.3-32.4-6.3-64.8-9.9-97.1-1.8-15.9-3.5-31.7-5.3-47.6-1.8-16.5-2.8-32.9-3.7-49.5-2.7,2.7-5.5,5.5-8.2,8.2,34.7-1,69.6-5.4,104.1-8.9,34.6-3.5,69.2-7.6,103.8-12.2s39.3-5.3,58.9-8.2c4.5-.7,7-6.4,5.9-10.5-1.3-4.9-5.9-6.6-10.5-5.9h0Z"/>
    </g>
    <g id="h" data-name="trait patte sanglier">
      <path class="l" d="m372.2,300.8c1.4-7.9,7.3-12.4,15.2-12.3,2.1,0,4,.6,6,1.2,1.7.5,3.2,1.4,4.4,2.5.8-6.7,1.5-19.6-2.2-25,0-.6-.2-1.3-.3-1.9-1.8-7.5-3.9-14.9-5.6-22.5-1.8-8.5-4.2-16.5-10.7-22.7-12.4-11.9-31.9-13.2-47.8-9.1-16.4,4.3-28.2,16.7-36.2,31.1-7.7,13.6-13.2,28.7-16,44-.6,3.3-.6,6.5,0,9.4-1,2.6-1.6,5.5-1.6,8.4,0,9.1,4.2,16.6,11.3,22.1,1.3,1,2.7,2,4.1,3,.9.6,2.7,2,1.9,1.2,3,2.6,5.6,5.4,8.8,7.8,1.6,1.2,3.3,2.1,5,2.9,0,0,0,0,0,.1,8.7,14.1,29.6,7.8,30.5-8.2,0-.7,0-1.4.2-2.2.6-1.9.8-3.9.7-5.8.3-2,.6-4,1-6.1.4.4.8.8,1.2,1.2,9.2,9.4,24.9,4.6,28.6-7.5.5-1.5.9-3,1.2-4.5,0-2.4,0-4.7.5-7.1Z"/>
    </g>
    <g id="i" data-name="Calque 36">
      <path class="k" d="m277.5,314.1c4.1-15.8,4.5-32.4,9.1-48.2,3.9-13.4,10.2-26.7,20.3-36.5,11-10.7,26.9-15,42-14.6s26.9,9.4,33.6,23.2,8.2,34.8,8.5,52.2,12.7,7.9,12.3,0c-1.4-30.8-7-75.6-43.8-83.8-16.4-3.7-36.4-.2-50.5,8.9-13.1,8.5-21.7,22-27.3,36.2-3.7,9.3-6,19.2-7.5,29-1.7,10.6-3.1,21.9-2.4,32.7.2,3.1,4.8,4,5.6.8h0Z"/>
      <path class="k" d="m277.1,319.6c2.7,4.4,7.6,7.7,11.6,10.9s8.1,6.1,12.4,8.8c9.3,5.8,19.2,10.8,29,15.7,2,1,5,.3,5.5-2.2,1.8-8.9,3.3-18,4.2-27.1.5-4.5.8-9.1,1.1-13.7.4-4.4,1.2-7.8-1.9-11.3-1.2-1.4-3.8-1.4-5,0-2.9,3.3-2.2,6.1-2.1,10.3,0,4.2,0,8.5-.3,12.7-.6,9.1-1.7,18.1-3.3,27,1.8-.7,3.7-1.5,5.5-2.2-9.5-4.4-18.9-8.9-28-14-4.4-2.5-8.8-5.1-13-8-4.4-3-8.4-7.1-13-9.6s-3.8,1-2.7,2.7h0Z"/>
      <path class="k" d="m314,290c13.4,14.7,28.5,27.8,43.1,41.2,2.2,2,6.3,2,7.8-1,4.7-9.4,8.6-19.2,12.2-29.1,1.7-4.8,3.3-9.6,4.9-14.4,1.8-5.3,4-10.3,3.2-15.9-.9-6.4-10.7-4.5-11,1.5,0,.7,0,1.4,0,2.1-.1,2.5,2.8,5.1,5.3,4,.6-.3,1.2-.5,1.9-.7l-6.3-8.2c-2.9,3.9-3.2,9.5-4.4,14.1s-2.7,9.7-4.3,14.5c-3.1,9.5-6.7,18.9-10.4,28.2,2.8-.7,5.6-1.5,8.3-2.2-15.5-12.9-30.8-26.3-47.3-37.9s-4.6,1.8-2.8,3.7h0Z"/>
      <g>
        <path class="k" d="m157.8,590.5l-.8-16.5c-.7-15.9,0-31.3,2.1-46.3,2.1-14.9,5.6-29.2,10.6-42.8,5-13.6,11.5-26.3,19.5-38l-52.1,7.3,1.1,15.1-29.7,4.2-6.4-45.7,121.4-17.1,4.3,30.8c-6.9,10.7-12.5,21-16.7,30.8-4.2,9.8-7.4,19.6-9.5,29.5-2.1,9.9-3.5,20.2-4.1,31-.6,10.8-.6,22.6-.2,35.5l.8,16.5-40.3,5.7Z"/>
        <path class="k" d="m362.9,564.1c-11.2,1.6-21.1.9-29.9-1.9-8.8-2.8-15.9-7.5-21.3-14-5.5-6.5-8.9-14.4-10.2-23.9-1.2-8.3,0-15.8,3.3-22.5,3.4-6.6,8.9-13.8,16.8-21.6.5-.5,1-.9,1.4-1.4.5-.5,1-1,1.4-1.4-5.7-6.1-10.1-11.8-13.3-17.2-3.1-5.4-5.1-11.1-6-17-1.3-9-.4-17.1,2.6-24.6,3-7.4,7.9-13.6,14.5-18.4,6.7-4.9,14.7-8,24.2-9.3,8.1-1.1,15.5-.3,22.2,2.4,6.7,2.8,12.2,7,16.6,12.6,4.3,5.6,7,12.2,8.1,19.8,1.1,7.5.3,14.8-2.4,22-2.6,7.2-6.5,13.1-11.6,17.9l-8.6,7.9,31.4,27c1.8-4.7,3.1-9.6,3.8-14.7.7-5.1.7-10.4,0-15.9l28-3.9c1.5,10.9,1.7,21,.6,30.4-1.1,9.4-3.7,18-7.9,25.6l29.6,25.8v.6c-.1,0-44.1,6.2-44.1,6.2l-9.6-8.1c-6.2,4.9-12.4,8.8-18.7,11.7-6.3,2.8-13.4,4.8-21.2,5.9Zm-12.4-108.8l5.6-4.5c3.9-3.3,6.4-6.3,7.5-9.1,1.1-2.8,1.4-5.7,1-8.7-.5-3.4-2-6.2-4.6-8.5-2.6-2.3-5.7-3.2-9.3-2.7-4.2.6-7.3,2.4-9.1,5.4-1.9,3-2.5,6.7-1.9,10.9.4,2.8,1.5,5.6,3.3,8.3,1.8,2.7,4.3,5.7,7.7,8.9Zm10.9,77.8c3.1-.4,6.3-1.2,9.5-2.2,3.2-1,6.3-2.3,9.2-3.9l-35-29.5-.6.4c-1.5,3-2.6,5.9-3.1,8.8-.5,2.8-.6,5.9-.1,9.3.8,5.6,3.2,10,7.1,13.2,4,3.2,8.3,4.5,13,3.9Z"/>
        <path class="k" d="m572.9,534.6c-11.6,1.6-22,1.2-31.4-1.3-9.4-2.5-17.1-7-23-13.6-6-6.5-9.7-14.9-11.2-25.2-1.2-8.9,0-17,3.9-24.4,3.8-7.4,9.7-13.7,17.4-18.8-8-2.8-14.5-7.1-19.5-12.8-5-5.8-8.1-12.7-9.3-20.8-1.4-10-.3-18.9,3.3-26.5s9.3-13.9,17.1-18.8c7.8-4.9,17.2-8.1,28.2-9.6,11.1-1.6,21.1-1.1,29.9,1.5,8.8,2.5,16,7,21.6,13.4,5.6,6.4,9.1,14.6,10.5,24.6,1.1,8.1,0,15.6-3.2,22.6-3.3,6.9-8.3,12.8-15.1,17.7,9,2.8,16.3,7.3,22,13.4,5.7,6.2,9.1,13.6,10.3,22.3,1.4,10.3.2,19.4-3.6,27.3-3.8,7.9-9.9,14.4-18.1,19.4-8.2,5-18.2,8.3-29.8,9.9Zm-14.5-103.4c3.2-.5,5.8-1.6,7.8-3.5,2-1.9,3.3-4.3,4.1-7.4.7-3.1.8-6.6.3-10.6-.5-3.8-1.6-7-3.1-9.6s-3.5-4.5-5.9-5.7c-2.4-1.2-5.3-1.5-8.6-1.1-4.9.7-8.4,2.8-10.4,6.4-2,3.6-2.6,8.3-1.8,14.1.8,6,2.8,10.6,5.7,13.7,3,3.1,7,4.3,12,3.6Zm10.2,72.7c3.7-.5,6.8-1.8,9.2-3.9,2.5-2.1,4.2-4.9,5.3-8.2,1-3.4,1.3-7.2.7-11.5-.6-4.4-1.9-8-3.9-10.8-2-2.8-4.4-4.9-7.4-6.2-3-1.3-6.3-1.6-10-1.1-3.7.5-6.8,1.8-9.2,3.8-2.5,2-4.3,4.7-5.4,8-1.1,3.3-1.3,7.1-.7,11.4.9,6.5,3.3,11.4,7.2,14.7,3.9,3.3,8.6,4.6,14.2,3.8Z"/>
      </g>
      <g>
        <path class="k" d="m166.5,881.5l-1.7-12.3,7.3-3-5.1-36-9.3,1.3-2-14.5,9.3-1.3-.9-6.5c-1.1-7.5.4-13.6,4.4-18.2,4-4.7,10-7.6,18.1-8.7,2.2-.3,4.4-.5,6.9-.4,2.4,0,4.4.1,5.8.3l.6,15.7c-1.2-.2-2.4-.2-3.6-.2-1.3,0-2.6.1-4,.3-2.8.4-4.7,1.3-5.9,2.7-1.2,1.4-1.6,3.3-1.3,5.6l.9,6.5,15-2.1,2,14.5-15,2.1,5.1,36,11.9.3,1.7,12.3-40.2,5.6Z"/>
        <path class="k" d="m247.7,871.3c-6.3.9-12.1.3-17.2-1.8-5.1-2.1-9.3-5.3-12.6-9.7-3.3-4.4-5.3-9.6-6.2-15.5l-.3-2.2c-.9-6.6-.6-12.5,1-17.9,1.6-5.4,4.4-9.8,8.5-13.3,4.1-3.5,9.3-5.7,15.8-6.6,5.9-.8,11-.4,15.3,1.3,4.4,1.7,7.9,4.6,10.6,8.6,2.7,4.1,4.5,9.3,5.4,15.7l1.5,10.8-35.6,5v.4c.6,2,1.5,3.7,2.8,5.1,1.3,1.4,2.9,2.5,4.9,3.1,2,.7,4.4.8,7.1.4,2.7-.4,5.3-1.1,7.9-2,2.5-1,5.1-2.4,7.9-4.1l6.6,12c-2.6,2.5-5.9,4.7-9.9,6.6s-8.6,3.3-13.7,4Zm-15.3-38.5l16.4-2.3-.2-1.6c-.3-2.3-.8-4.2-1.5-5.7-.7-1.5-1.6-2.6-2.9-3.2-1.2-.6-2.8-.8-4.8-.5-2.1.3-3.7,1-4.8,2.2-1.1,1.2-1.8,2.7-2.2,4.6-.3,1.9-.5,3.9-.4,6.2l.3.3Z"/>
        <path class="k" d="m308,863c-6.8,1-12.2-.1-16.2-3.2-4-3.1-6.6-8.6-7.7-16.4l-4.1-29.1-8.1,1.1-2-14.5,8.1-1.1-2.2-16,20.9-2.9,2.2,16,10.6-1.5,2,14.5-10.6,1.5,4.1,29c.3,2.1,1,3.5,2.1,4.2,1.1.7,2.4.9,4.1.7.7-.1,1.4-.2,2.1-.4s1.4-.4,2.1-.6l3.6,15.5c-1.8.8-3.5,1.4-5.4,2-1.8.6-3.7,1-5.6,1.2Z"/>
        <path class="k" d="m355.3,856.2c-6.3.9-12.1.3-17.2-1.8-5.1-2.1-9.3-5.3-12.6-9.7-3.3-4.4-5.3-9.6-6.2-15.5l-.3-2.2c-.9-6.6-.6-12.5,1-17.9,1.6-5.4,4.4-9.8,8.5-13.3,4.1-3.5,9.3-5.7,15.8-6.6,5.9-.8,11-.4,15.3,1.3,4.4,1.7,7.9,4.6,10.6,8.6,2.7,4.1,4.5,9.3,5.4,15.7l1.5,10.8-35.6,5v.4c.6,2,1.5,3.7,2.8,5.1,1.3,1.4,2.9,2.5,4.9,3.1,2,.7,4.4.8,7.1.4,2.7-.4,5.3-1.1,7.9-2,2.5-1,5.1-2.4,7.9-4.1l6.6,12c-2.6,2.5-5.9,4.7-9.9,6.6-4,1.9-8.6,3.3-13.7,4Zm-15.3-38.5l16.4-2.3-.2-1.6c-.3-2.3-.8-4.2-1.5-5.7-.7-1.5-1.6-2.6-2.9-3.2-1.2-.6-2.8-.8-4.8-.5-2.1.3-3.7,1-4.8,2.2s-1.8,2.7-2.2,4.6c-.3,1.9-.5,3.9-.4,6.2l.3.3Z"/>
        <path class="k" d="m410.8,847.1l-24.6-48.7-7.3-.2-1.7-12.3,34-4.8,1.7,12.3-5.6,2,10.3,23.7,2,4.7h.4c0,0,.9-5.2.9-5.2l5.6-25.9-7.6-.2-1.7-12.3,34-4.8,1.7,12.3-7.2,2.5-12.5,53.7-22.3,3.1Z"/>
        <path class="k" d="m463.8,839.7l-1.7-12.3,7.3-3-5.1-36.3-9.3-.6-1.7-12.3,30-4.2,7.1,50.5,7.8.9,1.7,12.3-36.1,5.1Zm-3.8-77.9l-2.3-16.3,21.6-3,2.3,16.3-21.6,3Z"/>
        <path class="k" d="m508,833.5l-2.4-17.3,20.9-2.9,2.4,17.3-20.9,2.9Z"/>
        <path class="k" d="m567.9,826.3c-6.4.9-12.1.3-17.2-1.9-5-2.2-9.1-5.6-12.3-10.2-3.2-4.6-5.2-10.1-6.1-16.4l-.2-1.4c-.9-6.5-.4-12.4,1.4-17.7,1.9-5.3,4.9-9.7,9.1-13.1,4.2-3.4,9.4-5.6,15.5-6.4,6.2-.9,11.6-.7,16.3.6,4.7,1.3,8.4,2.7,11.3,4.4l2.5,20.4-15.6,2.2-4.2-11.4c-.8-.6-1.8-1-3-1.3-1.2-.3-2.2-.4-2.9-.3-3,.4-5.3,1.4-6.8,2.9-1.6,1.5-2.6,3.7-2.9,6.4-.4,2.7-.3,6.2.3,10.3l.2,1.4c.6,4.3,1.6,7.6,2.9,9.9,1.4,2.3,2.9,3.9,4.6,4.7,1.7.8,3.4,1.1,5,.9,2.5-.4,4.4-1.3,5.6-2.7,1.2-1.4,2-3.4,2.4-6l17.6-2.5.3.3c-.2,5.3-1.1,9.8-2.7,13.5-1.6,3.7-4,6.6-7.4,8.8-3.4,2.2-8,3.7-13.8,4.5Z"/>
        <path class="k" d="m601.2,820.4l-1.7-12.3,7.3-3-9.1-64.9-9.4-.6-1.7-12.3,30-4.2,5.1,36.6c1.5-3.2,3.6-5.8,6.2-7.8,2.6-2,5.9-3.3,9.6-3.8,6.2-.9,11.5.6,15.9,4.6,4.4,3.9,7.3,10.5,8.6,19.8l3.4,24.5,7.8.9,1.7,12.3-34.7,4.9-1.7-12.3,5.9-2.8-3.5-24.6c-.6-4.2-1.7-7-3.3-8.4-1.6-1.4-3.8-1.9-6.5-1.5-1.8.3-3.4.8-4.8,1.7-1.4.8-2.5,2-3.2,3.6l4.4,31.6,6.4,1,1.7,12.3-34.6,4.9Z"/>
      </g>
      <g>
        <g>
          <path class="k" d="m187.7,749.5c-9.3,1.3-17.5,1-24.7-1-7.2-2-13.1-5.7-17.7-11.3-4.6-5.5-7.8-13-9.4-22.3v-.5c0,0,26.8-3.7,26.8-3.7,1.6,7.6,4,12.5,7.2,14.7,3.2,2.2,6.9,3.1,11.1,2.5,2.4-.3,4.7-1.2,6.8-2.6,2.1-1.4,3.7-3.4,4.8-6,1.1-2.6,1.4-5.9.9-9.8l-8.8-62.5-16.5-.4-2.3-16.7,57-8,2.4,16.8-12,4.4,8.8,62.5c1.1,8,.5,15.1-1.7,21.3-2.3,6.2-6.2,11.3-11.6,15.2-5.5,3.9-12.4,6.5-20.8,7.7Z"/>
          <path class="k" d="m304.1,733.1c-10.2,1.4-19.4,1-27.4-1.2-8-2.2-14.6-6.2-19.6-12-5-5.8-8.2-13.3-9.5-22.4l-8.2-58.3-12.6-.9-2.4-16.8,53.2-7.5,2.4,16.8-11.9,4.3,8.2,58.3c.7,4.8,2.1,8.6,4.2,11.5,2.1,2.9,4.9,4.9,8.4,5.9,3.4,1.1,7.5,1.3,12.1.6,4.8-.7,8.7-2,11.7-4,3-2,5.1-4.6,6.4-8,1.2-3.4,1.5-7.4.8-12.2l-8.2-58.3-12.6-.9-2.4-16.8,53.2-7.5,2.4,16.8-11.9,4.3,8.2,58.3c1.3,9,.2,17-3.1,24-3.3,7-8.5,12.7-15.6,17.1-7.1,4.4-15.6,7.3-25.6,8.7Z"/>
          <path class="k" d="m371.2,721.9l-2.3-16.7,11.9-4.3-11.2-80-12.7-.9-2.4-16.8,53.2-7.5,2.4,16.8-11.9,4.3,11.2,80,12.7.9,2.3,16.7-53.2,7.5Z"/>
          <path class="k" d="m430.8,713.6l-2.3-16.7,11.9-4.3-11.2-80-12.6-.9-2.4-16.8,12.2-1.7,29.1-4.1,58.3,69.3h.5c0,0-8-56.7-8-56.7l-15.9-.4-2.4-16.8,40.9-5.8,12.3-1.7,2.4,16.8-11.9,4.3,14,99.3-28.2,4-59-67.5h-.5c0,0,7.7,55.1,7.7,55.1l16,.4,2.3,16.7-53.2,7.5Z"/>
        </g>
        <g>
          <path class="k" d="m566.1,631.3l-1.2-8.7,15.4-21.6c1.4-2.1,2.4-3.9,3.2-5.4.8-1.5,1.3-2.9,1.5-4.2.3-1.2.3-2.4.2-3.5-.3-1.8-1-3.3-2.1-4.4-1.2-1.1-2.7-1.6-4.7-1.3-2.1.3-3.6,1.3-4.4,2.9-.8,1.6-1,3.7-.7,6.3l-13.2,1.9v-.2c-.7-3.5-.4-6.7.8-9.7,1.2-3,3.2-5.6,5.9-7.6,2.7-2.1,6.1-3.4,10.2-3.9,4-.6,7.6-.4,10.7.6,3.1,1,5.6,2.6,7.5,5,1.9,2.3,3.1,5.2,3.6,8.6.3,2.3.2,4.5-.3,6.5-.5,2-1.5,4.3-3,6.8-1.5,2.5-3.5,5.5-6,9l-7.2,10.2v.2c.1,0,11.2-1.6,11.2-1.6v-4.7c0,0,10.1-1.4,10.1-1.4l2.1,14.9-39.5,5.5Z"/>
          <path class="k" d="m630.5,623.1c-6.1.9-11.2-.4-15.3-3.8-4.1-3.4-6.7-8.8-7.7-16.4l-1.7-11.8c-1.1-7.6,0-13.5,2.9-17.9,3-4.4,7.5-7,13.6-7.8,6-.8,11,.4,15.1,3.8,4.1,3.4,6.7,8.8,7.7,16.4l1.7,11.8c1.1,7.6.1,13.5-2.9,17.9-3,4.3-7.5,6.9-13.5,7.8Zm-1.4-10.3c2-.3,3.4-1.4,4.2-3.4.8-2,.9-5.1.3-9.4l-1.9-13.4c-.6-4.2-1.6-7.2-2.9-8.8-1.3-1.7-3-2.4-5-2.1-2.1.3-3.5,1.4-4.3,3.4-.8,2-.9,5.1-.3,9.3l1.9,13.4c.6,4.3,1.6,7.3,2.9,8.9,1.3,1.7,3,2.3,5.1,2Z"/>
          <path class="k" d="m575.4,693.1l-1.2-8.7,15.4-21.6c1.4-2.1,2.4-3.9,3.2-5.4.8-1.5,1.3-2.9,1.5-4.2.3-1.2.3-2.4.2-3.5-.3-1.8-1-3.3-2.1-4.4-1.2-1.1-2.7-1.6-4.7-1.3-2.1.3-3.6,1.3-4.4,2.9-.8,1.6-1,3.7-.7,6.3l-13.2,1.9v-.2c-.7-3.5-.4-6.7.8-9.7,1.2-3,3.2-5.6,5.9-7.6,2.7-2.1,6.1-3.4,10.2-3.9,4-.6,7.6-.4,10.7.6,3.1,1,5.6,2.6,7.5,5,1.9,2.3,3.1,5.2,3.6,8.6.3,2.3.2,4.5-.3,6.5-.5,2-1.5,4.3-3,6.8-1.5,2.5-3.5,5.5-6,9l-7.2,10.2v.2c.1,0,11.2-1.6,11.2-1.6v-4.7c0,0,10.1-1.4,10.1-1.4l2.1,14.9-39.5,5.5Z"/>
          <path class="k" d="m634.2,684.9l-1.1-7.9,5.7-2.1-.6-4.5-21.5,3-1.8-6.2,17.3-39.3,13.4-1.9,4.8,34,5.5-.8,1.2,8.4-5.5.8.6,4.5,6,.4,1.1,7.9-25.1,3.5Zm-7.6-21.5l10.3-1.5-2.3-16.4h-.2s-.9,1.5-.9,1.5l-6.9,16.4Z"/>
        </g>
      </g>
    </g>
  </g>
</svg>