<?xml version="1.0" encoding="UTF-8"?>
<svg id="b" data-name="Calque 2" xmlns="http://www.w3.org/2000/svg" viewBox="0 0 1400 110.6">
  <g id="c" data-name="sanglier">
    <g id="d" data-name="trait carte">
      <path d="m1397.3,1.5c-54.2-4.8-109.2,2.5-162.6,13.6-21.5,4.5-43,8.7-64.8,11.2-35.7,4.1-71.5,4.9-107.3,5.6-45.8,1-91.6.7-137.5,0-44-.7-88.2-3.4-132.2-3-81.1.7-162.2,4.7-243.3,6.6-42.6,1-85.1-.2-127.7,2.9-28.3,2.1-56.6,5.1-84.7,8.8-9,1.2-17.9,2.7-26.9,3.4-19.4,1.6-38.6,4.3-58,5.5-9.2.6-18.4,1-27.6,1s-4.7,0-7.1-.3.1.2.3.2c-1.5-.3-2.7-.9-4.3-1.1-18.4-1.9-37.5,1-55.9,2.3-32.1,2.2-64.2-1.2-96.3,1.4-19.5,1.6-38.7,5-57.8,10-6.4,1.7-3.7,13.5,2.7,12,39.6-9.8,79.7-10.4,119.9-10.4,21.7,0,43-1.3,64.6-3.1,7.1-.6,17.9-1.8,23.3-1.1-1.8-.2.5.3,1.2.4s1.8.3,2.7.4c3.1.3,6.2,0,9.3,0,9.2-.3,18.4-.9,27.7-1.3,11-.6,22.1,0,33.1-.8,30.2-1.9,60.1-6.5,90.3-9.5,34.2-3.3,68.5-5.5,102.8-5.6,16.1,0,32.3.7,48.4.5,81.8-1.1,163.6-3.4,245.4-4.9s72.6,1.3,108.9,2c44.8.9,89.7,1.9,134.6,1.6,62.9-.5,126.5-.8,188.9-12.4,19.2-3.6,38.2-8.6,57.3-12.7,25.5-5.4,51.1-9.3,76.9-11.7,18.5-1.8,37.1-2.4,55.6-4.8,3.6-.5,3.7-6.6,0-6.9h0Z" style="fill: #1d1d1b; stroke-width: 0px;"/>
      <path d="m1400,5c0,1.6-1,3.2-2.7,3.4-18.5,2.4-37,3.1-55.6,4.8-25.8,2.5-51.5,6.3-76.9,11.7-19.1,4.1-38.1,9.1-57.3,12.7-62.3,11.6-125.9,11.9-188.9,12.4-44.9.3-89.7-.7-134.6-1.6-36.3-.7-72.6-2.7-108.9-2-81.8,1.5-163.6,3.9-245.4,4.9-16.1.2-32.3-.5-48.4-.5-34.3,0-68.6,2.3-102.8,5.6-30.2,2.9-60.1,7.6-90.3,9.5-11,.7-22.1.2-33.1.8-9.2.5-18.4,1-27.7,1.3-3.1.1-6.2.3-9.3,0-.9,0-1.8-.2-2.7-.4-.6-.1-2.3-.5-1.7-.5-5.6-.5-15.9.6-22.8,1.2-21.6,1.7-42.9,3.1-64.6,3.1-40.2,0-80.3.6-119.9,10.4-2.7.7-4.7-1-5.7-3.3-.2,0-.5.2-.7.3v31.9h1400V5h0Z" style="fill: #fff; stroke-width: 0px;"/>
    </g>
  </g>
</svg>