<?xml version="1.0" encoding="UTF-8"?>
<svg id="b" data-name="Calque 2" xmlns="http://www.w3.org/2000/svg" viewBox="0 0 749.8 975.9">
  <defs>
    <style>
      .d {
        fill: #1b734a;
      }

      .d, .e {
        stroke-width: 0px;
      }

      .e {
        fill: #1d1d1b;
      }
    </style>
  </defs>
  <g id="c" data-name="Calque 41">
    <path class="d" d="m744.4,551c-41.2-10.6-90.6-19-143.5-28.5-57.6-10.4-67.5,1.4-33.1-30.5s32.3-38.4,49.4-55.2c-72.9-13.2-146.9-15.1-218-33.7,41.3-21.8,88.4-36.9,115.7-77.7-70.2-18.8-207.3-32.8-234.7-78.8,0,0,33.5-15.7,51.3-59.7,0,0-138.1-23.9-128-44.9,18.6-10.8,139.2-47.7,134.4-72.1,0,0-93.2-8.7-174.7-31.7C70.6,12,42.3-35.2,30.6,51.6c1.3,133.5,46.3,263,16.8,396.8-2.6,34.4-23.7,78.1,10.9,102.9-12.4,78.9-38.6,154.8-51.9,233.4-3.6,30.4,5.6,66.2,31.3,85.1-13.6,23-30.9,46.4-36,72.9-7.2,33.6,7.8,38.7,40.3,28.2,11.6-3.8,147.7-98.5,232-153.3,111.7-72.6,231.7-153.5,272.4-178.4s197.9-88.3,197.9-88.3Z"/>
    <path class="e" d="m748.1,549.5c-65.6-14.6-131.6-27.2-197.9-37.6,25.7-23.9,49.8-49.4,72.1-76.5,1.3-1.5.5-3.8-1.6-3.9-72.6-4.3-144.7-14.5-215.6-30.5,41.6-18.9,84.1-39.5,113.9-75.3.9-1.1.8-3.3-1-3.7-33.8-5.9-67.6-11.8-101.1-19.3-32.2-7.3-65.2-15.4-95.6-28.5-14.7-6.4-28.7-14.8-38.7-27.5,21.9-13.2,39.4-32.8,49.8-56.2.5-1.2.2-2.9-1.3-3.2-23.8-5.3-47.3-11.4-70.7-18.2-11.3-3.3-22.7-6.7-33.9-10.5-8.3-2.8-17.8-6.7-21.4-15.2,26.5-9.6,52.6-20.4,78.1-32.2,12.2-5.6,24.9-11.1,36.4-18.1,8.8-5.4,16.5-12.3,19.9-22.3.5-1.4-.8-2.7-2.1-2.8-51.2-1.9-136.8-12.6-272.5-68s-3.9,3.2-1.2,4.3c126.8,54.7,220,65.8,270.5,67.9-4.2,9.3-13.1,15.2-22,20-11.3,6.1-23,11.4-34.7,16.7-24.8,11.4-50.1,21.6-75.8,30.9-1.1.4-1.9,1.5-1.5,2.7,2.6,8.8,9.9,14,18,17.5,10.7,4.6,22.4,7.6,33.5,11,25,7.5,50.2,14.1,75.6,19.8-10.6,22.3-27.7,40.9-49.1,53.2-.9.5-1.5,2-.8,3,17.8,24,47.5,34.1,74.9,42.8,34.2,10.9,69.2,18.7,104.4,25.5,18.8,3.6,37.6,6.9,56.5,10.2-30.7,35.2-74.2,55.2-116.1,74.1-1.7.8-1.2,3.6.5,4,71.8,16.6,144.9,27.3,218.4,31.9-22.4,26.9-46.6,52.3-72.5,76-1.2,1.1-.7,3.5,1,3.8,64.3,10,128.3,22.1,191.8,36.1-2.5,1.1-5,2.3-7.2,3.4-8.1,3.9-15.9,7.7-24.2,11-24.6,9.8-49.2,19.9-73.5,30.5-46.8,20.5-92.8,43.1-136.1,70.3-44.5,28-86,60.5-129.5,90-44.6,30.2-90.5,58.4-135.7,87.8-51.3,33.4-102.4,67.1-153.3,101.1-2.3,1.5-.1,5.2,2.1,3.7,44.9-29.9,90-59.5,135.2-89,44.8-29.2,90-57.7,134.8-86.9,43.3-28.2,84.4-59.5,127.1-88.6,41.6-28.3,86.2-51.9,131.9-72.9,27.4-12.6,55.1-24.2,83-35.5,10.7-4.3,21.8-8.1,32.1-13.3,3.9-2,7.8-4,11.9-5.8,3.4-1.5,8.2-4.1,12-3.5,2.8.4,4.1-3.7,1.2-4.4Z"/>
  </g>
</svg>