<?xml version="1.0" encoding="UTF-8"?>
<svg id="b" data-name="Calque 2" xmlns="http://www.w3.org/2000/svg" viewBox="0 0 117.9 115.5">
  <g id="c" data-name="fond">
    <g id="d" data-name="lune">
      <path d="m41.6,64.7c3,1.4,5.9,2.6,9.4,2.1,5.2-.8,10.8-5.7,12.7-10.5,1.8-4.7-.6-10.3-3.5-14,2.6.3,5.7,2.8,7.1,4.9,3.7,5.4,3.9,13.5.4,19s-14.2,13.2-21.8,6.5-4.3-5.9-4.3-8.1Z" style="fill: #fcea10; stroke-width: 0px;"/>
      <path d="m114.1,48.3c.5-1.4.7-2.9.7-4.4C113.3,15.6,76.9-8.3,43.9,2.8c-16,5.4-27.5,15.3-34.4,27.2C3.6,38.5,1.1,48.5.2,58.9c-1.2,14.7,3.2,32.4,16.1,43.1,13.7,11.2,34.3,16.4,52.9,11.8.3,0,.6-.2.9-.2,2.9-.3,5.7-.7,8.6-1.4,33.3-7.6,46.4-38.6,35.4-63.9Z" style="fill: #ffe601; opacity: .2; stroke-width: 0px;"/>
    </g>
  </g>
</svg>