<?xml version="1.0" encoding="UTF-8"?>
<svg xmlns="http://www.w3.org/2000/svg" viewBox="0 0 800 2000">
  <g id="sky">
    <rect y="-2080" width="800" height="4080" fill="#3b3a97"/>
  </g>
  <g id="ground">
    <polygon points="-.2 1216.1 357.1 1484.7 476.8 1424.7 596.6 1458.2 800.2 1251.4 800 3218 0 3218 -.2 1216.1" fill="#123f3f"/>
  </g>
  <g id="moon">
    <g>
      <circle cx="648.7" cy="84.5" r="39" fill="#e7eb0a" opacity=".2"/>
      <path d="M659.5,70.1c3,8.7-1.6,18.2-10.2,21.4-5.9,2.1-12.3.7-16.7-3.1,0,0,0,.2,0,.3,3.2,8.8,12.8,13.3,21.6,10.2,8.8-3.2,13.3-12.8,10.2-21.6-1-2.8-2.7-5.2-4.9-7.1Z" fill="#e7eb0a"/>
    </g>
  </g>
  <g id="trunk5">
    <g>
      <rect id="fond_bleu" data-name="fond bleu" x="409.8" y="-1984.6" width="59.5" height="2019" transform="translate(896.1 -1942.5) rotate(-179)" fill="#442c9a"/>
      <g id="tronc" opacity=".2">
        <rect id="fond_tronc" data-name="fond tronc" x="409.8" y="-1984.6" width="59.5" height="2019" transform="translate(896.1 -1942.5) rotate(-179)" fill="#fff"/>
        <g id="marques">
          <rect x="410.1" y="-3.9" width="42.2" height="9.1" transform="translate(862.3 8.9) rotate(-179)" fill="#1d1d1b"/>
          <rect x="392.3" y="22.2" width="25.7" height="2.8" transform="translate(809.9 54.3) rotate(-179)" fill="#1d1d1b"/>
        </g>
      </g>
    </g>
    <g>
      <rect id="fond_bleu-2" data-name="fond bleu" x="374.5" y="34" width="59.5" height="2019" transform="translate(790.3 2094) rotate(-179)" fill="#442c9a"/>
      <g id="tronc-2" data-name="tronc" opacity=".2">
        <rect id="fond_tronc-2" data-name="fond tronc" x="374.5" y="34" width="59.5" height="2019" transform="translate(790.3 2094) rotate(-179)" fill="#fff"/>
        <g id="marques-2" data-name="marques">
          <rect x="367.9" y="1981.7" width="20" height="7.8" transform="translate(721 3977.5) rotate(-179)" fill="#1d1d1b"/>
          <rect x="384.6" y="1946" width="28.3" height="5.5" transform="translate(763.4 3904.2) rotate(-179)" fill="#1d1d1b"/>
          <rect x="359.3" y="1914.2" width="51.3" height="4.4" transform="translate(736.4 3839.2) rotate(-179)" fill="#1d1d1b"/>
          <rect x="359.7" y="1887.3" width="17.3" height="7.2" transform="translate(703.8 3787.9) rotate(-179)" fill="#1d1d1b"/>
          <rect x="385.8" y="1869.5" width="21.2" height="5" transform="translate(760 3750.5) rotate(-179)" fill="#1d1d1b"/>
          <rect x="378" y="1836.2" width="42.2" height="5.5" transform="translate(766 3684.7) rotate(-179)" fill="#1d1d1b"/>
          <rect x="361.2" y="1803" width="19.8" height="7.2" transform="translate(710.6 3619.5) rotate(-179)" fill="#1d1d1b"/>
          <rect x="381.5" y="1774.7" width="31.6" height="5" transform="translate(763.5 3561) rotate(-179)" fill="#1d1d1b"/>
          <rect x="367" y="1748.8" width="25" height="4.4" transform="translate(728.3 3508.5) rotate(-179)" fill="#1d1d1b"/>
          <rect x="388.4" y="1726" width="33.7" height="4.4" transform="translate(780.3 3463.2) rotate(-179)" fill="#1d1d1b"/>
          <rect x="372.6" y="1717.9" width="25.7" height="3.3" transform="translate(740.8 3445.6) rotate(-179)" fill="#1d1d1b"/>
          <rect x="363.3" y="1687.9" width="42.7" height="4.4" transform="translate(739.6 3386.8) rotate(-179)" fill="#1d1d1b"/>
          <rect x="372.2" y="1673.4" width="14" height="3.9" transform="translate(729.1 3357.1) rotate(-179)" fill="#1d1d1b"/>
          <rect x="381.1" y="1655.5" width="42.3" height="3.3" transform="translate(775.5 3321.1) rotate(-179)" fill="#1d1d1b"/>
          <rect x="365.1" y="1581.4" width="35.6" height="8.9" transform="translate(738 3178.2) rotate(-179)" fill="#1d1d1b"/>
          <rect x="385.8" y="1617.8" width="30" height="4.4" transform="translate(773.3 3246.8) rotate(-179)" fill="#1d1d1b"/>
          <rect x="411.7" y="1599.2" width="12.6" height="2.8" transform="translate(808.1 3208.3) rotate(-179)" fill="#1d1d1b"/>
          <rect x="383.4" y="1553" width="41.8" height="4.4" transform="translate(781.3 3117.2) rotate(-179)" fill="#1d1d1b"/>
          <rect x="379.1" y="1530.1" width="33.8" height="3.9" transform="translate(765.2 3070.8) rotate(-179)" fill="#1d1d1b"/>
          <rect x="387.7" y="1510.9" width="38.2" height="6.7" transform="translate(787 3035.3) rotate(-179)" fill="#1d1d1b"/>
          <rect x="366.6" y="1496.4" width="9.9" height="5.5" transform="translate(716.8 3004.6) rotate(-179)" fill="#1d1d1b"/>
          <rect x="397.4" y="1816.4" width="23.2" height="1.1" transform="translate(786.2 3640.9) rotate(-179)" fill="#1d1d1b"/>
          <rect x="380.2" y="1467.4" width="29.6" height="6.1" transform="translate(764.2 2947.6) rotate(-179)" fill="#1d1d1b"/>
          <rect x="390.5" y="1429.4" width="36.8" height="7.2" transform="translate(792.7 2872.9) rotate(-179)" fill="#1d1d1b"/>
          <rect x="368.4" y="1395.2" width="35.6" height="5" transform="translate(747.8 2801.9) rotate(-179)" fill="#1d1d1b"/>
          <rect x="391.5" y="1371.7" width="28.6" height="4.4" transform="translate(787.6 2754.7) rotate(-179)" fill="#1d1d1b"/>
          <rect x="369.1" y="1353.1" width="35.6" height="4.4" transform="translate(750 2717.1) rotate(-179)" fill="#1d1d1b"/>
          <rect x="378.3" y="1324" width="50.9" height="7.2" transform="translate(784.1 2662) rotate(-179)" fill="#1d1d1b"/>
          <rect x="378.6" y="1302.7" width="29.7" height="6.1" transform="translate(764.1 2618.2) rotate(-179)" fill="#1d1d1b"/>
          <rect x="393.6" y="1251.5" width="36.8" height="4.4" transform="translate(802.1 2514.4) rotate(-179)" fill="#1d1d1b"/>
          <rect x="370.5" y="1276" width="38.4" height="3.3" transform="translate(756.9 2562) rotate(-179)" fill="#1d1d1b"/>
          <rect x="376.2" y="1229" width="42" height="4.4" transform="translate(772.8 2469.2) rotate(-179)" fill="#1d1d1b"/>
          <rect x="399.6" y="1205.5" width="31.6" height="4.4" transform="translate(809.6 2422.5) rotate(-179)" fill="#1d1d1b"/>
          <rect x="372.4" y="1162.9" width="29.8" height="7.8" transform="translate(754.1 2340.1) rotate(-179)" fill="#1d1d1b"/>
          <rect x="387.8" y="1131.7" width="44.6" height="5.5" transform="translate(800.5 2275.9) rotate(-179)" fill="#1d1d1b"/>
          <rect x="419" y="1180.7" width="12.6" height="6.1" transform="translate(829.9 2374.8) rotate(-179)" fill="#1d1d1b"/>
          <rect x="373.5" y="1100.3" width="37.2" height="5" transform="translate(764.9 2212.3) rotate(-179)" fill="#1d1d1b"/>
          <rect x="388.9" y="1074.6" width="44.6" height="3.9" transform="translate(803.5 2160) rotate(-179)" fill="#1d1d1b"/>
          <rect x="374.3" y="1053.2" width="43.7" height="4.4" transform="translate(773.9 2117.7) rotate(-179)" fill="#1d1d1b"/>
          <rect x="386.6" y="1005.6" width="27" height="5" transform="translate(782.5 2023.1) rotate(-179)" fill="#1d1d1b"/>
          <rect x="412.6" y="991.6" width="22.3" height="4.4" transform="translate(830.1 1994.9) rotate(-179)" fill="#1d1d1b"/>
          <rect x="375.8" y="970" width="29.8" height="3.9" transform="translate(764.3 1950.5) rotate(-179)" fill="#1d1d1b"/>
          <rect x="387.8" y="937.9" width="16.5" height="4.4" transform="translate(775.5 1887) rotate(-179)" fill="#1d1d1b"/>
          <rect x="401.7" y="913.3" width="34.6" height="5" transform="translate(821.9 1838.9) rotate(-179)" fill="#1d1d1b"/>
          <rect x="377.4" y="879.7" width="34.7" height="5" transform="translate(774 1771.1) rotate(-179)" fill="#1d1d1b"/>
          <rect x="392.9" y="844.2" width="44.6" height="5.8" transform="translate(815.5 1701.4) rotate(-179)" fill="#1d1d1b"/>
          <rect x="407.4" y="865.6" width="17.1" height="4.4" transform="translate(816.7 1742.8) rotate(-179)" fill="#1d1d1b"/>
          <rect x="378.4" y="819.3" width="43.7" height="6.1" transform="translate(786.1 1651.6) rotate(-179)" fill="#1d1d1b"/>
          <rect x="396.5" y="777.3" width="21" height="5" transform="translate(800.3 1566.5) rotate(-179)" fill="#1d1d1b"/>
          <rect x="413.6" y="789.8" width="24.8" height="5" transform="translate(838.2 1591.9) rotate(-179)" fill="#1d1d1b"/>
          <rect x="379.7" y="744" width="48.4" height="5.5" transform="translate(794.7 1500.4) rotate(-179)" fill="#1d1d1b"/>
          <rect x="408.2" y="707.7" width="25.2" height="4.4" transform="translate(829.1 1427) rotate(-179)" fill="#1d1d1b"/>
          <rect x="407.9" y="727.7" width="31.6" height="3.9" transform="translate(834.7 1466.5) rotate(-179)" fill="#1d1d1b"/>
          <rect x="380.9" y="680.1" width="40.4" height="3.3" transform="translate(790.2 1370.5) rotate(-179)" fill="#1d1d1b"/>
          <rect x="385.1" y="642.9" width="20.5" height="6.1" transform="translate(779.5 1298.7) rotate(-179)" fill="#1d1d1b"/>
          <rect x="405.5" y="653.9" width="35.3" height="5.5" transform="translate(834.8 1320.7) rotate(-179)" fill="#1d1d1b"/>
          <rect x="382" y="612.5" width="34.7" height="5" transform="translate(788 1236.8) rotate(-179)" fill="#1d1d1b"/>
          <rect x="399.8" y="590.1" width="35.7" height="3.9" transform="translate(824.8 1191.2) rotate(-179)" fill="#1d1d1b"/>
          <rect x="403.6" y="537.3" width="23.5" height="3.3" transform="translate(821.1 1085.2) rotate(-179)" fill="#1d1d1b"/>
          <rect x="383" y="558.2" width="37.2" height="3.9" transform="translate(793.3 1127.1) rotate(-179)" fill="#1d1d1b"/>
          <rect x="387.7" y="498.5" width="55.9" height="5.5" transform="translate(822.4 1009.8) rotate(-179)" fill="#1d1d1b"/>
          <rect x="384.6" y="462.8" width="37.2" height="3.9" transform="translate(798.3 936.5) rotate(-179)" fill="#1d1d1b"/>
          <rect x="390.8" y="447.8" width="23.9" height="3.9" transform="translate(797.5 906.5) rotate(-179)" fill="#1d1d1b"/>
          <rect x="409.4" y="432.7" width="35.3" height="4.4" transform="translate(846.4 877.3) rotate(-179)" fill="#1d1d1b"/>
          <rect x="385.7" y="402.5" width="53" height="4.4" transform="translate(817.3 816.6) rotate(-179)" fill="#1d1d1b"/>
          <rect x="394.7" y="381.3" width="21.1" height="6.1" transform="translate(803.7 775.8) rotate(-179)" fill="#1d1d1b"/>
          <rect x="406.8" y="346.2" width="39.3" height="10.5" transform="translate(846.8 710.4) rotate(-179)" fill="#1d1d1b"/>
          <rect x="387.3" y="309.3" width="37.2" height="6.1" transform="translate(806.3 631.7) rotate(-179)" fill="#1d1d1b"/>
          <rect x="400.1" y="293.9" width="31.2" height="3.9" transform="translate(826.2 598.9) rotate(-179)" fill="#1d1d1b"/>
          <rect x="418" y="257.1" width="29.8" height="7.2" transform="translate(861.1 528.9) rotate(-179)" fill="#1d1d1b"/>
          <rect x="388.7" y="229" width="53" height="6.1" transform="translate(826.3 471.4) rotate(-179)" fill="#1d1d1b"/>
          <rect x="407" y="201.4" width="22" height="7.8" transform="translate(832.4 417.7) rotate(-179)" fill="#1d1d1b"/>
          <rect x="421.1" y="180" width="27.9" height="9.4" transform="translate(866.9 377.1) rotate(-179)" fill="#1d1d1b"/>
          <rect x="390.3" y="134.7" width="37.2" height="6.7" transform="translate(815.4 283.1) rotate(-179)" fill="#1d1d1b"/>
          <rect x="399.6" y="100.4" width="31.2" height="3.9" transform="translate(828.6 211.9) rotate(-179)" fill="#1d1d1b"/>
          <rect x="422.3" y="116.8" width="27.9" height="5.5" transform="translate(870.3 246.8) rotate(-179)" fill="#1d1d1b"/>
          <rect x="391.6" y="62.6" width="41.9" height="5" transform="translate(823.9 137.5) rotate(-179)" fill="#1d1d1b"/>
          <rect x="418.5" y="40.8" width="26.5" height="5.5" transform="translate(862.7 94.7) rotate(-179)" fill="#1d1d1b"/>
        </g>
      </g>
    </g>
  </g>
  <g id="trunk4">
    <g>
      <rect id="fond_bleu-3" data-name="fond bleu" x="54.1" y="-713.1" width="78.5" height="2662.7" transform="translate(208.2 1232.9) rotate(178)" fill="#442c9a"/>
      <g id="tronc-3" data-name="tronc" opacity=".2">
        <rect id="fond_tronc-3" data-name="fond tronc" x="54.1" y="-713.1" width="78.5" height="2662.7" transform="translate(208.2 1232.9) rotate(178)" fill="#fff"/>
        <g id="marques-3" data-name="marques">
          <rect x="121.9" y="1898" width="55.6" height="12.1" transform="translate(365.7 3801.6) rotate(178)" fill="#1d1d1b"/>
          <rect x="110.3" y="1855.7" width="26.4" height="10.2" transform="translate(311.9 3716.1) rotate(178)" fill="#1d1d1b"/>
          <rect x="129.8" y="1807.2" width="37.3" height="7.3" transform="translate(360 3615.5) rotate(178)" fill="#1d1d1b"/>
          <rect x="94.3" y="1766.2" width="67.7" height="5.8" transform="translate(317.9 3532.8) rotate(178)" fill="#1d1d1b"/>
          <rect x="93.1" y="1731.9" width="22.9" height="9.5" transform="translate(269.7 3468.7) rotate(178)" fill="#1d1d1b"/>
          <rect x="126.1" y="1706.6" width="28" height="6.6" transform="translate(339.7 3413.8) rotate(178)" fill="#1d1d1b"/>
          <rect x="113.6" y="1662.6" width="55.6" height="7.3" transform="translate(340.8 3326.6) rotate(178)" fill="#1d1d1b"/>
          <rect x="89.2" y="1620.8" width="26.1" height="9.5" transform="translate(261.2 3246.6) rotate(178)" fill="#1d1d1b"/>
          <rect x="113.9" y="1581.6" width="41.6" height="6.6" transform="translate(324.7 3164.2) rotate(178)" fill="#1d1d1b"/>
          <rect x="93" y="1548.9" width="33" height="5.8" transform="translate(273 3098.8) rotate(178)" fill="#1d1d1b"/>
          <rect x="119.7" y="1517" width="44.4" height="5.8" transform="translate(336.7 3034) rotate(178)" fill="#1d1d1b"/>
          <rect x="98.2" y="1507.7" width="33.9" height="4.4" transform="translate(283 3014.8) rotate(178)" fill="#1d1d1b"/>
          <rect x="83.9" y="1468.3" width="56.3" height="5.8" transform="translate(275.3 2937.7) rotate(178)" fill="#1d1d1b"/>
          <rect x="94.6" y="1449.6" width="18.5" height="5.1" transform="translate(258.4 2899.7) rotate(178)" fill="#1d1d1b"/>
          <rect x="105.1" y="1424.4" width="55.7" height="4.4" transform="translate(315.6 2847.7) rotate(178)" fill="#1d1d1b"/>
          <rect x="79.1" y="1328.2" width="46.9" height="11.7" transform="translate(251.5 2663.6) rotate(178)" fill="#1d1d1b"/>
          <rect x="108.8" y="1374.8" width="39.6" height="5.8" transform="translate(305.1 2750.1) rotate(178)" fill="#1d1d1b"/>
          <rect x="141.6" y="1349.2" width="16.6" height="3.7" transform="translate(346.8 2696) rotate(178)" fill="#1d1d1b"/>
          <rect x="101.1" y="1289.2" width="55.1" height="5.8" transform="translate(302.2 2579) rotate(178)" fill="#1d1d1b"/>
          <rect x="93.8" y="1259.6" width="44.6" height="5.1" transform="translate(276.2 2519.6) rotate(178)" fill="#1d1d1b"/>
          <rect x="103.9" y="1233.6" width="50.4" height="8.8" transform="translate(301.2 2470.7) rotate(178)" fill="#1d1d1b"/>
          <rect x="75.1" y="1217" width="13" height="7.3" transform="translate(205.8 2437.6) rotate(178)" fill="#1d1d1b"/>
          <rect x="137.6" y="1635.9" width="30.6" height="1.5" transform="translate(362.8 3266.9) rotate(178)" fill="#1d1d1b"/>
          <rect x="100.1" y="1934.2" width="33.9" height="3.7" transform="translate(301.5 3866.7) rotate(178)" fill="#1d1d1b"/>
          <rect x="91" y="1177.2" width="39" height="8" transform="translate(262.2 2357.8) rotate(178)" fill="#1d1d1b"/>
          <rect x="102" y="1126.1" width="48.5" height="9.5" transform="translate(291.8 2256.7) rotate(178)" fill="#1d1d1b"/>
          <rect x="70.4" y="1082.6" width="46.9" height="6.6" transform="translate(225.5 2167.9) rotate(178)" fill="#1d1d1b"/>
          <rect x="99.2" y="1050.3" width="37.8" height="5.8" transform="translate(272.9 2101.8) rotate(178)" fill="#1d1d1b"/>
          <rect x="68.5" y="1027.1" width="46.9" height="5.8" transform="translate(219.7 2056.2) rotate(178)" fill="#1d1d1b"/>
          <rect x="78.6" y="987.6" width="67.1" height="9.5" transform="translate(258.8 1980.2) rotate(178)" fill="#1d1d1b"/>
          <rect x="77.6" y="960.3" width="39.2" height="8" transform="translate(228 1924.8) rotate(178)" fill="#1d1d1b"/>
          <rect x="93.7" y="891.6" width="48.5" height="5.8" transform="translate(267.1 1784.3) rotate(178)" fill="#1d1d1b"/>
          <rect x="64.9" y="925.5" width="50.6" height="4.4" transform="translate(212.7 1851.6) rotate(178)" fill="#1d1d1b"/>
          <rect x="69.2" y="863" width="55.3" height="5.8" transform="translate(224 1728) rotate(178)" fill="#1d1d1b"/>
          <rect x="98.4" y="830.8" width="41.7" height="5.8" transform="translate(267.5 1662.8) rotate(178)" fill="#1d1d1b"/>
          <rect x="59.8" y="776.6" width="39.3" height="10.2" transform="translate(186 1560.2) rotate(178)" fill="#1d1d1b"/>
          <rect x="77.9" y="733.9" width="58.9" height="7.3" transform="translate(240.3 1471) rotate(178)" fill="#1d1d1b"/>
          <rect x="122.4" y="797.5" width="16.6" height="8" transform="translate(289.3 1598) rotate(178)" fill="#1d1d1b"/>
          <rect x="56.8" y="693.9" width="49.1" height="6.6" transform="translate(187 1391) rotate(178)" fill="#1d1d1b"/>
          <rect x="75.2" y="658.7" width="58.9" height="5.1" transform="translate(232.3 1318.4) rotate(178)" fill="#1d1d1b"/>
          <rect x="54.6" y="631.6" width="57.6" height="5.8" transform="translate(189 1265.7) rotate(178)" fill="#1d1d1b"/>
          <rect x="67.5" y="568.6" width="35.6" height="6.6" transform="translate(190.5 1140.5) rotate(178)" fill="#1d1d1b"/>
          <rect x="100.8" y="548.5" width="29.4" height="5.8" transform="translate(250.3 1098.5) rotate(178)" fill="#1d1d1b"/>
          <rect x="50.8" y="522.3" width="39.3" height="5.1" transform="translate(159.1 1046.9) rotate(178)" fill="#1d1d1b"/>
          <rect x="64.4" y="479.7" width="21.7" height="5.8" transform="translate(167.3 962.3) rotate(178)" fill="#1d1d1b"/>
          <rect x="81" y="445.8" width="45.7" height="6.6" transform="translate(223.3 894.2) rotate(178)" fill="#1d1d1b"/>
          <rect x="46.7" y="403.1" width="45.8" height="6.6" transform="translate(153.3 810.1) rotate(178)" fill="#1d1d1b"/>
          <rect x="64.7" y="355" width="58.9" height="7.7" transform="translate(200.7 714.2) rotate(178)" fill="#1d1d1b"/>
          <rect x="85.2" y="383.1" width="22.6" height="5.8" transform="translate(206.5 768.5) rotate(178)" fill="#1d1d1b"/>
          <rect x="43.9" y="323.2" width="57.6" height="8" transform="translate(156.8 651.8) rotate(178)" fill="#1d1d1b"/>
          <rect x="64.8" y="267.4" width="27.7" height="6.6" transform="translate(166.7 538.5) rotate(178)" fill="#1d1d1b"/>
          <rect x="88.3" y="282.6" width="32.7" height="6.6" transform="translate(219.2 568) rotate(178)" fill="#1d1d1b"/>
          <rect x="40.4" y="223.7" width="63.8" height="7.3" transform="translate(152.5 452.1) rotate(178)" fill="#1d1d1b"/>
          <rect x="75.4" y="174.8" width="33.2" height="5.8" transform="translate(190.2 352.1) rotate(178)" fill="#1d1d1b"/>
          <rect x="76.4" y="200.9" width="41.7" height="5.1" transform="translate(201.5 403.4) rotate(178)" fill="#1d1d1b"/>
          <rect x="37.4" y="139.9" width="53.3" height="4.4" transform="translate(133.1 281.8) rotate(178)" fill="#1d1d1b"/>
          <rect x="40.6" y="91.2" width="27.1" height="8" transform="translate(111.6 188.5) rotate(178)" fill="#1d1d1b"/>
          <rect x="68.1" y="103.8" width="46.6" height="7.3" transform="translate(186.6 211.7) rotate(178)" fill="#1d1d1b"/>
          <rect x="34.4" y="50.9" width="45.8" height="6.6" transform="translate(116.4 106.3) rotate(178)" fill="#1d1d1b"/>
          <rect x="56.2" y="20.1" width="47" height="5.1" transform="translate(160.1 42.5) rotate(178)" fill="#1d1d1b"/>
        </g>
      </g>
    </g>
  </g>
  <g id="trunk3">
    <g>
      <rect id="fond_bleu-4" data-name="fond bleu" x="513.5" y="-937.5" width="86.3" height="2925.7" transform="translate(-18 19.7) rotate(-2)" fill="#442c9a"/>
      <g id="tronc-4" data-name="tronc" opacity=".3">
        <rect id="fond_tronc-4" data-name="fond tronc" x="513.5" y="-937.5" width="86.3" height="2925.7" transform="translate(-18 19.7) rotate(-2)" fill="#fff"/>
        <g id="marques-4" data-name="marques">
          <rect x="530.3" y="7.8" width="51.5" height="7.2" transform="translate(0 19.4) rotate(-2)" fill="#1d1d1b"/>
          <rect x="508.6" y="44.1" width="41.5" height="6.4" transform="translate(-1.3 18.5) rotate(-2)" fill="#1d1d1b"/>
          <rect x="532.4" y="69.7" width="51.5" height="6.4" transform="translate(-2.2 19.5) rotate(-2)" fill="#1d1d1b"/>
          <rect x="499.1" y="109" width="73.7" height="10.5" transform="translate(-3.7 18.8) rotate(-2)" fill="#1d1d1b"/>
          <rect x="530.8" y="140.6" width="43.1" height="8.8" transform="translate(-4.7 19.4) rotate(-2)" fill="#1d1d1b"/>
          <rect x="502.9" y="218.6" width="53.3" height="6.4" transform="translate(-7.4 18.6) rotate(-2)" fill="#1d1d1b"/>
          <rect x="532.2" y="182.9" width="55.6" height="4.8" transform="translate(-6.1 19.7) rotate(-2)" fill="#1d1d1b"/>
          <rect x="522.3" y="249.9" width="60.8" height="6.4" transform="translate(-8.5 19.4) rotate(-2)" fill="#1d1d1b"/>
          <rect x="505.2" y="285.3" width="45.9" height="6.4" transform="translate(-9.7 18.6) rotate(-2)" fill="#1d1d1b"/>
          <rect x="550.3" y="340.1" width="43.1" height="11.2" transform="translate(-11.7 20.2) rotate(-2)" fill="#1d1d1b"/>
          <rect x="508.9" y="390.2" width="64.7" height="8" transform="translate(-13.4 19.1) rotate(-2)" fill="#1d1d1b"/>
          <rect x="506.4" y="319.5" width="18.3" height="8.8" transform="translate(-11 18.2) rotate(-2)" fill="#1d1d1b"/>
          <rect x="542.8" y="435" width="53.9" height="7.2" transform="translate(-15 20.2) rotate(-2)" fill="#1d1d1b"/>
          <rect x="511.8" y="475.3" width="64.7" height="5.6" transform="translate(-16.4 19.3) rotate(-2)" fill="#1d1d1b"/>
          <rect x="535.8" y="504.2" width="63.3" height="6.4" transform="translate(-17.4 20.1) rotate(-2)" fill="#1d1d1b"/>
          <rect x="545.9" y="572.6" width="39.1" height="7.2" transform="translate(-19.8 20.1) rotate(-2)" fill="#1d1d1b"/>
          <rect x="516" y="595.5" width="32.3" height="6.4" transform="translate(-20.6 18.9) rotate(-2)" fill="#1d1d1b"/>
          <rect x="560.2" y="625.1" width="43.1" height="5.6" transform="translate(-21.6 20.7) rotate(-2)" fill="#1d1d1b"/>
          <rect x="564.5" y="671.1" width="23.9" height="6.4" transform="translate(-23.2 20.5) rotate(-2)" fill="#1d1d1b"/>
          <rect x="520" y="707.6" width="50.2" height="7.2" transform="translate(-24.5 19.5) rotate(-2)" fill="#1d1d1b"/>
          <rect x="557.6" y="754.5" width="50.3" height="7.2" transform="translate(-26.1 20.8) rotate(-2)" fill="#1d1d1b"/>
          <rect x="523.4" y="806.1" width="64.7" height="8.4" transform="translate(-27.9 19.9) rotate(-2)" fill="#1d1d1b"/>
          <rect x="540.7" y="777.3" width="24.8" height="6.4" transform="translate(-26.9 19.8) rotate(-2)" fill="#1d1d1b"/>
          <rect x="547.6" y="840.7" width="63.3" height="8.8" transform="translate(-29.1 20.7) rotate(-2)" fill="#1d1d1b"/>
          <rect x="557.5" y="903.6" width="30.4" height="7.2" transform="translate(-31.3 20.5) rotate(-2)" fill="#1d1d1b"/>
          <rect x="526.2" y="886.9" width="36" height="7.2" transform="translate(-30.7 19.5) rotate(-2)" fill="#1d1d1b"/>
          <rect x="544.7" y="950.8" width="70.1" height="8" transform="translate(-33 20.8) rotate(-2)" fill="#1d1d1b"/>
          <rect x="539.8" y="1006.2" width="36.5" height="6.4" transform="translate(-34.9 20.1) rotate(-2)" fill="#1d1d1b"/>
          <rect x="529.4" y="978.3" width="45.9" height="5.6" transform="translate(-33.9 19.9) rotate(-2)" fill="#1d1d1b"/>
          <rect x="559.4" y="1046.1" width="58.6" height="4.8" transform="translate(-36.2 21.2) rotate(-2)" fill="#1d1d1b"/>
          <rect x="584.8" y="1095.6" width="29.7" height="8.8" transform="translate(-38 21.6) rotate(-2)" fill="#1d1d1b"/>
          <rect x="533.1" y="1082.5" width="51.2" height="8" transform="translate(-37.6 20.2) rotate(-2)" fill="#1d1d1b"/>
          <rect x="571.1" y="1141.5" width="50.3" height="7.2" transform="translate(-39.6 21.5) rotate(-2)" fill="#1d1d1b"/>
          <rect x="545.8" y="1176.9" width="51.7" height="5.6" transform="translate(-40.8 20.7) rotate(-2)" fill="#1d1d1b"/>
          <rect x="561.9" y="1253.9" width="34" height="4.8" transform="translate(-43.5 21) rotate(-2)" fill="#1d1d1b"/>
          <rect x="570.3" y="1221.9" width="53.9" height="5.6" transform="translate(-42.4 21.6) rotate(-2)" fill="#1d1d1b"/>
          <rect x="540.9" y="1306.8" width="81" height="8" transform="translate(-45.4 21.1) rotate(-2)" fill="#1d1d1b"/>
          <rect x="575.1" y="1360" width="53.9" height="5.6" transform="translate(-47.2 21.8) rotate(-2)" fill="#1d1d1b"/>
          <rect x="586.6" y="1381.6" width="34.6" height="5.6" transform="translate(-47.9 21.9) rotate(-2)" fill="#1d1d1b"/>
          <rect x="544.3" y="1404.5" width="51.2" height="6.4" transform="translate(-48.8 20.7) rotate(-2)" fill="#1d1d1b"/>
          <rect x="555.2" y="1447.1" width="76.8" height="6.4" transform="translate(-50.3 21.6) rotate(-2)" fill="#1d1d1b"/>
          <rect x="589.9" y="1474.8" width="30.6" height="8.8" transform="translate(-51.3 22) rotate(-2)" fill="#1d1d1b"/>
          <rect x="548.5" y="1520.8" width="57" height="15.3" transform="translate(-53 21.1) rotate(-2)" fill="#1d1d1b"/>
          <rect x="582.8" y="1579.2" width="53.9" height="8.8" transform="translate(-54.9 22.2) rotate(-2)" fill="#1d1d1b"/>
          <rect x="574.2" y="1605.3" width="45.2" height="5.6" transform="translate(-55.8 21.8) rotate(-2)" fill="#1d1d1b"/>
          <rect x="553.1" y="1655.2" width="43.1" height="10.4" transform="translate(-57.6 21.1) rotate(-2)" fill="#1d1d1b"/>
          <rect x="564" y="1696" width="76.8" height="8.8" transform="translate(-59 22.1) rotate(-2)" fill="#1d1d1b"/>
          <rect x="584.4" y="1733.8" width="31.9" height="11.2" transform="translate(-60.3 22) rotate(-2)" fill="#1d1d1b"/>
          <rect x="556.9" y="1763.6" width="40.5" height="13.7" transform="translate(-61.4 21.2) rotate(-2)" fill="#1d1d1b"/>
          <rect x="591.6" y="1831.3" width="53.9" height="9.6" transform="translate(-63.7 22.7) rotate(-2)" fill="#1d1d1b"/>
          <rect x="589.6" y="1885.4" width="45.2" height="5.6" transform="translate(-65.5 22.5) rotate(-2)" fill="#1d1d1b"/>
          <rect x="560.2" y="1860.7" width="40.5" height="8" transform="translate(-64.7 21.4) rotate(-2)" fill="#1d1d1b"/>
          <rect x="588.6" y="1938.2" width="60.7" height="7.2" transform="translate(-67.4 22.8) rotate(-2)" fill="#1d1d1b"/>
          <rect x="573.5" y="1970.4" width="38.4" height="8" transform="translate(-68.5 21.9) rotate(-2)" fill="#1d1d1b"/>
        </g>
      </g>
    </g>
  </g>
  <g id="garland2">
    <g opacity=".7">
      <g>
        <circle cx="764.8" cy="622.9" r="79.2" fill="#f0a409" opacity=".3"/>
        <circle cx="764.8" cy="622.9" r="47.5" fill="#f0a409" opacity=".3"/>
        <circle cx="764.8" cy="622.9" r="14" fill="#f0a409"/>
      </g>
      <g>
        <circle cx="456.7" cy="806.2" r="98.3" fill="#e05310" opacity=".3"/>
        <circle cx="456.7" cy="806.2" r="58.9" fill="#e05310" opacity=".3"/>
        <circle cx="456.7" cy="806.2" r="14" fill="#e05310"/>
      </g>
      <g>
        <circle cx="-34.4" cy="847.7" r="98.3" fill="#e05310" opacity=".3"/>
        <circle cx="-34.4" cy="847.7" r="58.9" fill="#e05310" opacity=".3"/>
      </g>
      <g>
        <circle cx="547.4" cy="763.4" r="101.2" fill="#0ee040" opacity=".3"/>
        <circle cx="547.4" cy="763.4" r="58.2" fill="#0ee040" opacity=".3"/>
        <circle cx="547.4" cy="763.4" r="14" fill="#0ee040"/>
      </g>
      <g>
        <circle cx="95.7" cy="871.1" r="101.2" fill="#0ee040" opacity=".3"/>
        <circle cx="95.7" cy="871.1" r="58.2" fill="#0ee040" opacity=".3"/>
        <circle cx="95.7" cy="871.1" r="14" fill="#0ee040"/>
      </g>
      <g>
        <circle cx="652.4" cy="702.1" r="94.1" fill="#e7eb0a" opacity=".3"/>
        <circle cx="652.4" cy="702.1" r="47.5" fill="#e7eb0a" opacity=".3"/>
        <circle cx="652.4" cy="702.1" r="14" fill="#e7eb0a"/>
      </g>
      <g>
        <circle cx="214.6" cy="859.4" r="94.1" fill="#e7eb0a" opacity=".3"/>
        <circle cx="214.6" cy="859.4" r="47.5" fill="#e7eb0a" opacity=".3"/>
        <circle cx="214.6" cy="859.4" r="14" fill="#e7eb0a"/>
      </g>
      <g>
        <circle cx="346.2" cy="839.7" r="81.5" fill="#f0a409" opacity=".3"/>
        <circle cx="346.2" cy="839.7" r="41.2" fill="#f0a409" opacity=".3"/>
        <circle cx="346.2" cy="839.7" r="14" fill="#f0a409"/>
      </g>
      <path d="M832.3,502.8c-82.7,126.8-368.9,405.5-862.9,329" fill="none" stroke="#1d1d1b" stroke-miterlimit="10" stroke-width="3"/>
    </g>
  </g>
  <g id="trunk2">
    <g>
      <rect id="fond_bleu-5" data-name="fond bleu" x="175.7" y="-1797.2" width="113.1" height="3835.4" transform="translate(-2.1 4.1) rotate(-1)" fill="#442c9a"/>
      <g id="tronc-5" data-name="tronc" opacity=".4">
        <rect id="fond_tronc-5" data-name="fond tronc" x="175.7" y="-1797.2" width="113.1" height="3835.4" transform="translate(-2.1 4.1) rotate(-1)" fill="#fff"/>
        <g id="marques-5" data-name="marques">
          <rect x="216.1" y="2.4" width="70.7" height="9.5" transform="translate(0 4.4) rotate(-1)" fill="#1d1d1b"/>
          <rect x="174.6" y="54.7" width="84.8" height="7.4" transform="translate(-1 3.8) rotate(-1)" fill="#1d1d1b"/>
          <rect x="205.3" y="93.1" width="83" height="8.4" transform="translate(-1.7 4.3) rotate(-1)" fill="#1d1d1b"/>
          <rect x="217" y="182.7" width="51.2" height="9.5" transform="translate(-3.2 4.3) rotate(-1)" fill="#1d1d1b"/>
          <rect x="177.3" y="211.9" width="42.4" height="8.4" transform="translate(-3.7 3.5) rotate(-1)" fill="#1d1d1b"/>
          <rect x="234.6" y="251.9" width="56.5" height="7.4" transform="translate(-4.4 4.6) rotate(-1)" fill="#1d1d1b"/>
          <rect x="239.2" y="312.1" width="31.3" height="8.4" transform="translate(-5.5 4.5) rotate(-1)" fill="#1d1d1b"/>
          <rect x="179.9" y="359.2" width="65.8" height="9.5" transform="translate(-6.3 3.8) rotate(-1)" fill="#1d1d1b"/>
          <rect x="228.2" y="421.5" width="65.9" height="9.5" transform="translate(-7.4 4.6) rotate(-1)" fill="#1d1d1b"/>
          <rect x="182.2" y="488.5" width="84.8" height="11.1" transform="translate(-8.6 4) rotate(-1)" fill="#1d1d1b"/>
          <rect x="205.5" y="450.6" width="32.6" height="8.4" transform="translate(-7.9 3.9) rotate(-1)" fill="#1d1d1b"/>
          <rect x="213.1" y="534.3" width="83" height="11.6" transform="translate(-9.4 4.5) rotate(-1)" fill="#1d1d1b"/>
          <rect x="224.7" y="616.7" width="39.9" height="9.5" transform="translate(-10.8 4.4) rotate(-1)" fill="#1d1d1b"/>
          <rect x="184" y="594.1" width="47.1" height="9.5" transform="translate(-10.4 3.7) rotate(-1)" fill="#1d1d1b"/>
          <rect x="206.7" y="678.7" width="91.9" height="10.5" transform="translate(-11.9 4.5) rotate(-1)" fill="#1d1d1b"/>
          <rect x="199.1" y="750.8" width="47.8" height="8.4" transform="translate(-13.1 4) rotate(-1)" fill="#1d1d1b"/>
          <rect x="186.1" y="714.1" width="60.1" height="7.4" transform="translate(-12.5 3.9) rotate(-1)" fill="#1d1d1b"/>
          <rect x="223.9" y="803.9" width="76.8" height="6.3" transform="translate(-14 4.7) rotate(-1)" fill="#1d1d1b"/>
          <rect x="256" y="868.9" width="39" height="11.6" transform="translate(-15.2 4.9) rotate(-1)" fill="#1d1d1b"/>
          <rect x="188.5" y="850.9" width="67.1" height="10.5" transform="translate(-14.9 4) rotate(-1)" fill="#1d1d1b"/>
          <rect x="237" y="929.1" width="65.9" height="9.5" transform="translate(-16.3 4.9) rotate(-1)" fill="#1d1d1b"/>
          <rect x="203" y="974.9" width="67.7" height="7.4" transform="translate(-17 4.3) rotate(-1)" fill="#1d1d1b"/>
          <rect x="222.5" y="1075.9" width="44.6" height="6.3" transform="translate(-18.8 4.4) rotate(-1)" fill="#1d1d1b"/>
          <rect x="234.1" y="1034.4" width="70.7" height="7.4" transform="translate(-18.1 4.9) rotate(-1)" fill="#1d1d1b"/>
          <rect x="193.7" y="1145.4" width="106.1" height="10.5" transform="translate(-20 4.5) rotate(-1)" fill="#1d1d1b"/>
          <rect x="237.3" y="1215.5" width="70.7" height="7.4" transform="translate(-21.2 4.9) rotate(-1)" fill="#1d1d1b"/>
          <rect x="251.9" y="1244" width="45.4" height="7.4" transform="translate(-21.7 5) rotate(-1)" fill="#1d1d1b"/>
          <rect x="195.9" y="1273.2" width="67.1" height="8.4" transform="translate(-22.3 4.2) rotate(-1)" fill="#1d1d1b"/>
          <rect x="209.2" y="1329.5" width="100.7" height="8.4" transform="translate(-23.2 4.7) rotate(-1)" fill="#1d1d1b"/>
          <rect x="254.1" y="1366.1" width="40.1" height="11.6" transform="translate(-23.9 5) rotate(-1)" fill="#1d1d1b"/>
          <rect x="198.6" y="1425.8" width="74.7" height="20" transform="translate(-25 4.3) rotate(-1)" fill="#1d1d1b"/>
          <rect x="242.3" y="1503" width="70.7" height="11.6" transform="translate(-26.3 5.1) rotate(-1)" fill="#1d1d1b"/>
          <rect x="230.5" y="1537" width="59.2" height="7.4" transform="translate(-26.8 4.8) rotate(-1)" fill="#1d1d1b"/>
          <rect x="201.6" y="1601.8" width="56.5" height="13.7" transform="translate(-28 4.3) rotate(-1)" fill="#1d1d1b"/>
          <rect x="215" y="1656" width="100.7" height="11.6" transform="translate(-29 4.9) rotate(-1)" fill="#1d1d1b"/>
          <rect x="240.8" y="1705.5" width="41.9" height="14.7" transform="translate(-29.9 4.8) rotate(-1)" fill="#1d1d1b"/>
          <rect x="204.2" y="1744" width="53.1" height="17.9" transform="translate(-30.6 4.3) rotate(-1)" fill="#1d1d1b"/>
          <rect x="248.1" y="1833.7" width="70.7" height="12.6" transform="translate(-32.1 5.2) rotate(-1)" fill="#1d1d1b"/>
          <rect x="244.2" y="1904.4" width="59.3" height="7.4" transform="translate(-33.3 5.1) rotate(-1)" fill="#1d1d1b"/>
          <rect x="206.3" y="1871.4" width="53.1" height="10.5" transform="translate(-32.7 4.3) rotate(-1)" fill="#1d1d1b"/>
          <rect x="241.7" y="1973.8" width="79.5" height="9.5" transform="translate(-34.5 5.2) rotate(-1)" fill="#1d1d1b"/>
        </g>
      </g>
    </g>
  </g>
  <g id="garland1">
    <g opacity=".9">
      <g>
        <circle cx="1.3" cy="1234.4" r="88.4" fill="#f0a409" opacity=".3"/>
        <circle cx="1.3" cy="1234.4" r="44.7" fill="#f0a409" opacity=".3"/>
        <circle cx="1.3" cy="1234.4" r="15.6" fill="#f0a409"/>
      </g>
      <circle cx="308.8" cy="1490.9" r="109.8" fill="#e05310" opacity=".2"/>
      <circle cx="308.8" cy="1490.9" r="65.8" fill="#e05310" opacity=".3"/>
      <circle cx="308.8" cy="1490.9" r="15.6" fill="#e05310"/>
      <circle cx="816.7" cy="1625.7" r="109.9" fill="#e05310" opacity=".2"/>
      <circle cx="816.7" cy="1625.7" r="53" fill="#e05310" opacity=".3"/>
      <circle cx="216.3" cy="1427.7" r="113.1" fill="#0ee040" opacity=".2"/>
      <circle cx="216.3" cy="1427.7" r="65" fill="#0ee040" opacity=".3"/>
      <circle cx="216.3" cy="1427.7" r="15.6" fill="#0ee040"/>
      <circle cx="686.7" cy="1612.4" r="105.9" fill="#0ee040" opacity=".2"/>
      <circle cx="686.7" cy="1612.4" r="61.6" fill="#0ee040" opacity=".3"/>
      <circle cx="686.7" cy="1612.4" r="15.6" fill="#0ee040"/>
      <circle cx="111.3" cy="1341.5" r="105" fill="#e7eb0a" opacity=".2"/>
      <circle cx="111.3" cy="1341.5" r="53" fill="#e7eb0a" opacity=".3"/>
      <circle cx="111.3" cy="1341.5" r="15.6" fill="#e7eb0a"/>
      <circle cx="573.8" cy="1586.9" r="103.1" fill="#e7eb0a" opacity=".2"/>
      <circle cx="573.8" cy="1586.9" r="61.7" fill="#e7eb0a" opacity=".3"/>
      <circle cx="573.8" cy="1586.9" r="15.6" fill="#e7eb0a"/>
      <circle cx="424.7" cy="1547.3" r="91.1" fill="#f0a409" opacity=".2"/>
      <circle cx="424.7" cy="1547.3" r="46" fill="#f0a409" opacity=".3"/>
      <circle cx="424.7" cy="1547.3" r="15.6" fill="#f0a409"/>
      <path d="M-51.9,1090.1c68.8,154.4,335.4,512.2,893.6,514.8" fill="none" stroke="#1d1d1b" stroke-miterlimit="10" stroke-width="6"/>
    </g>
  </g>
  <g id="deer_back" data-name="deer back">
    <path d="M279.2,1819.3c8.7,649.6-144.7,340.9-235.8,322.7-91.1-18.1-195.9,122.1-94.2-388.4,39.1-196.4,144.7-340.9,235.8-322.7,91.1,18.1,91.5,190.5,94.2,388.4Z" fill="#925f36"/>
    <path d="M121.5,1662.4c-2.1,9.6-4.1,18.6-4.9,28.4-.3,3.2-.5,6.4-.9,9.8-6.5-11.8-3.9-28.9,5.8-38.2h0Z" fill="#7f5334"/>
    <path d="M74.7,1841.4c-.2,8.6.4,16.6,1.8,25,1.3,8.4,3.2,16.6,3.7,25.2-8.3-14.3-13.6-34.7-5.4-50.1h0Z" fill="#7f5334"/>
    <path d="M138.8,1824.9c-1.2,9.9-2.5,19.5-2.9,29.4-.5,9.9,0,19.5.4,29.5-8.4-18-7.4-41.7,2.5-58.9h0Z" fill="#7f5334"/>
    <path d="M236.2,1699.7c5.4,15.6,5.2,35.5-.6,51-.9-8.6-.8-17-.8-25.5.2-8.5.2-16.9,1.4-25.5h0Z" fill="#7f5334"/>
    <path d="M213.8,1808.4c1.5,8.2,1.5,16.4,1,24.7-.6,8.2-1.6,16.4-4.2,24.3-1.5-8.2-1.5-16.4-1-24.7.6-8.2,1.6-16.4,4.2-24.3h0Z" fill="#7f5334"/>
    <path d="M169.5,1705.5c2.2,7.7,2.9,15.5,3.2,23.4.1,7.9-.1,15.8-2,23.6-2.3-7.7-2.9-15.5-3.2-23.4-.1-7.9.2-15.8,2-23.6h0Z" fill="#7f5334"/>
    <path d="M91.1,1745.7c-.4,7.8-1.6,18.6-2.3,26.5-.7,7.9-1.4,18.6-2.5,26.4-5.4-16.6-3.5-37.5,4.7-52.9h0Z" fill="#7f5334"/>
    <path d="M54.1,1669.8c-2.5,9.4-5.5,18.4-8.2,27.6-2.4,8.2-5.5,19.5-8.2,27.7-1.8-18.8,4.7-40.5,16.4-55.3h0Z" fill="#7f5334"/>
  </g>
  <g id="boar">
    <g>
      <path d="M743.5,1872.9c42.1,133.2,13,257.2-62.1,285-161.1,59.5-172.5-64.3-214.6-197.5-42.1-133.2-14.3-260.8,62.1-285,76.4-24.1,172.5,64.3,214.6,197.5Z" fill="#663a3c"/>
      <g>
        <circle cx="614.7" cy="1772.1" r="7.6" fill="#fff"/>
        <circle cx="514.2" cy="1803.8" r="7.6" fill="#fff"/>
      </g>
      <g>
        <path d="M644.6,1854.1c9.4,29.7-15.9,33.5-45.7,42.9-29.7,9.4-52.6,20.9-62-8.9-9.4-29.7,4.1-70.8,33.9-80.2,29.7-9.4,64.4,16.5,73.8,46.2Z" fill="#fff"/>
        <g>
          <ellipse cx="608.8" cy="1858.7" rx="8.9" ry="13.6" transform="translate(-531.7 269.8) rotate(-17.5)" fill="#663a3c"/>
          <ellipse cx="568.8" cy="1871.3" rx="8.9" ry="13.6" transform="translate(-537.4 258.3) rotate(-17.5)" fill="#663a3c"/>
        </g>
        <g>
          <path d="M569.7,1906.2c-14.6,4.6-46.1,6.9-53-32.7,37.6,32.6,70.1,27.3,53,32.7Z" fill="#fff"/>
          <path d="M628.1,1887.7c14.6-4.6,41.7-20.9,24.6-57.2-12,48.3-41.7,62.6-24.6,57.2Z" fill="#fff"/>
        </g>
      </g>
      <g>
        <path d="M485.5,1795.6s-56.2-17.7-67.5-35.5c-11.3-17.8-3.7-76.2-3.7-76.2,0,0,56.2,17.7,67.5,35.5,11.3,17.8,3.7,76.2,3.7,76.2Z" fill="#663a3c"/>
        <path d="M633.5,1748.9s35.8-46.8,34.9-67.8c-.9-21-40.7-64.5-40.7-64.5,0,0-35.8,46.8-34.9,67.8.9,21,40.7,64.5,40.7,64.5Z" fill="#663a3c"/>
      </g>
    </g>
  </g>
  <g id="trunk1">
    <g>
      <rect id="fond_bleu-6" data-name="fond bleu" x="689.5" y="-4586" width="196.8" height="6675.2" transform="translate(-17.4 -11.1) rotate(.8)" fill="#45267f"/>
      <g id="tronc-6" data-name="tronc" opacity=".5">
        <rect id="fond_tronc-6" data-name="fond tronc" x="689.5" y="-4586" width="196.8" height="6675.2" transform="translate(-17.4 -11.1) rotate(.8)" fill="#fff"/>
        <g id="marques-6" data-name="marques">
          <rect x="788" y="55.9" width="67.8" height="20.2" transform="translate(1 -11.5) rotate(.8)" fill="#1d1d1b"/>
          <rect x="671.6" y="21.6" width="116.9" height="18.3" transform="translate(.5 -10.2) rotate(.8)" fill="#1d1d1b"/>
          <rect x="751.7" y="160.2" width="114.8" height="16.5" transform="translate(2.4 -11.3) rotate(.8)" fill="#1d1d1b"/>
          <rect x="690.2" y="238.2" width="117.9" height="12.8" transform="translate(3.5 -10.4) rotate(.8)" fill="#1d1d1b"/>
          <rect x="718.5" y="414.3" width="77.7" height="11" transform="translate(5.9 -10.5) rotate(.8)" fill="#1d1d1b"/>
          <rect x="740.9" y="343.4" width="123" height="12.8" transform="translate(5 -11.2) rotate(.8)" fill="#1d1d1b"/>
          <rect x="664.4" y="535.3" width="184.7" height="18.3" transform="translate(7.7 -10.5) rotate(.8)" fill="#1d1d1b"/>
          <rect x="736.5" y="658.7" width="123" height="12.8" transform="translate(9.4 -11.1) rotate(.8)" fill="#1d1d1b"/>
          <rect x="760.5" y="708.2" width="79" height="12.8" transform="translate(10.1 -11.1) rotate(.8)" fill="#1d1d1b"/>
          <rect x="661.4" y="756.6" width="116.9" height="14.7" transform="translate(10.7 -10) rotate(.8)" fill="#1d1d1b"/>
          <rect x="681.5" y="856.2" width="175.2" height="14.7" transform="translate(12.1 -10.7) rotate(.8)" fill="#1d1d1b"/>
          <rect x="757.4" y="920.7" width="69.8" height="20.2" transform="translate(13.1 -11) rotate(.8)" fill="#1d1d1b"/>
          <rect x="657.5" y="1022.4" width="130" height="34.8" transform="translate(14.6 -10) rotate(.8)" fill="#1d1d1b"/>
          <rect x="729.5" y="1159" width="123" height="20.2" transform="translate(16.4 -10.9) rotate(.8)" fill="#1d1d1b"/>
          <rect x="707.2" y="1217.2" width="103.1" height="12.8" transform="translate(17.2 -10.5) rotate(.8)" fill="#1d1d1b"/>
          <rect x="653.3" y="1328.3" width="98.4" height="23.8" transform="translate(18.8 -9.7) rotate(.8)" fill="#1d1d1b"/>
          <rect x="673.6" y="1424.4" width="175.2" height="20.2" transform="translate(20.1 -10.5) rotate(.8)" fill="#1d1d1b"/>
          <rect x="715.7" y="1510.4" width="72.9" height="25.7" transform="translate(21.3 -10.4) rotate(.8)" fill="#1d1d1b"/>
          <rect x="649.8" y="1575.7" width="92.3" height="31.2" transform="translate(22.3 -9.6) rotate(.8)" fill="#1d1d1b"/>
          <rect x="721.5" y="1734.5" width="123" height="22" transform="translate(24.5 -10.8) rotate(.8)" fill="#1d1d1b"/>
          <rect x="711" y="1857.1" width="103.2" height="12.8" transform="translate(26.1 -10.5) rotate(.8)" fill="#1d1d1b"/>
          <rect x="646.8" y="1797.4" width="92.3" height="18.3" transform="translate(25.3 -9.5) rotate(.8)" fill="#1d1d1b"/>
          <rect x="702.7" y="1978.2" width="138.4" height="16.5" transform="translate(27.8 -10.6) rotate(.8)" fill="#1d1d1b"/>
        </g>
      </g>
    </g>
  </g>
  <g id="dear_front" data-name="dear front">
    <polygon points="405 1384.8 425.9 1463.2 444.4 1463.2 456.8 1374.9 405 1384.8" fill="#8e756b"/>
    <polygon points="244 1451 268.5 1406.4 308.1 1207.4 307.4 1401.4 520.9 1397.1 545.2 1383.4 602.1 1264.5 571 1110.4 624.3 1234.6 641.8 1109 648.3 1242.4 550.9 1423.1 294.8 1435.7 274.5 1469.7 244 1451" fill="#3d281a"/>
    <ellipse cx="249" cy="1551.8" rx="82.9" ry="157.2" transform="translate(-1021.2 626.3) rotate(-44.8)" fill="#925f36"/>
    <path d="M151.3,1453.9l-18.6-47.3-13.8-202.4-24.1,192.4-211.2-31.4,28.2-130.7-50.6,114-41.2-125.2,50.5-148.8-68.8,116.4-56.2-124.4,41.2,154.7,63.7,165.9,252.5,45.2,15.7,36.3s13.1,5.3,20.7,1.3c11.2-5.8,11.9-16,11.9-16Z" fill="#3d281a"/>
    <path d="M365.9,1626.1c6.8,19-3.2,39.8-22.1,46.6-19,6.8-39.8-3.2-46.6-22.1-6.8-19,8-28.3,27-35,19-6.8,35-8.4,41.8,10.6Z" fill="#2e161b"/>
    <path d="M264.4,1663.6s-52.7-10.9-66.8-34.4c-23.3,37.8,8.3,46.2,66.8,34.4Z" fill="#1d1d1b"/>
    <path d="M267.9,1483.9s1.4-42.6,10.8-51.9c16.1-15.9,88.7-17.3,88.7-17.3,0,0-16.1,67.4-34.6,78.1-12.3,7.1-56.6-5.9-56.6-5.9l-8.4-2.9" fill="#925f36"/>
    <path d="M107.2,1499.7s-51,7-64-2.4c-22.2-15.9-38.6-102.1-38.6-102.1,0,0,64-6,95.1,27.4,21.7,23.2,9.2,66.6,9.2,66.6l-1.8,10.5" fill="#925f36"/>
    <path d="M103.9,1470.7c-4.5-38.7-24.1-45.6-60.7-56,0,0-7.4,30.5,15.4,51.8,22.8,21.2,45.3,4.2,45.3,4.2Z" fill="#7f5334"/>
    <path d="M164,1547.2c8.6-2.9,17.6-1.8,25,2.2-4.4-11.3-17.1-17.3-28.7-13.4-11.7,3.9-18.1,16.3-14.8,28,3.4-7.7,10-14,18.6-16.9Z" fill="#1d1d1b"/>
    <path d="M287.3,1491.2c3.9-4.7,9.4-6.3,14.9-5.2-6.3-7.7-15.4-9-20.7-2.6-5.3,6.3-4.8,17.9,1,26.3-.6-7,1-13.8,4.9-18.5Z" fill="#1d1d1b"/>
    <g id="Calque_7" data-name="Calque 7">
      <g opacity=".5">
        <rect x="174.8" y="1911.3" width="78.3" height="125.3" transform="translate(156.2 -10.7) rotate(4.5)" fill="#fff"/>
        <path d="M150.5,1919.9h27.8v15.7h-43.5c0-8.7,7-15.7,15.7-15.7Z" transform="translate(152.4 -6.3) rotate(4.5)" fill="#fff"/>
        <rect x="131.2" y="1934.4" width="15.6" height="74" transform="translate(155.8 -4.8) rotate(4.5)" fill="#fff"/>
      </g>
      <path d="M186,1931.7l-6.5,84.5c-.3,3.8,1.4,9.1,5.2,9.5l49.4,3.2c4.1.4,7.8-2.6,8.2-6.8l7.9-95.2-64.1,4.7Z" fill="#f9c248"/>
      <g>
        <circle cx="198.4" cy="1929" r="12.2" fill="#fff"/>
        <circle cx="209.1" cy="1923.7" r="12.2" fill="#fff"/>
        <circle cx="219.3" cy="1935.2" r="12.2" fill="#fff"/>
        <circle cx="228.3" cy="1924.5" r="12.2" fill="#fff"/>
        <circle cx="241" cy="1930.3" r="12.2" fill="#fff"/>
        <circle cx="243.4" cy="1917.9" r="12.2" fill="#fff"/>
      </g>
      <path d="M-16.7,1765.5s33.2,32.6,73.7,107.6c23.2,43.1,73.1,62.4,90.6,62.7s30,21,28.5,35.6c-1.5,14.6-11.3,37.5-31.6,34-20.3-3.5-117.9-13.9-146.7-91-28.8-77.1-27.5-124.7-14.4-148.9,13.1-24.2,0,0,0,0Z" fill="#7f5334"/>
    </g>
    <polyline points="520.9 1397.1 505.7 1265.1 545.2 1383.4" fill="#3d281a"/>
  </g>
  <g id="robin">
    <g>
      <ellipse cx="430.3" cy="1340.9" rx="40.6" ry="56" fill="#8e756b"/>
      <ellipse cx="430.3" cy="1330" rx="30.9" ry="42.5" fill="#cc5231"/>
      <polygon points="433.1 1298.2 415.6 1290.2 430.1 1305.1 410.7 1313 432.1 1312 433.1 1298.2" fill="#1d1d1b"/>
      <circle cx="453.5" cy="1301.6" r="3.4" fill="#1d1d1b"/>
      <circle cx="406.2" cy="1296.8" r="3.4" fill="#1d1d1b"/>
      <polygon points="416.4 1388.7 418.9 1399.4 411.7 1414.5 420.5 1403.4 425.2 1413.9 422.7 1399.5 419.2 1388.3 416.4 1388.7" fill="#1d1d1b"/>
      <polygon points="444.9 1389.2 442.2 1388.6 438.4 1399.1 436.9 1412.4 441.2 1402.8 451.6 1408.7 442.5 1398.2 444.9 1389.2" fill="#1d1d1b"/>
    </g>
  </g>
</svg>