<?xml version="1.0" encoding="UTF-8"?>
<svg id="b" data-name="Calque 2" xmlns="http://www.w3.org/2000/svg" viewBox="0 0 1400 1000">
  <defs>
    <style>
      .e {
        fill: #4e3716;
      }

      .e, .f {
        stroke-width: 0px;
      }

      .f {
        fill: #2f110e;
      }
    </style>
  </defs>
  <g id="c" data-name="floor-1">
    <rect class="e" y="0" width="1400" height="1000"/>
  </g>
  <g id="d" data-name="floor-4">
    <path class="f" d="m1106.6,128.6c-78.9,41.6-154.6,89.6-235.9,126.4-31,12-62.7,21.8-95.3,28.1-17,1.3-34,1.4-51,.3-23.1-4.8-45.7-11.8-67.8-20.2-42.4-19.3-83.4-41.7-125.9-60.8-36.4-16.4-73.4-32.7-111.8-44-41.3-12.2-84.2-17.6-126.8-22.5-60.2-7-121.2-4.2-181.4,2.7-37.1,4.3-74,9.4-110.9,15.3v846.2h1400V0c-101.4,34.2-199.5,79-293.4,128.6Z"/>
  </g>
</svg>