<?xml version="1.0" encoding="UTF-8"?>
<svg id="b" data-name="Calque 2" xmlns="http://www.w3.org/2000/svg" viewBox="0 0 1400 1000">
  <defs>
    <style>
      .e {
        fill: #538931;
      }

      .e, .f {
        stroke-width: 0px;
      }

      .f {
        fill: #272455;
      }
    </style>
  </defs>
  <g id="c" data-name="sky">
    <rect class="f" width="1400" height="663.3"/>
  </g>
  <g id="d" data-name="floor-1">
    <path class="e" d="m1264.9,77.1c-60.2,28.3-121.5,53.3-183.1,77.2-71.2,27.7-142.6,55.5-215.5,77-35.4,10.5-71.1,19.3-107.1,25.8-56.4,7.1-113.1,7-169.5-.1-83.4-15-164.4-43.6-242.5-80-30.8-15.4-61.3-31.7-91.5-48.7-18.6-17.2-36.7-35.2-54.3-53.8-1-.5-1.9-1-2.9-1.6-14.4-3.5-28.4-8.4-41.6-13.8-35-13-69-23-106-30-17.3-3.6-34.2-7-50.8-10.2v981h1400V0c-43.6,28.7-88.9,54.1-135.1,77.1Z"/>
  </g>
</svg>