<?xml version="1.0" encoding="UTF-8"?>
<svg id="b" data-name="Calque 2" xmlns="http://www.w3.org/2000/svg" viewBox="0 0 1400 1000">
  <defs>
    <style>
      .e {
        fill: #538931;
      }

      .e, .f {
        stroke-width: 0px;
      }

      .f {
        fill: #8a6614;
      }
    </style>
  </defs>
  <g id="c" data-name="floor-1">
    <rect class="e" width="1400" height="1000"/>
  </g>
  <g id="d" data-name="floor-2">
    <path class="f" d="m1352.1,197.3c-28.5-28.2-59-54.4-90.9-77.5-20.6-15-42.4-27.7-64.9-38.7-35.5-17.3-70.6-34.3-107.9-45.7-23.8-7.3-48-12.6-72.4-16.9C948.6,6.3,881.7-1.3,813.4.2c-56,1.2-111.7,6.6-167.4,12.6-67.4,7.2-135.5,14.1-201.7,30.6-26.2,6.5-51.9,15.2-77,25.9-37.2,15.8-73.7,33.7-109.5,53.2-50.3,27.3-99.6,56.9-149.2,85.7-36.2,21-72.4,42-108.5,63.3v728.7h1400V253.3c-14.5-20.1-30.6-38.9-47.9-56Z"/>
  </g>
</svg>