<?xml version="1.0" encoding="UTF-8"?>
<svg id="b" data-name="Calque 2" xmlns="http://www.w3.org/2000/svg" viewBox="0 0 1127.7 560">
  <defs>
    <style>
      .g {
        opacity: .2;
      }

      .g, .h, .i, .j {
        stroke-width: 0px;
      }

      .g, .j {
        fill: #ffe601;
      }

      .k {
        opacity: .9;
      }

      .h {
        fill: #1d1d1b;
      }

      .i {
        fill: #ffe603;
      }

      .j {
        opacity: .3;
      }
    </style>
  </defs>
  <g id="c" data-name="fond">
    <g id="d" data-name="lumières" class="k">
      <g id="e" data-name="lumières guirlande 2">
        <path class="g" d="m286.4,150.9c-1.8-2-3.8-3.8-5.8-5.6-5-10.6-11.2-20.6-19.4-29.3-4.7-5.1-10.8-9.7-16.5-13.3-6.3-3.9-13.7-7.2-20.9-8.9-7.4-1.7-15.5-3-23.1-2.2-13.8,1.5-21.5,3.6-34.1,9.3-14.7,6.7-25.6,19-34.8,31.9-5.7,7.9-9.7,17.3-12.9,26.6-10.5,12.4-17.9,27.3-20.3,43.5-1.2,7.8-2.5,15.7-2.3,23.7.2,8,1.5,16.1,2.7,23.9,1.3,8.2,3.3,16.2,6,24,7.9,23.1,18,44.7,34.5,63,5.3,5.9,11.8,10.7,18.2,15.3,3.3,2.4,6.7,4.2,10.3,5.9,6.6,3,13.8,6.4,21.2,7.8,7.8,1.4,16.1,3,24.1,2.2,7.4-.7,15.3-1.3,22.3-4.1,12.4-4.8,19.4-8.9,29.6-17.4,5.7-4.8,10.1-11.1,14.4-17.1,2.5-3.5,4.6-7.2,6.4-11.1,7.8-17.1,12.8-34.9,14.9-53.3,7.1-14.3,10.3-26.9,11.7-42.9,2.3-26-8.8-53-26.2-71.8Z"/>
        <path class="g" d="m588.4,326.4c-5.3-18.7-15.6-37.4-29.8-50.9-18.5-17.5-41.2-26.6-66.6-28.2-11.2-.7-23.1,1-33.7,4.4-10.5,3.3-21.3,7.9-30.2,14.5-5.6,4.2-11.5,8.4-16.5,13.4-1.8,1.8-3.6,3.8-5.2,5.8-10.3,5.8-19.1,14.3-25.2,24.5-1.2,2.1-2.3,4.2-3.2,6.4-9.7,10.6-16.9,23.4-21.9,37.3-3.5,9.5-4.6,20-5.3,30-.7,10,1,20.3,2.8,30,1.8,9.9,6.1,19.6,10.4,28.5,4.6,9.4,11.5,18.2,18.6,25.7,17.7,18.9,43.4,30.6,69.4,30.4,23.5-.2,46.7-9.2,66.5-21.3,15.1-9.2,29.9-20.6,41.1-34.4,13.6-16.7,25.2-35,30-56.4,4.4-19.8,4.4-40.4-1.1-60Z"/>
        <path class="g" d="m861.4,387.9c-1.6-5.9-3.6-11.7-5.8-17.5-2-7.9-4.9-15.7-8.2-23.3-1.3-2.8-2.6-5.5-4.3-8.1-3.9-5.7-8.1-11.7-13.2-16.5,0,0-.1-.1-.2-.2-2.5-3.2-5.2-6.4-7.9-9.3-2-2.2-4.2-4.1-6.5-6-5.3-4.2-10.7-9-16.9-12-13.5-6.6-27-10.6-42.2-10.5-11.2,0-23.1,2.1-33.8,5.6-12.4,4.1-23.4,9.4-33.8,16.1-6.3,2.7-12.4,5.8-18.1,9.7-8.4,5.7-17.1,12-23.6,19.9-2.4,2.9-4.7,5.8-6.7,8.7-1.2.9-2.5,1.8-3.7,2.7-9.5,7.4-16.4,14.8-23.3,24.9-8.3,12.3-11.1,26.1-12.9,40.5-1.3,10.8.4,22.3,3.1,32.7,2.7,10.6,7.4,20.9,12.4,30.6,7.7,14.9,18.3,29,30.1,40.9,26.4,26.7,63.2,43.9,101.2,43.2,41.8-.8,80.3-21.7,102-57.8,20.5-34.1,23-76.6,12.5-114.3Z"/>
        <path class="j" d="m294.9,218.9c-.7-4.2-1.7-8.2-3.2-12.1-2.1-5.5-4.2-11.3-7-16.6-6.1-18.2-16-34.8-33-44.8-31.8-18.7-72.8-1.4-95.7,23.9-11.1,12.2-17.7,23.9-23.5,39.1-1.3,3.4-2.1,6.8-2.6,10.3-1.2,7.7-2.6,15.4-1.9,23.2,1.3,15,4.9,29.8,13.7,42.4,8.5,12.2,18.5,23,31.7,30.3,6.2,3.4,12.9,6.4,19.8,8.2,3.6,1,7.4,1.3,11,1.8,3.9.5,7.8,1.3,11.7,1.1,7-.3,14.8-1,21.5-3.4,12.5-4.4,20.2-9,30.3-17.3,12.1-9.9,19.1-23.4,24.7-37.6,2.8-7.3,3.5-15.2,4.4-22.9,1-8.7-.5-17-1.8-25.8Z"/>
        <path class="j" d="m547.7,354.3c-.8-13.1-3.3-25.8-10-37.3-8.9-15.3-23.7-27.4-41.3-31-5.6-1.2-11.3-1.7-17.1-1.7-2-.2-4.1-.4-6.1-.4-14.7-1.5-29.4,3.2-42,11.4-1.2.5-2.3,1.1-3.4,1.6-24.7,12-40.8,39.8-39.4,67.2,1.2,23.8,8.8,51.5,26.6,68.4,13.5,12.9,31.9,20.7,50.7,19.7,16.4-.8,29.8-6.2,44.5-13.3,10.8-5.2,19.9-18.7,23-29.9.5-1.9.9-3.8,1.2-5.8,3.5-5.8,6.3-11.8,9.1-19.5,3.3-9.1,4.8-19.7,4.2-29.3Z"/>
        <path class="j" d="m841.1,397.8c-.5-3.2-1.4-6.1-2.6-9.1-5.1-12.8-10.6-23.2-20.5-33.1-6.4-6.5-14.1-12.3-22.3-16.2-12.6-6-24-9.5-38.2-9.8-13.9-.3-26.4,3.7-38.8,9.6-40.5,19.3-58.3,72-43.8,113.2,9.5,27.1,28.1,53,57.8,59.7,18.2,4.1,36.3,1,52.5-8,8.6-4.8,16.4-11.6,23.3-18.8,10.4-8.1,19.3-18.9,24.6-30.2,6.1-13,9.4-24,9.9-38.6.2-6.3-1-12.7-2-18.8Z"/>
        <path class="i" d="m753.6,421.5c1.9-6,2.5-12.5,2-18.6-.2-2.9-1.5-6.3-4.4-7.6-3-1.3-5.1-1.7-8.2-.3-5.9,2.6-5.1,10.2-7.4,15.4-2,4.6-4.7,9.6-8.2,13.3-4.4,4.8-9,9.1-11.2,15.3-2.2,6.3-1.8,14.4,3.3,19.2,5.8,5.5,13.6,2.2,20.1,0,5.7-1.9,12.4-3.6,16.6-8.1,8.4-8.9,6.2-22.2-2.7-28.7Z"/>
        <path class="i" d="m497.6,341.6c3.6-4,3.9-10.1,0-14-4.2-4.2-9.8-3.3-14,0-4.5,3.5-7.6,8.3-9.6,13.7-.7,1.9-1,4-1.8,5.9-.1.4-.3.7-.5,1-1.3-.1-2.6-.3-3.8-.4-15.1-1.3-32.2,7.4-33.3,24-.2,2.7.2,5,1,6.9-.7,5.9,2.8,12.3,10.4,12.2,8.6,0,17.1-.9,25.6-2.3,8.1-1.3,17-2.6,21.3-10.6,3.4-6.3,3.8-15.5-.5-21.5,1.1-2.5,1.8-5.1,2.3-8.1.4-2.7,1-4.9,2.9-7Z"/>
        <path class="i" d="m236.9,237.1c.6-7.8,0-16.2,3.1-23.4,1.7-3.9,1.1-8.5-2.8-10.8-3.4-2-9.1-1.1-10.8,2.8-1.1,2.3-2,4.6-2.6,6.9-4-2.5-9.1-3.5-15.3-2-8.1,2-14,8.8-17.9,15.8-4,7.1-8.3,16.2-6.8,24.4,1.6,9.3,10.8,17,19.4,19.9,0,0,.1,0,.2,0,0,0,0,0,0,0,4.1,2.3,7.9,2.8,11.3,2.1,10.6,2.2,22.5-3.6,26-15.9,2.1-7.4.3-14.4-3.7-19.8Z"/>
      </g>
      <g id="f" data-name="guirlandes">
        <g>
          <path class="h" d="m1124,473.1c-37.7-12.5-76.5-21.7-115.2-30.6s-78.5-17.5-117.8-25.9c-78.2-16.7-156.5-33.1-234-52.9-76.4-19.4-152.1-42.2-225.1-71.9-74.5-30.3-145.3-68.4-211.2-114.4-33.6-23.4-65.7-48.7-97.2-74.8-31.8-26.4-62-54.5-93.1-81.6S15.1,7.7,7.4,1.2-2.6,3.2,1.3,7.4c27.8,30.4,58.1,58.5,89.1,85.8s62.9,53.2,96,77.6c65.5,48.4,135.7,89.6,210.4,122.3,72.8,31.9,148.4,56.6,225.1,77.2,77.5,20.9,156,37.6,234.5,54.2s157.9,33.4,236.2,52.7c9.5,2.3,19.1,4,28.7,6s9.2-8,2.8-10.1h0Z"/>
          <path class="h" d="m233.9,196.1c-4.8,7.3-9.9,12.8-18.7,14.8s-15.2,1.8-21.2,7.4-7.5,11.3-9.1,17.7-3,13.7-2.5,20.4,3,12.3,8.6,15.7,16.6,4.5,24.1,3.9c14.3-1.2,28.1-10.4,29-25.8.5-8.4-3.1-16.3-3.7-24.6s.6-7.7,2.8-11.4,4.2-7.2,4-11.5-6.7-4.5-7.1,0-4.5,7.5-6.2,11.3-2,6.7-1.9,10.2c.2,7.9,3.4,15.3,3.8,23.1.4,8.9-5,15.8-13.1,18.8s-9.7,2.1-14.6,1.8-10.1-.6-13.8-3.3c-6.1-4.5-4.2-14.5-3.1-20.9,1.3-7.4,3-16.5,9.5-21.2s16.9-3.7,24.3-8,11.8-9.5,13.6-16.4-3.1-4.4-4.7-2h0Z"/>
          <path class="h" d="m487.2,328.3c-5.2-2.4-9.5,1.8-11.9,6.2s-2.6,7.5-6.5,8.4-7.6-.7-11.2-.6c-13.1.4-25.2,14-27.2,26.4-2.2,13.6,7.3,23.2,20.3,24.3,13.5,1.2,30.4-.4,40.3-10.8s7.8-12.1,6.8-19.3-2.3-7.5-2.6-11.3,1.8-9.5,5.8-12.4,0-8.3-3.4-5.8c-5.2,3.8-8.6,9.2-9.1,15.7-.5,7.4,4.6,14.1,2.1,21.4s-10.1,12.4-17.7,14.3-17.4,2.6-25.2,1c-20.7-4.4-7.8-31.6,6.3-35.9s13.7,1.9,19.9-2,5.5-12.8,12.6-15.7,2.4-3.1.5-4h0Z"/>
          <path class="h" d="m739.3,398.4c-2.2,4.6-4.3,9.1-6.3,13.8s-2.9,8.6-6.2,11.2-6.7,3.5-9.6,6.1-4.6,4.9-6.2,7.7c-3.2,5.5-5.8,13.6-2,19.5s12.3,8,18.8,8,15.8-2.5,22.9-5.9,12.2-6.9,14.4-13.3c2.5-7.5-1.8-13.9-5.6-19.9s-5.9-16.6-2.8-25.5c1.3-3.7-4.6-6.2-6.4-2.7-6.2,12.4-3.1,23.8,3.9,35,1.8,2.8,4.1,6.1,3.4,9.7s-3.4,5.3-5.8,6.9c-5.4,3.7-12,6.2-18.4,7.4s-19.2,1.1-18.7-7.6,5.3-13,10.5-16.6,8.2-5.1,10.6-10.7,5.4-14.2,7.8-21.4c.8-2.4-3-4-4.1-1.7h0Z"/>
        </g>
      </g>
    </g>
  </g>
</svg>