<?xml version="1.0" encoding="UTF-8"?>
<svg id="b" data-name="Calque 2" xmlns="http://www.w3.org/2000/svg" viewBox="0 0 1400 1297.4">
  <g id="c" data-name="floor-2">
    <path d="m1352.1,197.3c-28.5-28.2-59-54.4-90.9-77.5-20.6-15-42.4-27.7-64.9-38.7-35.5-17.3-70.6-34.3-107.9-45.7-23.8-7.3-48-12.6-72.4-16.9C948.6,6.3,881.7-1.3,813.4.2c-56,1.2-111.7,6.6-167.4,12.6-67.4,7.2-135.5,14.1-201.7,30.6-26.2,6.5-51.9,15.2-77,25.9-37.2,15.8-73.7,33.7-109.5,53.2-50.3,27.3-99.6,56.9-149.2,85.7-36.2,21-72.4,42-108.5,63.3v728.7h1400V253.3c-14.5-20.1-30.6-38.9-47.9-56Z" style="fill: #8a6614; stroke-width: 0px;"/>
  </g>
  <g id="d" data-name="floor-3">
    <path d="m1234.6,446.4c-66.7-.7-133.5.7-200.2,3.6-83.1,3.7-165,13.6-247,27.8-65,11.3-128.9,27.4-192.6,44.5-130.1,34.9-260.6,69.7-389.6,108.5-64.1,19.3-128.3,38.3-191.7,59.9-4.5,1.5-9,3.1-13.4,4.6v602.2h1400V456.9c-54.9-6.3-109.9-10-165.4-10.6Z" style="fill: #4e3716; stroke-width: 0px;"/>
  </g>
  <g id="e" data-name="floor-4">
    <path d="m1106.6,1057.4c-78.9,41.6-154.6,89.6-235.9,126.4-31,12-62.7,21.8-95.3,28.1-17,1.3-34,1.4-51,.3-23.1-4.8-45.7-11.8-67.8-20.2-42.4-19.3-83.4-41.7-125.9-60.8-36.4-16.4-73.4-32.7-111.8-44-41.3-12.2-84.2-17.6-126.8-22.5-60.2-7-121.2-4.2-181.4,2.7-37.1,4.3-74,9.4-110.9,15.3v214.8h1400v-368.6c-101.4,34.2-199.5,79-293.4,128.6Z" style="fill: #2f110e; stroke-width: 0px;"/>
  </g>
</svg>