<?xml version="1.0" encoding="utf-8"?>
<!-- Generator: Adobe Illustrator 28.0.0, SVG Export Plug-In . SVG Version: 6.00 Build 0)  -->
<svg version="1.1" id="b" xmlns="http://www.w3.org/2000/svg" xmlns:xlink="http://www.w3.org/1999/xlink" x="0px" y="0px"
	 viewBox="0 0 956 560" style="enable-background:new 0 0 956 560;" xml:space="preserve">
<style type="text/css">
	.st0{opacity:0.2;fill:#FFE601;enable-background:new    ;}
	.st1{opacity:0.3;fill:#FFE601;enable-background:new    ;}
	.st2{fill:#FFE603;}
	.st3{fill:#1D1D1B;}
</style>
<g id="e">
	<path class="st0" d="M286.4,150.9c-1.8-2-3.8-3.8-5.8-5.6c-5-10.6-11.2-20.6-19.4-29.3c-4.7-5.1-10.8-9.7-16.5-13.3
		c-6.3-3.9-13.7-7.2-20.9-8.9c-7.4-1.7-15.5-3-23.1-2.2c-13.8,1.5-21.5,3.6-34.1,9.3c-14.7,6.7-25.6,19-34.8,31.9
		c-5.7,7.9-9.7,17.3-12.9,26.6c-10.5,12.4-17.9,27.3-20.3,43.5c-1.2,7.8-2.5,15.7-2.3,23.7s1.5,16.1,2.7,23.9c1.3,8.2,3.3,16.2,6,24
		c7.9,23.1,18,44.7,34.5,63c5.3,5.9,11.8,10.7,18.2,15.3c3.3,2.4,6.7,4.2,10.3,5.9c6.6,3,13.8,6.4,21.2,7.8c7.8,1.4,16.1,3,24.1,2.2
		c7.4-0.7,15.3-1.3,22.3-4.1c12.4-4.8,19.4-8.9,29.6-17.4c5.7-4.8,10.1-11.1,14.4-17.1c2.5-3.5,4.6-7.2,6.4-11.1
		c7.8-17.1,12.8-34.9,14.9-53.3c7.1-14.3,10.3-26.9,11.7-42.9C314.9,196.8,303.8,169.8,286.4,150.9L286.4,150.9z"/>
	<path class="st0" d="M588.4,326.4c-5.3-18.7-15.6-37.4-29.8-50.9c-18.5-17.5-41.2-26.6-66.6-28.2c-11.2-0.7-23.1,1-33.7,4.4
		c-10.5,3.3-21.3,7.9-30.2,14.5c-5.6,4.2-11.5,8.4-16.5,13.4c-1.8,1.8-3.6,3.8-5.2,5.8c-10.3,5.8-19.1,14.3-25.2,24.5
		c-1.2,2.1-2.3,4.2-3.2,6.4c-9.7,10.6-16.9,23.4-21.9,37.3c-3.5,9.5-4.6,20-5.3,30c-0.7,10,1,20.3,2.8,30
		c1.8,9.9,6.1,19.6,10.4,28.5c4.6,9.4,11.5,18.2,18.6,25.7c17.7,18.9,43.4,30.6,69.4,30.4c23.5-0.2,46.7-9.2,66.5-21.3
		c15.1-9.2,29.9-20.6,41.1-34.4c13.6-16.7,25.2-35,30-56.4c4.4-19.8,4.4-40.4-1.1-60L588.4,326.4z"/>
	<path class="st0" d="M861.4,387.9c-1.6-5.9-3.6-11.7-5.8-17.5c-2-7.9-4.9-15.7-8.2-23.3c-1.3-2.8-2.6-5.5-4.3-8.1
		c-3.9-5.7-8.1-11.7-13.2-16.5c0,0-0.1-0.1-0.2-0.2c-2.5-3.2-5.2-6.4-7.9-9.3c-2-2.2-4.2-4.1-6.5-6c-5.3-4.2-10.7-9-16.9-12
		c-13.5-6.6-27-10.6-42.2-10.5c-11.2,0-23.1,2.1-33.8,5.6c-12.4,4.1-23.4,9.4-33.8,16.1c-6.3,2.7-12.4,5.8-18.1,9.7
		c-8.4,5.7-17.1,12-23.6,19.9c-2.4,2.9-4.7,5.8-6.7,8.7c-1.2,0.9-2.5,1.8-3.7,2.7c-9.5,7.4-16.4,14.8-23.3,24.9
		c-8.3,12.3-11.1,26.1-12.9,40.5c-1.3,10.8,0.4,22.3,3.1,32.7c2.7,10.6,7.4,20.9,12.4,30.6c7.7,14.9,18.3,29,30.1,40.9
		c26.4,26.7,63.2,43.9,101.2,43.2c41.8-0.8,80.3-21.7,102-57.8c20.5-34.1,23-76.6,12.5-114.3L861.4,387.9z"/>
	<path class="st1" d="M294.9,218.9c-0.7-4.2-1.7-8.2-3.2-12.1c-2.1-5.5-4.2-11.3-7-16.6c-6.1-18.2-16-34.8-33-44.8
		c-31.8-18.7-72.8-1.4-95.7,23.9c-11.1,12.2-17.7,23.9-23.5,39.1c-1.3,3.4-2.1,6.8-2.6,10.3c-1.2,7.7-2.6,15.4-1.9,23.2
		c1.3,15,4.9,29.8,13.7,42.4c8.5,12.2,18.5,23,31.7,30.3c6.2,3.4,12.9,6.4,19.8,8.2c3.6,1,7.4,1.3,11,1.8c3.9,0.5,7.8,1.3,11.7,1.1
		c7-0.3,14.8-1,21.5-3.4c12.5-4.4,20.2-9,30.3-17.3c12.1-9.9,19.1-23.4,24.7-37.6c2.8-7.3,3.5-15.2,4.4-22.9c1-8.7-0.5-17-1.8-25.8
		L294.9,218.9z"/>
	<path class="st1" d="M547.7,354.3c-0.8-13.1-3.3-25.8-10-37.3c-8.9-15.3-23.7-27.4-41.3-31c-5.6-1.2-11.3-1.7-17.1-1.7
		c-2-0.2-4.1-0.4-6.1-0.4c-14.7-1.5-29.4,3.2-42,11.4c-1.2,0.5-2.3,1.1-3.4,1.6c-24.7,12-40.8,39.8-39.4,67.2
		c1.2,23.8,8.8,51.5,26.6,68.4c13.5,12.9,31.9,20.7,50.7,19.7c16.4-0.8,29.8-6.2,44.5-13.3c10.8-5.2,19.9-18.7,23-29.9
		c0.5-1.9,0.9-3.8,1.2-5.8c3.5-5.8,6.3-11.8,9.1-19.5c3.3-9.1,4.8-19.7,4.2-29.3L547.7,354.3z"/>
	<path class="st1" d="M841.1,397.8c-0.5-3.2-1.4-6.1-2.6-9.1c-5.1-12.8-10.6-23.2-20.5-33.1c-6.4-6.5-14.1-12.3-22.3-16.2
		c-12.6-6-24-9.5-38.2-9.8c-13.9-0.3-26.4,3.7-38.8,9.6c-40.5,19.3-58.3,72-43.8,113.2c9.5,27.1,28.1,53,57.8,59.7
		c18.2,4.1,36.3,1,52.5-8c8.6-4.8,16.4-11.6,23.3-18.8c10.4-8.1,19.3-18.9,24.6-30.2c6.1-13,9.4-24,9.9-38.6c0.2-6.3-1-12.7-2-18.8
		L841.1,397.8z"/>
	<path class="st2" d="M753.6,421.5c1.9-6,2.5-12.5,2-18.6c-0.2-2.9-1.5-6.3-4.4-7.6c-3-1.3-5.1-1.7-8.2-0.3
		c-5.9,2.6-5.1,10.2-7.4,15.4c-2,4.6-4.7,9.6-8.2,13.3c-4.4,4.8-9,9.1-11.2,15.3c-2.2,6.3-1.8,14.4,3.3,19.2
		c5.8,5.5,13.6,2.2,20.1,0c5.7-1.9,12.4-3.6,16.6-8.1c8.4-8.9,6.2-22.2-2.7-28.7L753.6,421.5z"/>
	<path class="st2" d="M497.6,341.6c3.6-4,3.9-10.1,0-14c-4.2-4.2-9.8-3.3-14,0c-4.5,3.5-7.6,8.3-9.6,13.7c-0.7,1.9-1,4-1.8,5.9
		c-0.1,0.4-0.3,0.7-0.5,1c-1.3-0.1-2.6-0.3-3.8-0.4c-15.1-1.3-32.2,7.4-33.3,24c-0.2,2.7,0.2,5,1,6.9c-0.7,5.9,2.8,12.3,10.4,12.2
		c8.6,0,17.1-0.9,25.6-2.3c8.1-1.3,17-2.6,21.3-10.6c3.4-6.3,3.8-15.5-0.5-21.5c1.1-2.5,1.8-5.1,2.3-8.1c0.4-2.7,1-4.9,2.9-7V341.6z
		"/>
	<path class="st2" d="M236.9,237.1c0.6-7.8,0-16.2,3.1-23.4c1.7-3.9,1.1-8.5-2.8-10.8c-3.4-2-9.1-1.1-10.8,2.8
		c-1.1,2.3-2,4.6-2.6,6.9c-4-2.5-9.1-3.5-15.3-2c-8.1,2-14,8.8-17.9,15.8c-4,7.1-8.3,16.2-6.8,24.4c1.6,9.3,10.8,17,19.4,19.9
		c0,0,0.1,0,0.2,0l0,0c4.1,2.3,7.9,2.8,11.3,2.1c10.6,2.2,22.5-3.6,26-15.9C242.8,249.5,241,242.5,236.9,237.1L236.9,237.1z"/>
</g>
<path class="st3" d="M856.4,424.5c33.1,7,66.3,14,99.6,21.3v-15.1c-21.6-4.8-43.4-9.4-65-14.1c-78.2-16.7-156.5-33.1-234-52.9
	c-76.4-19.4-152.1-42.2-225.1-71.9c-74.5-30.3-145.3-68.4-211.2-114.4c-33.6-23.4-65.7-48.7-97.2-74.8C91.7,76.2,61.5,48.1,30.4,21
	C-0.7-6.1,15.1,7.7,7.4,1.2c-7.7-6.5-10,2-6.1,6.2c27.8,30.4,58.1,58.5,89.1,85.8s62.9,53.2,96,77.6c14.3,10.6,28.8,20.8,43.6,30.6
	c-3.8,4.6-8.3,8-14.8,9.5c-8.8,2-15.2,1.8-21.2,7.4s-7.5,11.3-9.1,17.7c-1.6,6.4-3,13.7-2.5,20.4c0.5,6.7,3,12.3,8.6,15.7
	c5.6,3.4,16.6,4.5,24.1,3.9c14.3-1.2,28.1-10.4,29-25.8c0.5-8.4-3.1-16.3-3.7-24.6s0.6-7.7,2.8-11.4c0.6-1,1.2-2,1.7-3
	c48.3,31.2,99,58.7,151.9,81.9c28.7,12.6,57.8,24,87.2,34.5c-3.8,0.1-6.8,3.4-8.7,6.9c-2.4,4.4-2.6,7.5-6.5,8.4
	c-3.9,0.9-7.6-0.7-11.2-0.6c-13.1,0.4-25.2,14-27.2,26.4c-2.2,13.6,7.3,23.2,20.3,24.3c13.5,1.2,30.4-0.4,40.3-10.8
	c9.9-10.4,7.8-12.1,6.8-19.3c-1-7.2-2.3-7.5-2.6-11.3c-0.3-3.8,1.8-9.5,5.8-12.4c2.2-1.6,2-4,0.7-5.4
	c39.6,13.6,79.7,25.6,120.2,36.5c38.8,10.5,77.9,19.9,117.1,28.8c-2.1,4.4-4.1,8.7-6,13.1c-2,4.7-2.9,8.6-6.2,11.2
	c-3.3,2.6-6.7,3.5-9.6,6.1c-2.9,2.6-4.6,4.9-6.2,7.7c-3.2,5.5-5.8,13.6-2,19.5c3.8,5.9,12.3,8,18.8,8s15.8-2.5,22.9-5.9
	c7.1-3.4,12.2-6.9,14.4-13.3c2.5-7.5-1.8-13.9-5.6-19.9c-3.4-5.4-5.4-14.5-3.6-22.7C789.4,410.3,822.9,417.4,856.4,424.5z
	 M233.9,214c-1.7,3.8-2,6.7-1.9,10.2c0.2,7.9,3.4,15.3,3.8,23.1c0.4,8.9-5,15.8-13.1,18.8c-8.1,3-9.7,2.1-14.6,1.8
	c-4.9-0.3-10.1-0.6-13.8-3.3c-6.1-4.5-4.2-14.5-3.1-20.9c1.3-7.4,3-16.5,9.5-21.2s16.9-3.7,24.3-8c4.7-2.7,8.1-5.8,10.5-9.4
	c1,0.7,2,1.3,3,2C237,209.5,235,211.6,233.9,214z M497.6,333.4c-5.2,3.8-8.6,9.2-9.1,15.7c-0.5,7.4,4.6,14.1,2.1,21.4
	s-10.1,12.4-17.7,14.3c-7.6,1.9-17.4,2.6-25.2,1c-20.7-4.4-7.8-31.6,6.3-35.9s13.7,1.9,19.9-2c6.2-3.9,5.5-12.8,12.6-15.7
	c2.8-1.1,3.7-1.8,3.8-2.4c2.9,1,5.7,2,8.6,3C498.4,332.9,498,333.1,497.6,333.4z M757.6,442.1c-0.7,3.6-3.4,5.3-5.8,6.9
	c-5.4,3.7-12,6.2-18.4,7.4c-6.4,1.2-19.2,1.1-18.7-7.6s5.3-13,10.5-16.6c5.2-3.6,8.2-5.1,10.6-10.7c2.4-5.6,5.4-14.2,7.8-21.4
	c0,0,0,0,0,0c1.7,0.4,3.4,0.8,5.1,1.1c-3.9,10.9-0.8,21.1,5.5,31.2C756,435.2,758.3,438.5,757.6,442.1z"/>
</svg>
