<?xml version="1.0" encoding="UTF-8"?>
<svg id="b" data-name="Calque 2" xmlns="http://www.w3.org/2000/svg" viewBox="0 0 60.8 47.3">
  <g id="c" data-name="chouette">
    <g id="d" data-name="pattes">
      <g>
        <path d="m59.9,10.8C58.2,4.9,52.7-.6,46.2,0c-4.9.5-8.8,4.4-8.8,9.2-3,1.8-5.7,3.9-7.7,6.8-2,3,1.3,6.1,4.3,5.6,1.2-.2,2.3-.5,3.4-.8.2,3.9-.2,7.8-.6,11.7-.7,6.5,6.9,8.8,11.7,6.7,10.1-4.4,14.2-18.2,11.3-28.3Z" style="fill: #1d1d1b; stroke-width: 0px;"/>
        <path d="m22,16.8c-2.2-2.6-4.8-3.6-7.5-3.7-3.1-2.7-7.6-2.7-11.4.3-.3.2-.5.4-.8.6C-.2,16-.5,20.2.9,23,.8,24.6,0,26.5,0,27.9c0,2.9.9,5.6,2.5,7.9,1.6,2.3,4,3.8,6.8,4.4.2,0,1.1.2,2,.3,1.4,6.5,10.1,9.7,15.1,2.7,1.9-2.7,2.3-5.7,1.8-8.5.2-6.5-1.8-12.9-6.2-18Z" style="fill: #1d1d1b; stroke-width: 0px;"/>
      </g>
    </g>
  </g>
</svg>