<?xml version="1.0" encoding="UTF-8"?>
<svg id="b" data-name="Calque 2" xmlns="http://www.w3.org/2000/svg" viewBox="0 0 242.1 280.1">
  <g id="c" data-name="chouette">
    <g id="d" data-name="chouette">
      <g>
        <path d="m222.7,53.1c-3.5.9-7.1,2-10.5,3.2-15.1,3.5-30.9,3.2-46.5,2.7-3.5-.1-5.9,1.6-7.1,3.9,0,0,0,0,0,0-1,0-2,0-2.9,0-1-1.1-2.3-1.9-3.9-2.5-5.9-2.2-11.9-3.8-18.1-4.8.2-8.3-1.5-16.6-3.9-24.7-2-7-5.1-14.7-10.4-19.9-4.4-4.4-12.1-5.1-17.9-6.8-10.7-3.1-24.6.2-35.1,2.7-8,1.9-15.2,5.1-22.8,8.3-12.7,5.2-21.3,15.4-25.3,28.1-5.7,17.9-10.1,36.1-11.6,54.9-.8,10.8-.3,21.4-.3,32.2,0,8.4.6,16.9.2,25.3-.1,2.7-.8,5.7-.5,8.4,1.2-2.5,3.8-4.2,5.4-6.7,1.4-2.1,2.1-4.3,4.3-5.7-5.7,7.1-1.3,21.3-2.3,29.7-1,7.9-1.5,14.7-.5,22.6.7,5.5.6,10.8.8,16.3,6.2-4.8,9.7-10.2,13.3-17.1-.3,7,1.2,13.9.8,20.9-.4,7.2-.8,15.4-.2,22.6,8.9-.3,9.8-10.5,16.5-14.8,2,7.2,1.2,15.1,1.6,22.4.3,5.2,1.2,10.4,1.8,15.5.2,1.9.2,4.2,1.2,5.7,2.8-3,2.9-7.3,4.7-10.8,3.4-6.6,6.4-13.4,7.4-20.8-.2,5.1,2,12.4,4,17.1,2.7-1.9,4.5-7.8,6.4-10.5,3.7-5.3,8.3-10.1,11-16.1.9-2,.6-6.2,2-7.6,1.1-3.2,3.2-6.2,4.5-9.4,1.3-3.1,1.8-6.8,3.2-9.7,4.9-9.7,13.4-12.3,21.7-19.1,8.9-7.3,9.2-20.1,9.5-31.2,0,0,0,0,0,0-.6-1.5-.8-3.1-.6-4.8,0-1.3.4-2.5,1-3.6,0-.6,0-1.1,0-1.7.2-.6.4-1.2.7-1.8.4-.7.9-1.2,1.4-1.7.2.3.3.7.5,1,.8-1.2,1.8-2.3,2.9-3.2,1.7,0,3.4,0,5.1-.2,2.9-.5,5.7-1.7,8.7-1.7,3.8,0,7.5.9,11.4.5,3.3-.3,6.2-2,7.6-4.8.5,0,1-.1,1.5-.2,0-.4.2-.7.3-1.1-.2,0-.5,0-.8,0,0-.4-.1-.9-.2-1.3,0-.3,0-.7,0-1.1,0-.6,0-1.2-.2-1.7.2-.2.5-.5.7-.7-.2-.8-.6-1.7-1.1-2.4,0,0,0,0,0,0,1,.4,1.9.8,2.8,1.3.4-.3.9-.5,1.3-.7,1.2-.5,2.1-1.2,3.9-2.8,1.8-1.5,3.5-2.8,5.5-4.1.3-.2,1.5-.8,2.8-1.5-.4-1.3-1.1-2.5-2.4-3.6-2.4-2.2-5-4.1-7.7-5.9,4.3-1.9,8.7-3.8,13.2-5.4,1.6-.6,3.1-1.6,4.1-2.8,1-.3,2.1-.5,3.2-.7,2-1.8,4.2-3.3,6.5-4.7,1.9-1.2,3.9-2.4,5.9-3.6.6-.3,1.1-.7,1.7-1,.2-.1.4-.2.5-.3,0,0,.2-.1.3-.2,1.5-.9,3.1-1.8,4.6-2.8-.8.5,1.9-1.3,2.4-1.7.3-.2.6-.5.9-.7,0-1.3.4-2.5.9-3.6,0,0,0-.1,0-.2-2.9-.8-5.9-1.5-8.9-1.9.5-.3,1-.7,1.4-1,1.2-.9,2.2-1.9,3-3.1,2.5-1.1,5-2.2,7.6-3.1,1.4-.3,2.8-.7,4.2-1.1.2-.2.4-.5.6-.7,0-.2.1-.4.2-.6,1.5-3.8,4.9-6.5,8.8-7.4,1-.8,2.1-1.6,3.2-2.3-.3-4.7-4.1-9.1-10.3-7.5Z" style="fill: #fcc02b; stroke-width: 0px;"/>
        <path d="m84.7,226.4c-.2,0-.3.2-.5.3,0,.2-.1.3-.2.5.1-.4.4-.5.6-.8Z" style="fill: #fcc02b; stroke-width: 0px;"/>
      </g>
    </g>
    <g id="e" data-name="chouette">
      <g>
        <path d="m78,85c-1.2.5-1.6,2.1-.4,2.8,4.1,2.6,9,2.3,13.1,4.9.7.5,1.4,1,2.1,1.6-.8,1.5-1.5,3-2.4,4.3-.9,1.2-1.9,2.3-2.9,3.3-.5.5-1.1,1-1.6,1.5-.3,0-.5.2-.7.4-.5.5-.7.9-.7,1.6,0,.7.4,1.3,1.1,1.4,1.6.4,2.3.3,3.6-.8,1.5-1.2,2.8-2.6,4.1-4.1.9-1.1,2-2.5,2.9-4,2,2.6,3.7,5.6,5.3,8.2,1.9,3.1,5.9,1.5,6.3-1.7,1.4-11.8,1.5-26.8-4.6-37.4-2.1-3.7-7-1-6.4,2.7.9,5.8,3.1,11.3,3.9,17.1.4,2.5.6,5,.6,7.5-5.9-7.1-13.8-13-23.3-9.4Z" style="fill: #1d1d1b; stroke-width: 0px;"/>
        <path d="m77.6,62.6c0-.6-.1-1.2-.2-1.9-.2-1.9-.7-3.7-1-5.5-.5-2.9-4.1-5.7-7.1-5.4-4.3.4-7.9,2.9-9.1,7.1-.9,3.2,0,7.4,1.9,10,0,.1.2.2.2.3.5,2.7,2.3,5.2,5.5,6.1,5.9,1.6,11.2-3.9,9.7-9.7-.2-.8-.2-.7,0,.3,0-.4,0-.8,0-1.2Z" style="fill: #1d1d1b; stroke-width: 0px;"/>
        <path d="m102.6,119.8c-3,6.1-3.7,13-6.1,19.3-.2-.9-.3-1.7-.4-2-.7-2.2-1.3-4.5-2-6.7-.8-2.7-5.4-4-6.7-.9-1.6,3.7-3.3,7.4-5,11.1-.9-1.6-1.6-3.3-2.1-5.2-.6-2.6-.5-5-1.7-7.3-.6-1.2-2.4-1-3,0-3.6,5.9.9,15.5,4.5,20.4,1.4,1.9,4.2,2.2,5.6,0,1.4-2.2,2.6-4.5,3.9-6.7,2,5.9,5.1,11.4,10.1,7,2.9-2.6,4.3-8,5.7-11.6,1.9-4.8,4.2-10.3,3.7-15.5-.2-3.1-4.8-5-6.4-1.7Z" style="fill: #1d1d1b; stroke-width: 0px;"/>
        <path d="m236.8,48.8c-17.7,3.2-35.4,6.2-53.2,7.6-16.7,1.4-32.7.2-49.2-2,.2-9.7-.7-19.3-3.9-28.4-3.2-8.9-8.9-16.8-17.5-21.2-13.7-7-29.6-5-44.2-2.4-14.9,2.6-28.7,6.8-39.3,18.2-9.5,10.3-15.2,23.4-19.3,36.7C-1,94.4-.4,133.2.3,171.6c0,5,7.2,5.9,8.7,1.2.4-1.2.8-2.4,1.3-3.5-1.5,16.4-2.1,32.8-1.6,49.4.1,3.6,5.2,6.6,7.9,3.3,1.7-2.1,3.4-4.2,5.2-6.3,0,2.8-.2,5.6-.3,8.5-.2,3.2-.4,6.4-.5,9.7-.1,2.5.4,7.8-.9,10-2.2,3.7,1.5,9.1,5.9,7.6,4.3-1.5,8.9-3.4,12.3-6.5.6-.6,1.2-1.2,1.8-1.9,0,2.4-.1,4.9-.2,7.3-.2,8.6-.4,17.3.6,25.8.4,3.9,5.5,5.9,7.8,2.1,4-6.6,7.8-13.2,11-20.1.3,1.1.7,2.2,1.2,3.4.9,2.2,4.5,1.9,5.5,0,4.2-7.9,8.4-15.7,12.1-23.8,3.1-6.7,8.2-14.4,6.1-22-.7-2.5-5-2.9-5.5,0-1.3,7.7-5.1,14.8-8.4,21.8-2,4.2-3.9,8.4-5.9,12.6,0-1.9,0-3.9.2-6,.3-3.5-5.3-5.1-6.7-1.8-3,6.8-6.1,13.6-9.7,20.1-.3-4-.6-8.1-.8-12.1-.3-5.3-.3-10.8-.6-16.2.1-.2.3-.4.4-.6,5.5-8.3,9.3-17.3,11.8-26.9,5-19.5,6.6-39.9,13-59,1-2.9-3.5-4.8-4.9-2.1-8.6,16.8-11.5,35.4-18.3,52.9-3.2,8.4-7.7,16.5-12.8,23.9-2,2.8-4.2,5.4-6.5,7.9,0-2,0-3.9.1-5.9.2-6.8.6-13.5,1-20.3.2-3.5-4.7-5.5-7.1-2.9-1.7,1.9-3.4,3.8-5.2,5.7.3-18.7,1.4-37.5,3.5-56.1.4-3.9-5.3-6.1-7.8-3.2-1.7,2-3.3,4-4.8,6.1-.2-24.7.4-49.8,5.5-73.8,5.3-25.2,15-56.3,42.6-64.3,19.8-5.8,52.6-12.3,63,11.4,3.4,7.8,4.6,16.5,4.6,25.4-2.3-2-5.2-3-8.3-2.1-2.4.7-4.3,2.2-5.6,4.3-1.6,2.6-1.3,5.7-.2,8.3-.6,2.8.2,5.7,2.2,7.8,2.2,2.2,5.1,2.7,8.1,2.1,1-.2,1.8-.5,2.6-1-.3,2.8-.6,5.6-.9,8.3-1.2,11.9-2,23.8-2.7,35.7-.6,9-1.2,17.9-1.7,26.9-.2,4.5-.3,9-.4,13.5,0,3.1.2,7.8-1.9,10.4-2.1,2.5.5,6.4,3.6,4.7,5.8-3.3,6.3-9,7-15,.4-3.7.7-7.4,1-11.2,5.8,1.1,12.1,0,17.9-.4,7-.5,14-1.1,21-1.8,2.7-.3,4.8-3,3.2-5.6-1.6-2.6-3.1-5.2-4.7-7.9,5.1-1.8,10.2-3.5,15.4-5.3,3.5-1.2,3.4-5.8,0-7.1-2.3-.8-4.5-1.9-6.2-3.5,15.5-6.8,30-15.1,44-24.6,3.2-2.2,1.8-6.6-1.9-7-2-.2-3.9-.4-5.9-.6,11.1-7.1,21.5-15.6,30.6-25.1,3.1-3.2,0-7.7-4.1-7Zm-112.5,12.9c0,.3-.2.6-.3.9,0,0,0-.1,0-.2,0-.2.2-.5.3-.7Zm-11.4-3.5c-.3.4-.5.7-.8,1,0,0,0,0,0,0,.2-.2.4-.5.8-1Zm-1,1.3c0,0,0,.1,0,0h0Zm16.1,78.7c.2-2.8.4-5.5.6-8.3.9-14.3,1.5-28.6,2.9-42.9.9-8.7,2.1-17.7,2.6-26.8,15.7,4.8,33.3,4.9,49.4,4.1,13.9-.7,27.7-2.7,41.4-4.9-9.1,7.9-19,14.7-29.5,20.9-3.6,2.1-1.9,7.3,2.1,7.6,2.5.2,5,.3,7.5.5-12.3,7.9-25.4,14.6-38.8,20.3-1.8.8-2.3,3.5-1.3,5,1.5,2.3,3.2,4.2,5.3,5.8-3.9,1.3-7.9,2.7-11.8,4-2.2.8-3.5,3.3-2.2,5.4,1.3,2.2,2.7,4.5,4,6.7-4.9.4-9.8.8-14.8,1.2-5.6.4-11.8,0-17.4,1.4Z" style="fill: #1d1d1b; stroke-width: 0px;"/>
      </g>
    </g>
  </g>
</svg>