<?xml version="1.0" encoding="UTF-8"?>
<svg id="b" data-name="Calque 2" xmlns="http://www.w3.org/2000/svg" viewBox="0 0 519.9 477.8">
  <defs>
    <style>
      .g {
        fill: #538931;
      }

      .g, .h, .i, .j {
        stroke-width: 0px;
      }

      .h {
        fill: #10413c;
      }

      .i {
        fill: #1d1d1b;
      }

      .j {
        fill: #205738;
      }
    </style>
  </defs>
  <g id="c" data-name="fond">
    <g id="d" data-name="Calque 27">
      <path class="g" d="m344,221.1c-.4-.4-.7-.8-1.1-1.1-.6-.1-1.2-.3-1.8-.4,1,.5,1.9,1,2.9,1.6Z"/>
    </g>
    <g id="e" data-name="fond sapins">
      <path class="h" d="m276.7,148.1c-.7-2.2-2.2-3.9-3.9-5-.8-2.9-2.7-5.4-5.9-6.5-3.7-1.3-7-3.2-10.2-5.4-1-1.7-2.4-3.1-4.3-4.1-30.7-15.7-58.5-36-82.6-60.4-3.1-3.5-6.2-7-9.3-10.5-4.9-6.4-9.7-12.8-14.4-19.3-3.9-9.4-7.9-18.8-11.9-28.1-2.4-5.6-9-8.2-15-7.9-10.2-3.5-24.2,5.2-21.2,17.6-.9,1.5-1.5,3.3-1.7,5.2-4.3,3.6-6.7,9.4-4.8,15.1,3,9.1,6,18.2,9,27.3-1.1.2-2.3.5-3.4,1-7,3.1-9.5,9.7-8.3,17,1.2,7.6,2.5,15.1,3.7,22.6-7.1.1-14.2,4.2-15.5,11.8-3.7,20.4-3.3,40.8,1.5,60.5-14,14.9-17.6,39.8-5.4,56.8,2,2.8,4.6,5,7.4,6.3-2.8,3.9-5.6,7.8-8.4,11.8-1.9,2.8-2.4,6.2-1.9,9.5-3.8,3.9-7.7,7.9-11.4,11.9-1.7.8-3.5,1.7-5.2,2.6-4,2.1-6.3,6.3-6.7,10.6-3.2,5.5-2.3,12.3,1.3,17-.4,1-.7,2.2-.7,3.5-.2,7.1-9.4,11.1-14.8,13.8-8.4,4.2-16.2,8.7-21.5,16.8-1.4,2.2-1.6,4.5-1.1,6.6-2.5,2.1-5,4.2-7.5,6.3-2.4,2-3,5.4-2.3,8.4-.8,4,1,8.6,6.1,10.6,48.3,18.7,100.7,34.6,152.7,22.1,44.1-10.7,83.1-45.3,87.7-92.2.4-4.1.4-8.1.3-12.2,1.3-1.6,2.5-3.2,3.7-4.8,9.8-13.1,18.5-28.3,21.6-44.4,4.8-6.9,7.8-14.6,10.5-22.8,7.3-22.4,1.3-47.1-6.2-68.8Z"/>
    </g>
    <g id="f" data-name="trait sapins">
      <path class="j" d="m508.1,386.7s-27.5-17.2-38.4-24c-24.3-15.3-33.7-19.6-57.7-32.2,26.2-10.7,60-24.5,91.3-37.3-19.9-33.7-73.1-88.6-80.5-94.3,6.6-6.8,33.4-18.7,47.7-28.5,0,0-18.9-13.3-28.6-20.6-49.7-51.7-61.4-83.1-68.3-133.4-8.8,7.5-14.2,27.1-20.8,38.1-4,8.2-22.6,33-48.4,53-35.5,35.8-24.3,25.3-62.2,45.8-27.8,10.8-41.3-.9-49.3,4.7-11.3,36.4,26.2,50.2,26.2,50.2-45.5,43.4-73.9,28.1-85.6,36.4-1.9,1.5,3.8,10.8,6.6,16.8,13.9,30,35.7,34.7,26.6,43.8-15.1,19-30.4,10.4-111.2,54.9,21.5,32,59.4,54.9,73,65.5,28.8,17.7,52.4,26,76.8,34.7,25.8,9.3,26.2,20.4,97.4,13.4,49.9-4.9,90.5-8,131.2-26.6,23.6-9.3,48.3-22.8,67.6-38.2,19.2-7.3,22.4-9.6,6.7-22.2Z"/>
      <path class="i" d="m511.2,386.5c-6-4.7-12.7-8.4-19.3-12.2-9.9-5.8-19.4-12.3-29.3-18.2-11.2-6.7-22.8-12.6-34-19.3-2.7-1.6-6.5-4.8-10.3-6.7,28.5-11.6,57-23.2,85.5-34.9,1.1-.5,2-1.8,1.2-3-22.9-33.7-49.4-64.9-78.9-93,15.1-9.1,30.3-18.1,45.4-27.2,1.3-.8,1.3-2.7,0-3.5-52-30.8-88.1-85.8-95.5-145.8-.3-2.6-4.4-2.6-4.1,0,7.4,60.3,42.9,115.6,94.6,147.6-14.9,8.9-29.9,17.9-44.8,26.8-1.1.7-1.4,2.3-.4,3.2,29.5,27.7,56,58.6,78.9,92l-88.8,36.2c-2.4,1-1.5,4.4,1.1,3.9,1.9-.4,5.9,2.8,7.4,3.7,2.6,1.6,5.1,3.3,7.8,4.8,9.6,5.5,19.4,10.6,28.9,16.3,14.7,8.7,29.3,17.8,43.8,26.8,4.9,3,11.8,6.7,14.7,12,2.9,5.2-10.2,8.9-13.7,10.7-9.1,4.5-17.4,11-26.1,16.3-9.5,5.8-19.2,11.3-29.2,16.2-20.7,10.3-42.5,18.2-65.2,22.8-23.9,4.8-48.3,7.1-72.6,9-11.6.9-23.3,1.6-34.9,2.1-11.4.5-23.8,2.6-34.8-1.3-10-3.5-19.7-7.8-29.4-11.9-3.8-1.6-7.9-2.3-11.8-3.7-5.6-2.1-11.2-4.3-16.7-6.5-47.2-18.9-91.4-48-122.5-88.8,18.8-9.6,37.9-18.5,57.3-26.8,10.5-4.5,21.1-8.6,31.8-12.8,7.1-2.8,14.7-6.3,19.4-12.7,4.4-6,2.5-11.2-2-16.4-2.9-3.3-6.2-6.2-8.9-9.6-3.4-4.3-6.4-9-9.3-13.6-2.7-4.3-5.2-8.7-7.5-13.2-1-1.9-2.6-4.3-3.1-6.4,0-.6,0-1.1,0-1.7-.6-1.7,0-2.3,1.6-1.8,1.3-.5,3.5-.2,4.9-.3,8.8-.7,17.6-2.3,26-4.9,19.6-5.9,37.5-16.7,52-31.1,1-1,.5-2.6-.8-3-17-5.1-28.9-22.8-27.2-40.5.2-2.3.4-4.8,2.1-6.5,2.4-2.3,6.3-.6,9.4-.2,5.1.7,10.2,1,15.3.7,9.5-.5,18.7-2.8,27.4-6.5,18.2-7.7,34.5-20.8,48.8-34.3,15.6-14.7,32.1-28.9,45.6-45.7,14-17.5,25.3-36.9,33.3-57.9.7-1.7-2.1-2.4-2.7-.7-8.2,21.2-19.9,41-34.4,58.5-7.2,8.7-15.2,16.8-23.6,24.3-8.8,7.9-17.1,16.5-26.1,24.3-5.5,4.8-11.3,9.6-17.4,14,0,0,0,0,0,0-.6-1-1.7-1-2.4-.5-1.4-.7-9.2-6.2-9.8-6.6-3.6-2.2-7.2-4.5-10.8-6.7-6.6-4.1-13.3-8.3-19.9-12.4-13.3-8.3-28-15.7-40.1-25.9-11.7-9.8-22.4-22.4-31.5-34.7-9.1-12.3-15.2-26-19.3-40.7-.4-1.4-2.4-.8-2.1.6,3,15.7,10.3,30.3,19.9,43,4.8,6.3,10,12.3,15.3,18.2,5.7,6.3,11.3,12.7,18.1,18,13.3,10.4,28.5,18.8,42.8,27.7,7.7,4.8,15.5,9.7,23.2,14.5,3.6,2.2,7.2,4.5,10.8,6.7.8.5,1.5,1,2.2,1.3-10.8,7.4-22.4,13.4-35,16.3-5.9,1.3-12,1.9-18,1.8-5.7-.1-11.5-2.1-17.2-1.8-7.6.5-7.9,10-7.7,15.9.6,16.7,11.5,32.2,27,38.2-13.1,12.4-28.8,21.8-46,27.4-9.1,3-18.6,4.9-28.2,5.5-5.5.4-12.6-.1-9.6,7.5,3.7,9.3,9.2,18.2,14.7,26.5,2.3,3.4,4.6,6.9,7.3,10.1,2.7,3.2,5.9,5.9,8.6,9.2,2,2.3,3.6,4.5,2.9,7.7-.5,2.4-2.3,4.4-4,6.1-3.8,3.7-8.6,6.1-13.5,8.1-9.8,4-19.7,7.7-29.4,11.8-21.7,9.1-43.1,19-64,29.7-.8.4-1.2,1.8-.7,2.5,28.4,38,68.3,67.2,111.5,86.2,5.3,2.3,10.7,4.6,16.1,6.7,6.2,2.5,12.9,6,19.4,7.5,4.7,1.1,8.6,2.7,13.1,4.8,4.9,2.3,10.2,3.9,15.3,5.9,5.2,2,10.1,4.3,15.7,5.1,5.8.9,11.7.6,17.6.2,13-.8,26.1-1.2,39.1-2.2,25.3-1.8,50.8-4.1,75.8-8.7,23.8-4.4,46.6-12.3,68.4-22.8,11.1-5.4,21.9-11.4,32.4-17.8,9-5.5,17.6-12.2,27.1-16.6,4.3-2,13.6-4.8,14.6-10.4.9-5.2-5.1-9.7-8.6-12.4Z"/>
    </g>
  </g>
</svg>