<?xml version="1.0" encoding="UTF-8"?>
<svg id="b" data-name="Calque 2" xmlns="http://www.w3.org/2000/svg" viewBox="0 0 796.1 609.1">
  <defs>
    <style>
      .f {
        fill: #175a3d;
      }

      .f, .g, .h {
        stroke-width: 0px;
      }

      .g {
        fill: #1d1d1b;
      }

      .h {
        fill: #07413e;
      }
    </style>
  </defs>
  <g id="c" data-name="fond">
    <g id="d" data-name="fond sapins">
      <path class="h" d="m788.7,335.6c-14.6-27.9-51.2-33.7-60.8-65-5.1-18.7-23.4-27.7-37.2-37.8s-15-7.4-20.3-12.6c-13.5-12.5-33.9-13.2-50.8-16.9,12-6.8,41.9-19.5,52.5-24.9l-21.2-14.7c-12.8-7.4-26.8-12.6-39.4-17.6-26.8-9-56.6-19.7-73.1-54.5,0,0,43.6-8.2,28.9-17.2-35.9-1.8-72.7-32.7-95.7-63.5-8-16.6-13,20.6-11.1,21,0,0-1.8,6.1-12.3,30.9-8.3,19.6-17.6,40.3-35.9,52.2-5.6,14.4,25.4-7.3,24-1.6-7.5,31.7-30.5,82.7-51.3,111.3-12.3,14.2-16,29.3-14.8,46.3-45.3,35.4-95.4,68.7-127.7,117.7-35.8,38.6-11.3,110.4,44.1,109.4,8.9,14.4,22,24.5,38.1,29.5,50.9,2.1,98,25.6,150.4,19-1,.2-2.1.5-3.1.7,43.5-2.9,18.8,65.8,86.9,61.4,30.3-5,64,5.5,89.1-21.6,37.3-33.3,96.5-55.5,113.4-105,2.7-17.7-2.8-35.4-14.9-48.7,33.8-16.7,64-61.1,42.2-97.9Z"/>
      <path class="f" d="m548.7,468.3c-22.2-9.3-35.3-16-57.6-28.9-5.6-3.2-16.3-9.7-27.1-21.2-2.2-2.4-4-4.4-5.1-5.8,0,0-31.3-10.8-96.1-97-.2-.3-.6-.8-.7-1.6-1.2-10.2,55.6-24.4,80.2-35.4,13.9-2.4-6.3-7.9-10.9-12-25.6-19.5-43-46.3-66.1-68.4,8.8-10.9,42,0,43.3-8.3-25-27.8-43.8-61.7-55.3-97.3-8.8-37.9,1.5-51.5-31-18.1-7,6.6-31.3,31.5-58.6,45.9-11.6,6.1-48.5,22.7-40.7,24.5,41,9.5,8.9,21.7-19.6,58.7-19.8,25.7-80.2,74.8-80.2,74.8,58.2,40.5,70,24.8,41.3,47.8-20.8,19.8-75.6,52.8-75.6,52.8,14.8,19.5,46.3,21.1,15.1,47.9-33.4,32.9-100.1,103.6-100.1,103.6,16.5,6.9,107.8-25.1,107.8-25.1l-7.1,70.9c10.5,11.6,27.4,10.7,30.1,10.5,20.8-4.3,48.6-12.3,78.6-27.9,25-13,44.6-27.6,59-40,37.5,9.4,92.5,28.2,145.5,26,20.2-.8,83.9,12.4,86,2.6.5-2.2-13.3-14.6-24.4-25-11.5-10.8-21.4-19.4-28.8-25.6,0,0,31.8,9.1,70.8,6.9,26.1-1.5,47.3-10.2,61.6-17.9,0,0-15.6-9.4-34.7-17.4Z"/>
    </g>
    <g id="e" data-name="trait sapins">
      <path class="g" d="m726.9,263.4c-2.3-7-9.7-12.4-15.1-17.1-12.2-10.6-25.6-19.6-40-27-14.9-7.6-30.7-13.3-47-17,16.5-6.6,32.6-14,48.3-22.3,1.1-.6,1.3-2.2.4-3.1-19.8-19.7-47.1-27.3-72.5-36.8-23.9-9-50-22.5-60.1-47.5,11.8-4.4,23.5-8.8,35.3-13.2,1.6-.6,2-3.2,0-3.6-44.7-8.9-84.7-36.4-108.9-75.1-1-1.6-3.1-.8-3.3.9-4.1,46.4-26.4,90.1-61.2,121-1.3,1.1,0,3.4,1.7,2.9,10.2-3.3,20.5-6.6,30.7-9.9-10.2,31.7-23.3,62.4-39,91.7-1,2,1.9,3.7,3,1.7,16.3-30.6,29.8-62.6,40.3-95.7.4-1.2-.9-2.5-2.1-2.1-8.9,2.8-17.7,5.7-26.6,8.5,31.1-29.9,51.1-70.2,56.2-113,23.7,35.6,60.7,61.3,102.2,71.3-10.4,3.9-20.8,7.8-31.2,11.6-.9.3-1.7,1.3-1.3,2.3,8.9,24.5,32,38.9,55,48.5,26.3,11,55.7,17.3,77.1,37.3-16.7,8.6-33.9,16.4-51.5,23.1-1.7.6-2.1,3.5,0,3.9,29.3,5.7,57.2,17.9,81.1,35.8,6,4.5,11.7,9.4,17.2,14.6,2.9,2.7,6.5,5.9,7.6,9.9,1.3,4.9-2.3,9.4-5.2,12.9-9.3,11.1-20.6,20.8-32.6,28.9-13.9,9.4-29.1,16.5-45.2,21.4-2.8.8-1.6,5.3,1.2,4.4,30.6-9.4,58.8-27.3,79.5-51.8,4.2-5,8.3-11,6-17.7Z"/>
      <path class="g" d="m584.2,484.3c-4.3-2.3-8.6-4.6-12.8-6.9.8-1.1.6-3.1-1.1-3.7-32.2-11.3-64.9-24.2-91.1-46.6-6.6-5.6-12.6-11.8-19.3-17.3-6.4-5.3-13.5-9.4-20.5-13.9-15.5-9.9-27.3-24.4-39-38.3-6.2-7.4-12.2-15-18.6-22.3-6.2-7-12.6-13.8-17.2-21.9,13.3-10.6,31-16.1,46.6-22.3,6.4-2.6,13-4.8,19.4-7.4,2.6-1,5.2-2.1,7.8-3,1.1-.4,5.3-2.3,6.2-1.9,2.1,1,4.7-1.8,2.6-3.4-29.6-23.4-56.6-50.4-79.9-80,14.8,0,29.7,0,44.5,0,1.9,0,2.7-2.3,1.5-3.6-35.6-39.6-58.2-89.2-65.9-141.8-.3-1.9-2.9-1.8-3.8-.5-12.9,19.8-33.9,32.9-52,47.4-20.1,16.1-40.7,32.1-65,41.4-2.5,1-6.1,2-5.6,5.5.5,3.3,4.3,4.5,7,5.2,3.5,1,7.2,1.7,10.6,3.3,1.8.9,3.6,1.6,3.4,3.8-.1,2-2.8,4.8-3.9,6.2-6.5,7.8-13.5,15.4-20.1,23.1-9.1,10.6-18.6,20.8-28.3,30.8-21.1,21.6-43.7,41.7-67.4,60.4-1.1.8-.6,2.6.4,3.2,18.4,10.6,36.9,21.2,55.3,31.7-27.7,25.5-58.3,47.6-91.1,66.1-1.5.8-1.2,2.7,0,3.6,7.3,5.4,14.7,10.8,22,16.2,4,3,10.5,6.4,7.4,12.4-2,3.9-6.3,7.3-9.3,10.5-11.8,12.8-23.5,25.7-35.4,38.3-5.6,5.9-11.6,11.1-17.8,16.2-6.3,5.2-12,11.1-17.7,16.9-12.1,12.3-24.2,24.6-35.2,38-1.4,1.7.4,4.8,2.6,3.3,3.9-2.7,10.2-1.5,14.7-1.9,4.2-.3,8.3-.9,12.4-1.6,9.6-1.7,19-4.4,28.2-7.4,17-5.4,33.8-11.7,51.4-14.8-.5,1.9-.7,3.8-.9,5.1-1.3,6.9-2.2,13.9-3.1,20.9-.8,6.7-1.6,13.3-2.3,20-.6,6.1-1.8,12.3-1,18.4,2.4,20.3,30,17.7,44.6,14.9,21.7-4.2,41.9-14.3,61.7-23.8,23.2-11.2,47.5-22.1,64.5-42.3,75.7,20.6,154,31.3,232.4,31.4,1.6,0,2.4-1.7,1.7-3-5.1-10.8-15.4-18.3-24.1-26.1-8.3-7.5-16.6-14.9-24.9-22.4,41.8,10.7,87.1,6.1,125.7-13.7,1-.5,1-2.2,0-2.7Zm-132.7,10.4c-1.8-.6-3.4,2-1.9,3.3,9.8,8.9,19.7,17.8,29.5,26.7,7.9,7.2,17.6,14.2,23.2,23.5-77.4-.6-154.5-11.1-229.2-31.5-.6-.2-1.5,0-1.9.5-13.9,16.9-33.2,27.5-52.7,36.9-17.7,8.6-35.3,17.6-54,24-9.6,3.2-19.5,5.8-29.7,6.5-8,.5-22.1.9-26.7-7.2-3.3-5.9-1.7-13.8-.9-20.2.5-4.8,1-9.6,1.6-14.4.9-7.6,1.8-15.3,3-22.8.5-2.9.9-5.8,1.6-8.7.2-1.1.6-2.2.8-3.2.2-1.2,1.2-1.6-.1-1.1,2.7-.9,1.5-4.5-1.1-4.1-19.8,2.9-38.4,10-57.4,16-9.3,2.9-18.7,5.6-28.3,7.1-5.2.8-10.4,1.4-15.6,1.5-1.3,0-2.5,0-3.8,0,10.9-12.7,22.7-24.6,34.5-36.5,6.8-6.9,14.3-12.9,21.6-19.3,6.9-6.1,13-13,19.2-19.7,6.6-7.1,13.2-14.3,19.7-21.4l10.5-11.4c2.5-2.7,5.6-5.4,6.9-8.9,2.3-6.1-2.2-10.5-6.7-13.9-7.4-5.6-14.9-11-22.4-16.5,32.8-18.8,63.4-41.3,91.2-67.1,1-.9.7-2.6-.4-3.3-18.4-10.5-36.8-21.1-55.1-31.6,21-16.6,41.1-34.4,60-53.4,17.8-17.9,33.8-37.3,50.8-55.9,3.4-3.7,11.1-11.1,7-16.5-1.8-2.4-5.2-3.6-8-4.6-1.8-.6-10.8-2.1-10.9-3.9-.1-1.4,12.4-5.8,14.7-7,6.2-3.1,12.3-6.6,18.1-10.3,10.5-6.7,20.3-14.3,30-22,18.7-14.9,40.7-28.8,55.1-48.3,8.2,49.9,29.9,97,63.1,135.2-14.7,0-29.5,0-44.2,0-1.4,0-2.8,1.9-1.8,3.2,23.1,29.9,49.7,57.2,79,80.9-2.6.8-5.1,2-6.9,2.8-7.1,2.8-14.3,5.4-21.4,8.2-17.3,6.8-37.1,12.9-51.5,25.1-.8.6-.8,1.9-.3,2.7,3.7,7.2,9,13.4,14.3,19.4,6,6.9,11.8,13.9,17.6,21,11.7,14.2,23.4,29.4,38.1,40.7,6.8,5.2,14.5,9.2,21.5,14.2,7.6,5.5,14.2,12.1,21.2,18.4,12.8,11.4,27.3,20.7,42.6,28.4,16.8,8.5,34.4,15.1,52.2,21.4,0,.4.2.9.7,1.2,4.1,2.3,8.1,4.6,12.2,6.9-40.1,18.6-86.1,22.2-128.4,9.2Z"/>
    </g>
  </g>
</svg>