<?xml version="1.0" encoding="UTF-8"?>
<svg xmlns="http://www.w3.org/2000/svg" viewBox="0 0 800 1000">
  <g id="sky">
    <rect width="800" height="1000" fill="#3b3a97"/>
  </g>
  <g id="ground">
    <polygon points="-.2 519.9 357.1 788.5 476.8 728.5 596.6 762 800.2 555.2 800 1008.1 0 1008.1 -.2 519.9" fill="#123f3f"/>
  </g>
  <g id="moon">
    <g>
      <circle cx="356.9" cy="45.1" r="28.9" fill="#e7eb0a" opacity=".2"/>
      <path d="M364.9,34.4c2.2,6.5-1.2,13.5-7.6,15.8-4.4,1.6-9.1.5-12.4-2.3,0,0,0,.1,0,.2,2.3,6.5,9.5,9.9,16,7.5s9.9-9.5,7.5-16c-.8-2.1-2-3.9-3.6-5.2Z" fill="#e7eb0a"/>
    </g>
  </g>
  <g id="trunk5">
    <g>
      <path d="M356.9,1052.4l59.5,1L435.7-48.9c-19.8-2.1-39.6-4-59.4-5.8l-19.3,1107.1Z" fill="#442c9a"/>
      <g id="tronc" opacity=".2">
        <path d="M356.9,1052.4l59.5,1L435.7-48.9c-19.8-2.1-39.6-4-59.4-5.8l-19.3,1107.1Z" fill="#fff"/>
        <g id="marques">
          <rect x="367.9" y="981.7" width="20" height="7.8" transform="translate(738.5 1977.6) rotate(-179)" fill="#1d1d1b"/>
          <rect x="384.6" y="946" width="28.3" height="5.5" transform="translate(780.8 1904.4) rotate(-179)" fill="#1d1d1b"/>
          <rect x="359.3" y="914.2" width="51.3" height="4.4" transform="translate(753.9 1839.4) rotate(-179)" fill="#1d1d1b"/>
          <rect x="359.7" y="887.3" width="17.3" height="7.2" transform="translate(721.2 1788) rotate(-179)" fill="#1d1d1b"/>
          <rect x="385.8" y="869.5" width="21.2" height="5" transform="translate(777.5 1750.7) rotate(-179)" fill="#1d1d1b"/>
          <rect x="378" y="836.2" width="42.2" height="5.5" transform="translate(783.5 1684.9) rotate(-179)" fill="#1d1d1b"/>
          <rect x="361.2" y="803" width="19.8" height="7.2" transform="translate(728.1 1619.6) rotate(-179)" fill="#1d1d1b"/>
          <rect x="381.5" y="774.7" width="31.6" height="5" transform="translate(781 1561.1) rotate(-179)" fill="#1d1d1b"/>
          <rect x="367" y="748.8" width="25" height="4.4" transform="translate(745.7 1508.6) rotate(-179)" fill="#1d1d1b"/>
          <rect x="388.4" y="726" width="33.7" height="4.4" transform="translate(797.8 1463.4) rotate(-179)" fill="#1d1d1b"/>
          <rect x="372.6" y="717.9" width="25.7" height="3.3" transform="translate(758.3 1445.7) rotate(-179)" fill="#1d1d1b"/>
          <rect x="363.3" y="687.9" width="42.7" height="4.4" transform="translate(757.1 1386.9) rotate(-179)" fill="#1d1d1b"/>
          <rect x="372.2" y="673.4" width="14" height="3.9" transform="translate(746.6 1357.2) rotate(-179)" fill="#1d1d1b"/>
          <rect x="381.1" y="655.5" width="42.3" height="3.3" transform="translate(792.9 1321.3) rotate(-179)" fill="#1d1d1b"/>
          <rect x="365.1" y="581.4" width="35.6" height="8.9" transform="translate(755.4 1178.3) rotate(-179)" fill="#1d1d1b"/>
          <rect x="385.8" y="617.8" width="30" height="4.4" transform="translate(790.8 1246.9) rotate(-179)" fill="#1d1d1b"/>
          <rect x="411.7" y="599.2" width="12.6" height="2.8" transform="translate(825.5 1208.5) rotate(-179)" fill="#1d1d1b"/>
          <rect x="383.4" y="553" width="41.8" height="4.4" transform="translate(798.8 1117.4) rotate(-179)" fill="#1d1d1b"/>
          <rect x="379.1" y="530.1" width="33.8" height="3.9" transform="translate(782.7 1070.9) rotate(-179)" fill="#1d1d1b"/>
          <rect x="387.7" y="510.9" width="38.2" height="6.7" transform="translate(804.5 1035.4) rotate(-179)" fill="#1d1d1b"/>
          <rect x="366.6" y="496.4" width="9.9" height="5.5" transform="translate(734.3 1004.8) rotate(-179)" fill="#1d1d1b"/>
          <rect x="397.4" y="816.4" width="23.2" height="1.1" transform="translate(803.6 1641) rotate(-179)" fill="#1d1d1b"/>
          <rect x="380.2" y="467.4" width="29.6" height="6.1" transform="translate(781.7 947.8) rotate(-179)" fill="#1d1d1b"/>
          <rect x="390.5" y="429.4" width="36.8" height="7.2" transform="translate(810.1 873.1) rotate(-179)" fill="#1d1d1b"/>
          <rect x="368.4" y="395.2" width="35.6" height="5" transform="translate(765.3 802) rotate(-179)" fill="#1d1d1b"/>
          <rect x="391.5" y="371.7" width="28.6" height="4.4" transform="translate(805 754.8) rotate(-179)" fill="#1d1d1b"/>
          <rect x="369.1" y="353.1" width="35.6" height="4.4" transform="translate(767.5 717.2) rotate(-179)" fill="#1d1d1b"/>
          <rect x="378.3" y="324" width="50.9" height="7.2" transform="translate(801.6 662.1) rotate(-179)" fill="#1d1d1b"/>
          <rect x="378.6" y="302.7" width="29.7" height="6.1" transform="translate(781.6 618.3) rotate(-179)" fill="#1d1d1b"/>
          <rect x="393.6" y="251.5" width="36.8" height="4.4" transform="translate(819.5 514.5) rotate(-179)" fill="#1d1d1b"/>
          <rect x="370.5" y="276" width="38.4" height="3.3" transform="translate(774.4 562.1) rotate(-179)" fill="#1d1d1b"/>
          <rect x="376.2" y="229" width="42" height="4.4" transform="translate(790.3 469.4) rotate(-179)" fill="#1d1d1b"/>
          <rect x="399.6" y="205.5" width="31.6" height="4.4" transform="translate(827.1 422.7) rotate(-179)" fill="#1d1d1b"/>
          <rect x="372.4" y="162.9" width="29.8" height="7.8" transform="translate(771.6 340.2) rotate(-179)" fill="#1d1d1b"/>
          <rect x="387.8" y="131.7" width="44.6" height="5.5" transform="translate(817.9 276) rotate(-179)" fill="#1d1d1b"/>
          <rect x="419" y="180.7" width="12.6" height="6.1" transform="translate(847.4 374.9) rotate(-179)" fill="#1d1d1b"/>
          <rect x="373.5" y="100.3" width="37.2" height="5" transform="translate(782.4 212.4) rotate(-179)" fill="#1d1d1b"/>
          <rect x="388.9" y="74.6" width="44.6" height="3.9" transform="translate(820.9 160.2) rotate(-179)" fill="#1d1d1b"/>
          <rect x="374.3" y="53.2" width="43.7" height="4.4" transform="translate(791.3 117.8) rotate(-179)" fill="#1d1d1b"/>
          <rect x="386.6" y="5.6" width="27" height="5" transform="translate(799.9 23.2) rotate(-179)" fill="#1d1d1b"/>
        </g>
      </g>
    </g>
  </g>
  <g id="trunk4">
    <g>
      <path d="M80.3,956.7l78.5-2.7L123.3-59.3c-26.2-.5-52.4-.8-78.6-.8l35.5,1016.8Z" fill="#442c9a"/>
      <g id="tronc-2" data-name="tronc" opacity=".2">
        <path d="M80.3,956.7l78.5-2.7L123.3-59.3c-26.2-.5-52.4-.8-78.6-.8l35.5,1016.8Z" fill="#fff"/>
        <g id="marques-2" data-name="marques">
          <rect x="101.6" y="904.5" width="55.6" height="12.1" transform="translate(290.5 1816.1) rotate(178)" fill="#1d1d1b"/>
          <rect x="90" y="862.2" width="26.4" height="10.2" transform="translate(236.7 1730.6) rotate(178)" fill="#1d1d1b"/>
          <rect x="109.5" y="813.8" width="37.3" height="7.3" transform="translate(284.8 1629.9) rotate(178)" fill="#1d1d1b"/>
          <rect x="74" y="772.8" width="67.7" height="5.8" transform="translate(242.7 1547.2) rotate(178)" fill="#1d1d1b"/>
          <rect x="72.8" y="738.5" width="22.9" height="9.5" transform="translate(194.4 1483.1) rotate(178)" fill="#1d1d1b"/>
          <rect x="105.8" y="713.1" width="28" height="6.6" transform="translate(264.5 1428.2) rotate(178)" fill="#1d1d1b"/>
          <rect x="93.3" y="669.2" width="55.6" height="7.3" transform="translate(265.6 1341) rotate(178)" fill="#1d1d1b"/>
          <rect x="68.9" y="627.4" width="26.1" height="9.5" transform="translate(186 1261) rotate(178)" fill="#1d1d1b"/>
          <rect x="93.6" y="588.2" width="41.6" height="6.6" transform="translate(249.4 1178.6) rotate(178)" fill="#1d1d1b"/>
          <rect x="72.7" y="555.4" width="33" height="5.8" transform="translate(197.7 1113.3) rotate(178)" fill="#1d1d1b"/>
          <rect x="99.4" y="523.6" width="44.4" height="5.8" transform="translate(261.4 1048.4) rotate(178)" fill="#1d1d1b"/>
          <rect x="77.9" y="514.3" width="33.9" height="4.4" transform="translate(207.7 1029.3) rotate(178)" fill="#1d1d1b"/>
          <rect x="63.6" y="474.9" width="56.3" height="5.8" transform="translate(200 952.1) rotate(178)" fill="#1d1d1b"/>
          <rect x="74.3" y="456.1" width="18.5" height="5.1" transform="translate(183.1 914.2) rotate(178)" fill="#1d1d1b"/>
          <rect x="84.8" y="431" width="55.7" height="4.4" transform="translate(240.4 862.1) rotate(178)" fill="#1d1d1b"/>
          <rect x="58.8" y="334.7" width="46.9" height="11.7" transform="translate(176.3 678.1) rotate(178)" fill="#1d1d1b"/>
          <rect x="88.5" y="381.4" width="39.6" height="5.8" transform="translate(229.8 764.6) rotate(178)" fill="#1d1d1b"/>
          <rect x="121.3" y="355.8" width="16.6" height="3.7" transform="translate(271.5 710.4) rotate(178)" fill="#1d1d1b"/>
          <rect x="80.8" y="295.8" width="55.1" height="5.8" transform="translate(227 593.4) rotate(178)" fill="#1d1d1b"/>
          <rect x="73.5" y="266.2" width="44.6" height="5.1" transform="translate(201 534) rotate(178)" fill="#1d1d1b"/>
          <rect x="83.6" y="240.2" width="50.4" height="8.8" transform="translate(226 485.1) rotate(178)" fill="#1d1d1b"/>
          <rect x="54.8" y="223.5" width="13" height="7.3" transform="translate(130.5 452.1) rotate(178)" fill="#1d1d1b"/>
          <rect x="117.3" y="642.4" width="30.6" height="1.5" transform="translate(287.5 1281.3) rotate(178)" fill="#1d1d1b"/>
          <rect x="79.8" y="940.7" width="33.9" height="3.7" transform="translate(226.3 1881.2) rotate(178)" fill="#1d1d1b"/>
          <rect x="70.7" y="183.7" width="39" height="8" transform="translate(186.9 372.2) rotate(178)" fill="#1d1d1b"/>
          <rect x="81.7" y="132.7" width="48.5" height="9.5" transform="translate(216.6 271.1) rotate(178)" fill="#1d1d1b"/>
          <rect x="50.1" y="89.2" width="46.9" height="6.6" transform="translate(150.3 182.4) rotate(178)" fill="#1d1d1b"/>
          <rect x="78.9" y="56.9" width="37.8" height="5.8" transform="translate(197.7 116.2) rotate(178)" fill="#1d1d1b"/>
          <rect x="48.2" y="33.7" width="46.9" height="5.8" transform="translate(144.4 70.7) rotate(178)" fill="#1d1d1b"/>
          <rect x="58.3" y="-5.8" width="67.1" height="9.5" transform="translate(0 3.2) rotate(-2)" fill="#1d1d1b"/>
        </g>
      </g>
    </g>
  </g>
  <g id="trunk3">
    <g>
      <path d="M554.6,988.8l86.2-3L605.2-31.5c-28.9-2.6-57.8-5.5-86.6-8.6l35.9,1028.9Z" fill="#442c9a"/>
      <g id="tronc-3" data-name="tronc" opacity=".3">
        <path d="M554.6,988.8l86.2-3L605.2-31.5c-28.9-2.6-57.8-5.5-86.6-8.6l35.9,1028.9Z" fill="#fff"/>
        <g id="marques-3" data-name="marques">
          <rect x="529.8" y="6.2" width="36.5" height="6.4" transform="translate(0 19.1) rotate(-2)" fill="#1d1d1b"/>
          <rect x="549.4" y="46.1" width="58.6" height="4.8" transform="translate(-1.3 20.2) rotate(-2)" fill="#1d1d1b"/>
          <rect x="574.8" y="95.6" width="29.7" height="8.8" transform="translate(-3.1 20.6) rotate(-2)" fill="#1d1d1b"/>
          <rect x="523.1" y="82.5" width="51.2" height="8" transform="translate(-2.7 19.2) rotate(-2)" fill="#1d1d1b"/>
          <rect x="561.1" y="141.5" width="50.3" height="7.2" transform="translate(-4.7 20.5) rotate(-2)" fill="#1d1d1b"/>
          <rect x="535.8" y="176.9" width="51.7" height="5.6" transform="translate(-5.9 19.7) rotate(-2)" fill="#1d1d1b"/>
          <rect x="551.9" y="253.9" width="34" height="4.8" transform="translate(-8.6 20) rotate(-2)" fill="#1d1d1b"/>
          <rect x="560.3" y="221.9" width="53.9" height="5.6" transform="translate(-7.5 20.6) rotate(-2)" fill="#1d1d1b"/>
          <rect x="530.9" y="306.8" width="81" height="8" transform="translate(-10.5 20.1) rotate(-2)" fill="#1d1d1b"/>
          <rect x="565.1" y="360" width="53.9" height="5.6" transform="translate(-12.3 20.9) rotate(-2)" fill="#1d1d1b"/>
          <rect x="576.6" y="381.6" width="34.6" height="5.6" transform="translate(-13.1 21) rotate(-2)" fill="#1d1d1b"/>
          <rect x="534.3" y="404.5" width="51.2" height="6.4" transform="translate(-13.9 19.8) rotate(-2)" fill="#1d1d1b"/>
          <rect x="545.2" y="447.1" width="76.8" height="6.4" transform="translate(-15.4 20.6) rotate(-2)" fill="#1d1d1b"/>
          <rect x="579.9" y="474.8" width="30.6" height="8.8" transform="translate(-16.4 21.1) rotate(-2)" fill="#1d1d1b"/>
          <rect x="538.5" y="520.8" width="57" height="15.3" transform="translate(-18.1 20.1) rotate(-2)" fill="#1d1d1b"/>
          <rect x="572.8" y="579.2" width="53.9" height="8.8" transform="translate(-20 21.3) rotate(-2)" fill="#1d1d1b"/>
          <rect x="564.2" y="605.3" width="45.2" height="5.6" transform="translate(-20.9 20.8) rotate(-2)" fill="#1d1d1b"/>
          <rect x="543.1" y="655.2" width="43.1" height="10.4" transform="translate(-22.7 20.1) rotate(-2)" fill="#1d1d1b"/>
          <rect x="554" y="696" width="76.8" height="8.8" transform="translate(-24.1 21.1) rotate(-2)" fill="#1d1d1b"/>
          <rect x="574.4" y="733.8" width="31.9" height="11.2" transform="translate(-25.4 21.1) rotate(-2)" fill="#1d1d1b"/>
          <rect x="546.9" y="763.6" width="40.5" height="13.7" transform="translate(-26.5 20.3) rotate(-2)" fill="#1d1d1b"/>
          <rect x="581.6" y="831.3" width="53.9" height="9.6" transform="translate(-28.8 21.7) rotate(-2)" fill="#1d1d1b"/>
          <rect x="579.6" y="885.4" width="45.2" height="5.6" transform="translate(-30.6 21.6) rotate(-2)" fill="#1d1d1b"/>
          <rect x="550.2" y="860.7" width="40.5" height="8" transform="translate(-29.8 20.4) rotate(-2)" fill="#1d1d1b"/>
          <rect x="578.6" y="938.2" width="60.7" height="7.2" transform="translate(-32.5 21.8) rotate(-2)" fill="#1d1d1b"/>
          <rect x="563.5" y="970.4" width="38.4" height="8" transform="translate(-33.7 20.9) rotate(-2)" fill="#1d1d1b"/>
        </g>
      </g>
    </g>
  </g>
  <g id="trunk2">
    <g>
      <path d="M178.7-61.5l19.3,1103.8,113.1-2L291.9-57.2c-22-1.4-44.1-2.5-66.2-3.1-15.7-.4-31.4-.9-47-1.2Z" fill="#442c9a"/>
      <g id="tronc-4" data-name="tronc" opacity=".4">
        <path d="M178.7-61.5l19.3,1103.8,113.1-2L291.9-57.2c-22-1.4-44.1-2.5-66.2-3.1-15.7-.4-31.4-.9-47-1.2Z" fill="#fff"/>
        <g id="marques-4" data-name="marques">
          <rect x="211.3" y="79.3" width="44.6" height="6.3" transform="translate(-1.4 4.1) rotate(-1)" fill="#1d1d1b"/>
          <rect x="222.9" y="37.7" width="70.7" height="7.4" transform="translate(-.7 4.5) rotate(-1)" fill="#1d1d1b"/>
          <rect x="182.5" y="148.7" width="106.1" height="10.5" transform="translate(-2.7 4.1) rotate(-1)" fill="#1d1d1b"/>
          <rect x="226.1" y="218.9" width="70.7" height="7.4" transform="translate(-3.8 4.6) rotate(-1)" fill="#1d1d1b"/>
          <rect x="240.7" y="247.3" width="45.4" height="7.4" transform="translate(-4.3 4.6) rotate(-1)" fill="#1d1d1b"/>
          <rect x="184.7" y="276.5" width="67.1" height="8.4" transform="translate(-4.9 3.9) rotate(-1)" fill="#1d1d1b"/>
          <rect x="198.1" y="332.9" width="100.7" height="8.4" transform="translate(-5.8 4.4) rotate(-1)" fill="#1d1d1b"/>
          <rect x="242.9" y="369.5" width="40.1" height="11.6" transform="translate(-6.5 4.6) rotate(-1)" fill="#1d1d1b"/>
          <rect x="187.4" y="429.1" width="74.7" height="20" transform="translate(-7.6 4) rotate(-1)" fill="#1d1d1b"/>
          <rect x="231.1" y="506.3" width="70.7" height="11.6" transform="translate(-8.9 4.7) rotate(-1)" fill="#1d1d1b"/>
          <rect x="219.3" y="540.4" width="59.2" height="7.4" transform="translate(-9.5 4.4) rotate(-1)" fill="#1d1d1b"/>
          <rect x="190.5" y="605.1" width="56.5" height="13.7" transform="translate(-10.6 3.9) rotate(-1)" fill="#1d1d1b"/>
          <rect x="203.8" y="659.3" width="100.7" height="11.6" transform="translate(-11.6 4.5) rotate(-1)" fill="#1d1d1b"/>
          <rect x="229.6" y="708.9" width="41.9" height="14.7" transform="translate(-12.5 4.5) rotate(-1)" fill="#1d1d1b"/>
          <rect x="193" y="747.3" width="53.1" height="17.9" transform="translate(-13.2 3.9) rotate(-1)" fill="#1d1d1b"/>
          <rect x="236.9" y="837" width="70.7" height="12.6" transform="translate(-14.7 4.9) rotate(-1)" fill="#1d1d1b"/>
          <rect x="233" y="907.7" width="59.3" height="7.4" transform="translate(-15.9 4.7) rotate(-1)" fill="#1d1d1b"/>
          <rect x="195.1" y="874.8" width="53.1" height="10.5" transform="translate(-15.3 4) rotate(-1)" fill="#1d1d1b"/>
          <rect x="230.5" y="977.1" width="79.5" height="9.5" transform="translate(-17.1 4.9) rotate(-1)" fill="#1d1d1b"/>
        </g>
      </g>
    </g>
  </g>
  <g id="garland1">
    <g opacity=".9">
      <g>
        <circle cx="1.1" cy="402.1" r="82.6" fill="#f0a409" opacity=".3"/>
        <circle cx="1.1" cy="402.1" r="41.8" fill="#f0a409" opacity=".3"/>
        <circle cx="1.1" cy="402.1" r="14.6" fill="#f0a409"/>
      </g>
      <circle cx="288.4" cy="641.7" r="102.6" fill="#e05310" opacity=".2"/>
      <circle cx="288.4" cy="641.7" r="61.5" fill="#e05310" opacity=".3"/>
      <circle cx="288.4" cy="641.7" r="14.6" fill="#e05310"/>
      <circle cx="763" cy="767.7" r="102.7" fill="#e05310" opacity=".2"/>
      <circle cx="763" cy="767.7" r="49.5" fill="#e05310" opacity=".3"/>
      <circle cx="763" cy="767.7" r="14.6" fill="#e05310"/>
      <circle cx="202" cy="582.6" r="105.7" fill="#0ee040" opacity=".2"/>
      <circle cx="202" cy="582.6" r="60.8" fill="#0ee040" opacity=".3"/>
      <circle cx="202" cy="582.6" r="14.6" fill="#0ee040"/>
      <circle cx="641.6" cy="755.2" r="98.9" fill="#0ee040" opacity=".2"/>
      <circle cx="641.6" cy="755.2" r="57.5" fill="#0ee040" opacity=".3"/>
      <circle cx="641.6" cy="755.2" r="14.6" fill="#0ee040"/>
      <circle cx="103.9" cy="502.1" r="98.2" fill="#e7eb0a" opacity=".2"/>
      <circle cx="103.9" cy="502.1" r="49.5" fill="#e7eb0a" opacity=".3"/>
      <circle cx="103.9" cy="502.1" r="14.6" fill="#e7eb0a"/>
      <circle cx="536.1" cy="731.4" r="96.3" fill="#e7eb0a" opacity=".2"/>
      <circle cx="536.1" cy="731.4" r="57.7" fill="#e7eb0a" opacity=".3"/>
      <circle cx="536.1" cy="731.4" r="14.6" fill="#e7eb0a"/>
      <circle cx="396.8" cy="694.4" r="85.1" fill="#f0a409" opacity=".2"/>
      <circle cx="396.8" cy="694.4" r="43" fill="#f0a409" opacity=".3"/>
      <circle cx="396.8" cy="694.4" r="14.6" fill="#f0a409"/>
      <path d="M-48.7,267.2c64.3,144.3,313.4,478.6,835,481" fill="none" stroke="#1d1d1b" stroke-miterlimit="10" stroke-width="3"/>
    </g>
  </g>
  <g id="deer_back" data-name="deer back">
    <path d="M199.2,863.2c5.9,435.4-97,228.5-158.1,216.3-61.1-12.2-131.3,81.9-63.1-260.4,26.2-131.6,97-228.5,158.1-216.3,61.1,12.2,61.4,127.7,63.1,260.4Z" fill="#925f36"/>
    <path d="M93.5,758c-2,8.6-3.3,16.8-3.9,25.6-4.4-8.1-2.6-19.2,3.9-25.6h0Z" fill="#7f5334"/>
    <path d="M62.1,878c-.4,8.2,1.2,16.9,2.6,25,.5,2.8.9,5.6,1.1,8.6-5.6-9.8-9.1-23.1-3.6-33.6h0Z" fill="#7f5334"/>
    <path d="M105.1,867c-1.9,13.2-2.5,26.1-1.7,39.5-5.7-12.3-5-27.7,1.7-39.5h0Z" fill="#7f5334"/>
    <path d="M170.4,783c2,5.5,2.6,11.3,2.6,17.1-.1,5.8-.9,11.6-3,17-.6-5.8-.5-11.4-.5-17.1.1-5.7.2-11.3.9-17.1h0Z" fill="#7f5334"/>
    <path d="M155.4,855.9c1,5.5,1,11,.7,16.5-.4,5.5-1.1,11-2.8,16.3-1-5.5-1-11-.7-16.5.4-5.5,1.1-11,2.8-16.3h0Z" fill="#7f5334"/>
    <path d="M125.6,786.9c1.5,5.2,2,10.4,2.1,15.7,0,5.3,0,10.6-1.3,15.8-1.5-5.2-2-10.4-2.1-15.7,0-5.3.1-10.6,1.3-15.8h0Z" fill="#7f5334"/>
    <path d="M73.1,813.8c-.2,5.3-1.1,12.5-1.5,17.7-.5,5.3-.9,12.5-1.6,17.7-2-5.8-2.3-12-1.8-18,.6-6,2-12.1,5-17.4h0Z" fill="#7f5334"/>
    <path d="M48.3,763c-1.4,5.5-3.9,13-5.5,18.5-1.6,5.5-3.7,13.1-5.5,18.5-.7-6.6.3-13.2,2.1-19.5,1.9-6.3,4.7-12.4,8.9-17.5h0Z" fill="#7f5334"/>
  </g>
  <g id="boar">
    <g>
      <path d="M745.9,909.9c36.9,116.8,11.4,225.5-54.5,249.8-141.2,52.2-151.2-56.4-188.1-173.2-36.9-116.8-12.5-228.7,54.5-249.8,67-21.2,151.2,56.4,188.1,173.2Z" fill="#663a3c"/>
      <g>
        <circle cx="633" cy="821.6" r="6.6" fill="#fff"/>
        <circle cx="544.9" cy="849.4" r="6.6" fill="#fff"/>
      </g>
      <g>
        <path d="M659.2,893.4c8.2,26.1-14,29.3-40,37.6-26.1,8.2-46.1,18.3-54.4-7.8-8.2-26.1,3.6-62.1,29.7-70.3,26.1-8.2,56.5,14.4,64.7,40.5Z" fill="#fff"/>
        <g>
          <ellipse cx="627.8" cy="897.5" rx="7.8" ry="11.9" transform="translate(-241.2 230.8) rotate(-17.5)" fill="#663a3c"/>
          <ellipse cx="592.8" cy="908.5" rx="7.8" ry="11.9" transform="translate(-246.2 220.8) rotate(-17.5)" fill="#663a3c"/>
        </g>
        <g>
          <path d="M593.5,939.1c-12.8,4-40.5,6-46.5-28.7,32.9,28.6,61.4,23.9,46.5,28.7Z" fill="#fff"/>
          <path d="M644.7,922.9c12.8-4,36.6-18.3,21.6-50.2-10.5,42.3-36.5,54.9-21.6,50.2Z" fill="#fff"/>
        </g>
      </g>
      <g>
        <path d="M519.7,842.2s-49.3-15.5-59.2-31.1c-9.9-15.6-3.3-66.8-3.3-66.8,0,0,49.3,15.5,59.2,31.1,9.9,15.6,3.3,66.8,3.3,66.8Z" fill="#663a3c"/>
        <path d="M649.5,801.2s31.4-41,30.6-59.5c-.8-18.4-35.7-56.5-35.7-56.5,0,0-31.4,41-30.6,59.5s35.7,56.5,35.7,56.5Z" fill="#663a3c"/>
      </g>
    </g>
  </g>
  <g id="trunk1">
    <g>
      <path d="M662.9,1087.9l169.6,2.4,15.5-1107.2c-56.3-2.4-112.7-4.9-169.6-8.8l-15.6,1113.6Z" fill="#45267f"/>
      <g id="tronc-5" data-name="tronc" opacity=".5">
        <path d="M662.9,1087.9l169.6,2.4,15.5-1107.2c-56.3-2.4-112.7-4.9-169.6-8.8l-15.6,1113.6Z" fill="#fff"/>
        <g id="marques-5" data-name="marques">
          <rect x="696.2" y="26.4" width="151.1" height="12.6" transform="translate(.5 -10.8) rotate(.8)" fill="#1d1d1b"/>
          <rect x="761.6" y="82" width="60.2" height="17.4" transform="translate(1.3 -11) rotate(.8)" fill="#1d1d1b"/>
          <rect x="675.5" y="169.7" width="112.1" height="30" transform="translate(2.7 -10.2) rotate(.8)" fill="#1d1d1b"/>
          <rect x="737.6" y="287.5" width="106" height="17.4" transform="translate(4.2 -11) rotate(.8)" fill="#1d1d1b"/>
          <rect x="718.4" y="337.6" width="88.8" height="11.1" transform="translate(4.9 -10.6) rotate(.8)" fill="#1d1d1b"/>
          <rect x="671.9" y="433.4" width="84.8" height="20.5" transform="translate(6.3 -9.9) rotate(.8)" fill="#1d1d1b"/>
          <rect x="689.3" y="516.3" width="151.1" height="17.4" transform="translate(7.4 -10.6) rotate(.8)" fill="#1d1d1b"/>
          <rect x="725.7" y="590.4" width="62.8" height="22.1" transform="translate(8.5 -10.5) rotate(.8)" fill="#1d1d1b"/>
          <rect x="668.8" y="646.6" width="79.6" height="26.9" transform="translate(9.3 -9.8) rotate(.8)" fill="#1d1d1b"/>
          <rect x="730.6" y="783.6" width="106" height="19" transform="translate(11.2 -10.9) rotate(.8)" fill="#1d1d1b"/>
          <rect x="721.6" y="889.2" width="89" height="11.1" transform="translate(12.6 -10.6) rotate(.8)" fill="#1d1d1b"/>
          <rect x="666.2" y="837.8" width="79.6" height="15.8" transform="translate(11.9 -9.8) rotate(.8)" fill="#1d1d1b"/>
          <rect x="714.5" y="993.6" width="119.3" height="14.2" transform="translate(14 -10.7) rotate(.8)" fill="#1d1d1b"/>
        </g>
      </g>
    </g>
  </g>
  <g id="dear_front" data-name="dear front">
    <polygon points="283.5 572 297.5 624.5 309.9 624.5 318.2 565.3 283.5 572" fill="#8e756b"/>
    <polygon points="175.6 616.3 192 586.4 218.6 453 218.1 583 361.2 580.2 377.5 571 415.6 491.3 394.8 388 430.6 471.3 442.3 387.1 446.7 476.5 381.4 597.6 209.6 606.1 196.1 628.9 175.6 616.3" fill="#3d281a"/>
    <ellipse cx="179" cy="683.9" rx="55.6" ry="105.4" transform="translate(-429.9 324.8) rotate(-44.8)" fill="#925f36"/>
    <path d="M113.5,618.3l-12.5-31.7-9.3-135.7-16.2,129-141.6-21.1,18.9-87.6-33.9,76.4-27.6-84,33.9-99.8-46.1,78-37.6-83.4,27.6,103.7,42.7,111.2,169.2,30.3,10.5,24.4s8.8,3.5,13.9.9c7.5-3.9,8-10.7,8-10.7Z" fill="#3d281a"/>
    <path d="M257.3,733.7c4.5,12.7-2.1,26.7-14.8,31.2-12.7,4.5-26.7-2.1-31.2-14.8-4.5-12.7,5.4-19,18.1-23.5s23.5-5.6,28,7.1Z" fill="#2e161b"/>
    <path d="M189.3,758.9s-35.3-7.3-44.8-23.1c-15.7,25.4,5.6,31,44.8,23.1Z" fill="#1d1d1b"/>
    <path d="M191.7,638.4s.9-28.5,7.3-34.8c10.8-10.6,59.5-11.6,59.5-11.6,0,0-10.8,45.2-23.2,52.3-8.3,4.8-38-4-38-4l-5.6-2" fill="#925f36"/>
    <path d="M83.9,649s-34.2,4.7-42.9-1.6c-14.9-10.7-25.9-68.5-25.9-68.5,0,0,42.9-4,63.8,18.4,14.5,15.6,6.2,44.6,6.2,44.6l-1.2,7.1" fill="#925f36"/>
    <path d="M81.7,629.6c-3-26-16.1-30.6-40.7-37.5,0,0-5,20.5,10.3,34.7,15.3,14.2,30.4,2.8,30.4,2.8Z" fill="#7f5334"/>
    <path d="M122,680.8c5.8-1.9,11.8-1.2,16.7,1.5-3-7.6-11.4-11.6-19.3-9-7.8,2.6-12.2,10.9-9.9,18.8,2.3-5.2,6.7-9.4,12.5-11.3Z" fill="#1d1d1b"/>
    <path d="M204.7,643.3c2.6-3.1,6.3-4.2,10-3.5-4.2-5.2-10.3-6-13.9-1.8s-3.2,12,.6,17.6c-.4-4.7.7-9.3,3.3-12.4Z" fill="#1d1d1b"/>
    <g id="Calque_7" data-name="Calque 7">
      <g opacity=".5">
        <rect x="129.2" y="924.8" width="52.5" height="84" transform="translate(76.7 -9.2) rotate(4.5)" fill="#fff"/>
        <path d="M97.6,990.6h29.2v10.5h-18.6c-5.8,0-10.5-4.7-10.5-10.5h0Z" transform="translate(78.8 -5.7) rotate(4.5)" fill="#fff"/>
        <path d="M112.9,930.6h18.6v10.5h-29.2c0-5.8,4.7-10.5,10.5-10.5Z" transform="translate(74.1 -6.3) rotate(4.5)" fill="#fff"/>
        <rect x="100" y="940.4" width="10.5" height="49.6" transform="translate(76.4 -5.3) rotate(4.5)" fill="#fff"/>
      </g>
      <path d="M136.8,938.6l-4.4,56.7c-.2,2.5,1,6.1,3.5,6.4l33.1,2.1c2.8.3,5.3-1.7,5.5-4.5l5.3-63.8-43,3.2Z" fill="#f9c248"/>
      <g>
        <circle cx="145" cy="936.7" r="8.2" fill="#fff"/>
        <circle cx="152.2" cy="933.2" r="8.2" fill="#fff"/>
        <circle cx="159.1" cy="940.9" r="8.2" fill="#fff"/>
        <circle cx="165.1" cy="933.7" r="8.2" fill="#fff"/>
        <circle cx="173.6" cy="937.6" r="8.2" fill="#fff"/>
        <circle cx="175.2" cy="929.3" r="8.2" fill="#fff"/>
      </g>
      <path d="M.9,827.2s22.3,21.9,49.4,72.1c15.6,28.9,49,41.8,60.7,42s20.1,14.1,19.1,23.9c-1,9.8-7.6,25.1-21.2,22.8-13.6-2.4-79-9.3-98.3-61-19.3-51.7-18.4-83.6-9.7-99.8,8.8-16.2,0,0,0,0Z" fill="#7f5334"/>
    </g>
    <polyline points="361.2 580.2 351 491.7 377.5 571" fill="#3d281a"/>
  </g>
  <g id="robin">
    <g>
      <ellipse cx="300.5" cy="542.5" rx="27.2" ry="37.5" fill="#8e756b"/>
      <ellipse cx="300.5" cy="535.2" rx="20.7" ry="28.5" fill="#cc5231"/>
      <polygon points="302.4 513.9 290.7 508.5 300.3 518.5 287.4 523.8 301.7 523.1 302.4 513.9" fill="#1d1d1b"/>
      <circle cx="316" cy="516.2" r="2.3" fill="#1d1d1b"/>
      <circle cx="284.3" cy="512.9" r="2.3" fill="#1d1d1b"/>
      <polygon points="291.2 574.5 292.9 581.7 288 591.9 293.9 584.4 297.1 591.4 295.4 581.8 293 574.3 291.2 574.5" fill="#1d1d1b"/>
      <polygon points="310.3 574.9 308.5 574.5 305.9 581.5 304.9 590.4 307.8 584 314.8 588 308.7 580.9 310.3 574.9" fill="#1d1d1b"/>
    </g>
  </g>
</svg>