<?xml version="1.0" encoding="UTF-8"?>
<svg xmlns="http://www.w3.org/2000/svg" viewBox="0 0 800 2667">
  <g id="sky">
    <rect y="-1413" width="800" height="4080" fill="#3b3a97"/>
  </g>
  <g id="ground">
    <polygon points="-.2 1284.2 357.1 1552.7 476.8 1492.7 596.6 1526.2 800.2 1319.5 800 3286.1 0 3286.1 -.2 1284.2" fill="#123f3f"/>
  </g>
  <g id="moon">
    <g>
      <circle cx="635.6" cy="92.5" r="39" fill="#e7eb0a" opacity=".2"/>
      <path d="M646.4,78.1c3,8.7-1.6,18.2-10.2,21.4-5.9,2.1-12.3.7-16.7-3.1,0,0,0,.2,0,.3,3.2,8.8,12.8,13.3,21.6,10.2,8.8-3.2,13.3-12.8,10.2-21.6-1-2.8-2.7-5.2-4.9-7.1Z" fill="#e7eb0a"/>
    </g>
  </g>
  <g id="trunk5">
    <g>
      <rect id="fond_bleu" data-name="fond bleu" x="409.8" y="-1317.6" width="59.5" height="2019" transform="translate(884.4 -608.6) rotate(-179)" fill="#442c9a"/>
      <g id="tronc" opacity=".2">
        <rect id="fond_tronc" data-name="fond tronc" x="409.8" y="-1317.6" width="59.5" height="2019" transform="translate(884.4 -608.6) rotate(-179)" fill="#fff"/>
        <g id="marques">
          <rect x="410.1" y="663.1" width="42.2" height="9.1" transform="translate(850.7 1342.8) rotate(-179)" fill="#1d1d1b"/>
          <rect x="403.1" y="630" width="20" height="7.8" transform="translate(815.1 1274.9) rotate(-179)" fill="#1d1d1b"/>
          <rect x="419.8" y="594.3" width="28.3" height="5.5" transform="translate(857.4 1201.7) rotate(-179)" fill="#1d1d1b"/>
          <rect x="394.5" y="562.5" width="51.3" height="4.4" transform="translate(830.5 1136.7) rotate(-179)" fill="#1d1d1b"/>
          <rect x="395" y="535.6" width="17.3" height="7.2" transform="translate(797.9 1085.4) rotate(-179)" fill="#1d1d1b"/>
          <rect x="421" y="517.8" width="21.2" height="5" transform="translate(854.1 1048) rotate(-179)" fill="#1d1d1b"/>
          <rect x="413.2" y="484.6" width="42.2" height="5.5" transform="translate(860.1 982.2) rotate(-179)" fill="#1d1d1b"/>
          <rect x="396.5" y="451.4" width="19.8" height="7.2" transform="translate(804.7 916.9) rotate(-179)" fill="#1d1d1b"/>
          <rect x="416.7" y="423" width="31.6" height="5" transform="translate(857.6 858.4) rotate(-179)" fill="#1d1d1b"/>
          <rect x="402.2" y="397.2" width="25" height="4.4" transform="translate(822.4 805.9) rotate(-179)" fill="#1d1d1b"/>
          <rect x="423.7" y="374.3" width="33.7" height="4.4" transform="translate(874.4 760.7) rotate(-179)" fill="#1d1d1b"/>
          <rect x="407.9" y="366.2" width="25.7" height="3.3" transform="translate(834.9 743) rotate(-179)" fill="#1d1d1b"/>
          <rect x="398.5" y="336.3" width="42.7" height="4.4" transform="translate(833.7 684.2) rotate(-179)" fill="#1d1d1b"/>
          <rect x="407.4" y="321.7" width="14" height="3.9" transform="translate(823.2 654.6) rotate(-179)" fill="#1d1d1b"/>
          <rect x="416.3" y="303.8" width="42.3" height="3.3" transform="translate(869.5 618.6) rotate(-179)" fill="#1d1d1b"/>
          <rect x="400.3" y="229.8" width="35.6" height="8.9" transform="translate(832 475.7) rotate(-179)" fill="#1d1d1b"/>
          <rect x="421.1" y="266.1" width="30" height="4.4" transform="translate(867.4 544.2) rotate(-179)" fill="#1d1d1b"/>
          <rect x="447" y="247.6" width="12.6" height="2.8" transform="translate(902.1 505.8) rotate(-179)" fill="#1d1d1b"/>
          <rect x="418.6" y="201.3" width="41.8" height="4.4" transform="translate(875.4 414.7) rotate(-179)" fill="#1d1d1b"/>
          <rect x="414.3" y="178.4" width="33.8" height="3.9" transform="translate(859.3 368.2) rotate(-179)" fill="#1d1d1b"/>
          <rect x="422.9" y="159.2" width="38.2" height="6.7" transform="translate(881.1 332.8) rotate(-179)" fill="#1d1d1b"/>
          <rect x="401.8" y="144.7" width="9.9" height="5.5" transform="translate(810.9 302.1) rotate(-179)" fill="#1d1d1b"/>
          <rect x="432.6" y="464.8" width="23.2" height="1.1" transform="translate(880.3 938.3) rotate(-179)" fill="#1d1d1b"/>
          <rect x="392.3" y="689.2" width="25.7" height="2.8" transform="translate(798.3 1388.2) rotate(-179)" fill="#1d1d1b"/>
          <rect x="415.4" y="115.7" width="29.6" height="6.1" transform="translate(858.3 245.1) rotate(-179)" fill="#1d1d1b"/>
          <rect x="425.7" y="77.7" width="36.8" height="7.2" transform="translate(886.7 170.4) rotate(-179)" fill="#1d1d1b"/>
          <rect x="403.6" y="43.5" width="35.6" height="5" transform="translate(841.9 99.4) rotate(-179)" fill="#1d1d1b"/>
          <rect x="426.7" y="20" width="28.6" height="4.4" transform="translate(881.6 52.1) rotate(-179)" fill="#1d1d1b"/>
          <rect x="404.3" y="1.4" width="35.6" height="4.4" transform="translate(844.1 14.6) rotate(-179)" fill="#1d1d1b"/>
        </g>
      </g>
    </g>
    <g>
      <rect id="fond_bleu-2" data-name="fond bleu" x="374.5" y="701" width="59.5" height="2019" transform="translate(778.7 3427.9) rotate(-179)" fill="#442c9a"/>
      <g id="tronc-2" data-name="tronc" opacity=".2">
        <rect id="fond_tronc-2" data-name="fond tronc" x="374.5" y="701" width="59.5" height="2019" transform="translate(778.7 3427.9) rotate(-179)" fill="#fff"/>
        <g id="marques-2" data-name="marques">
          <rect x="367.9" y="2648.7" width="20" height="7.8" transform="translate(709.4 5311.3) rotate(-179)" fill="#1d1d1b"/>
          <rect x="384.6" y="2613" width="28.3" height="5.5" transform="translate(751.7 5238.1) rotate(-179)" fill="#1d1d1b"/>
          <rect x="359.3" y="2581.2" width="51.3" height="4.4" transform="translate(724.8 5173.1) rotate(-179)" fill="#1d1d1b"/>
          <rect x="359.7" y="2554.3" width="17.3" height="7.2" transform="translate(692.1 5121.8) rotate(-179)" fill="#1d1d1b"/>
          <rect x="385.8" y="2536.5" width="21.2" height="5" transform="translate(748.4 5084.4) rotate(-179)" fill="#1d1d1b"/>
          <rect x="378" y="2503.2" width="42.2" height="5.5" transform="translate(754.4 5018.6) rotate(-179)" fill="#1d1d1b"/>
          <rect x="361.2" y="2470" width="19.8" height="7.2" transform="translate(699 4953.4) rotate(-179)" fill="#1d1d1b"/>
          <rect x="381.5" y="2441.7" width="31.6" height="5" transform="translate(751.9 4894.9) rotate(-179)" fill="#1d1d1b"/>
          <rect x="367" y="2415.8" width="25" height="4.4" transform="translate(716.7 4842.4) rotate(-179)" fill="#1d1d1b"/>
          <rect x="388.4" y="2393" width="33.7" height="4.4" transform="translate(768.7 4797.1) rotate(-179)" fill="#1d1d1b"/>
          <rect x="372.6" y="2384.9" width="25.7" height="3.3" transform="translate(729.2 4779.5) rotate(-179)" fill="#1d1d1b"/>
          <rect x="363.3" y="2354.9" width="42.7" height="4.4" transform="translate(728 4720.7) rotate(-179)" fill="#1d1d1b"/>
          <rect x="372.2" y="2340.4" width="14" height="3.9" transform="translate(717.5 4691) rotate(-179)" fill="#1d1d1b"/>
          <rect x="381.1" y="2322.5" width="42.3" height="3.3" transform="translate(763.8 4655) rotate(-179)" fill="#1d1d1b"/>
          <rect x="365.1" y="2248.4" width="35.6" height="8.9" transform="translate(726.3 4512.1) rotate(-179)" fill="#1d1d1b"/>
          <rect x="385.8" y="2284.8" width="30" height="4.4" transform="translate(761.7 4580.7) rotate(-179)" fill="#1d1d1b"/>
          <rect x="411.7" y="2266.2" width="12.6" height="2.8" transform="translate(796.4 4542.2) rotate(-179)" fill="#1d1d1b"/>
          <rect x="383.4" y="2220" width="41.8" height="4.4" transform="translate(769.7 4451.1) rotate(-179)" fill="#1d1d1b"/>
          <rect x="379.1" y="2197.1" width="33.8" height="3.9" transform="translate(753.6 4404.7) rotate(-179)" fill="#1d1d1b"/>
          <rect x="387.7" y="2177.9" width="38.2" height="6.7" transform="translate(775.4 4369.2) rotate(-179)" fill="#1d1d1b"/>
          <rect x="366.6" y="2163.4" width="9.9" height="5.5" transform="translate(705.2 4338.5) rotate(-179)" fill="#1d1d1b"/>
          <rect x="397.4" y="2483.4" width="23.2" height="1.1" transform="translate(774.5 4974.8) rotate(-179)" fill="#1d1d1b"/>
          <rect x="380.2" y="2134.4" width="29.6" height="6.1" transform="translate(752.6 4281.5) rotate(-179)" fill="#1d1d1b"/>
          <rect x="390.5" y="2096.4" width="36.8" height="7.2" transform="translate(781 4206.8) rotate(-179)" fill="#1d1d1b"/>
          <rect x="368.4" y="2062.2" width="35.6" height="5" transform="translate(736.2 4135.8) rotate(-179)" fill="#1d1d1b"/>
          <rect x="391.5" y="2038.7" width="28.6" height="4.4" transform="translate(775.9 4088.6) rotate(-179)" fill="#1d1d1b"/>
          <rect x="369.1" y="2020.1" width="35.6" height="4.4" transform="translate(738.4 4051) rotate(-179)" fill="#1d1d1b"/>
          <rect x="378.3" y="1991" width="50.9" height="7.2" transform="translate(772.5 3995.9) rotate(-179)" fill="#1d1d1b"/>
          <rect x="378.6" y="1969.7" width="29.7" height="6.1" transform="translate(752.5 3952.1) rotate(-179)" fill="#1d1d1b"/>
          <rect x="393.6" y="1918.5" width="36.8" height="4.4" transform="translate(790.4 3848.3) rotate(-179)" fill="#1d1d1b"/>
          <rect x="370.5" y="1943" width="38.4" height="3.3" transform="translate(745.3 3895.9) rotate(-179)" fill="#1d1d1b"/>
          <rect x="376.2" y="1896" width="42" height="4.4" transform="translate(761.2 3803.1) rotate(-179)" fill="#1d1d1b"/>
          <rect x="399.6" y="1872.5" width="31.6" height="4.4" transform="translate(798 3756.4) rotate(-179)" fill="#1d1d1b"/>
          <rect x="372.4" y="1829.9" width="29.8" height="7.8" transform="translate(742.5 3674) rotate(-179)" fill="#1d1d1b"/>
          <rect x="387.8" y="1798.7" width="44.6" height="5.5" transform="translate(788.8 3609.8) rotate(-179)" fill="#1d1d1b"/>
          <rect x="419" y="1847.7" width="12.6" height="6.1" transform="translate(818.3 3708.7) rotate(-179)" fill="#1d1d1b"/>
          <rect x="373.5" y="1767.3" width="37.2" height="5" transform="translate(753.3 3546.2) rotate(-179)" fill="#1d1d1b"/>
          <rect x="388.9" y="1741.6" width="44.6" height="3.9" transform="translate(791.9 3493.9) rotate(-179)" fill="#1d1d1b"/>
          <rect x="374.3" y="1720.2" width="43.7" height="4.4" transform="translate(762.2 3451.6) rotate(-179)" fill="#1d1d1b"/>
          <rect x="386.6" y="1672.6" width="27" height="5" transform="translate(770.8 3357) rotate(-179)" fill="#1d1d1b"/>
          <rect x="412.6" y="1658.6" width="22.3" height="4.4" transform="translate(818.5 3328.8) rotate(-179)" fill="#1d1d1b"/>
          <rect x="375.8" y="1637" width="29.8" height="3.9" transform="translate(752.7 3284.4) rotate(-179)" fill="#1d1d1b"/>
          <rect x="387.8" y="1604.9" width="16.5" height="4.4" transform="translate(763.9 3220.9) rotate(-179)" fill="#1d1d1b"/>
          <rect x="401.7" y="1580.3" width="34.6" height="5" transform="translate(810.3 3172.8) rotate(-179)" fill="#1d1d1b"/>
          <rect x="377.4" y="1546.7" width="34.7" height="5" transform="translate(762.3 3105) rotate(-179)" fill="#1d1d1b"/>
          <rect x="392.9" y="1511.2" width="44.6" height="5.8" transform="translate(803.9 3035.3) rotate(-179)" fill="#1d1d1b"/>
          <rect x="407.4" y="1532.6" width="17.1" height="4.4" transform="translate(805 3076.7) rotate(-179)" fill="#1d1d1b"/>
          <rect x="378.4" y="1486.3" width="43.7" height="6.1" transform="translate(774.5 2985.5) rotate(-179)" fill="#1d1d1b"/>
          <rect x="396.5" y="1444.3" width="21" height="5" transform="translate(788.7 2900.4) rotate(-179)" fill="#1d1d1b"/>
          <rect x="413.6" y="1456.8" width="24.8" height="5" transform="translate(826.6 2925.8) rotate(-179)" fill="#1d1d1b"/>
          <rect x="379.7" y="1411" width="48.4" height="5.5" transform="translate(783.1 2834.3) rotate(-179)" fill="#1d1d1b"/>
          <rect x="408.2" y="1374.7" width="25.2" height="4.4" transform="translate(817.5 2760.9) rotate(-179)" fill="#1d1d1b"/>
          <rect x="407.9" y="1394.7" width="31.6" height="3.9" transform="translate(823 2800.4) rotate(-179)" fill="#1d1d1b"/>
          <rect x="380.9" y="1347.1" width="40.4" height="3.3" transform="translate(778.5 2704.4) rotate(-179)" fill="#1d1d1b"/>
          <rect x="385.1" y="1309.9" width="20.5" height="6.1" transform="translate(767.8 2632.6) rotate(-179)" fill="#1d1d1b"/>
          <rect x="405.5" y="1320.9" width="35.3" height="5.5" transform="translate(823.1 2654.6) rotate(-179)" fill="#1d1d1b"/>
          <rect x="382" y="1279.5" width="34.7" height="5" transform="translate(776.3 2570.7) rotate(-179)" fill="#1d1d1b"/>
          <rect x="399.8" y="1257.1" width="35.7" height="3.9" transform="translate(813.2 2525.1) rotate(-179)" fill="#1d1d1b"/>
          <rect x="403.6" y="1204.3" width="23.5" height="3.3" transform="translate(809.5 2419.1) rotate(-179)" fill="#1d1d1b"/>
          <rect x="383" y="1225.2" width="37.2" height="3.9" transform="translate(781.7 2461) rotate(-179)" fill="#1d1d1b"/>
          <rect x="387.7" y="1165.5" width="55.9" height="5.5" transform="translate(810.8 2343.7) rotate(-179)" fill="#1d1d1b"/>
          <rect x="384.6" y="1129.8" width="37.2" height="3.9" transform="translate(786.7 2270.4) rotate(-179)" fill="#1d1d1b"/>
          <rect x="390.8" y="1114.8" width="23.9" height="3.9" transform="translate(785.9 2240.4) rotate(-179)" fill="#1d1d1b"/>
          <rect x="409.4" y="1099.7" width="35.3" height="4.4" transform="translate(834.7 2211.2) rotate(-179)" fill="#1d1d1b"/>
          <rect x="385.7" y="1069.5" width="53" height="4.4" transform="translate(805.6 2150.5) rotate(-179)" fill="#1d1d1b"/>
          <rect x="394.7" y="1048.3" width="21.1" height="6.1" transform="translate(792.1 2109.7) rotate(-179)" fill="#1d1d1b"/>
          <rect x="406.8" y="1013.2" width="39.3" height="10.5" transform="translate(835.1 2044.3) rotate(-179)" fill="#1d1d1b"/>
          <rect x="387.3" y="976.3" width="37.2" height="6.1" transform="translate(794.7 1965.6) rotate(-179)" fill="#1d1d1b"/>
          <rect x="400.1" y="960.9" width="31.2" height="3.9" transform="translate(814.6 1932.8) rotate(-179)" fill="#1d1d1b"/>
          <rect x="418" y="924.1" width="29.8" height="7.2" transform="translate(849.5 1862.8) rotate(-179)" fill="#1d1d1b"/>
          <rect x="388.7" y="896" width="53" height="6.1" transform="translate(814.7 1805.3) rotate(-179)" fill="#1d1d1b"/>
          <rect x="407" y="868.4" width="22" height="7.8" transform="translate(820.8 1751.6) rotate(-179)" fill="#1d1d1b"/>
          <rect x="421.1" y="847" width="27.9" height="9.4" transform="translate(855.3 1711) rotate(-179)" fill="#1d1d1b"/>
          <rect x="390.3" y="801.7" width="37.2" height="6.7" transform="translate(803.8 1617) rotate(-179)" fill="#1d1d1b"/>
          <rect x="399.6" y="767.4" width="31.2" height="3.9" transform="translate(817 1545.8) rotate(-179)" fill="#1d1d1b"/>
          <rect x="422.3" y="783.8" width="27.9" height="5.5" transform="translate(858.7 1580.7) rotate(-179)" fill="#1d1d1b"/>
          <rect x="391.6" y="729.6" width="41.9" height="5" transform="translate(812.3 1471.4) rotate(-179)" fill="#1d1d1b"/>
          <rect x="418.5" y="707.8" width="26.5" height="5.5" transform="translate(851 1428.6) rotate(-179)" fill="#1d1d1b"/>
        </g>
      </g>
    </g>
  </g>
  <g id="trunk4">
    <g>
      <rect id="fond_bleu-3" data-name="fond bleu" x="54.1" y="-46.1" width="78.5" height="2662.7" transform="translate(231.5 2566.5) rotate(178)" fill="#442c9a"/>
      <g id="tronc-3" data-name="tronc" opacity=".2">
        <rect id="fond_tronc-3" data-name="fond tronc" x="54.1" y="-46.1" width="78.5" height="2662.7" transform="translate(231.5 2566.5) rotate(178)" fill="#fff"/>
        <g id="marques-3" data-name="marques">
          <rect x="121.9" y="2565" width="55.6" height="12.1" transform="translate(389 5135.2) rotate(178)" fill="#1d1d1b"/>
          <rect x="110.3" y="2522.7" width="26.4" height="10.2" transform="translate(335.2 5049.7) rotate(178)" fill="#1d1d1b"/>
          <rect x="129.8" y="2474.2" width="37.3" height="7.3" transform="translate(383.3 4949.1) rotate(178)" fill="#1d1d1b"/>
          <rect x="94.3" y="2433.2" width="67.7" height="5.8" transform="translate(341.2 4866.4) rotate(178)" fill="#1d1d1b"/>
          <rect x="93.1" y="2398.9" width="22.9" height="9.5" transform="translate(292.9 4802.3) rotate(178)" fill="#1d1d1b"/>
          <rect x="126.1" y="2373.6" width="28" height="6.6" transform="translate(363 4747.4) rotate(178)" fill="#1d1d1b"/>
          <rect x="113.6" y="2329.6" width="55.6" height="7.3" transform="translate(364.1 4660.2) rotate(178)" fill="#1d1d1b"/>
          <rect x="89.2" y="2287.8" width="26.1" height="9.5" transform="translate(284.5 4580.2) rotate(178)" fill="#1d1d1b"/>
          <rect x="113.9" y="2248.6" width="41.6" height="6.6" transform="translate(348 4497.8) rotate(178)" fill="#1d1d1b"/>
          <rect x="93" y="2215.9" width="33" height="5.8" transform="translate(296.3 4432.4) rotate(178)" fill="#1d1d1b"/>
          <rect x="119.7" y="2184" width="44.4" height="5.8" transform="translate(360 4367.6) rotate(178)" fill="#1d1d1b"/>
          <rect x="98.2" y="2174.7" width="33.9" height="4.4" transform="translate(306.2 4348.4) rotate(178)" fill="#1d1d1b"/>
          <rect x="83.9" y="2135.3" width="56.3" height="5.8" transform="translate(298.6 4271.2) rotate(178)" fill="#1d1d1b"/>
          <rect x="94.6" y="2116.6" width="18.5" height="5.1" transform="translate(281.7 4233.3) rotate(178)" fill="#1d1d1b"/>
          <rect x="105.1" y="2091.4" width="55.7" height="4.4" transform="translate(338.9 4181.3) rotate(178)" fill="#1d1d1b"/>
          <rect x="79.1" y="1995.2" width="46.9" height="11.7" transform="translate(274.8 3997.2) rotate(178)" fill="#1d1d1b"/>
          <rect x="108.8" y="2041.8" width="39.6" height="5.8" transform="translate(328.4 4083.7) rotate(178)" fill="#1d1d1b"/>
          <rect x="141.6" y="2016.2" width="16.6" height="3.7" transform="translate(370.1 4029.6) rotate(178)" fill="#1d1d1b"/>
          <rect x="101.1" y="1956.2" width="55.1" height="5.8" transform="translate(325.5 3912.6) rotate(178)" fill="#1d1d1b"/>
          <rect x="93.8" y="1926.6" width="44.6" height="5.1" transform="translate(299.5 3853.2) rotate(178)" fill="#1d1d1b"/>
          <rect x="103.9" y="1900.6" width="50.4" height="8.8" transform="translate(324.5 3804.3) rotate(178)" fill="#1d1d1b"/>
          <rect x="75.1" y="1884" width="13" height="7.3" transform="translate(229 3771.2) rotate(178)" fill="#1d1d1b"/>
          <rect x="137.6" y="2302.9" width="30.6" height="1.5" transform="translate(386 4600.5) rotate(178)" fill="#1d1d1b"/>
          <rect x="100.1" y="2601.2" width="33.9" height="3.7" transform="translate(324.8 5200.3) rotate(178)" fill="#1d1d1b"/>
          <rect x="91" y="1844.2" width="39" height="8" transform="translate(285.5 3691.4) rotate(178)" fill="#1d1d1b"/>
          <rect x="102" y="1793.1" width="48.5" height="9.5" transform="translate(315.1 3590.3) rotate(178)" fill="#1d1d1b"/>
          <rect x="70.4" y="1749.6" width="46.9" height="6.6" transform="translate(248.8 3501.5) rotate(178)" fill="#1d1d1b"/>
          <rect x="99.2" y="1717.3" width="37.8" height="5.8" transform="translate(296.2 3435.3) rotate(178)" fill="#1d1d1b"/>
          <rect x="68.5" y="1694.1" width="46.9" height="5.8" transform="translate(243 3389.8) rotate(178)" fill="#1d1d1b"/>
          <rect x="78.6" y="1654.6" width="67.1" height="9.5" transform="translate(282.1 3313.8) rotate(178)" fill="#1d1d1b"/>
          <rect x="77.6" y="1627.3" width="39.2" height="8" transform="translate(251.3 3258.3) rotate(178)" fill="#1d1d1b"/>
          <rect x="93.7" y="1558.6" width="48.5" height="5.8" transform="translate(290.4 3117.9) rotate(178)" fill="#1d1d1b"/>
          <rect x="64.9" y="1592.5" width="50.6" height="4.4" transform="translate(236 3185.2) rotate(178)" fill="#1d1d1b"/>
          <rect x="69.2" y="1530" width="55.3" height="5.8" transform="translate(247.3 3061.6) rotate(178)" fill="#1d1d1b"/>
          <rect x="98.4" y="1497.8" width="41.7" height="5.8" transform="translate(290.8 2996.4) rotate(178)" fill="#1d1d1b"/>
          <rect x="59.8" y="1443.6" width="39.3" height="10.2" transform="translate(209.3 2893.8) rotate(178)" fill="#1d1d1b"/>
          <rect x="77.9" y="1400.9" width="58.9" height="7.3" transform="translate(263.6 2804.5) rotate(178)" fill="#1d1d1b"/>
          <rect x="122.4" y="1464.5" width="16.6" height="8" transform="translate(312.5 2931.6) rotate(178)" fill="#1d1d1b"/>
          <rect x="56.8" y="1360.9" width="49.1" height="6.6" transform="translate(210.3 2724.6) rotate(178)" fill="#1d1d1b"/>
          <rect x="75.2" y="1325.7" width="58.9" height="5.1" transform="translate(255.6 2652) rotate(178)" fill="#1d1d1b"/>
          <rect x="54.6" y="1298.6" width="57.6" height="5.8" transform="translate(212.3 2599.3) rotate(178)" fill="#1d1d1b"/>
          <rect x="67.5" y="1235.6" width="35.6" height="6.6" transform="translate(213.8 2474.1) rotate(178)" fill="#1d1d1b"/>
          <rect x="100.8" y="1215.5" width="29.4" height="5.8" transform="translate(273.6 2432.1) rotate(178)" fill="#1d1d1b"/>
          <rect x="50.8" y="1189.3" width="39.3" height="5.1" transform="translate(182.4 2380.5) rotate(178)" fill="#1d1d1b"/>
          <rect x="64.4" y="1146.7" width="21.7" height="5.8" transform="translate(190.6 2295.9) rotate(178)" fill="#1d1d1b"/>
          <rect x="81" y="1112.8" width="45.7" height="6.6" transform="translate(246.6 2227.8) rotate(178)" fill="#1d1d1b"/>
          <rect x="46.7" y="1070.1" width="45.8" height="6.6" transform="translate(176.5 2143.7) rotate(178)" fill="#1d1d1b"/>
          <rect x="64.7" y="1022" width="58.9" height="7.7" transform="translate(223.9 2047.8) rotate(178)" fill="#1d1d1b"/>
          <rect x="85.2" y="1050.1" width="22.6" height="5.8" transform="translate(229.8 2102.1) rotate(178)" fill="#1d1d1b"/>
          <rect x="43.9" y="990.2" width="57.6" height="8" transform="translate(180.1 1985.3) rotate(178)" fill="#1d1d1b"/>
          <rect x="64.8" y="934.4" width="27.7" height="6.6" transform="translate(190 1872.1) rotate(178)" fill="#1d1d1b"/>
          <rect x="88.3" y="949.6" width="32.7" height="6.6" transform="translate(242.5 1901.6) rotate(178)" fill="#1d1d1b"/>
          <rect x="40.4" y="890.7" width="63.8" height="7.3" transform="translate(175.8 1785.7) rotate(178)" fill="#1d1d1b"/>
          <rect x="75.4" y="841.8" width="33.2" height="5.8" transform="translate(213.5 1685.6) rotate(178)" fill="#1d1d1b"/>
          <rect x="76.4" y="867.9" width="41.7" height="5.1" transform="translate(224.8 1737) rotate(178)" fill="#1d1d1b"/>
          <rect x="37.4" y="806.9" width="53.3" height="4.4" transform="translate(156.4 1615.4) rotate(178)" fill="#1d1d1b"/>
          <rect x="40.6" y="758.2" width="27.1" height="8" transform="translate(134.9 1522.1) rotate(178)" fill="#1d1d1b"/>
          <rect x="68.1" y="770.8" width="46.6" height="7.3" transform="translate(209.9 1545.3) rotate(178)" fill="#1d1d1b"/>
          <rect x="34.4" y="717.9" width="45.8" height="6.6" transform="translate(139.7 1439.9) rotate(178)" fill="#1d1d1b"/>
          <rect x="56.2" y="687.1" width="47" height="5.1" transform="translate(183.4 1376.1) rotate(178)" fill="#1d1d1b"/>
          <rect x="57.5" y="617.8" width="31" height="4.4" transform="translate(167.6 1237.1) rotate(178)" fill="#1d1d1b"/>
          <rect x="31.8" y="646.2" width="49.1" height="5.1" transform="translate(135.4 1295.2) rotate(178)" fill="#1d1d1b"/>
          <rect x="33.9" y="566.7" width="73.7" height="7.3" transform="translate(161.4 1137.9) rotate(178)" fill="#1d1d1b"/>
          <rect x="27.5" y="520.5" width="49.1" height="5.1" transform="translate(122.2 1044) rotate(178)" fill="#1d1d1b"/>
          <rect x="34.5" y="500.8" width="31.5" height="5.1" transform="translate(118.1 1004.7) rotate(178)" fill="#1d1d1b"/>
          <rect x="57.9" y="479.3" width="46.6" height="5.8" transform="translate(179.3 961.2) rotate(178)" fill="#1d1d1b"/>
          <rect x="24.7" y="440.5" width="69.9" height="5.8" transform="translate(134.7 884.5) rotate(178)" fill="#1d1d1b"/>
          <rect x="35.2" y="413.1" width="27.8" height="8" transform="translate(112.7 832.2) rotate(178)" fill="#1d1d1b"/>
          <rect x="48.9" y="365.3" width="51.8" height="13.9" transform="translate(162.5 741.8) rotate(178)" fill="#1d1d1b"/>
          <rect x="20.4" y="318.1" width="49.1" height="8" transform="translate(101.2 642.5) rotate(178)" fill="#1d1d1b"/>
          <rect x="36.2" y="297.2" width="41.1" height="5.1" transform="translate(123.9 597.4) rotate(178)" fill="#1d1d1b"/>
          <rect x="57.3" y="247.5" width="39.3" height="9.5" transform="translate(162.6 501.6) rotate(178)" fill="#1d1d1b"/>
          <rect x="16.7" y="211.8" width="69.9" height="8" transform="translate(110.9 429.7) rotate(178)" fill="#1d1d1b"/>
          <rect x="39" y="175.1" width="29.1" height="10.2" transform="translate(113.3 358.5) rotate(178)" fill="#1d1d1b"/>
          <rect x="56.2" y="145.9" width="36.8" height="12.4" transform="translate(154.5 301.5) rotate(178)" fill="#1d1d1b"/>
          <rect x="12.4" y="87.9" width="49.1" height="8.8" transform="translate(77.1 183.3) rotate(178)" fill="#1d1d1b"/>
          <rect x="22.2" y="42.4" width="41.2" height="5.1" transform="translate(87.1 88.3) rotate(178)" fill="#1d1d1b"/>
          <rect x="53.2" y="62.6" width="36.8" height="7.3" transform="translate(145.5 129.9) rotate(178)" fill="#1d1d1b"/>
          <rect x="9.1" y="-7.2" width="55.2" height="6.6" transform="translate(73.2 -9.1) rotate(178)" fill="#1d1d1b"/>
        </g>
      </g>
    </g>
  </g>
  <g id="trunk3">
    <g>
      <rect id="fond_bleu-4" data-name="fond bleu" x="543.5" y="-270.5" width="86.3" height="2925.7" transform="translate(-41.3 21.2) rotate(-2)" fill="#442c9a"/>
      <g id="tronc-4" data-name="tronc" opacity=".3">
        <rect id="fond_tronc-4" data-name="fond tronc" x="543.5" y="-270.5" width="86.3" height="2925.7" transform="translate(-41.3 21.2) rotate(-2)" fill="#fff"/>
        <g id="marques-4" data-name="marques">
          <rect x="503.3" y="36.8" width="61.1" height="8" transform="translate(-1.1 18.7) rotate(-2)" fill="#1d1d1b"/>
          <rect x="562.5" y="80.3" width="28.6" height="10.4" transform="translate(-2.6 20.2) rotate(-2)" fill="#1d1d1b"/>
          <rect x="518.2" y="126.5" width="45.8" height="7.2" transform="translate(-4.2 19) rotate(-2)" fill="#1d1d1b"/>
          <rect x="550.8" y="163.3" width="36.2" height="6.4" transform="translate(-5.5 20) rotate(-2)" fill="#1d1d1b"/>
          <rect x="508.9" y="198.4" width="48.8" height="6.4" transform="translate(-6.7 18.7) rotate(-2)" fill="#1d1d1b"/>
          <rect x="544" y="210.2" width="37.2" height="4.8" transform="translate(-7.1 19.8) rotate(-2)" fill="#1d1d1b"/>
          <rect x="535.2" y="251.9" width="61.9" height="6.4" transform="translate(-8.6 19.9) rotate(-2)" fill="#1d1d1b"/>
          <rect x="564.8" y="273.3" width="20.3" height="5.6" transform="translate(-9.3 20.2) rotate(-2)" fill="#1d1d1b"/>
          <rect x="512.5" y="301.7" width="61.2" height="4.8" transform="translate(-10.3 19.1) rotate(-2)" fill="#1d1d1b"/>
          <rect x="550.8" y="399.4" width="51.5" height="12.9" transform="translate(-13.8 20.4) rotate(-2)" fill="#1d1d1b"/>
          <rect x="526.2" y="354.6" width="43.5" height="6.4" transform="translate(-12.2 19.3) rotate(-2)" fill="#1d1d1b"/>
          <rect x="515.3" y="385.2" width="18.3" height="4" transform="translate(-13.2 18.5) rotate(-2)" fill="#1d1d1b"/>
          <rect x="517.6" y="448.7" width="60.5" height="6.4" transform="translate(-15.4 19.4) rotate(-2)" fill="#1d1d1b"/>
          <rect x="537.1" y="481.9" width="49" height="5.6" transform="translate(-16.6 19.9) rotate(-2)" fill="#1d1d1b"/>
          <rect x="519.7" y="506.6" width="55.3" height="9.6" transform="translate(-17.5 19.4) rotate(-2)" fill="#1d1d1b"/>
          <rect x="592.3" y="526.4" width="14.3" height="8" transform="translate(-18.1 21.2) rotate(-2)" fill="#1d1d1b"/>
          <rect x="504.4" y="72.6" width="33.6" height="1.6" transform="translate(-2.2 18.2) rotate(-2)" fill="#1d1d1b"/>
          <rect x="546.3" y="569.4" width="42.9" height="8.8" transform="translate(-19.7 20.2) rotate(-2)" fill="#1d1d1b"/>
          <rect x="523.8" y="623.8" width="53.3" height="10.4" transform="translate(-21.6 19.6) rotate(-2)" fill="#1d1d1b"/>
          <rect x="560.3" y="674.8" width="51.5" height="7.2" transform="translate(-23.3 20.9) rotate(-2)" fill="#1d1d1b"/>
          <rect x="538.6" y="711.1" width="41.5" height="6.4" transform="translate(-24.6 20) rotate(-2)" fill="#1d1d1b"/>
          <rect x="562.4" y="736.7" width="51.5" height="6.4" transform="translate(-25.5 21) rotate(-2)" fill="#1d1d1b"/>
          <rect x="529.1" y="776" width="73.7" height="10.5" transform="translate(-26.9 20.2) rotate(-2)" fill="#1d1d1b"/>
          <rect x="560.8" y="807.6" width="43.1" height="8.8" transform="translate(-28 20.8) rotate(-2)" fill="#1d1d1b"/>
          <rect x="532.9" y="885.6" width="53.3" height="6.4" transform="translate(-30.7 20.1) rotate(-2)" fill="#1d1d1b"/>
          <rect x="562.2" y="849.9" width="55.6" height="4.8" transform="translate(-29.4 21.1) rotate(-2)" fill="#1d1d1b"/>
          <rect x="552.3" y="916.9" width="60.8" height="6.4" transform="translate(-31.8 20.9) rotate(-2)" fill="#1d1d1b"/>
          <rect x="535.2" y="952.3" width="45.9" height="6.4" transform="translate(-33 20.1) rotate(-2)" fill="#1d1d1b"/>
          <rect x="580.3" y="1007.1" width="43.1" height="11.2" transform="translate(-35 21.6) rotate(-2)" fill="#1d1d1b"/>
          <rect x="538.9" y="1057.2" width="64.7" height="8" transform="translate(-36.7 20.6) rotate(-2)" fill="#1d1d1b"/>
          <rect x="536.4" y="986.5" width="18.3" height="8.8" transform="translate(-34.3 19.6) rotate(-2)" fill="#1d1d1b"/>
          <rect x="572.8" y="1102" width="53.9" height="7.2" transform="translate(-38.2 21.6) rotate(-2)" fill="#1d1d1b"/>
          <rect x="541.8" y="1142.3" width="64.7" height="5.6" transform="translate(-39.6 20.7) rotate(-2)" fill="#1d1d1b"/>
          <rect x="565.8" y="1171.2" width="63.3" height="6.4" transform="translate(-40.6 21.6) rotate(-2)" fill="#1d1d1b"/>
          <rect x="575.9" y="1239.6" width="39.1" height="7.2" transform="translate(-43 21.5) rotate(-2)" fill="#1d1d1b"/>
          <rect x="546" y="1262.5" width="32.3" height="6.4" transform="translate(-43.8 20.4) rotate(-2)" fill="#1d1d1b"/>
          <rect x="590.2" y="1292.1" width="43.1" height="5.6" transform="translate(-44.8 22.1) rotate(-2)" fill="#1d1d1b"/>
          <rect x="594.5" y="1338.1" width="23.9" height="6.4" transform="translate(-46.4 22) rotate(-2)" fill="#1d1d1b"/>
          <rect x="550" y="1374.6" width="50.2" height="7.2" transform="translate(-47.7 20.9) rotate(-2)" fill="#1d1d1b"/>
          <rect x="587.6" y="1421.5" width="50.3" height="7.2" transform="translate(-49.4 22.3) rotate(-2)" fill="#1d1d1b"/>
          <rect x="553.4" y="1473.1" width="64.7" height="8.4" transform="translate(-51.2 21.3) rotate(-2)" fill="#1d1d1b"/>
          <rect x="570.7" y="1444.3" width="24.8" height="6.4" transform="translate(-50.2 21.2) rotate(-2)" fill="#1d1d1b"/>
          <rect x="577.6" y="1507.7" width="63.3" height="8.8" transform="translate(-52.4 22.2) rotate(-2)" fill="#1d1d1b"/>
          <rect x="587.5" y="1570.6" width="30.4" height="7.2" transform="translate(-54.6 22) rotate(-2)" fill="#1d1d1b"/>
          <rect x="556.2" y="1553.9" width="36" height="7.2" transform="translate(-54 21) rotate(-2)" fill="#1d1d1b"/>
          <rect x="574.7" y="1617.8" width="70.1" height="8" transform="translate(-56.2 22.3) rotate(-2)" fill="#1d1d1b"/>
          <rect x="569.8" y="1673.2" width="36.5" height="6.4" transform="translate(-58.1 21.5) rotate(-2)" fill="#1d1d1b"/>
          <rect x="559.4" y="1645.3" width="45.9" height="5.6" transform="translate(-57.2 21.3) rotate(-2)" fill="#1d1d1b"/>
          <rect x="589.4" y="1713.1" width="58.6" height="4.8" transform="translate(-59.5 22.6) rotate(-2)" fill="#1d1d1b"/>
          <rect x="614.8" y="1762.6" width="29.7" height="8.8" transform="translate(-61.3 23.1) rotate(-2)" fill="#1d1d1b"/>
          <rect x="563.1" y="1749.5" width="51.2" height="8" transform="translate(-60.8 21.6) rotate(-2)" fill="#1d1d1b"/>
          <rect x="601.1" y="1808.5" width="50.3" height="7.2" transform="translate(-62.9 23) rotate(-2)" fill="#1d1d1b"/>
          <rect x="575.8" y="1843.9" width="51.7" height="5.6" transform="translate(-64.1 22.1) rotate(-2)" fill="#1d1d1b"/>
          <rect x="591.9" y="1920.9" width="34" height="4.8" transform="translate(-66.7 22.4) rotate(-2)" fill="#1d1d1b"/>
          <rect x="600.3" y="1888.9" width="53.9" height="5.6" transform="translate(-65.6 23) rotate(-2)" fill="#1d1d1b"/>
          <rect x="570.9" y="1973.8" width="81" height="8" transform="translate(-68.7 22.5) rotate(-2)" fill="#1d1d1b"/>
          <rect x="605.1" y="2027" width="53.9" height="5.6" transform="translate(-70.5 23.3) rotate(-2)" fill="#1d1d1b"/>
          <rect x="616.6" y="2048.6" width="34.6" height="5.6" transform="translate(-71.2 23.4) rotate(-2)" fill="#1d1d1b"/>
          <rect x="574.3" y="2071.5" width="51.2" height="6.4" transform="translate(-72 22.2) rotate(-2)" fill="#1d1d1b"/>
          <rect x="585.2" y="2114.1" width="76.8" height="6.4" transform="translate(-73.5 23.1) rotate(-2)" fill="#1d1d1b"/>
          <rect x="619.9" y="2141.8" width="30.6" height="8.8" transform="translate(-74.5 23.5) rotate(-2)" fill="#1d1d1b"/>
          <rect x="578.5" y="2187.8" width="57" height="15.3" transform="translate(-76.2 22.5) rotate(-2)" fill="#1d1d1b"/>
          <rect x="612.8" y="2246.2" width="53.9" height="8.8" transform="translate(-78.2 23.7) rotate(-2)" fill="#1d1d1b"/>
          <rect x="604.2" y="2272.3" width="45.2" height="5.6" transform="translate(-79 23.3) rotate(-2)" fill="#1d1d1b"/>
          <rect x="583.1" y="2322.2" width="43.1" height="10.4" transform="translate(-80.9 22.5) rotate(-2)" fill="#1d1d1b"/>
          <rect x="594" y="2363" width="76.8" height="8.8" transform="translate(-82.2 23.5) rotate(-2)" fill="#1d1d1b"/>
          <rect x="614.4" y="2400.8" width="31.9" height="11.2" transform="translate(-83.6 23.5) rotate(-2)" fill="#1d1d1b"/>
          <rect x="586.9" y="2430.6" width="40.5" height="13.7" transform="translate(-84.7 22.7) rotate(-2)" fill="#1d1d1b"/>
          <rect x="621.6" y="2498.3" width="53.9" height="9.6" transform="translate(-87 24.2) rotate(-2)" fill="#1d1d1b"/>
          <rect x="619.6" y="2552.4" width="45.2" height="5.6" transform="translate(-88.8 24) rotate(-2)" fill="#1d1d1b"/>
          <rect x="590.2" y="2527.7" width="40.5" height="8" transform="translate(-88 22.8) rotate(-2)" fill="#1d1d1b"/>
          <rect x="618.6" y="2605.2" width="60.7" height="7.2" transform="translate(-90.6 24.2) rotate(-2)" fill="#1d1d1b"/>
          <rect x="603.5" y="2637.4" width="38.4" height="8" transform="translate(-91.8 23.3) rotate(-2)" fill="#1d1d1b"/>
        </g>
      </g>
    </g>
  </g>
  <g id="garland2">
    <g opacity=".7">
      <g>
        <circle cx="764.8" cy="1013.1" r="79.2" fill="#f0a409" opacity=".3"/>
        <circle cx="764.8" cy="1013.1" r="47.5" fill="#f0a409" opacity=".3"/>
        <circle cx="764.8" cy="1013.1" r="14" fill="#f0a409"/>
      </g>
      <g>
        <circle cx="456.7" cy="1196.5" r="98.3" fill="#e05310" opacity=".3"/>
        <circle cx="456.7" cy="1196.5" r="58.9" fill="#e05310" opacity=".3"/>
        <circle cx="456.7" cy="1196.5" r="14" fill="#e05310"/>
      </g>
      <g>
        <circle cx="-34.4" cy="1238" r="98.3" fill="#e05310" opacity=".3"/>
        <circle cx="-34.4" cy="1238" r="58.9" fill="#e05310" opacity=".3"/>
      </g>
      <g>
        <circle cx="547.4" cy="1153.6" r="101.2" fill="#0ee040" opacity=".3"/>
        <circle cx="547.4" cy="1153.6" r="58.2" fill="#0ee040" opacity=".3"/>
        <circle cx="547.4" cy="1153.6" r="14" fill="#0ee040"/>
      </g>
      <g>
        <circle cx="95.7" cy="1261.4" r="101.2" fill="#0ee040" opacity=".3"/>
        <circle cx="95.7" cy="1261.4" r="58.2" fill="#0ee040" opacity=".3"/>
        <circle cx="95.7" cy="1261.4" r="14" fill="#0ee040"/>
      </g>
      <g>
        <circle cx="652.4" cy="1092.3" r="94.1" fill="#e7eb0a" opacity=".3"/>
        <circle cx="652.4" cy="1092.3" r="47.5" fill="#e7eb0a" opacity=".3"/>
        <circle cx="652.4" cy="1092.3" r="14" fill="#e7eb0a"/>
      </g>
      <g>
        <circle cx="214.6" cy="1249.6" r="94.1" fill="#e7eb0a" opacity=".3"/>
        <circle cx="214.6" cy="1249.6" r="47.5" fill="#e7eb0a" opacity=".3"/>
        <circle cx="214.6" cy="1249.6" r="14" fill="#e7eb0a"/>
      </g>
      <g>
        <circle cx="346.2" cy="1230" r="81.5" fill="#f0a409" opacity=".3"/>
        <circle cx="346.2" cy="1230" r="41.2" fill="#f0a409" opacity=".3"/>
        <circle cx="346.2" cy="1230" r="14" fill="#f0a409"/>
      </g>
      <path d="M832.3,893c-82.7,126.8-368.9,405.5-862.9,329" fill="none" stroke="#1d1d1b" stroke-miterlimit="10" stroke-width="3"/>
    </g>
  </g>
  <g id="trunk2">
    <g>
      <rect id="fond_bleu-5" data-name="fond bleu" x="175.7" y="-1130.2" width="113.1" height="3835.4" transform="translate(-13.7 4.2) rotate(-1)" fill="#442c9a"/>
      <g id="tronc-5" data-name="tronc" opacity=".4">
        <rect id="fond_tronc-5" data-name="fond tronc" x="175.7" y="-1130.2" width="113.1" height="3835.4" transform="translate(-13.7 4.2) rotate(-1)" fill="#fff"/>
        <g id="marques-5" data-name="marques">
          <rect x="162.8" y="41.5" width="69.9" height="13.7" transform="translate(-.8 3.5) rotate(-1)" fill="#1d1d1b"/>
          <rect x="209.5" y="109.2" width="67.5" height="9.5" transform="translate(-2 4.3) rotate(-1)" fill="#1d1d1b"/>
          <rect x="180.3" y="156.2" width="54.4" height="8.4" transform="translate(-2.8 3.6) rotate(-1)" fill="#1d1d1b"/>
          <rect x="210.9" y="190.3" width="67.5" height="8.4" transform="translate(-3.4 4.3) rotate(-1)" fill="#1d1d1b"/>
          <rect x="166.3" y="241.4" width="96.6" height="13.7" transform="translate(-4.3 3.8) rotate(-1)" fill="#1d1d1b"/>
          <rect x="207.1" y="283.1" width="56.5" height="11.6" transform="translate(-5 4.2) rotate(-1)" fill="#1d1d1b"/>
          <rect x="168.7" y="384.8" width="69.9" height="8.4" transform="translate(-6.8 3.6) rotate(-1)" fill="#1d1d1b"/>
          <rect x="208" y="338.8" width="72.9" height="6.3" transform="translate(-5.9 4.3) rotate(-1)" fill="#1d1d1b"/>
          <rect x="193.4" y="426.4" width="79.7" height="8.4" transform="translate(-7.5 4.1) rotate(-1)" fill="#1d1d1b"/>
          <rect x="170.2" y="472.3" width="60.1" height="8.4" transform="translate(-8.3 3.6) rotate(-1)" fill="#1d1d1b"/>
          <rect x="228.1" y="545.1" width="56.5" height="14.7" transform="translate(-9.6 4.6) rotate(-1)" fill="#1d1d1b"/>
          <rect x="172.7" y="610" width="84.8" height="10.5" transform="translate(-10.7 3.8) rotate(-1)" fill="#1d1d1b"/>
          <rect x="171" y="516.8" width="24" height="11.6" transform="translate(-9.1 3.3) rotate(-1)" fill="#1d1d1b"/>
          <rect x="216.1" y="669.4" width="70.7" height="9.5" transform="translate(-11.7 4.5) rotate(-1)" fill="#1d1d1b"/>
          <rect x="174.6" y="721.7" width="84.8" height="7.4" transform="translate(-12.6 3.9) rotate(-1)" fill="#1d1d1b"/>
          <rect x="205.3" y="760.1" width="83" height="8.4" transform="translate(-13.3 4.4) rotate(-1)" fill="#1d1d1b"/>
          <rect x="217" y="849.7" width="51.2" height="9.5" transform="translate(-14.9 4.4) rotate(-1)" fill="#1d1d1b"/>
          <rect x="177.3" y="878.9" width="42.4" height="8.4" transform="translate(-15.4 3.6) rotate(-1)" fill="#1d1d1b"/>
          <rect x="234.6" y="918.9" width="56.5" height="7.4" transform="translate(-16.1 4.7) rotate(-1)" fill="#1d1d1b"/>
          <rect x="239.2" y="979.1" width="31.3" height="8.4" transform="translate(-17.1 4.6) rotate(-1)" fill="#1d1d1b"/>
          <rect x="179.9" y="1026.2" width="65.8" height="9.5" transform="translate(-18 3.9) rotate(-1)" fill="#1d1d1b"/>
          <rect x="228.2" y="1088.5" width="65.9" height="9.5" transform="translate(-19 4.7) rotate(-1)" fill="#1d1d1b"/>
          <rect x="182.2" y="1155.5" width="84.8" height="11.1" transform="translate(-20.2 4.1) rotate(-1)" fill="#1d1d1b"/>
          <rect x="205.5" y="1117.6" width="32.6" height="8.4" transform="translate(-19.5 4) rotate(-1)" fill="#1d1d1b"/>
          <rect x="213.1" y="1201.3" width="83" height="11.6" transform="translate(-21 4.6) rotate(-1)" fill="#1d1d1b"/>
          <rect x="224.7" y="1283.7" width="39.9" height="9.5" transform="translate(-22.4 4.5) rotate(-1)" fill="#1d1d1b"/>
          <rect x="184" y="1261.1" width="47.1" height="9.5" transform="translate(-22.1 3.8) rotate(-1)" fill="#1d1d1b"/>
          <rect x="206.7" y="1345.7" width="91.9" height="10.5" transform="translate(-23.5 4.6) rotate(-1)" fill="#1d1d1b"/>
          <rect x="199.1" y="1417.8" width="47.8" height="8.4" transform="translate(-24.8 4.1) rotate(-1)" fill="#1d1d1b"/>
          <rect x="186.1" y="1381.1" width="60.1" height="7.4" transform="translate(-24.1 4) rotate(-1)" fill="#1d1d1b"/>
          <rect x="223.9" y="1470.9" width="76.8" height="6.3" transform="translate(-25.7 4.8) rotate(-1)" fill="#1d1d1b"/>
          <rect x="256" y="1535.9" width="39" height="11.6" transform="translate(-26.9 5) rotate(-1)" fill="#1d1d1b"/>
          <rect x="188.5" y="1517.9" width="67.1" height="10.5" transform="translate(-26.5 4.1) rotate(-1)" fill="#1d1d1b"/>
          <rect x="237" y="1596.1" width="65.9" height="9.5" transform="translate(-27.9 5) rotate(-1)" fill="#1d1d1b"/>
          <rect x="203" y="1641.9" width="67.7" height="7.4" transform="translate(-28.7 4.4) rotate(-1)" fill="#1d1d1b"/>
          <rect x="222.5" y="1742.9" width="44.6" height="6.3" transform="translate(-30.4 4.5) rotate(-1)" fill="#1d1d1b"/>
          <rect x="234.1" y="1701.4" width="70.7" height="7.4" transform="translate(-29.7 5) rotate(-1)" fill="#1d1d1b"/>
          <rect x="193.7" y="1812.4" width="106.1" height="10.5" transform="translate(-31.7 4.6) rotate(-1)" fill="#1d1d1b"/>
          <rect x="237.3" y="1882.5" width="70.7" height="7.4" transform="translate(-32.9 5) rotate(-1)" fill="#1d1d1b"/>
          <rect x="251.9" y="1911" width="45.4" height="7.4" transform="translate(-33.4 5.1) rotate(-1)" fill="#1d1d1b"/>
          <rect x="195.9" y="1940.2" width="67.1" height="8.4" transform="translate(-33.9 4.3) rotate(-1)" fill="#1d1d1b"/>
          <rect x="209.2" y="1996.5" width="100.7" height="8.4" transform="translate(-34.9 4.8) rotate(-1)" fill="#1d1d1b"/>
          <rect x="254.1" y="2033.1" width="40.1" height="11.6" transform="translate(-35.5 5.1) rotate(-1)" fill="#1d1d1b"/>
          <rect x="198.6" y="2092.8" width="74.7" height="20" transform="translate(-36.7 4.4) rotate(-1)" fill="#1d1d1b"/>
          <rect x="242.3" y="2170" width="70.7" height="11.6" transform="translate(-37.9 5.2) rotate(-1)" fill="#1d1d1b"/>
          <rect x="230.5" y="2204" width="59.2" height="7.4" transform="translate(-38.5 4.9) rotate(-1)" fill="#1d1d1b"/>
          <rect x="201.6" y="2268.8" width="56.5" height="13.7" transform="translate(-39.7 4.4) rotate(-1)" fill="#1d1d1b"/>
          <rect x="215" y="2323" width="100.7" height="11.6" transform="translate(-40.6 5) rotate(-1)" fill="#1d1d1b"/>
          <rect x="240.8" y="2372.5" width="41.9" height="14.7" transform="translate(-41.5 4.9) rotate(-1)" fill="#1d1d1b"/>
          <rect x="204.2" y="2411" width="53.1" height="17.9" transform="translate(-42.2 4.4) rotate(-1)" fill="#1d1d1b"/>
          <rect x="248.1" y="2500.7" width="70.7" height="12.6" transform="translate(-43.7 5.3) rotate(-1)" fill="#1d1d1b"/>
          <rect x="244.2" y="2571.4" width="59.3" height="7.4" transform="translate(-44.9 5.2) rotate(-1)" fill="#1d1d1b"/>
          <rect x="206.3" y="2538.4" width="53.1" height="10.5" transform="translate(-44.4 4.5) rotate(-1)" fill="#1d1d1b"/>
          <rect x="241.7" y="2640.8" width="79.5" height="9.5" transform="translate(-46.1 5.3) rotate(-1)" fill="#1d1d1b"/>
        </g>
      </g>
    </g>
  </g>
  <g id="garland1">
    <g opacity=".9">
      <g>
        <circle cx="1.3" cy="1635.7" r="88.4" fill="#f0a409" opacity=".3"/>
        <circle cx="1.3" cy="1635.7" r="44.7" fill="#f0a409" opacity=".3"/>
        <circle cx="1.3" cy="1635.7" r="15.6" fill="#f0a409"/>
      </g>
      <circle cx="308.8" cy="1892.1" r="109.8" fill="#e05310" opacity=".2"/>
      <circle cx="308.8" cy="1892.1" r="65.8" fill="#e05310" opacity=".3"/>
      <circle cx="308.8" cy="1892.1" r="15.6" fill="#e05310"/>
      <circle cx="816.7" cy="2026.9" r="109.9" fill="#e05310" opacity=".2"/>
      <circle cx="816.7" cy="2026.9" r="53" fill="#e05310" opacity=".3"/>
      <circle cx="216.3" cy="1828.9" r="113.1" fill="#0ee040" opacity=".2"/>
      <circle cx="216.3" cy="1828.9" r="65" fill="#0ee040" opacity=".3"/>
      <circle cx="216.3" cy="1828.9" r="15.6" fill="#0ee040"/>
      <circle cx="686.7" cy="2013.6" r="105.9" fill="#0ee040" opacity=".2"/>
      <circle cx="686.7" cy="2013.6" r="61.6" fill="#0ee040" opacity=".3"/>
      <circle cx="686.7" cy="2013.6" r="15.6" fill="#0ee040"/>
      <circle cx="111.3" cy="1742.7" r="105" fill="#e7eb0a" opacity=".2"/>
      <circle cx="111.3" cy="1742.7" r="53" fill="#e7eb0a" opacity=".3"/>
      <circle cx="111.3" cy="1742.7" r="15.6" fill="#e7eb0a"/>
      <circle cx="573.8" cy="1988.1" r="103.1" fill="#e7eb0a" opacity=".2"/>
      <circle cx="573.8" cy="1988.1" r="61.7" fill="#e7eb0a" opacity=".3"/>
      <circle cx="573.8" cy="1988.1" r="15.6" fill="#e7eb0a"/>
      <circle cx="424.7" cy="1948.5" r="91.1" fill="#f0a409" opacity=".2"/>
      <circle cx="424.7" cy="1948.5" r="46" fill="#f0a409" opacity=".3"/>
      <circle cx="424.7" cy="1948.5" r="15.6" fill="#f0a409"/>
      <path d="M-51.9,1491.3c68.8,154.4,335.4,512.2,893.6,514.8" fill="none" stroke="#1d1d1b" stroke-miterlimit="10" stroke-width="6"/>
    </g>
  </g>
  <g id="deer_back" data-name="deer back">
    <path d="M320.2,2368.8c10.9,810.6-180.5,425.4-294.3,402.8-113.7-22.6-244.4,152.4-117.5-484.8,48.8-245.1,180.5-425.4,294.3-402.8,113.7,22.6,114.2,237.7,117.5,484.8Z" fill="#925f36"/>
    <path d="M123.3,2172.9c-2.6,12-5.1,23.3-6.1,35.4-.4,4-.6,8-1.1,12.3-8.1-14.6-4.8-36.1,7.2-47.7h0Z" fill="#7f5334"/>
    <path d="M65,2396.4c-.3,10.7.5,20.7,2.2,31.1,1.6,10.4,4,20.7,4.6,31.4-10.3-17.7-17-43.6-6.8-62.6h0Z" fill="#7f5334"/>
    <path d="M145,2375.8c-1.5,12.4-3.1,24.3-3.6,36.6-.6,12.3,0,24.3.5,36.8-10.5-22.2-9.2-52.2,3.1-73.4h0Z" fill="#7f5334"/>
    <path d="M266.5,2219.5c6.7,19.1,6.5,44.6-.8,63.6-1.2-10.7-1-21.2-.9-31.8.2-10.7.3-21.1,1.7-31.8h0Z" fill="#7f5334"/>
    <path d="M238.5,2355.2c3.2,18.3,1.6,43.4-3.9,61.1-3.3-18.3-1.6-43.4,3.9-61.1h0Z" fill="#7f5334"/>
    <path d="M183.2,2226.8c4.8,17.2,5.5,41.3,1.5,58.7-4.9-17.2-5.4-41.3-1.5-58.7h0Z" fill="#7f5334"/>
    <path d="M85.4,2276.9c-.9,15.4-3.1,34-4.2,49.4-.5,5.5-.9,11-1.7,16.6-1.9-5.4-2.9-11-3.4-16.6-1.3-16.8,1.2-34.4,9.3-49.4h0Z" fill="#7f5334"/>
    <path d="M39.3,2182.3c-3.1,11.8-6.9,22.9-10.2,34.5-3.5,11.5-6.4,23-10.2,34.5-2.3-23.2,5.9-50.7,20.4-69h0Z" fill="#7f5334"/>
  </g>
  <g id="boar">
    <g>
      <path d="M739.1,2471.7c51.7,163.5,16,315.6-76.3,349.7-197.6,73.1-211.7-78.9-263.4-242.4-51.7-163.5-17.5-320.1,76.3-349.7,93.8-29.6,211.7,78.9,263.4,242.4Z" fill="#663a3c"/>
      <g>
        <circle cx="581.1" cy="2347.9" r="9.3" fill="#fff"/>
        <circle cx="457.7" cy="2386.9" r="9.3" fill="#fff"/>
      </g>
      <g>
        <path d="M617.7,2448.6c11.5,36.5-19.6,41.1-56,52.6-36.5,11.5-64.6,25.6-76.1-10.9-11.5-36.5,5.1-86.9,41.6-98.5,36.5-11.5,79,20.2,90.6,56.7Z" fill="#fff"/>
        <g>
          <ellipse cx="573.8" cy="2454.2" rx="10.9" ry="16.7" transform="translate(-712.7 286.9) rotate(-17.5)" fill="#663a3c"/>
          <ellipse cx="524.7" cy="2469.7" rx="10.9" ry="16.7" transform="translate(-719.7 272.8) rotate(-17.5)" fill="#663a3c"/>
        </g>
        <g>
          <path d="M525.8,2512.5c-17.9,5.7-56.6,8.5-65.1-40.1,46.1,40,86,33.5,65.1,40.1Z" fill="#fff"/>
          <path d="M597.5,2489.8c17.9-5.7,51.2-25.6,30.2-70.2-14.7,59.3-51.2,76.8-30.2,70.2Z" fill="#fff"/>
        </g>
      </g>
      <g>
        <path d="M422.5,2376.8s-69-21.8-82.9-43.5c-13.9-21.8-4.6-93.5-4.6-93.5,0,0,69,21.8,82.9,43.5,13.9,21.8,4.6,93.5,4.6,93.5Z" fill="#663a3c"/>
        <path d="M604.1,2319.4s44-57.4,42.8-83.3c-1.1-25.8-50-79.2-50-79.2,0,0-44,57.4-42.8,83.3,1.1,25.8,50,79.2,50,79.2Z" fill="#663a3c"/>
      </g>
    </g>
  </g>
  <g id="trunk1">
    <g>
      <rect id="fond_bleu-6" data-name="fond bleu" x="669.5" y="-3919" width="196.8" height="6675.2" transform="translate(-8 -10.8) rotate(.8)" fill="#45267f"/>
      <g id="tronc-6" data-name="tronc" opacity=".5">
        <rect id="fond_tronc-6" data-name="fond tronc" x="669.5" y="-3919" width="196.8" height="6675.2" transform="translate(-8 -10.8) rotate(.8)" fill="#fff"/>
        <g id="marques-6" data-name="marques">
          <rect x="660.4" y="58.3" width="147.6" height="19.2" transform="translate(1 -10.2) rotate(.8)" fill="#1d1d1b"/>
          <rect x="703.1" y="-7.7" width="56.7" height="14.7" transform="translate(0 -10.2) rotate(.8)" fill="#1d1d1b"/>
          <rect x="711.6" y="139.7" width="144.5" height="20.2" transform="translate(2.2 -10.9) rotate(.8)" fill="#1d1d1b"/>
          <rect x="727.3" y="282.4" width="69.4" height="16.5" transform="translate(4.1 -10.6) rotate(.8)" fill="#1d1d1b"/>
          <rect x="657.9" y="241.1" width="82.1" height="16.5" transform="translate(3.6 -9.7) rotate(.8)" fill="#1d1d1b"/>
          <rect x="692.7" y="390.7" width="159.9" height="18.3" transform="translate(5.7 -10.7) rotate(.8)" fill="#1d1d1b"/>
          <rect x="675.6" y="514.5" width="83.2" height="14.7" transform="translate(7.4 -10) rotate(.8)" fill="#1d1d1b"/>
          <rect x="655" y="450.2" width="104.6" height="12.8" transform="translate(6.4 -9.8) rotate(.8)" fill="#1d1d1b"/>
          <rect x="715.9" y="608.9" width="133.7" height="11" transform="translate(8.7 -10.9) rotate(.8)" fill="#1d1d1b"/>
          <rect x="768" y="722.9" width="67.8" height="20.2" transform="translate(10.3 -11.1) rotate(.8)" fill="#1d1d1b"/>
          <rect x="651.6" y="688.6" width="116.9" height="18.3" transform="translate(9.8 -9.8) rotate(.8)" fill="#1d1d1b"/>
          <rect x="731.7" y="827.2" width="114.8" height="16.5" transform="translate(11.7 -10.9) rotate(.8)" fill="#1d1d1b"/>
          <rect x="670.2" y="905.2" width="117.9" height="12.8" transform="translate(12.8 -10.1) rotate(.8)" fill="#1d1d1b"/>
          <rect x="698.5" y="1081.3" width="77.7" height="11" transform="translate(15.2 -10.2) rotate(.8)" fill="#1d1d1b"/>
          <rect x="720.9" y="1010.4" width="123" height="12.8" transform="translate(14.3 -10.8) rotate(.8)" fill="#1d1d1b"/>
          <rect x="644.4" y="1202.3" width="184.7" height="18.3" transform="translate(17 -10.2) rotate(.8)" fill="#1d1d1b"/>
          <rect x="716.5" y="1325.7" width="123" height="12.8" transform="translate(18.7 -10.7) rotate(.8)" fill="#1d1d1b"/>
          <rect x="740.5" y="1375.2" width="79" height="12.8" transform="translate(19.4 -10.8) rotate(.8)" fill="#1d1d1b"/>
          <rect x="641.4" y="1423.6" width="116.9" height="14.7" transform="translate(20 -9.6) rotate(.8)" fill="#1d1d1b"/>
          <rect x="661.5" y="1523.2" width="175.2" height="14.7" transform="translate(21.4 -10.3) rotate(.8)" fill="#1d1d1b"/>
          <rect x="737.4" y="1587.7" width="69.8" height="20.2" transform="translate(22.4 -10.6) rotate(.8)" fill="#1d1d1b"/>
          <rect x="637.5" y="1689.4" width="130" height="34.8" transform="translate(23.9 -9.6) rotate(.8)" fill="#1d1d1b"/>
          <rect x="709.5" y="1826" width="123" height="20.2" transform="translate(25.7 -10.6) rotate(.8)" fill="#1d1d1b"/>
          <rect x="687.2" y="1884.2" width="103.1" height="12.8" transform="translate(26.5 -10.1) rotate(.8)" fill="#1d1d1b"/>
          <rect x="633.3" y="1995.3" width="98.4" height="23.8" transform="translate(28.1 -9.3) rotate(.8)" fill="#1d1d1b"/>
          <rect x="653.6" y="2091.4" width="175.2" height="20.2" transform="translate(29.4 -10.1) rotate(.8)" fill="#1d1d1b"/>
          <rect x="695.7" y="2177.4" width="72.9" height="25.7" transform="translate(30.7 -10) rotate(.8)" fill="#1d1d1b"/>
          <rect x="629.8" y="2242.7" width="92.3" height="31.2" transform="translate(31.6 -9.2) rotate(.8)" fill="#1d1d1b"/>
          <rect x="701.5" y="2401.5" width="123" height="22" transform="translate(33.8 -10.4) rotate(.8)" fill="#1d1d1b"/>
          <rect x="691" y="2524.1" width="103.2" height="12.8" transform="translate(35.4 -10.1) rotate(.8)" fill="#1d1d1b"/>
          <rect x="626.8" y="2464.4" width="92.3" height="18.3" transform="translate(34.6 -9.2) rotate(.8)" fill="#1d1d1b"/>
          <rect x="682.7" y="2645.2" width="138.4" height="16.5" transform="translate(37.1 -10.2) rotate(.8)" fill="#1d1d1b"/>
        </g>
      </g>
    </g>
  </g>
  <g id="dear_front" data-name="dear front">
    <polygon points="477.2 1826.6 503.3 1924.4 526.3 1924.4 541.8 1814.2 477.2 1826.6" fill="#8e756b"/>
    <polygon points="276.3 1909.2 306.8 1853.6 356.2 1605.2 355.4 1847.2 621.8 1842 652.1 1824.9 723.1 1676.4 684.3 1484.1 750.9 1639.2 772.7 1482.4 780.8 1648.9 659.3 1874.3 339.6 1890.1 314.3 1932.5 276.3 1909.2" fill="#3d281a"/>
    <ellipse cx="282.5" cy="2035" rx="103.5" ry="196.2" transform="translate(-1352 790.2) rotate(-44.8)" fill="#925f36"/>
    <path d="M160.6,1912.8l-23.2-59-17.3-252.6-30.1,240.1-263.5-39.2,35.2-163.1-63.1,142.3-51.4-156.3,63-185.7-85.8,145.3-70.1-155.2,51.4,193.1,79.5,207.1,315.1,56.4,19.6,45.3s16.3,6.6,25.8,1.7c14-7.3,14.9-20,14.9-20Z" fill="#3d281a"/>
    <path d="M428.3,2127.6c8.4,23.7-3.9,49.7-27.6,58.2-23.7,8.4-49.7-3.9-58.2-27.6-8.4-23.7,10-35.3,33.7-43.7,23.7-8.4,43.7-10.5,52.1,13.2Z" fill="#2e161b"/>
    <path d="M301.7,2174.5s-65.7-13.6-83.4-43c-29.1,47.2,10.4,57.6,83.4,43Z" fill="#1d1d1b"/>
    <path d="M306.1,1950.3s1.8-53.1,13.5-64.8c20.1-19.8,110.7-21.6,110.7-21.6,0,0-20.1,84.1-43.2,97.4-15.4,8.9-70.7-7.4-70.7-7.4l-10.4-3.7" fill="#925f36"/>
    <path d="M105.5,1970s-63.6,8.7-79.8-3c-27.7-19.9-48.2-127.4-48.2-127.4,0,0,79.9-7.5,118.7,34.2,27,29,11.5,83.1,11.5,83.1l-2.3,13.2" fill="#925f36"/>
    <path d="M101.4,1933.8c-5.6-48.3-30.1-56.9-75.8-69.9,0,0-9.3,38.1,19.2,64.6,28.5,26.5,56.6,5.3,56.6,5.3Z" fill="#7f5334"/>
    <path d="M176.4,2029.3c10.7-3.6,22-2.3,31.2,2.8-5.6-14.1-21.3-21.6-35.9-16.7-14.6,4.9-22.6,20.3-18.5,35,4.3-9.6,12.4-17.4,23.2-21Z" fill="#1d1d1b"/>
    <path d="M330.3,1959.4c4.9-5.8,11.7-7.9,18.6-6.4-7.9-9.7-19.3-11.2-25.9-3.3-6.6,7.9-6,22.4,1.2,32.8-.8-8.8,1.2-17.2,6.1-23.1Z" fill="#1d1d1b"/>
    <g id="Calque_7" data-name="Calque 7">
      <g opacity=".5">
        <rect x="189.9" y="2483.5" width="97.7" height="156.3" transform="translate(202.6 -10.8) rotate(4.5)" fill="#fff"/>
        <path d="M131.1,2606h54.3v19.6h-34.7c-10.8,0-19.6-8.8-19.6-19.6h0Z" transform="translate(206.6 -4.3) rotate(4.5)" fill="#fff"/>
        <path d="M159.5,2494.4h34.7v19.6h-54.3c0-10.8,8.8-19.6,19.6-19.6Z" transform="translate(197.8 -5.4) rotate(4.5)" fill="#fff"/>
        <rect x="135.5" y="2512.4" width="19.5" height="92.4" transform="translate(202.1 -3.5) rotate(4.5)" fill="#fff"/>
      </g>
      <path d="M203.9,2509.1l-8.1,105.5c-.4,4.7,1.8,11.4,6.5,11.9l61.6,3.9c5.2.6,9.8-3.3,10.2-8.4l9.9-118.8-80,5.9Z" fill="#f9c248"/>
      <g>
        <circle cx="219.3" cy="2505.7" r="15.2" fill="#fff"/>
        <circle cx="232.7" cy="2499.1" r="15.2" fill="#fff"/>
        <circle cx="245.5" cy="2513.4" r="15.2" fill="#fff"/>
        <circle cx="256.7" cy="2500" r="15.2" fill="#fff"/>
        <circle cx="272.5" cy="2507.3" r="15.2" fill="#fff"/>
        <circle cx="275.5" cy="2491.8" r="15.2" fill="#fff"/>
      </g>
      <path d="M-49.1,2301.7s41.5,40.7,91.9,134.2c29,53.7,91.3,77.9,113,78.3s37.5,26.2,35.6,44.5c-1.9,18.2-14.1,46.8-39.5,42.4-25.4-4.4-147.1-17.3-183-113.5-35.9-96.2-34.3-155.6-18-185.8,16.3-30.2,0,0,0,0Z" fill="#7f5334"/>
    </g>
    <polyline points="621.8 1842 602.8 1677.2 652.1 1824.9" fill="#3d281a"/>
  </g>
  <g id="robin">
    <g>
      <ellipse cx="508.8" cy="1771.8" rx="50.7" ry="69.8" fill="#8e756b"/>
      <ellipse cx="508.8" cy="1758.2" rx="38.5" ry="53.1" fill="#cc5231"/>
      <polygon points="512.3 1718.5 490.4 1708.5 508.5 1727.1 484.3 1737 511 1735.7 512.3 1718.5" fill="#1d1d1b"/>
      <circle cx="537.7" cy="1722.7" r="4.3" fill="#1d1d1b"/>
      <circle cx="478.7" cy="1716.7" r="4.3" fill="#1d1d1b"/>
      <polygon points="491.3 1831.4 494.5 1844.7 485.5 1863.7 496.5 1849.7 502.4 1862.9 499.2 1844.9 494.9 1831 491.3 1831.4" fill="#1d1d1b"/>
      <polygon points="526.9 1832.1 523.6 1831.3 518.8 1844.4 516.9 1861 522.3 1849 535.3 1856.4 524 1843.3 526.9 1832.1" fill="#1d1d1b"/>
    </g>
  </g>
</svg>