<?xml version="1.0" encoding="UTF-8"?>
<svg id="_1-3" data-name="1-3" xmlns="http://www.w3.org/2000/svg" xmlns:xlink="http://www.w3.org/1999/xlink" viewBox="0 0 820 820">
  <defs>
    <clipPath id="clippath">
      <circle cx="410" cy="410" r="383.5" fill="none"/>
    </clipPath>
  </defs>
  <g clip-path="url(#clippath)">
    <circle cx="410" cy="410" r="336.7" fill="none" stroke="#dab952" stroke-miterlimit="10" stroke-width="16.4"/>
    <g>
      <ellipse cx="410.8" cy="735.7" rx="354.5" ry="618.1" fill="#663a3c"/>
      <g>
        <circle cx="539.5" cy="406" r="18.5" fill="#fff"/>
        <circle cx="282.1" cy="406" r="18.5" fill="#fff"/>
      </g>
      <g>
        <path d="M548.7,619c0,76.2-61.7,66.2-137.9,66.2s-137.9,9.9-137.9-66.2,61.7-162,137.9-162,137.9,85.8,137.9,162Z" fill="#fff"/>
        <g>
          <ellipse cx="462" cy="603.3" rx="21.8" ry="33.3" fill="#663a3c"/>
          <ellipse cx="359.6" cy="603.3" rx="21.8" ry="33.3" fill="#663a3c"/>
        </g>
        <g>
          <path d="M336,685.2c-37.4,0-112.6-17.9-99.5-115.2,63.5,103.6,143.2,115.2,99.5,115.2Z" fill="#fff"/>
          <path d="M485.6,685.2c37.4,0,112.6-17.9,99.5-115.2-63.5,103.6-143.2,115.2-99.5,115.2Z" fill="#fff"/>
        </g>
      </g>
    </g>
  </g>
  <path d="M410,51.1c48.5,0,95.5,9.5,139.7,28.2,42.7,18.1,81.1,44,114.1,76.9,33,33,58.9,71.4,76.9,114.1,18.7,44.2,28.2,91.2,28.2,139.7s-9.5,95.5-28.2,139.7c-18.1,42.7-44,81.1-76.9,114.1s-71.4,58.9-114.1,76.9c-44.2,18.7-91.2,28.2-139.7,28.2s-95.5-9.5-139.7-28.2c-42.7-18.1-81.1-44-114.1-76.9s-58.9-71.4-76.9-114.1c-18.7-44.2-28.2-91.2-28.2-139.7s9.5-95.5,28.2-139.7c18.1-42.7,44-81.1,76.9-114.1,33-33,71.4-58.9,114.1-76.9,44.2-18.7,91.2-28.2,139.7-28.2M410,10C189.1,10,10,189.1,10,410s179.1,400,400,400,400-179.1,400-400S630.9,10,410,10h0Z" fill="#dab952"/>
  <g>
    <path d="M221.2,365.8s-117.9-82.7-131.2-132.3c-13.3-49.7,47.4-180.2,47.4-180.2,0,0,117.9,82.7,131.2,132.3,13.3,49.7-47.4,180.2-47.4,180.2Z" fill="#663a3c"/>
    <path d="M600.3,365.8s117.9-82.7,131.2-132.3c13.3-49.7-47.4-180.2-47.4-180.2,0,0-117.9,82.7-131.2,132.3-13.3,49.7,47.4,180.2,47.4,180.2Z" fill="#663a3c"/>
  </g>
</svg>