<?xml version="1.0" encoding="UTF-8"?>
<svg id="_1-2" data-name="1-2" xmlns="http://www.w3.org/2000/svg" xmlns:xlink="http://www.w3.org/1999/xlink" viewBox="0 0 820 820">
  <defs>
    <clipPath id="clippath">
      <circle cx="409.4" cy="410.6" r="298" fill="none"/>
    </clipPath>
  </defs>
  <g clip-path="url(#clippath)">
    <g>
      <ellipse cx="410" cy="663.7" rx="275.4" ry="480.2" fill="#663a3c"/>
      <g>
        <circle cx="510" cy="407.5" r="14.4" fill="#fff"/>
        <circle cx="310" cy="407.5" r="14.4" fill="#fff"/>
      </g>
      <g>
        <path d="M517.1,573c0,59.2-48,51.5-107.2,51.5s-107.2,7.7-107.2-51.5,48-125.8,107.2-125.8,107.2,66.7,107.2,125.8Z" fill="#fff"/>
        <g>
          <ellipse cx="449.8" cy="560.8" rx="16.9" ry="25.9" fill="#663a3c"/>
          <ellipse cx="370.2" cy="560.8" rx="16.9" ry="25.9" fill="#663a3c"/>
        </g>
        <g>
          <path d="M351.9,624.5c-29.1,0-87.5-13.9-77.3-89.5,49.4,80.5,111.2,89.5,77.3,89.5Z" fill="#fff"/>
          <path d="M468.1,624.5c29.1,0,87.5-13.9,77.3-89.5-49.4,80.5-111.2,89.5-77.3,89.5Z" fill="#fff"/>
        </g>
      </g>
    </g>
  </g>
  <path d="M409.4,112.6c40.3,0,79.3,7.9,116,23.4,35.5,15,67.4,36.5,94.8,63.9,27.4,27.4,48.9,59.3,63.9,94.8,15.5,36.7,23.4,75.7,23.4,116s-7.9,79.3-23.4,116c-15,35.5-36.5,67.4-63.9,94.8-27.4,27.4-59.3,48.9-94.8,63.9-36.7,15.5-75.7,23.4-116,23.4s-79.3-7.9-116-23.4c-35.5-15-67.4-36.5-94.8-63.9-27.4-27.4-48.9-59.3-63.9-94.8-15.5-36.7-23.4-75.7-23.4-116s7.9-79.3,23.4-116c15-35.5,36.5-67.4,63.9-94.8,27.4-27.4,59.3-48.9,94.8-63.9,36.7-15.5,75.7-23.4,116-23.4M409.4,11.2C188.8,11.2,10,190,10,410.6s178.8,399.4,399.4,399.4,399.4-178.8,399.4-399.4S630,11.2,409.4,11.2h0Z" fill="#dab952"/>
  <circle cx="409.4" cy="410.6" r="298" fill="none"/>
  <circle cx="409.4" cy="410.6" r="399.4" fill="none"/>
  <g>
    <circle cx="409.4" cy="410.6" r="379.6" fill="none"/>
    <path d="M31,443.7c-.4-3.4.2-6.1,1.7-8.3s4.2-3.4,8-3.9l45.7-5.5c1.6,1.5,2.9,3.4,4,5.7,1,2.3,1.7,4.7,2,7.2.2,1.7.2,3.5,0,5.2-.3,1.7-.8,3.3-1.6,4.7-.8,1.4-1.9,2.6-3.2,3.5-1.4,1-3,1.5-5,1.8l-25.5,3.1c-.2-.8-.4-1.6-.8-2.4s-.8-1.6-1.2-2.4-1-1.3-1.5-1.8c-.5-.5-1-.7-1.5-.6-.3,0-.6.2-.8.4-.2.2-.3.4-.5.7,1.7,1.6,2.9,3.4,3.8,5.6.8,2.2,1.4,4.7,1.8,7.6l1.3,11.1c-.8.6-1.6,1.1-2.4,1.6-.8.5-1.7.9-2.6,1.3-.9.4-1.8.7-2.7,1-.9.3-1.7.4-2.5.5-1.1.1-2.3.2-3.5.2-1.2,0-2.3-.1-3.4-.3s-2.1-.4-3.1-.8c-1-.3-1.8-.7-2.5-1.2l-4.1-33.9Z" fill="#663a3c"/>
    <path d="M108.7,519.8c-.5.6-1.1,1.1-1.8,1.7-.7.5-1.4,1-2.2,1.5-.8.4-1.6.8-2.4,1.2-.8.4-1.6.6-2.3.8-3.1.9-5.6.9-7.4.1-1.8-.8-3.1-2.2-3.7-4.3l-5.1-18.2c-.3-1.1-.9-1.6-1.8-1.3,0,0-.2,0-.4.1-.2,0-.3.1-.3.2l6.1,21.6c-.4.4-.8.8-1.4,1.2-.6.4-1.1.8-1.8,1.2s-1.3.7-2,1c-.7.3-1.3.5-2,.7-1.8.5-3.5.8-5,.8s-2.9-.1-4-.5l-2.8-9.8c-.7-2.6-1.4-4.7-2-6.3-.6-1.6-1.2-2.9-1.6-3.8s-.9-1.5-1.3-1.8c-.4-.3-.7-.4-1-.4-.2,0-.5.2-.6.3-.2.1-.3.4-.4.7.5.7.9,1.4,1.3,2.1s.8,1.6,1.2,2.5c.4.9.8,2,1.2,3.2.4,1.2.8,2.5,1.3,4.1l3.6,12.7c-.4.5-.8.9-1.3,1.4-.5.5-1.1,1-1.8,1.5-.7.5-1.5.9-2.5,1.4-.9.4-2.1.9-3.4,1.2-.8.2-1.7.4-2.7.5-1,.1-1.9.2-2.9.2s-1.9,0-2.8-.2c-.9-.2-1.8-.4-2.5-.8l-9.5-33.9c-.5-1.8-.7-3.5-.7-5.2,0-1.7.3-3.2.9-4.6.6-1.4,1.5-2.6,2.7-3.7,1.2-1.1,2.8-1.9,4.8-2.4l43.1-12.1c1.4-.4,3,1,4.6,4.1s3.4,8.2,5.3,15.1l7.3,26.1Z" fill="#663a3c"/>
    <path d="M83.9,548.9c.7,1.4,1.1,2.8,1.4,4.2.3,1.4.4,2.7.2,4.1-.2,1.3-.6,2.6-1.3,3.9-.7,1.3-1.7,2.6-3,3.8.6.9,1.3,1.1,2.2.7.7-.3,1.4-.9,2.1-1.9.8-.9,1.4-2.1,1.8-3.6.4-1.5.6-3.2.5-5.2-.1-2-.8-4.2-1.9-6.6-.6-1.4-1.3-2.5-2-3.3-.7-.9-1.3-1.6-1.9-2.1,0-1.2.3-2.4.7-3.6s1-2.3,1.8-3.3c.8-1,1.7-2,2.7-2.8,1-.9,2.2-1.6,3.4-2.2,3.5-1.7,6.8-2.3,10-2,3.2.3,6.2,1.3,8.9,3,2.7,1.7,5.2,3.9,7.3,6.5,2.2,2.7,4,5.6,5.4,8.6,1.3,2.7,2.3,5.3,3,7.7.7,2.4,1.2,4.6,1.5,6.6.3,2,.4,3.9.3,5.5,0,1.6-.2,3.1-.5,4.3-.8.7-1.6,1.5-2.6,2.1-1,.7-2.1,1.3-3.2,1.8-.8.4-1.6.7-2.5.9-.9.3-1.8.5-2.7.6-.9.1-1.8.2-2.7,0-.9,0-1.7-.2-2.5-.5,0-.6.1-1.4,0-2.5,0-1.1-.2-2.2-.4-3.5-.2-1.3-.5-2.6-.9-4-.4-1.4-.9-2.8-1.5-4.1-.8-1.8-1.6-3-2.1-3.5-.6-.6-1.1-.7-1.7-.5-.3.1-.5.3-.7.5.4.5.8,1.1,1.2,1.7.4.7.7,1.3,1,1.9,1.2,2.4,2,5,2.5,7.6.5,2.6.5,5.2,0,7.7-.5,2.5-1.7,4.9-3.4,7.1-1.8,2.2-4.3,4.1-7.7,5.7-2.6,1.2-5.4,1.9-8.3,1.8-2.9,0-5.7-.7-8.6-2.1-2.8-1.4-5.5-3.4-8.1-6.1-2.6-2.7-4.9-6.2-6.9-10.5-1-2.2-1.9-4.3-2.7-6.2-.7-2-1.3-3.9-1.8-5.8s-.8-3.8-1-5.6c-.2-1.9-.2-3.8-.1-5.7.9-1.6,2-3,3.2-4.3s2.8-2.4,4.8-3.4c1.5-.7,3.1-1.1,4.7-1.2,1.6,0,3.1.2,4.6.8,1.5.6,2.8,1.4,4,2.6,1.2,1.1,2.3,2.6,3.1,4.3Z" fill="#663a3c"/>
    <path d="M139.4,595.4c.8-.7,2-.7,3.7-.3,1.6.5,3.5,1.3,5.6,2.7s4.3,3,6.6,5.1c2.3,2.1,4.5,4.4,6.6,7,2.9,3.6,5.1,7.2,6.5,10.9,1.4,3.6,2.1,7.2,2,10.6s-.9,6.6-2.4,9.7c-1.5,3.1-3.7,5.8-6.7,8.1-3.1,2.5-6.3,4.3-9.4,5.2-3.2.9-6.3,1.1-9.4.6s-6.1-1.8-9-3.7c-2.9-1.9-5.6-4.5-8.2-7.7-.7-.8-1.3-1.7-1.9-2.6-.6-.9-1.1-1.9-1.6-2.7-.5-.9-.8-1.7-1.2-2.4-.3-.7-.5-1.3-.6-1.6-.1,0-.3,0-.5,0-.2,0-.4.1-.6.3-.3.2-.4.5-.5,1,0,.4,0,1,.3,1.8.3.7.7,1.7,1.4,2.8.6,1.1,1.5,2.5,2.7,4.1l-5.6,4.5c-1-.2-2-.5-3-1-1-.5-2.1-1.1-3.1-1.8-1-.7-2-1.5-3-2.4-1-.9-1.8-1.9-2.6-2.8-1.1-1.4-2.1-2.8-2.8-4.4-.8-1.5-1.2-3-1.4-4.5-.2-1.5,0-2.9.4-4.3.5-1.4,1.4-2.6,2.7-3.7l34.7-28.2ZM138.9,629.6c0,.1,0,.3.2.4.1.2.2.3.2.3.5.6,1,.8,1.6.8.6,0,1.3-.4,2.1-1.1l2.8-2.3c.9-.7,1.4-1.3,1.6-1.8.2-.5.1-1.1-.4-1.6,0-.1-.2-.3-.4-.4-.2-.2-.3-.3-.4-.3-.2.2-.4.4-.6.5-.2.2-.5.4-.7.6l-6,4.9Z" fill="#663a3c"/>
    <path d="M161.6,700.2c-2-1.7-3.8-3.6-5.4-5.7-1.6-2.1-2.9-4.3-3.9-6.7s-1.7-4.8-2-7.4c-.3-2.6-.3-5.2.2-7.9s1.4-5.5,2.7-8.2c1.4-2.8,3.2-5.6,5.7-8.4,3.6-4.2,7.3-7.2,11.2-9.1,3.9-1.9,7.8-3,11.6-3.1s7.6.5,11.2,1.9c3.6,1.4,6.9,3.5,10,6.1,3.6,3.1,6.4,6.5,8.2,10.1,1.9,3.6,2.9,7.4,3.1,11.2.2,3.8-.5,7.7-1.9,11.6-1.5,3.9-3.8,7.6-6.8,11.2-3.6,4.2-7.4,7.4-11.2,9.4-3.8,2-7.6,3.1-11.4,3.3-3.8.2-7.4-.5-11-1.9-3.6-1.5-7-3.6-10.2-6.3ZM185.1,675.6c1-1.1,1.8-2.1,2.5-3,.7-.9,1.2-1.6,1.5-2.3.3-.6.4-1.1.4-1.4,0-.3-.2-.6-.5-.8-.3-.2-.5-.4-.7-.4-.2,0-.4,0-.6,0-.3.4-.7.9-.9,1.3-.3.4-.6.9-.9,1.4-.4.5-.8,1.1-1.3,1.7s-1.1,1.4-1.9,2.3l-2,2.3c-.8.9-1.4,1.6-1.9,2.2-.5.6-1,1.1-1.5,1.5s-.8.8-1.2,1.1c-.4.3-.7.7-1.1,1.1,0,.2,0,.3.2.5s.2.4.5.6c.3.2.6.3.9.3.3,0,.8-.2,1.3-.6.6-.4,1.3-1.1,2-1.8.8-.8,1.6-1.7,2.6-2.9l2.7-3.1Z" fill="#663a3c"/>
    <path d="M249.1,690.2c1.1-.2,2.1-.3,3.3-.2,1.1,0,2.3.2,3.4.5s2.3.6,3.4,1.1c1.1.4,2.2,1,3.1,1.5,1.5.9,2.9,1.9,4.2,3,1.3,1.1,2.3,2.4,3,3.7.7,1.3,1.1,2.8,1.1,4.3,0,1.5-.5,3.2-1.5,4.9l-22.3,38.5c-.7,1.2-1.6,2.1-2.7,2.6-1.1.5-2.3.7-3.6.6-1.3,0-2.7-.4-4.1-.9-1.4-.5-2.9-1.2-4.3-2-.9-.5-1.7-1.1-2.5-1.7-.8-.6-1.6-1.2-2.3-1.9-.7-.6-1.3-1.3-1.8-1.9-.5-.6-1-1.2-1.3-1.8-.3-2.2-.5-4.2-.7-6.1-.1-1.9-.2-3.8-.3-5.5,0-1.7,0-3.4,0-4.9s0-3,0-4.4c-.5-.2-.9-.2-1.2-.1-.3.1-.5.4-.7.7-.2.4-.4.9-.4,1.4,0,.5,0,1.2,0,1.9l.3,11.2-1.2,2.2c-.6,0-1.3,0-2.1,0-.8,0-1.8-.1-2.9-.3-1.1-.2-2.3-.6-3.6-1-1.3-.5-2.8-1.2-4.3-2.1-1.8-1-3.3-2.1-4.6-3.4-1.3-1.2-2.3-2.5-3-3.8-.7-1.3-1-2.7-1-4,0-1.4.4-2.7,1.2-4.1l23.6-40.8c.4-.7,1.1-1.1,2-1.4s2.1-.3,3.3-.2c1.3.2,2.7.5,4.2,1.1,1.5.5,3.1,1.3,4.7,2.2,1.8,1,3.3,2.2,4.6,3.5,1.3,1.3,2.1,2.5,2.5,3.6.2,1.1.3,2.4.4,3.8.1,1.5.2,3,.2,4.8,0,1.7.1,3.5.1,5.5s0,3.9,0,5.9c.3.2.6.2.9.2.4,0,.7-.2.9-.7.2-.3.3-.7.3-1.3,0-.5,0-1.1,0-1.6v-10.1s1.3-2.2,1.3-2.2Z" fill="#663a3c"/>
    <path d="M292.7,768.4c-1.6.6-3.7.9-6.2,1-2.5,0-5.4-.5-8.5-1.7-1.6-.6-3.2-1.4-4.6-2.3-1.4-.9-2.6-1.9-3.4-3.1-.9-1.1-1.5-2.4-1.8-3.8-.3-1.4-.2-2.8.4-4.3l10.4-28.4-10.3-3.8c-.5-2-.7-3.9-.7-5.7,0-1.8.5-3.6,1.1-5.4.5-1.4,1.1-2.5,1.7-3.6s1.3-1.9,2-2.6,1.4-1.3,2.1-1.8c.7-.5,1.4-.9,2.1-1.1l45.6,16.8c.4,1.6.5,3.4.4,5.5-.1,2.1-.5,4.1-1.2,6-.7,1.8-1.4,3.3-2.3,4.4-.9,1.1-1.9,2-2.9,2.5-1,.5-2.2.8-3.3.8-1.2,0-2.4-.2-3.6-.7l-12.9-4.7c-.2.2-.3.4-.4.6,0,.3-.1.5,0,.7,0,.2.2.4.6.7.3.3.8.5,1.5.8.6.3,1.5.6,2.6,1l3,1.1-11.4,31Z" fill="#663a3c"/>
    <path d="M331,755.4c1.5.3,2.9.7,4.2,1.3,1.3.6,2.4,1.3,3.4,2.2,1,.9,1.8,2,2.4,3.3.6,1.3,1.1,2.9,1.3,4.7,1.1,0,1.7-.4,1.8-1.3.1-.7,0-1.6-.3-2.8s-.9-2.4-1.9-3.6c-.9-1.2-2.3-2.4-4-3.4-1.7-1.1-3.9-1.8-6.5-2.3-1.5-.3-2.8-.4-3.9-.3-1.1,0-2,.1-2.8.3-1-.8-1.8-1.6-2.5-2.7-.7-1-1.2-2.2-1.6-3.4s-.6-2.5-.7-3.9,0-2.7.2-4.1c.7-3.8,2.1-6.9,4.2-9.3,2.1-2.4,4.7-4.2,7.6-5.5,3-1.2,6.1-1.9,9.6-2.1,3.4-.2,6.8,0,10.2.6,3,.6,5.7,1.2,8,2.1,2.4.8,4.5,1.7,6.3,2.7,1.8,1,3.3,1.9,4.6,3,1.3,1,2.4,2,3.2,3,.2,1,.2,2.2.2,3.4,0,1.2-.2,2.4-.4,3.7-.2.8-.4,1.7-.7,2.6-.3.9-.7,1.7-1.1,2.5-.4.8-.9,1.6-1.5,2.3-.6.7-1.2,1.3-1.9,1.7-.4-.4-1.1-.9-2-1.5-.9-.6-1.9-1.2-3-1.8-1.2-.6-2.4-1.1-3.8-1.6-1.4-.5-2.8-.9-4.2-1.2-1.9-.4-3.3-.5-4.1-.3-.8.1-1.3.5-1.4,1.1,0,.3,0,.6,0,.8.6,0,1.3,0,2.1,0,.8,0,1.5.2,2.1.3,2.7.5,5.2,1.3,7.6,2.4,2.4,1.1,4.5,2.7,6.3,4.5,1.7,1.9,3,4.2,3.8,6.9.8,2.7.8,5.9.2,9.5-.5,2.9-1.6,5.5-3.3,7.8-1.7,2.3-3.9,4.2-6.7,5.8s-6,2.5-9.7,3c-3.7.5-7.9.3-12.5-.5-2.4-.4-4.6-.9-6.6-1.5-2-.6-4-1.2-5.8-1.9-1.8-.7-3.5-1.6-5.1-2.5s-3.2-2-4.7-3.2c-.7-1.7-1.3-3.4-1.6-5.2s-.3-3.7,0-5.9c.3-1.7.9-3.2,1.8-4.5.9-1.3,2-2.4,3.3-3.3s2.8-1.5,4.4-1.8c1.7-.3,3.4-.3,5.3,0Z" fill="#663a3c"/>
    <path d="M382.1,772.2c-1.2-1.9-2.2-3.7-2.7-5.5-.6-1.8-.8-3.8-.7-6.1,0-1.2.2-2.3.4-3.3.2-1,.5-1.9.8-2.9.4-.9.8-1.8,1.3-2.7.5-.9,1.1-1.8,1.8-2.8l25.1,1c.6,1,1.2,2,1.6,2.9.4.9.8,1.9,1.1,2.8.3.9.5,1.9.6,2.9.1,1,.2,2.1.1,3.3,0,2.3-.5,4.3-1.2,6-.7,1.7-1.8,3.5-3.2,5.3l-25.1-1Z" fill="#663a3c"/>
    <path d="M432.6,789.9c-3.4.4-6.1-.3-8.2-1.8-2.1-1.6-3.4-4.3-3.8-8.1l-4.5-42.1c-.1-1.2.4-2.5,1.7-3.6,1.2-1.2,2.9-2.2,5-3.2,2.1-1,4.5-1.8,7.2-2.5,2.7-.7,5.5-1.2,8.3-1.5,5-.5,9.5-.4,13.8.4,4.2.8,8,2.3,11.2,4.5,3.2,2.2,5.9,5.3,7.9,9,2.1,3.8,3.4,8.4,4,14,.5,4.8.2,9.2-1,13.1-1.2,3.9-3.1,7.3-5.8,10.2s-6,5.2-10.1,7c-4,1.8-8.7,2.9-13.9,3.5l-11.8,1.3ZM446.6,755.8c-.2-1.5-.3-2.8-.5-3.8-.2-1.1-.4-2-.6-2.7-.2-.6-.5-1.1-.8-1.2-.3-.2-.6-.3-.9-.2-.3,0-.6.1-.8.2-.2.1-.3.2-.4.4,0,.6.2,1.1.3,1.6.1.5.2,1,.3,1.6.1.6.2,1.3.3,2.1.1.8.2,1.8.4,2.9l.3,3c.1,1.2.2,2.1.3,2.9,0,.8,0,1.5.1,2.1,0,.6,0,1.2,0,1.7,0,.5,0,1,0,1.6.1,0,.3.2.5.3.2,0,.5.1.8,0,.3,0,.6-.2.9-.4.2-.2.4-.7.5-1.4,0-.7,0-1.6,0-2.7,0-1.1-.2-2.4-.3-3.9l-.4-4.1Z" fill="#663a3c"/>
    <path d="M519.2,711.1c.6.5,1.1,1.1,1.7,1.8.5.7,1,1.4,1.5,2.2.4.8.8,1.6,1.2,2.3.4.8.6,1.6.8,2.3.9,3.1.9,5.6.1,7.4-.8,1.8-2.2,3.1-4.3,3.7l-18.2,5.2c-1.1.3-1.6.9-1.3,1.8,0,0,0,.2.1.4,0,.2.1.3.2.3l21.6-6.1c.4.4.8.8,1.2,1.4.4.5.8,1.1,1.2,1.8.4.6.7,1.3,1,2,.3.7.5,1.3.7,2,.5,1.8.8,3.5.8,5s-.1,2.9-.4,4l-9.8,2.8c-2.6.7-4.7,1.4-6.3,2s-2.9,1.2-3.8,1.6c-.9.5-1.5.9-1.8,1.3-.3.4-.4.7-.4,1,0,.2.2.5.3.6s.4.3.7.4c.7-.5,1.4-.9,2.1-1.3.7-.4,1.6-.8,2.5-1.2.9-.4,2-.8,3.2-1.2s2.5-.8,4.1-1.3l12.7-3.6c.5.4,1,.8,1.5,1.3.5.5,1,1.1,1.5,1.8.5.7.9,1.5,1.4,2.5.4.9.9,2.1,1.2,3.4.2.8.4,1.7.6,2.7.1,1,.2,1.9.2,2.9,0,1,0,1.9-.2,2.8-.2.9-.4,1.8-.8,2.5l-33.9,9.6c-1.8.5-3.5.8-5.2.8-1.7,0-3.2-.3-4.6-.9s-2.6-1.5-3.7-2.7-1.9-2.8-2.4-4.8l-12.2-43c-.4-1.4,1-3,4.1-4.6,3.2-1.6,8.2-3.4,15.1-5.3l26.1-7.4Z" fill="#663a3c"/>
    <path d="M542.7,747.9c-1.9-1.1-3.6-2.4-4.8-3.8s-2.4-3.1-3.3-5.2c-.5-1.1-.8-2.1-1.1-3.1-.3-1-.4-2-.5-2.9s0-2,0-3c0-1,.2-2.1.4-3.3l23-10c1,.6,1.9,1.3,2.7,1.9.8.6,1.5,1.3,2.2,2,.7.7,1.3,1.5,1.8,2.3.6.9,1.1,1.8,1.6,2.9.9,2.1,1.4,4.1,1.5,6,.1,1.9,0,3.9-.6,6.1l-23,10Z" fill="#663a3c"/>
    <path d="M611.7,717.7c.8-.8,1.5-1.9,2.2-3.2.7-1.4,1-3.1,1.1-5.2,0-1-.2-1.7-.5-2.2-.4-.7-1-.8-1.7-.4,0,0,0,0-.1.1,0,0,0,0-.1.1.6,5.1-1.1,8.9-5.2,11.6-1,.7-2.1,1.2-3.1,1.5-1,.4-2.1.5-3.1.6-1.1,0-2.2-.1-3.4-.5-1.2-.3-2.5-.9-3.9-1.7l-.2.2c-.3.2-.5.4-.6.7s0,.6.1.9c.3.4.8.8,1.4,1.1,1.2.6,2.3,1,3.5,1.2s2.2.4,3.2.4c1,0,1.9,0,2.8-.3s1.6-.5,2.1-.8l4.5,7.7c-.4.9-.9,1.8-1.4,2.6-.5.9-1.2,1.7-2,2.6-.8.9-1.7,1.7-2.9,2.6-1.1.9-2.4,1.9-4,2.9-1.5,1-3.1,1.8-4.9,2.5s-3.6,1.2-5.4,1.4c-1.8.2-3.4,0-5-.4-1.6-.5-2.8-1.5-3.8-3.1-.5-.8-1.2-2-2-3.4s-1.7-3.1-2.8-5c-1-1.9-2.1-3.9-3.2-6.1-1.2-2.2-2.3-4.4-3.5-6.7-1.2-2.3-2.3-4.5-3.4-6.7-1.1-2.2-2.2-4.3-3.1-6.2-.9-1.9-1.8-3.6-2.5-5.2-.7-1.5-1.3-2.7-1.7-3.6.3-1.2.8-2.3,1.5-3.4.7-1.1,1.4-2.1,2.3-3.1.9-1,1.8-1.9,2.8-2.7,1-.8,2-1.5,3-2.2,1.8-1.2,3.7-2.1,5.7-2.8,2-.7,3.7-1.1,5.3-1.2l6.9,5.9,2.4,6.7c0,.2.2.5.3.7,0,.2.2.4.3.6.6.9,1.4,1,2.5.4l-6.3-18c.3-.5.7-1.1,1.2-1.9.5-.7,1.2-1.5,1.9-2.2.7-.8,1.5-1.5,2.5-2.3.9-.8,1.9-1.5,3-2.2,1.9-1.2,3.6-2.1,5.2-2.7,1.6-.6,3.1-.9,4.5-.8s2.7.4,4,1.2c1.2.7,2.5,1.8,3.7,3.3,1.3,1.5,2.8,3.4,4.6,5.6s3.7,4.5,5.7,6.9c2,2.4,4,4.9,6,7.4,2,2.5,3.9,4.9,5.6,7.1,1.7,2.2,3.3,4.2,4.6,5.9,1.3,1.7,2.3,3,2.8,3.9-.9,5-4.2,9.2-9.7,12.8-1.7,1.1-3.4,2-5.1,2.6-1.6.6-3.2,1-4.6,1.1-1.4,0-2.7-.1-3.9-.6s-2.2-1.3-3.1-2.4l-2.8-3.5Z" fill="#663a3c"/>
    <path d="M619.1,657.3c.3-1.4.8-2.9,1.5-4.4.7-1.5,1.4-3,2.4-4.5.9-1.5,2-3,3.1-4.4s2.4-2.8,3.7-4.1c1.8-1.7,3.7-3.2,5.7-4.6s4.1-2.4,6.2-3.1c2.1-.7,4.1-1,6.2-.9,2,0,4,.7,5.8,1.8l38.5,24.4c.2,2.3-.1,4.8-1.2,7.5-1,2.7-3,5.4-5.9,8.2-1.3,1.2-2.6,2.3-3.9,3.1s-2.6,1.5-3.9,1.8c-1.3.4-2.5.5-3.7.4-1.2-.1-2.3-.6-3.3-1.3l-4.7-3.4c.7-.7,1.3-1.5,1.8-2.3.5-.8,1-1.6,1.3-2.3.3-.7.6-1.4.6-2s0-1-.3-1.3c-.3-.4-.8-.5-1.3-.5-.1.7-.3,1.4-.7,2.2s-.7,1.5-1.1,2.2c-.4.7-.9,1.4-1.4,2.1-.5.7-1,1.2-1.6,1.7-1,.9-1.9,1.7-2.8,2.3-.9.6-1.7,1.1-2.4,1.5-.7.4-1.4.6-2,.8-.6.2-1.2.3-1.6.4,0,.2,0,.4.1.6,0,.2.2.4.4.6.3.3.8.5,1.4.4.6,0,1.3-.3,2.1-.6.8-.4,1.6-.8,2.5-1.4.9-.6,1.8-1.3,2.6-2,1.7,1.4,3,2.6,4.1,3.3,1.1.8,1.8,1.2,2.2,1.3.2.6.2,1.4,0,2.4-.2,1-.5,2.1-1,3.4-.5,1.2-1.2,2.5-2.1,3.9-.9,1.3-2,2.6-3.3,3.9-1.6,1.5-3.3,2.8-5.1,3.8s-3.5,1.7-5.2,2.1c-1.7.4-3.3.4-4.8.1-1.5-.3-2.8-1-3.9-2.1-.2-.2-.5-.5-.7-.8-.2-.3-.4-.6-.6-.9l-23.9-39.1ZM651.9,659.4c-1.6-1.1-2.8-2-3.7-2.7-.9-.7-1.7-1.1-2.2-1.4s-1-.4-1.3-.4c-.3,0-.6.2-.8.4-.2.2-.3.3-.4.5s-.2.3-.2.5l7.9,5.6c.2,0,.4,0,.6-.2s.4-.2.5-.4c.2-.2.4-.4.5-.6.1-.2.2-.4.3-.5l-1.1-.8Z" fill="#663a3c"/>
    <path d="M724.6,597.7c3.6,3.2,5.8,6.6,6.5,10.2.7,3.6-.2,7.2-2.9,10.9-.9,1.2-1.9,2.3-3,3.3-1.1,1-2.5,1.8-4,2.4-1.5.6-3.3,1-5.3,1.1-2,0-4.2-.2-6.7-.9l-4.7-1.3c-.7,1-1.4,1.7-1.9,2.3-.5.5-1,1-1.4,1.5,0,.1,0,.3.2.4,0,.2.2.3.5.5.3.2.7.2,1.2,0,.5-.3,1.2-1,2.2-2.2l7.1,1.8,3.3,2.3c0,2.2-.4,4.4-1.3,6.7-.9,2.3-2.1,4.6-3.6,6.8-1.1,1.6-2.3,2.9-3.6,4-1.3,1.1-2.6,1.9-3.9,2.4-1.4.5-2.7.7-4.1.5-1.4-.2-2.7-.7-4.1-1.7l-36.4-26c-.6-.4-1-1.1-1.1-2.1-.2-1-.1-2.2,0-3.6.2-1.4.6-2.9,1.2-4.6.6-1.7,1.3-3.4,2.1-5.2.8-1.8,1.7-3.6,2.8-5.4,1-1.8,2.2-3.6,3.3-5.2,2.6-3.7,5.4-6.8,8.4-9.3,3-2.5,6-4.2,9.1-5.3,3.1-1,6.3-1.3,9.4-.9,3.2.5,6.3,1.8,9.3,4,1.8,1.3,3.2,2.7,4.3,4.3,1.1,1.6,1.9,3.3,2.4,5.1s.8,3.5.7,5.4c0,1.8-.4,3.6-.9,5.3.5.3.9.4,1.2.3.4-.1.7-.4.9-.7.3-.4.5-1,.8-1.9.3-.9.4-2,.3-3.4l11.5-1.8ZM690.3,613c.1,0,.2-.1.4-.3.1-.2.2-.3.3-.3.4-.6.6-1.2.4-1.7s-.7-1.1-1.6-1.7l-1.4-1c-.9-.6-1.6-1-2.2-1.1-.6,0-1.1.2-1.5.8,0,.1-.2.3-.3.5-.1.2-.2.4-.2.5.2.1.4.3.7.4s.5.3.7.5l4.7,3.4Z" fill="#663a3c"/>
    <path d="M754.5,560.9c.5,1.6.6,3.7.4,6.3s-1,5.3-2.5,8.3c-.8,1.6-1.7,3-2.7,4.3-1,1.3-2.2,2.4-3.4,3.1-1.2.8-2.5,1.3-3.9,1.4-1.4.2-2.8-.1-4.2-.8l-27.3-13.1-4.7,9.9c-2.1.3-4,.4-5.8.1-1.8-.3-3.5-.8-5.2-1.6-1.3-.6-2.4-1.3-3.4-2s-1.8-1.5-2.4-2.3c-.7-.8-1.2-1.5-1.6-2.3s-.7-1.5-.9-2.2l21.1-43.8c1.6-.2,3.4-.2,5.5.2,2.1.3,4,.9,5.9,1.8,1.7.8,3.1,1.7,4.1,2.7s1.8,2,2.2,3.1.6,2.2.5,3.4c-.1,1.2-.4,2.3-1,3.5l-6,12.4c.2.2.4.3.6.4.3.1.5.2.7.1.2,0,.5-.2.7-.5.3-.3.6-.8.9-1.4.3-.6.8-1.4,1.3-2.5l1.4-2.9,29.8,14.3Z" fill="#663a3c"/>
    <path d="M722.2,477.5c.7-.2,1.6-.4,2.4-.5.9-.1,1.7-.1,2.6-.1.9,0,1.8.1,2.6.2.9.1,1.7.3,2.4.5,3.1.9,5.2,2.2,6.4,3.8,1.2,1.6,1.4,3.5.8,5.6l-5.3,18.2c-.3,1.1,0,1.8.8,2.1,0,0,.2,0,.4.1s.3,0,.4,0l6.3-21.6c.5-.1,1.1-.2,1.8-.3.7,0,1.4,0,2.1,0s1.5,0,2.2.2c.7.1,1.4.2,2.1.4,1.8.5,3.4,1.2,4.7,2,1.3.8,2.4,1.6,3.1,2.5l-2.9,9.8c-.7,2.6-1.3,4.7-1.6,6.4s-.6,3.1-.6,4.1c0,1,0,1.8.1,2.2.1.5.3.7.6.8.2,0,.5,0,.7,0s.5-.1.7-.4c0-.8,0-1.7,0-2.5s.2-1.7.3-2.7c.2-1,.4-2.1.7-3.3.3-1.2.7-2.6,1.1-4.2l3.7-12.7c.6-.2,1.2-.4,1.9-.5s1.4-.3,2.3-.3c.8,0,1.8,0,2.8.1s2.2.4,3.5.8c.8.2,1.7.6,2.5.9s1.7.8,2.6,1.3c.8.5,1.6,1.1,2.3,1.7.7.6,1.3,1.3,1.7,2l-9.9,33.8c-.5,1.8-1.2,3.4-2.1,4.8s-2,2.5-3.2,3.4c-1.3.9-2.7,1.4-4.3,1.7s-3.4,0-5.3-.5l-42.9-12.5c-1.4-.4-2-2.4-1.7-5.9.3-3.5,1.5-8.7,3.5-15.6l7.6-26Z" fill="#663a3c"/>
    <path d="M784.6,469.9c-.4,3.4-1.6,5.9-3.7,7.6-2,1.7-4.9,2.3-8.7,1.9l-45.6-5.6c-1.2-1.8-2-4-2.5-6.5s-.5-5-.2-7.5c.2-1.7.7-3.4,1.3-5,.7-1.6,1.6-3,2.7-4.2,1.1-1.2,2.4-2.1,4-2.7,1.6-.6,3.3-.8,5.3-.5l25.5,3.1c0,.8,0,1.6.2,2.6s.3,1.8.6,2.6c.3.8.6,1.5,1,2.1.4.6.8.9,1.3.9.3,0,.6,0,.8-.2s.4-.3.6-.6c-1.2-1.9-2-4-2.3-6.3-.3-2.3-.2-4.9.1-7.9l1.4-11.1c.9-.4,1.8-.7,2.7-.9.9-.3,1.9-.5,2.8-.6,1-.2,1.9-.2,2.8-.3.9,0,1.8,0,2.5,0,1.1.1,2.3.4,3.4.7,1.1.3,2.2.7,3.2,1.1,1,.4,2,.9,2.8,1.5.8.5,1.6,1.1,2.1,1.8l-4.2,33.9Z" fill="#663a3c"/>
  </g>
  <g>
    <circle cx="409.4" cy="410.6" r="310.8" fill="none"/>
    <path d="M269.9,128.8c-.6,1.6-1.8,3.3-3.5,5.2-1.7,1.9-4,3.6-7,5.1-1.6.8-3.2,1.4-4.8,1.8s-3.2.5-4.6.4c-1.5-.1-2.8-.5-4-1.3-1.2-.7-2.2-1.8-2.9-3.2l-21.7-42.6c-1.3-2.6,4.3-7.1,16.9-13.5l24.6-12.5c.7.5,1.4,1,2.1,1.7.7.7,1.4,1.4,2.1,2.2s1.2,1.6,1.8,2.4c.6.8,1,1.6,1.4,2.4,1.6,3.1,2.1,5.9,1.6,8.2s-2.2,4.2-5.2,5.7l-14.5,7.4c-.6.3-.9.6-1,1-.1.4,0,.8.1,1.2,0,0,0,.2.2.3,0,.2.2.2.2.3l18.5-9.4c1.1.7,2.2,1.7,3.4,2.9,1.2,1.2,2.1,2.6,2.9,4.2,1.1,2.2,1.8,4.2,2,6,.2,1.7.2,3.1,0,4.2l-20.5,10.4c-.1.3,0,.6,0,.9.1.3.3.4.6.4.2,0,.6,0,1.1-.2.5-.2,1.1-.4,1.8-.8.7-.4,1.7-.8,2.8-1.4l5.4,10.6Z" fill="#663a3c"/>
    <path d="M320.5,49.1c.6.5,1.2,1.1,1.7,1.7.6.7,1.1,1.4,1.6,2.1.5.8.9,1.5,1.3,2.3.4.8.7,1.5.9,2.3,1,3.1,1.1,5.6.4,7.4-.7,1.9-2.1,3.1-4.2,3.8l-18.1,5.7c-1.1.3-1.5,1-1.3,1.8,0,0,0,.2.1.4,0,.2.1.3.2.3l21.4-6.7c.4.4.8.8,1.3,1.4.4.5.8,1.1,1.2,1.7s.7,1.3,1.1,1.9c.3.7.6,1.3.8,1.9.6,1.8.9,3.5,1,5,0,1.5,0,2.9-.3,4l-9.7,3.1c-2.5.8-4.6,1.5-6.2,2.2s-2.9,1.2-3.8,1.7c-.9.5-1.5,1-1.8,1.3-.3.4-.4.7-.3,1,0,.2.2.5.3.6.1.2.4.3.7.4.7-.5,1.4-.9,2.1-1.3.7-.4,1.5-.8,2.5-1.2.9-.4,2-.8,3.1-1.3,1.2-.4,2.5-.9,4.1-1.4l12.6-4c.5.4,1,.8,1.5,1.3.5.5,1,1.1,1.5,1.7.5.7,1,1.5,1.5,2.4.5.9.9,2,1.3,3.3.3.8.5,1.7.6,2.6.2,1,.3,1.9.3,2.9,0,1,0,1.9-.1,2.9-.1.9-.4,1.8-.7,2.5l-33.6,10.6c-1.8.6-3.5.9-5.1.9s-3.2-.2-4.6-.8c-1.4-.6-2.7-1.4-3.8-2.6-1.1-1.2-1.9-2.7-2.6-4.7l-13.4-42.7c-.5-1.4.9-3,4-4.7,3.1-1.7,8.1-3.6,14.9-5.8l25.9-8.1ZM299.8,53.4c-.4-.6-.8-1.1-1.1-1.6-.3-.4-.5-.8-.8-1.1-.2-.3-.4-.6-.6-.8-.2-.2-.3-.5-.4-.7-.6.2-1,.4-1.2.7-.2.3-.2.7,0,1.3.1.3.3.8.7,1.3.4.5.7,1.1,1,1.5l-4,1.3c-1,.3-1.9.6-2.9,1-1,.3-1.9.7-2.8,1-.9.3-1.7.6-2.4.9-.7.3-1.2.5-1.6.7l.2-15.5c.4-.5,1-.9,1.7-1.4.7-.5,1.4-1,2.2-1.4s1.6-.9,2.5-1.3c.9-.4,1.7-.7,2.5-1,2.1-.7,4.1-1.1,5.9-1.3,1.8-.2,3.3-.2,4.4,0l9.2,12.3-12.5,3.9Z" fill="#663a3c"/>
    <path d="M380.9,97.2c-1.1,1.3-2.8,2.5-5,3.8-2.2,1.2-5,2-8.3,2.5-1.7.2-3.4.3-5.1.1-1.7-.2-3.2-.5-4.5-1.1-1.3-.6-2.4-1.4-3.3-2.5s-1.4-2.4-1.6-4l-4-30-10.9,1.5c-1.4-1.6-2.5-3.1-3.2-4.8-.8-1.6-1.3-3.4-1.5-5.3-.2-1.4-.2-2.7-.1-3.9,0-1.2.3-2.3.6-3.3.3-1,.6-1.8,1.1-2.6.4-.8.9-1.4,1.3-2l48.2-6.5c1,1.2,2,2.8,2.9,4.7.9,1.9,1.4,3.9,1.7,5.9.3,1.9.2,3.5,0,5-.3,1.4-.7,2.6-1.4,3.6-.7,1-1.5,1.7-2.6,2.3-1,.5-2.2.9-3.5,1.1l-13.7,1.8c0,.3,0,.5,0,.7,0,.3.1.5.3.7.1.2.4.3.8.3.4,0,1,0,1.7,0s1.6-.1,2.8-.3l3.2-.4,4.4,32.8Z" fill="#663a3c"/>
    <path d="M445.4,40.1c.4.7.7,1.4,1.1,2.2.3.8.6,1.7.8,2.5.2.9.3,1.7.4,2.6,0,.9.1,1.7.1,2.4-.1,3.2-.8,5.6-2.1,7.1-1.3,1.5-3.1,2.3-5.2,2.2l-18.9-.6c-1.2,0-1.8.4-1.8,1.3,0,0,0,.2,0,.4,0,.2,0,.3,0,.4l22.5.7c.3.5.5,1,.7,1.7.2.7.4,1.3.6,2,.1.7.3,1.4.4,2.2,0,.7.1,1.4,0,2.1,0,1.9-.3,3.6-.7,5-.4,1.5-1,2.7-1.6,3.6l-10.2-.3c-2.7,0-4.9,0-6.6,0-1.7,0-3.1.2-4.1.4-1,.2-1.7.4-2.1.7-.4.3-.6.5-.6.8,0,.3,0,.5,0,.7,0,.2.2.4.5.6.8-.2,1.6-.4,2.4-.6.8-.2,1.7-.3,2.7-.4,1,0,2.1-.1,3.4-.1,1.2,0,2.7,0,4.3,0l13.2.4c.3.5.7,1.1,1,1.7.3.6.6,1.3.8,2.1s.4,1.7.6,2.8c.1,1,.2,2.2.1,3.6,0,.8-.1,1.7-.3,2.7-.2,1-.4,1.9-.7,2.8s-.6,1.8-1.1,2.6c-.4.8-.9,1.6-1.5,2.2l-35.2-1.2c-1.8,0-3.6-.3-5.1-.9-1.6-.5-3-1.3-4.1-2.3-1.2-1-2.1-2.2-2.7-3.7-.6-1.5-.9-3.2-.9-5.3l1.5-44.7c0-1.5,1.8-2.5,5.3-3.1,3.5-.6,8.8-.7,16-.5l27.1.9Z" fill="#663a3c"/>
    <path d="M482.3,50.8c1.9-1.6,4.2-2.7,6.8-3.1s5.4-.2,8.5.7c2.4.7,4.3,1.5,5.9,2.6,1.5,1,2.8,2.1,3.7,3.3s1.6,2.5,2,3.8c.4,1.3.6,2.7.6,4l-9.7,28.3c.3.2.6.3.9.4.5.1.9,0,1.3-.1s.7-.8,1-1.6l11.5-32.3c.6-.3,1.5-.5,2.5-.6,1,0,2.1-.1,3.3,0,1.2,0,2.3.2,3.5.3,1.2.2,2.2.4,3.2.7,2.4.7,4.3,1.6,5.9,2.7s2.7,2.3,3.6,3.6c.8,1.3,1.3,2.8,1.4,4.2.1,1.5,0,3-.5,4.5-.5,1.8-2.4,5.7-5.7,11.6-3.3,5.9-7.9,14-14,24.2-1.1,1.9-2.5,3.3-4.1,4.3-1.6,1-3.3,1.6-5.3,1.9-1.9.3-4,.3-6.2,0-2.2-.3-4.5-.8-6.8-1.4-1.6-.5-3.1-1-4.6-1.6-1.5-.6-2.9-1.3-4.2-2.1-1.3-.7-2.5-1.6-3.5-2.4-1.1-.9-1.9-1.8-2.6-2.7-.4-2.8-.7-6.1-.9-10-.2-3.9-.2-8.1-.1-12.8.1-4.6.4-9.5.8-14.6.4-5.1,1-10.4,1.9-15.7Z" fill="#663a3c"/>
    <path d="M544.7,130c-2.5-.1-5.3-.9-8.3-2.3-1.6-.7-3.1-1.6-4.4-2.6-1.3-1-2.4-2.1-3.2-3.3-.8-1.2-1.3-2.5-1.5-3.9-.2-1.4,0-2.8.7-4.2l20-44.3c1.6-.5,3.7-.7,6.2-.5,2.5.1,5.3.9,8.3,2.3,1.6.7,3.1,1.6,4.4,2.6s2.4,2.1,3.2,3.3c.8,1.2,1.3,2.5,1.5,3.9.2,1.4,0,2.8-.7,4.2l-20,44.3c-1.6.5-3.7.7-6.2.5Z" fill="#663a3c"/>
    <path d="M586.7,101.6c-.7,0-1.4,0-2.1-.3-.7-.2-1.5-.6-2.4-1.1-1.1-.6-2-1.4-2.7-2.3s-1.3-2-1.7-3.1c-.3-1.1-.4-2.4-.3-3.6.1-1.3.6-2.5,1.3-3.8.9-1.6,2-2.8,3.2-3.7,1.2-.9,2.5-1.5,3.9-1.8,1.4-.3,2.8-.3,4.3,0s2.9.8,4.3,1.6c1.8,1,3.2,2.3,4.2,3.7s1.7,3,2,4.7c.3,1.7.3,3.4,0,5.2-.4,1.8-1.1,3.6-2,5.3-1.3,2.4-2.9,4.2-4.6,5.6-1.7,1.4-3.5,2.3-5.3,2.8-1.8.5-3.6.7-5.4.4-1.8-.2-3.5-.8-5-1.7-1-.6-1.9-1.2-2.6-1.9-.7-.7-1.3-1.5-1.6-2.3-.4-.8-.5-1.6-.5-2.5,0-.9.3-1.7.8-2.6.3-.5.7-1.1,1.2-1.5s1-.8,1.5-1c.3.5.7,1.2,1.3,1.9.6.8,1.6,1.5,2.9,2.3,1.3.7,2.4,1.2,3.4,1.4,1,.2,1.7,0,2-.6.1-.2.2-.5.2-.7,0-.2,0-.4,0-.5Z" fill="#663a3c"/>
  </g>
  <g>
    <path d="M262.7,376.2s-91.6-64.2-101.9-102.8c-10.3-38.6,36.9-140,36.9-140,0,0,91.6,64.2,101.9,102.8,10.3,38.6-36.9,140-36.9,140Z" fill="#663a3c"/>
    <path d="M557.3,376.2s91.6-64.2,101.9-102.8c10.3-38.6-36.9-140-36.9-140,0,0-91.6,64.2-101.9,102.8-10.3,38.6,36.9,140,36.9,140Z" fill="#663a3c"/>
  </g>
</svg>